<svg xmlns="http://www.w3.org/2000/svg" xmlns:xlink="http://www.w3.org/1999/xlink" width="582.231" height="420.506" viewBox="0 0 582.231 420.506">
  <defs>
    <clipPath id="clip-path">
      <path id="Path_2932" data-name="Path 2932" d="M799.428,287.219c0,88.773-70.477,160.766-157.383,160.766S484.7,375.993,484.7,287.219,544.619,45,631.525,45c64.493,0,206.82,1.6,234.111,81.454C875.127,154.254,799.428,264.325,799.428,287.219Z" transform="translate(-484.7 -45)"/>
    </clipPath>
  </defs>
  <g id="about-us" transform="translate(-195.062)">
    <path id="Path_2922" data-name="Path 2922" d="M198.126,311.061C172.588,452.28,311.37,564.532,440.814,462.248c226.45-178.91,114.349-108.358,235.941-87.489s132.493-187.437,34.877-184.75-127.614,85.7-229.614,9.228S219.433,193.4,198.126,311.061Z" transform="translate(0 -102.209)" fill="#8d8b8b" opacity="0.1"/>
    <ellipse id="Ellipse_600" data-name="Ellipse 600" cx="157.383" cy="160.766" rx="157.383" ry="160.766" transform="translate(305.424 98.975)" fill="#e2e2e2"/>
    <ellipse id="Ellipse_601" data-name="Ellipse 601" cx="23.48" cy="23.984" rx="23.48" ry="23.984" transform="translate(264.677 176.807)" fill="#c2341c"/>
    <ellipse id="Ellipse_602" data-name="Ellipse 602" cx="12.426" cy="12.693" rx="12.426" ry="12.693" transform="translate(290.406 132.265)" fill="#630c0c"/>
    <ellipse id="Ellipse_603" data-name="Ellipse 603" cx="4.117" cy="4.205" rx="4.117" ry="4.205" transform="translate(323.605 178.404)" fill="#c2341c"/>
    <g id="Group_1169" data-name="Group 1169" transform="translate(305.462 17.521)" clip-path="url(#clip-path)">
      <path id="Path_2923" data-name="Path 2923" d="M664.809,159.905s-3.964-32.589,6.022-47.463c13.036-19.351,50.009-24.763,67.657-14.095,19.516,11.8,35.067,42.245,28.244,68.916,29.007,8.527,35.944,42.206,15.552,50.85l17.457,38.2c10.863,23.751-.229,52.135-25.157,64.4L729.95,342.67s-82.37,13.238-98.684-25.736,15.628-67.4,15.628-67.4-26.072-29.591-13.646-58.443C645.712,162.241,664.809,159.905,664.809,159.905Z" transform="translate(-572.529 -74.286)" fill="#2f2e41"/>
      <path id="Path_2924" data-name="Path 2924" d="M746.143,341.363S821,353.472,841.282,352.577c15.895.9,42.081-87.995,44.368-93.446,12.693-8.138,15.856-19.273,15.666-25.425s-16.39-11.33-17.953-8.215c2.668-8.138,3.278-10.707,4-13.511,1.525-5.8-2.821-10.2-9.034,11.642-6.137,21.531-5.527,17.988-7.013,25.581-10.025,19.663-35.868,65.529-37.621,72.459-33.5-.818-90.26-14.134-90.26-14.134ZM596.231,320.61s-35.486,68.021-42.385,87.021c-6.861,14.134,64.417,79.234,68.419,83.945,2.478,15.457,9.034,20.792,14.6,23.556,5.565,2.726,16.352-9.617,14.179-12.5,6.289,6.308,8.348,8.06,10.558,10.084,4.612,4.127,10.215,2.258-6.975-13.783-16.962-15.847-13.989-13.589-20.24-18.572-13.8-18.495-45.054-63.894-50.581-68.8,13.455-30.253,47-75.925,47-75.925Z" transform="translate(-527.202 -144.076)" fill="#ffe3ca"/>
      <path id="Path_2925" data-name="Path 2925" d="M879.1,936.133,899.8,844.4l35.258,21.57s2.859,26.4,6.518,60.623a189.04,189.04,0,0,1-62.473,9.539" transform="translate(-728.769 -533.148)" fill="#2f2e41"/>
      <path id="Path_2926" data-name="Path 2926" d="M831.662,968.776c5.641-34.809,10.139-62.842,10.139-62.842s-96.473-13.705-96.816,13.238c-.114,8.254.838,24.14,3.087,42.284C798.806,978.12,831.662,968.776,831.662,968.776Z" transform="translate(-645.768 -568.594)" fill="#33324b"/>
      <path id="Path_2927" data-name="Path 2927" d="M500.6,1878.3" transform="translate(-494.539 -1164.491)" fill="#2d24a3"/>
      <path id="Path_2928" data-name="Path 2928" d="M816.992,469.846c-2.859,6.775,18.83,100.843,22.451,122.531,0,0-.457-.078-1.334-.234-9.415-1.441-67.009-9.189-113.549,10.629L720.29,469.885l-.191-4.945s0-5.023.457-12.693v-.078c1.067-15.808,4.269-42.479,14.217-59.611,5.146-8.877,11.969-15.224,21.307-16.158,28.93-2.92,28.778,9.189,55.65,15.964l43.605,11.058s-4.879,34.536,0,44.815H825.073C825.073,448.2,819.813,462.993,816.992,469.846Z" transform="translate(-630.374 -247.094)"/>
      <path id="Path_2929" data-name="Path 2929" d="M858.791,149.4s26.529,40.649,12.617,60.506C861,224.78,843.545,232.567,843.545,232.567v21.415a9.811,9.811,0,0,1-5.756,2.1C831.424,256.434,814.5,246,814.5,246V161.665Z" transform="translate(-688.792 -108.751)" fill="#ffe3ca"/>
      <path id="Path_2930" data-name="Path 2930" d="M649.729,500s40.022-47.385,33.657-70.2-36.63-14.99-53.554,11.291S606.2,476.368,606.2,476.368,623.619,500.431,649.729,500Z" transform="translate(-559.888 -271.761)"/>
      <path id="Path_2931" data-name="Path 2931" d="M774.777,139.5s2.058,42.323-17.915,52.563-4.879,35.47-23.9,54.315c-5.641,5.568-14.027,4.633-20.469,2.687-9.224-2.8-19.782-.779-26.224,6.035a16.149,16.149,0,0,0-1.639,2.064c-24.7-16.665,37.888-109.293,37.888-109.293Z" transform="translate(-604.854 -102.706)" fill="#2f2e41"/>
      <g id="Component_77" data-name="Component 77" transform="translate(125.828 183.318) rotate(-2)">
        <g id="Group_683" data-name="Group 683" transform="translate(8.379 14.92)">
          <path id="Path_2413" data-name="Path 2413" d="M.006,1.975,0,.884C0,.322.508,0,1.127,0c.592,0,1.055.286,1.057.8V.988l-.562,0V.85c0-.241-.193-.4-.494-.4-.318,0-.5.165-.5.437l0,1.064c0,.311.2.459.511.46.287,0,.483-.146.482-.383V1.879l.562,0v.186c0,.52-.458.8-1.046.8C.528,2.862.009,2.593.006,1.975Z" transform="translate(-0.002 -0.003)" fill="#fff"/>
          <path id="Path_2414" data-name="Path 2414" d="M.911,0l.758,0L2.58,2.779l-.627,0-.207-.665-.967,0-.2.663-.575,0Zm.7,1.687L1.266.543H1.253L.909,1.687Z" transform="translate(2.397 0.047)" fill="#fff"/>
          <path id="Path_2415" data-name="Path 2415" d="M.829.449,0,.447,0,0,2.273.007l0,.447-.823,0,.009,2.322-.622,0L.829.449Z" transform="translate(4.9 0.057)" fill="#fff"/>
          <path id="Path_2416" data-name="Path 2416" d="M0,0,.893,0c.583,0,.894.313.9.779a.719.719,0,0,1-.7.771l.805,1.222H1.6L.833,1.586l-.57,0,0,1.184H.011ZM.828,1.4c.47,0,.7-.2.7-.608,0-.349-.2-.6-.677-.6l-.6,0,0,1.212Z" transform="translate(8.398 0.067)" fill="#c2341c"/>
          <path id="Path_2417" data-name="Path 2417" d="M0,1.351,0,.737A.7.7,0,0,1,.774,0a.649.649,0,0,1,.721.689v.373l-1.245,0v.3c0,.349.2.513.581.514a1.15,1.15,0,0,0,.548-.146l.088.148A1.14,1.14,0,0,1,.8,2.059C.329,2.058.006,1.844,0,1.351ZM1.265.9V.667A.463.463,0,0,0,.748.172a.469.469,0,0,0-.5.5V.9L1.265.9Z" transform="translate(10.695 0.832)" fill="#c2341c"/>
          <path id="Path_2418" data-name="Path 2418" d="M.009,2.392,0,0H.244L.253,2.365c0,.136.07.229.266.23a1.542,1.542,0,0,0,.2-.015v.175a.856.856,0,0,1-.27.038A.385.385,0,0,1,.009,2.392Z" transform="translate(12.745 0.08)" fill="#c2341c"/>
          <path id="Path_2419" data-name="Path 2419" d="M0,1.354,0,.706A.679.679,0,0,1,.757,0a.677.677,0,0,1,.764.7l0,.645a.671.671,0,0,1-.755.712A.678.678,0,0,1,0,1.354ZM1.28,1.346l0-.66A.473.473,0,0,0,.753.176.466.466,0,0,0,.246.7l0,.645a.47.47,0,0,0,.529.53C1.16,1.878,1.281,1.642,1.28,1.346Z" transform="translate(13.832 0.841)" fill="#c2341c"/>
          <path id="Path_2420" data-name="Path 2420" d="M0,1.494C0,1.04.432.882.785.879h.453V.519c0-.249-.184-.354-.459-.354C.538.164.29.264.291.49V.61H.074V.485C.073.163.4,0,.808,0c.375,0,.675.153.677.5l0,1.006c0,.144.019.4.024.5H1.285l-.018-.326H1.258a.7.7,0,0,1-.651.367A.554.554,0,0,1,0,1.494ZM1.239,1.37V1.036H.829c-.261,0-.575.076-.573.429a.4.4,0,0,0,.424.421A.53.53,0,0,0,1.239,1.37Z" transform="translate(15.809 0.847)" fill="#c2341c"/>
          <path id="Path_2421" data-name="Path 2421" d="M.007,2.259l0-.893A.6.6,0,0,1,.654.758a.615.615,0,0,1,.585.351h0L1.239,0h.248L1.5,2.772H1.28L1.27,2.4H1.257a.692.692,0,0,1-.643.414A.548.548,0,0,1,.007,2.259Zm1.244-.252,0-.486a.6.6,0,0,0-.555-.6.4.4,0,0,0-.447.445l0,.858c0,.245.128.408.437.409A.583.583,0,0,0,1.251,2.007Z" transform="translate(17.842 0.096)" fill="#c2341c"/>
          <path id="Path_2422" data-name="Path 2422" d="M0,1.351,0,.737A.7.7,0,0,1,.774,0a.649.649,0,0,1,.721.689v.373l-1.245,0v.3c0,.349.2.513.581.514a1.15,1.15,0,0,0,.548-.146l.088.148A1.14,1.14,0,0,1,.8,2.059C.329,2.058.006,1.844,0,1.351ZM1.265.9V.667A.463.463,0,0,0,.748.172a.469.469,0,0,0-.5.5V.9L1.265.9Z" transform="translate(19.911 0.858)" fill="#c2341c"/>
          <path id="Path_2423" data-name="Path 2423" d="M.007,2.259l0-.893A.6.6,0,0,1,.654.758a.615.615,0,0,1,.585.351h0L1.239,0h.248L1.5,2.772H1.28L1.27,2.4H1.257a.692.692,0,0,1-.643.414A.548.548,0,0,1,.007,2.259Zm1.244-.252,0-.486a.6.6,0,0,0-.555-.6.4.4,0,0,0-.446.445l0,.858c0,.245.128.408.437.409A.583.583,0,0,0,1.251,2.007Z" transform="translate(21.875 0.107)" fill="#c2341c"/>
        </g>
        <g id="layer1" transform="translate(0.02 0.014)">
          <path id="path3003-4" d="M6.237.014A5.8,5.8,0,0,0,1.986,2.361,8.1,8.1,0,0,0,.02,7.926a8.352,8.352,0,0,0,6.222,8.109l-.005-1.328c-3.183-.74-4.911-4.21-4.912-6.963A7.351,7.351,0,0,1,3.034,3.227,5.471,5.471,0,0,1,6.257,1.284Zm1.414,1.76a5.258,5.258,0,0,0-1.87.317A5.9,5.9,0,0,0,2.446,5.415a7.145,7.145,0,0,0,.729,6.4,5.449,5.449,0,0,0,6.386,1.968,9.977,9.977,0,0,0,1.162-.577l-.63-1.116a8.45,8.45,0,0,1-1.031.517C5.192,13.832,1.95,9.668,3.6,6A4.771,4.771,0,0,1,6.169,3.372,4.27,4.27,0,0,1,10,3.91,5.112,5.112,0,0,1,11.92,9.538a1.155,1.155,0,0,1-.973.773c0-.456-.018-1.127-.016-1.674a6.165,6.165,0,0,0-.213-1.828,3.143,3.143,0,0,0-3.094-2.34,2.759,2.759,0,0,0-2.6,1.458,3.766,3.766,0,0,0,.836,5.1,3.228,3.228,0,0,0,2.4.549,3.4,3.4,0,0,0,.752-.23c.213-.1.495-.231.393-.237L9.4,9.695a6.7,6.7,0,0,1-.837.46,2.236,2.236,0,0,1-.51.162A2.064,2.064,0,0,1,6.47,9.873C4.875,8.772,5.5,5.8,7.614,5.712A1.991,1.991,0,0,1,9.462,7.235a4.887,4.887,0,0,1,.175,1.437c-.007.913,0,2.186,0,2.186l.02.747h.5s.3.012.661,0a3.314,3.314,0,0,0,.586-.085,1.532,1.532,0,0,0,.652-.329,2.881,2.881,0,0,0,.833-1.13,5.805,5.805,0,0,0,.321-2.595,6.22,6.22,0,0,0-2.529-4.688,5.712,5.712,0,0,0-3.03-1.007Z" transform="translate(-0.02 -0.014)" fill="#c2341c"/>
          <path id="path4227-4" d="M13.184.03A1.518,1.518,0,0,0,11.8,1.068c-.663,1.647-.836,2.021-1.518,3.8-.457,1.191-.712,1.773-1.3,3.264-.178.453-1.058,2.657-1.058,2.657l2.21.017c.529-1.348.578-1.45.75-1.93.442-.974.7-1.764,1.184-2.924.381-.919.579-1.454.738-1.837.177-.426.187-.618.4-.627.15-.006.307.526.713,1.482.24.565.674,1.639.83,2.019.147.359.238.665.355.879a3.922,3.922,0,0,1,.256.58c.028.1-.38.04-.894.043-.976.006-2.381-.01-2.381-.01L11.166,10.8c2.687.057,4.661-.064,7.331.034-1.215-3.045-3.493-8.6-3.6-8.889s-.266-.632-.335-.821A1.5,1.5,0,0,0,13.184.03ZM2.561.174A3.076,3.076,0,0,0,1.625.4C.878.779.253,1.522.034,4.269A14.54,14.54,0,0,0,.377,8.756c.323,1.033,1.1,1.987,1.762,2l5.051.015.859-2.329s-3.465.034-5.12.024c-.984-.006-.8-2.511-.844-3.981,0,0,.075-1.969.655-1.955,1.834.045,7.4.006,7.4.006l1.027-2.3-8.6-.07ZM15.147.244c.005.06,1.013,2.329.983,2.335,1.087.01,2.224-.042,3.423.01l.03,8.219,2.027.014L21.582,2.57l3.535,0C25.132,1.466,25.1.9,25.108.284,21.7.261,18.742.257,15.147.244Z" transform="translate(14.906 2.652)" fill="#fff"/>
        </g>
      </g>
    </g>
    <path id="Path_2933" data-name="Path 2933" d="M1098.584,285.71a88.384,88.384,0,0,0-13.684,47.424c0,48.241,38.307,87.372,85.533,87.372s85.533-39.13,85.533-87.372-38.307-87.372-85.533-87.372a84,84,0,0,0-54.812,20.324l-29.007-7.826Zm100.4-261.726c0,13.238-10.52,30.331-23.48,30.331s-23.48-17.093-23.48-30.331a23.485,23.485,0,1,1,46.96,0Z" transform="translate(-550.663)" fill="#c2341c"/>
    <path id="Path_2934" data-name="Path 2934" d="M1312.638,105.847c-2.4,0-4.65-1.713-6.632-5.1h0c-1.41-2.414-.343-9.695.8-17.4.3-2.025.572-4.01.839-5.8-1.677-5.334-1.3-8.8-.572-9.812a.781.781,0,0,1,.991-.35c.686.35,1.067,1.83,1.067,4.205a51.768,51.768,0,0,1-.457,5.762c.114.389.267.779.419,1.207,1.372,3.738,2.744,2.92,3.2,2.609,1.105-.662,2.172-2.531,2.973-4.672-.3-4.828.038-8.293.572-9.306.267-.545.61-.584.762-.584.534.039.8.779.877,1.012.686,1.869.076,5.8-1.182,9.15a73.48,73.48,0,0,0,4.879,21.531l.153.35-.191.311c-.152.273-3.7,6.7-8.385,6.775C1312.714,105.847,1312.676,105.847,1312.638,105.847ZM1308.331,79.6q-.286,1.927-.572,3.971c-.991,6.775-2.135,14.406-.991,16.353,1.83,3.076,3.812,4.633,5.908,4.594,3.621-.078,6.632-4.672,7.395-5.918a75.232,75.232,0,0,1-4.688-19.779,8.46,8.46,0,0,1-2.744,3.543C1311.724,82.992,1309.894,83.381,1308.331,79.6Zm-.61-10.9c-.267.506-.61,2.57.19,6.113.115-1.207.191-2.3.191-3.193A7.87,7.87,0,0,0,1307.721,68.7Zm8.8-.467a22.751,22.751,0,0,0-.419,5.529c.61-2.258.839-4.439.419-5.529Z" transform="translate(-687.074 -40.669)" fill="#fff"/>
    <path id="Path_2935" data-name="Path 2935" d="M1306.634,148.138h0a9.1,9.1,0,0,1-9.033-8.449l-.8-9.189,2.4.934a20.532,20.532,0,0,0,15.208-.117l2.02-.818-.8,9.189A9.091,9.091,0,0,1,1306.634,148.138Z" transform="translate(-681.794 -79.689)" fill="#0b4870"/>
    <g id="Group_1170" data-name="Group 1170" transform="translate(697.042 51.617)">
      <path id="Path_2936" data-name="Path 2936" d="M1536.905,150.765c-2.745,6.658-11.587,13-18.105,10.2s-8.271-13.666-5.527-20.363a12.752,12.752,0,0,1,16.809-7.008A13.178,13.178,0,0,1,1536.905,150.765Z" transform="translate(-1512.025 -132.57)" fill="#630c0c"/>
      <path id="Path_2937" data-name="Path 2937" d="M1521.059,187.808c-1.22-.506-1.982-1.869-2.287-4.01h0c-.229-1.518,1.83-4.945,4-8.566.572-.934,1.105-1.869,1.6-2.726.267-3.037,1.182-4.711,1.753-5.062a.4.4,0,0,1,.572.039c.267.311.153,1.168-.343,2.336a22.591,22.591,0,0,1-1.449,2.8c0,.234-.038.467-.038.7-.076,2.18.762,2.064,1.067,2.025a5.662,5.662,0,0,0,2.478-1.713,13.611,13.611,0,0,1,2.211-4.555.452.452,0,0,1,.5-.117c.267.156.229.545.229.7-.038,1.09-1.182,2.92-2.516,4.361a38.542,38.542,0,0,0-1.982,11.875v.195l-.153.117c-.114.117-3.24,2.57-5.6,1.6Zm3.278-14.134c-.343.623-.724,1.246-1.105,1.869-1.906,3.193-4.04,6.814-3.888,8.021.267,1.947.953,3.154,2.02,3.582,1.829.74,4.307-.934,4.955-1.4a40.2,40.2,0,0,1,1.753-10.98,4.714,4.714,0,0,1-2.1,1.207C1525.328,176.088,1524.337,175.894,1524.337,173.674Zm1.944-5.646a6.047,6.047,0,0,0-1.143,3.115c.305-.584.572-1.129.763-1.557A3.71,3.71,0,0,0,1526.28,168.029Zm4.536,1.674a12.254,12.254,0,0,0-1.334,2.687,5.485,5.485,0,0,0,1.334-2.687Z" transform="translate(-1516.189 -153.805)" fill="#fff"/>
      <path id="Path_2938" data-name="Path 2938" d="M1517.153,206.48h0a5.11,5.11,0,0,1-2.821-6.191l1.525-4.789,1.029.973a11.344,11.344,0,0,0,7.661,3.232l1.182.039-2.287,4.439A4.874,4.874,0,0,1,1517.153,206.48Z" transform="translate(-1513.313 -170.998)" fill="#0b4870"/>
    </g>
    <g id="Group_1171" data-name="Group 1171" transform="translate(611.501 99.015)">
      <path id="Path_2939" data-name="Path 2939" d="M1306.66,263.179c.457,5.373-3.164,12.693-8.424,13.16s-10.139-6.035-10.6-11.408a9.552,9.552,0,1,1,19.02-1.752Z" transform="translate(-1287.603 -254.303)" fill="#630c0c"/>
      <path id="Path_2940" data-name="Path 2940" d="M1311.049,297c-.991.078-1.944-.506-2.859-1.83h0c-.648-.934-.5-3.932-.3-7.086.038-.818.076-1.635.114-2.375-.877-2.1-.838-3.5-.572-3.932.114-.156.229-.234.381-.195.3.117.5.7.572,1.674.038.623.038,1.441,0,2.375l.229.467c.686,1.48,1.22,1.09,1.372.934a3.812,3.812,0,0,0,1.029-1.986,10.6,10.6,0,0,1-.114-3.777c.076-.234.229-.273.3-.273.229,0,.343.273.381.389a6.841,6.841,0,0,1-.153,3.777,28.845,28.845,0,0,0,2.745,8.527l.076.156-.076.156c-.038.117-1.258,2.842-3.164,3.076C1311.087,297,1311.087,297,1311.049,297Zm-2.668-10.474c-.038.506-.076,1.09-.076,1.635-.152,2.764-.343,5.918.191,6.658.839,1.168,1.715,1.752,2.554,1.635,1.448-.156,2.516-2.141,2.782-2.687a32.972,32.972,0,0,1-2.63-7.865,3.732,3.732,0,0,1-.991,1.557C1309.867,287.775,1309.143,288.008,1308.381,286.529Zm-.648-4.4a4.24,4.24,0,0,0,.3,2.453A12.807,12.807,0,0,0,1308,283.3,2.983,2.983,0,0,0,1307.733,282.129Zm3.583-.506a8.947,8.947,0,0,0,.038,2.258,4.768,4.768,0,0,0-.038-2.258Z" transform="translate(-1299.768 -270.605)" fill="#fff"/>
      <path id="Path_2941" data-name="Path 2941" d="M1309.312,313.754h0a3.7,3.7,0,0,1-3.964-3.076l-.648-3.7.991.273a8.5,8.5,0,0,0,6.175-.623l.8-.428v3.738A3.727,3.727,0,0,1,1309.312,313.754Z" transform="translate(-1298.183 -285.994)" fill="#0b4870"/>
    </g>
  </g>
</svg>
