<svg id="Android" xmlns="http://www.w3.org/2000/svg" xmlns:xlink="http://www.w3.org/1999/xlink" width="280" height="226.942" viewBox="0 0 280 226.942">
  <defs>
    <clipPath id="clip-path">
      <rect id="Rectangle_18" data-name="Rectangle 18" width="280" height="226.942" fill="#fff" stroke="#707070" stroke-width="1"/>
    </clipPath>
  </defs>
  <g id="Mask_Group_14" data-name="Mask Group 14" clip-path="url(#clip-path)">
    <g id="undraw_android_jr64_1_" data-name="undraw_android_jr64 (1)" transform="translate(4.797 0)">
      <path id="Path_1740" data-name="Path 1740" d="M32.936,247.669c4.279,20.843,13.337,38.859,27.652,47.593,29.749,18.149,96.841,8.789,146.915-1.966,25.3-5.416,48.269-20.379,65.2-42.48Z" transform="translate(-30.013 -126.891)" fill="#f0f0f0"/>
      <path id="Path_1741" data-name="Path 1741" d="M303.2,46.627H275.727a2.73,2.73,0,0,1,0-5.413h4.75a2.73,2.73,0,0,1,0-5.413h-3.391a2.73,2.73,0,0,1,0-5.413h14.34a34.423,34.423,0,0,0-11.185-3.514c-39.1-5.725-53.061-1.938-57.985,1.966a51.647,51.647,0,0,1-20.1,10.039c-24.125,5.671-69.241,12.5-110.134-2.185-20.324-7.3-35.43,5.034-44.483,25.64h260.43a54.1,54.1,0,0,0-3.226-16.36A2.2,2.2,0,0,1,303.2,46.627Z" transform="translate(-37.699 -23.95)" fill="#f0f0f0"/>
      <path id="Path_1742" data-name="Path 1742" d="M27.356,167.1a156.987,156.987,0,0,0,1.065,36.362l241.217,10.053a132.171,132.171,0,0,0,16.76-29.129Zm95.4,25.941h-4.75a2.73,2.73,0,0,1,0,5.413H90.537a2.73,2.73,0,0,1,0-5.413h4.75a2.73,2.73,0,0,1,0-5.413H91.9a2.73,2.73,0,0,1,0-5.413h27.474a2.73,2.73,0,0,1,0,5.413h3.391a2.73,2.73,0,0,1,0,5.413Z" transform="translate(-26.765 -89.818)" fill="#f0f0f0"/>
      <path id="Path_1743" data-name="Path 1743" d="M297.75,95.394,34.4,102.7a134.062,134.062,0,0,0-6.3,30.992H293.136a143.741,143.741,0,0,0,3.828-19.756A106.549,106.549,0,0,0,297.75,95.394ZM81.562,119.315h-4.75a2.73,2.73,0,0,1,0,5.413H49.338a2.73,2.73,0,0,1,0-5.413h4.75a2.73,2.73,0,0,1,0-5.413H50.7a2.73,2.73,0,0,1,0-5.413H78.17a2.73,2.73,0,0,1,0,5.413h3.391a2.73,2.73,0,0,1,0,5.413Z" transform="translate(-27.466 -56.824)" fill="#f0f0f0"/>
      <g id="Group_593" data-name="Group 593" transform="translate(165.351 113.447)" opacity="0.2">
        <path id="Path_1744" data-name="Path 1744" d="M379.308,305.686s6.951-19.522,19.93-26.764a30.088,30.088,0,0,0,12.72-14.059,58.3,58.3,0,0,0,3.187-9.129" transform="translate(-377.66 -244.049)" fill="none" stroke="#535461" stroke-width="1.041"/>
        <path id="Path_1745" data-name="Path 1745" d="M462.9,241.154c-1.353,1.938-8.355,4.775-8.355,4.775s.843-8.427,2.2-10.351a3.609,3.609,0,0,1,5.386-.512,4.931,4.931,0,0,1,.776,6.1Z" transform="translate(-417.255 -234.089)" fill="#4c4d59"/>
        <path id="Path_1746" data-name="Path 1746" d="M456.788,268.239c-2.061.789-9.287-1.174-9.287-1.174s4.72-6.539,6.78-7.329a3.882,3.882,0,0,1,4.749,2.913A4.708,4.708,0,0,1,456.788,268.239Z" transform="translate(-413.55 -245.821)" fill="#4c4d59"/>
        <path id="Path_1747" data-name="Path 1747" d="M431.272,301.691c-2.127-.5-7.5-6.357-7.5-6.357s6.97-2.93,9.1-2.427a4.568,4.568,0,0,1,2.8,5.244,4.022,4.022,0,0,1-4.4,3.537Z" transform="translate(-401.062 -261.127)" fill="#4c4d59"/>
        <path id="Path_1748" data-name="Path 1748" d="M403.808,322.336c-2.171-.087-8.333-4.82-8.333-4.82s6.438-4.222,8.609-4.143a3.875,3.875,0,0,1,3.564,2.3,5.035,5.035,0,0,1-.144,4.663A3.793,3.793,0,0,1,403.808,322.336Z" transform="translate(-386.168 -270.569)" fill="#4c4d59"/>
        <path id="Path_1749" data-name="Path 1749" d="M433.287,259.207c.279,2.458,4.984,9.008,4.984,9.008s3.1-7.7,2.822-10.154a4.035,4.035,0,0,0-4.374-3.593A4.378,4.378,0,0,0,433.287,259.207Z" transform="translate(-406.065 -243.449)" fill="#4c4d59"/>
        <path id="Path_1750" data-name="Path 1750" d="M402.037,282.283c.909,2.247,7.121,6.9,7.121,6.9s.937-8.4.027-10.649a4.067,4.067,0,0,0-3.235-2.851,3.78,3.78,0,0,0-3.714,1.951,5.033,5.033,0,0,0-.2,4.655Z" transform="translate(-389.372 -253.213)" fill="#4c4d59"/>
        <path id="Path_1751" data-name="Path 1751" d="M375.9,311.426c.562,2.393,6,8.169,6,8.169s2.169-8.1,1.6-10.492a3.878,3.878,0,0,0-4.754-2.892,4.555,4.555,0,0,0-2.847,5.215Z" transform="translate(-375.829 -267.204)" fill="#4c4d59"/>
        <path id="Path_1752" data-name="Path 1752" d="M462.9,241.154c-1.353,1.938-8.355,4.775-8.355,4.775s.843-8.427,2.2-10.351a3.609,3.609,0,0,1,5.386-.512,4.931,4.931,0,0,1,.776,6.1Z" transform="translate(-417.255 -234.089)" fill="#4c4d59" opacity="0.25"/>
        <path id="Path_1753" data-name="Path 1753" d="M456.788,268.239c-2.061.789-9.287-1.174-9.287-1.174s4.72-6.539,6.78-7.329a3.882,3.882,0,0,1,4.749,2.913A4.708,4.708,0,0,1,456.788,268.239Z" transform="translate(-413.55 -245.821)" fill="#4c4d59" opacity="0.25"/>
        <path id="Path_1754" data-name="Path 1754" d="M431.272,301.691c-2.127-.5-7.5-6.357-7.5-6.357s6.97-2.93,9.1-2.427a4.568,4.568,0,0,1,2.8,5.244,4.022,4.022,0,0,1-4.4,3.537Z" transform="translate(-401.062 -261.127)" fill="#4c4d59" opacity="0.25"/>
        <path id="Path_1755" data-name="Path 1755" d="M403.808,322.336c-2.171-.087-8.333-4.82-8.333-4.82s6.438-4.222,8.609-4.143a3.875,3.875,0,0,1,3.564,2.3,5.035,5.035,0,0,1-.144,4.663A3.793,3.793,0,0,1,403.808,322.336Z" transform="translate(-386.168 -270.569)" fill="#4c4d59" opacity="0.25"/>
        <path id="Path_1756" data-name="Path 1756" d="M433.287,259.207c.279,2.458,4.984,9.008,4.984,9.008s3.1-7.7,2.822-10.154a4.035,4.035,0,0,0-4.374-3.593A4.378,4.378,0,0,0,433.287,259.207Z" transform="translate(-406.065 -243.449)" fill="#4c4d59" opacity="0.25"/>
        <path id="Path_1757" data-name="Path 1757" d="M402.037,282.283c.909,2.247,7.121,6.9,7.121,6.9s.937-8.4.027-10.649a4.067,4.067,0,0,0-3.235-2.851,3.78,3.78,0,0,0-3.714,1.951,5.033,5.033,0,0,0-.2,4.655Z" transform="translate(-389.372 -253.213)" fill="#4c4d59" opacity="0.25"/>
        <path id="Path_1758" data-name="Path 1758" d="M375.9,311.426c.562,2.393,6,8.169,6,8.169s2.169-8.1,1.6-10.492a3.878,3.878,0,0,0-4.754-2.892,4.555,4.555,0,0,0-2.847,5.215Z" transform="translate(-375.829 -267.204)" fill="#4c4d59" opacity="0.25"/>
      </g>
      <g id="Group_594" data-name="Group 594" transform="translate(154.988 72.17)" opacity="0.2">
        <path id="Path_1759" data-name="Path 1759" d="M368.9,243.678s.877-21.045,11.015-32.784a33.78,33.78,0,0,0,7.887-18.076,61.119,61.119,0,0,0,.352-9.809" transform="translate(-361.82 -169.309)" fill="none" stroke="#535461" stroke-width="1.041"/>
        <path id="Path_1760" data-name="Path 1760" d="M414.557,163.892c-.712,2.34-6.495,7.657-6.495,7.657s-1.651-8.256-.939-10.6a4.216,4.216,0,0,1,2.973-3.219,3.684,3.684,0,0,1,3.875,1.532,5,5,0,0,1,.586,4.626Z" transform="translate(-381.842 -157.632)" fill="#4c4d59"/>
        <path id="Path_1761" data-name="Path 1761" d="M417.519,190.722c-1.725,1.522-9.1,2.4-9.1,2.4s2.551-7.955,4.264-9.477a3.58,3.58,0,0,1,4.022-.842,4.439,4.439,0,0,1,2.515,3.675,4.761,4.761,0,0,1-1.7,4.241Z" transform="translate(-382.615 -169.081)" fill="#4c4d59"/>
        <path id="Path_1762" data-name="Path 1762" d="M402.919,230.921c-2.154.329-8.922-3.163-8.922-3.163s5.726-5.4,7.887-5.727a3.7,3.7,0,0,1,3.846,1.586,5.008,5.008,0,0,1,.543,4.62,4,4,0,0,1-3.344,2.684Z" transform="translate(-375.027 -187.224)" fill="#4c4d59"/>
        <path id="Path_1763" data-name="Path 1763" d="M384.385,259.535c-2.075.739-9.265-1.4-9.265-1.4s4.841-6.424,6.916-7.163a3.9,3.9,0,0,1,4.7,3.025,4.684,4.684,0,0,1-2.35,5.537Z" transform="translate(-365.092 -200.52)" fill="#4c4d59"/>
        <path id="Path_1764" data-name="Path 1764" d="M391.294,191.981c.986,2.213,7.325,6.615,7.325,6.615s.683-8.427-.293-10.646a3.7,3.7,0,0,0-5.176-1.745A4.787,4.787,0,0,0,391.294,191.981Z" transform="translate(-373.438 -170.559)" fill="#4c4d59"/>
        <path id="Path_1765" data-name="Path 1765" d="M369.782,224.453c1.513,1.778,8.725,3.815,8.725,3.815s-1.56-8.278-3.074-10.056a3.6,3.6,0,0,0-5.4.1,4.959,4.959,0,0,0-.253,6.146Z" transform="translate(-361.785 -184.969)" fill="#4c4d59"/>
        <path id="Path_1766" data-name="Path 1766" d="M354.48,260.3c1.232,2.045,8.035,5.441,8.035,5.441s-.311-8.461-1.538-10.506a3.625,3.625,0,0,0-5.306-.907,4.891,4.891,0,0,0-1.188,5.963Z" transform="translate(-353.951 -201.765)" fill="#4c4d59"/>
      </g>
      <path id="Path_1767" data-name="Path 1767" d="M182.729,417.9c9.691,3.714,21.515,1.455,32.51,1.716a9.971,9.971,0,0,1,4.306.784,10.32,10.32,0,0,1,2.63,2.57c3.081,3.312,9.393,4.376,14.912,3.815s10.579-2.421,15.774-3.837c9-2.449,19.291-3.562,28.169-.893a6.514,6.514,0,0,0,2.546.43c1.947-.219,2.526-1.994,3.887-3.008,2.465-1.831,7.8-1.334,8.873-3.747.633-1.4-.823-2.865-2.408-3.831-6.068-3.7-14.749-4.306-22.69-3.736s-15.75,2.143-23.733,2.149c-9.945,0-19.555-2.413-29.4-3.4-6.822-.685-14.268-.6-20.664,1.4C190.522,410.51,188.994,415.408,182.729,417.9Z" transform="translate(-108.849 -199.985)" fill="#f0f0f0"/>
      <rect id="Rectangle_967" data-name="Rectangle 967" width="1.725" height="27.809" transform="translate(90.09 51.944)" fill="#535461"/>
      <rect id="Rectangle_968" data-name="Rectangle 968" width="1.725" height="15.73" transform="translate(90.09 89.303)" fill="#535461"/>
      <rect id="Rectangle_969" data-name="Rectangle 969" width="77.639" height="192.134" rx="24.507" transform="translate(91.323 24.696)" fill="#535461"/>
      <rect id="Rectangle_970" data-name="Rectangle 970" width="77.639" height="175" rx="24.507" transform="translate(91.323 33.685)" fill="#c2341c"/>
      <rect id="Rectangle_971" data-name="Rectangle 971" width="12.817" height="1.966" rx="0.983" transform="translate(123.857 28.91)" fill="#eaeaf3"/>
      <ellipse id="Ellipse_413" data-name="Ellipse 413" cx="1.232" cy="1.404" rx="1.232" ry="1.404" transform="translate(139.878 28.629)" fill="#eaeaf3"/>
      <path id="Path_1768" data-name="Path 1768" d="M249.042,204.023v20.506A5.224,5.224,0,0,1,247.807,228a4.011,4.011,0,0,1-3.036,1.434,4.939,4.939,0,0,1-4.683-4.9V204.023a4.925,4.925,0,0,1,4.683-4.868C247.126,199.166,249.033,201.339,249.042,204.023Zm1.678,27.792a5.621,5.621,0,0,0,1.343,3.708,4.321,4.321,0,0,0,3.253,1.531h3.091l.047,10.817c0,6.531,8.575,6.48,8.575,0V237.057h5.777v10.817c0,6.5,8.626,6.514,8.626,0V237.057h3.138c2.531-.009,4.575-2.355,4.567-5.239v-31.77H250.721Zm38.521-33.475h-38.7a20.239,20.239,0,0,1,9.879-17.6l-2.958-6.25c-.434-.868.668-1.4,1.04-.671l3.014,6.3a18.643,18.643,0,0,1,16.822,0l3-6.284c.389-.761,1.479-.194,1.04.671l-2.958,6.23A20.325,20.325,0,0,1,289.242,198.341Zm-26.515-9.831a1.858,1.858,0,1,0,0,.006Zm17.615,0a1.621,1.621,0,1,0-1.585,1.86,1.754,1.754,0,0,0,1.585-1.854Zm14.724,10.64a4.011,4.011,0,0,0-3.024,1.422,5.22,5.22,0,0,0-1.247,3.446v20.506c-.01,2.7,1.9,4.9,4.271,4.9a4.926,4.926,0,0,0,4.683-4.9V204.017a4.9,4.9,0,0,0-4.683-4.862Z" transform="translate(-139.037 -92.754)" fill="#fff"/>
      <rect id="Rectangle_972" data-name="Rectangle 972" width="16.021" height="0.843" transform="translate(111.903 159.966)" fill="#535461"/>
      <rect id="Rectangle_973" data-name="Rectangle 973" width="10.598" height="0.843" transform="translate(133.839 159.966)" fill="#535461"/>
      <rect id="Rectangle_974" data-name="Rectangle 974" width="10.598" height="0.843" transform="translate(97.854 159.966)" fill="#535461"/>
      <rect id="Rectangle_975" data-name="Rectangle 975" width="10.598" height="0.843" transform="translate(150.599 159.966)" fill="#535461"/>
    </g>
  </g>
  <g id="Group_1099" data-name="Group 1099" transform="translate(35.789 29.639)">
    <path id="Path_2529" data-name="Path 2529" d="M933.459,518.1s-1.77,51.953-4.792,58.6c-2.517,5.538-3.986,23.6-4.406,29.475-.084,1.179-.126,1.868-.126,1.868s-8.058,0-8.562-1.9-2.015-22.795,0-29.443-2.87-55.805-2.87-55.805Z" transform="translate(-891.021 -421.522)" fill="#2f2e41"/>
    <path id="Path_2530" data-name="Path 2530" d="M902.329,736.343s5.037,1.425,6.044,3.324,17.628,5.224,12.591,7.6-20.146-1.9-20.146-1.9-8.059-.475-7.555-3.324a27.131,27.131,0,0,1,2.338-6.36Z" transform="translate(-871.229 -552.199)" fill="#2f2e41"/>
    <path id="Path_2531" data-name="Path 2531" d="M935.619,740.144s5.037,1.425,6.044,3.324,17.628,5.224,12.591,7.6-20.146-1.9-20.146-1.9-8.058-.475-7.555-3.324a27.128,27.128,0,0,1,2.338-6.36Z" transform="translate(-918.623 -554.481)" fill="#2f2e41"/>
    <path id="Path_2532" data-name="Path 2532" d="M956.073,519.35l-7.051,11.4-11.768,39.627s1.191,36.356-.32,36.356-9.569,2.374-10.073,0c-.426-2.006-6.066-21.22-3.255-34.008a154.742,154.742,0,0,0,3.519-24.535L928.372,526s-5.037-8.548.5-9.973S956.073,519.35,956.073,519.35Z" transform="translate(-917.922 -420.118)" fill="#2f2e41"/>
    <ellipse id="Ellipse_498" data-name="Ellipse 498" cx="12.088" cy="11.397" rx="12.088" ry="11.397" transform="translate(19.515 3.304)" fill="#ffb8b8"/>
    <path id="Path_2533" data-name="Path 2533" d="M948.313,325.713s-2.015,15.2-1.511,16.146-12.088-10.448-12.088-10.448,4.533-6.648,3.526-9.973Z" transform="translate(-915.199 -303.413)" fill="#ffb8b8"/>
    <g id="Group_966" data-name="Group 966" transform="translate(4.907 26.098)">
      <path id="Path_2534" data-name="Path 2534" d="M909.751,353.048s14.1-9.5,14.606-11.4l10.577,8.548,1.8-2.017s8.276,7.716,8.276,11.04.5,13.3-1.007,16.146,4.533,38.941,4.533,38.941-5.036,4.274-5.54,4.749-20.65-2.849-20.65-2.849-10.073-.95-10.073-2.374,3.022-22.795,2.015-28.494S909.751,353.048,909.751,353.048Z" transform="translate(-909.751 -341.65)"/>
    </g>
    <path id="Path_2535" data-name="Path 2535" d="M924.157,285.318a8.991,8.991,0,0,0-5.16-.38c-2.384.651-4.036,2.621-5.817,4.251s-4.279,3.075-6.624,2.308a3.508,3.508,0,0,0-.742-2.7,2.464,2.464,0,0,1-.659-1.034c-.1-.61.444-1.137.608-1.735.286-1.048-.5-2.483.466-3.071.255-.155.577-.19.825-.354.975-.642-.108-2.24.537-3.183a2.037,2.037,0,0,1,.732-.576c4.674-2.571,10.389-2.578,15.8-2.514.753.009,1.8.362,1.589,1.043,1.022-.692,2.361.28,3.186,1.177l1.687,1.836a14.231,14.231,0,0,1,2.062,2.629c.515.929.629,2.358-.4,2.763.763-.3,1.688,3.957-1.828,3.257C928.38,288.624,926.378,286.063,924.157,285.318Z" transform="translate(-887.391 -276.31)" fill="#2f2e41"/>
    <path id="Path_2539" data-name="Path 2539" d="M881.337,403.476s-2.518,30.868,1.007,31.818,16.117,8.073,36.263,6.174c0,0,19.643,9.973,16.621.475s-16.621-7.123-16.621-7.123-24.176-4.749-25.183-8.073,3.022-17.1,1.511-17.571S881.337,403.476,881.337,403.476Z" transform="translate(-879.451 -352.683)" fill="#ffb8b8"/>
    <path id="Path_2540" data-name="Path 2540" d="M984.539,371.135l-8.059-.95s-8.058,14.722-3.526,17.1,16.117,4.274,16.117,3.324S984.539,371.135,984.539,371.135Z" transform="translate(-971.571 -332.689)"/>
    <g id="Component_38_11" data-name="Component 38 – 11" transform="matrix(0.999, 0.035, -0.035, 0.999, 22.425, 50.465)">
      <g id="Group_683" data-name="Group 683" transform="translate(3.399 6.241)">
        <path id="Path_2413" data-name="Path 2413" d="M0,.833V.374C0,.138.212,0,.464,0S.894.12.894.335V.414H.664V.357c0-.1-.078-.166-.2-.166a.18.18,0,0,0-.2.185V.823c0,.131.081.193.208.192s.2-.063.2-.162V.789H.893V.867C.892,1.086.7,1.2.464,1.2S0,1.093,0,.833Z" transform="translate(0 0.026)" fill="#fff"/>
        <path id="Path_2414" data-name="Path 2414" d="M.379,0H.688l.365,1.165H.8L.715.889H.32l-.082.279H0ZM.662.711.523.229H.517L.374.711Z" transform="translate(0.977 0.041)" fill="#fff"/>
        <path id="Path_2415" data-name="Path 2415" d="M.338.192H0V0L.929,0V.191H.592l0,.976H.336l0-.976Z" transform="translate(2.005 0.039)" fill="#fff"/>
        <path id="Path_2416" data-name="Path 2416" d="M.006,0H.37c.238,0,.364.13.364.326A.3.3,0,0,1,.445.652l.326.512H.654L.342.667H.109v.5H0ZM.34.591C.532.59.628.505.629.334.629.187.549.081.354.081H.11V.591Z" transform="translate(3.428 0.039)" fill="#c2341c"/>
        <path id="Path_2417" data-name="Path 2417" d="M0,.57V.312A.293.293,0,0,1,.319,0,.265.265,0,0,1,.612.289V.446H.1V.573C.1.72.182.788.339.788A.463.463,0,0,0,.563.725L.6.787A.459.459,0,0,1,.326.866C.133.867,0,.777,0,.57ZM.517.378V.28A.19.19,0,0,0,.308.073.2.2,0,0,0,.1.284V.378H.517Z" transform="translate(4.366 0.356)" fill="#c2341c"/>
        <path id="Path_2418" data-name="Path 2418" d="M0,1.006,0,0H.1L.1.995c0,.057.028.1.108.1a.613.613,0,0,0,.08-.007v.074a.341.341,0,0,1-.11.017A.157.157,0,0,1,0,1.006Z" transform="translate(5.203 0.037)" fill="#c2341c"/>
        <path id="Path_2419" data-name="Path 2419" d="M0,.571V.3A.284.284,0,0,1,.312,0a.277.277,0,0,1,.31.293V.565a.281.281,0,0,1-.31.3A.277.277,0,0,1,0,.571ZM.522.565V.288A.194.194,0,0,0,.31.074.2.2,0,0,0,.1.3V.568A.193.193,0,0,0,.316.789C.472.789.522.689.522.565Z" transform="translate(5.647 0.353)" fill="#c2341c"/>
        <path id="Path_2420" data-name="Path 2420" d="M0,.63C0,.439.178.372.322.37H.507V.218C.507.113.433.069.321.07s-.2.043-.2.138V.258H.033V.206c0-.136.136-.2.3-.2s.275.063.275.21V.634c0,.06.007.168.008.212H.524L.517.709h0A.289.289,0,0,1,.246.865.226.226,0,0,1,0,.63Zm.5-.055V.435H.34C.233.436.105.468.1.617A.163.163,0,0,0,.277.793.222.222,0,0,0,.507.575Z" transform="translate(6.453 0.351)" fill="#c2341c"/>
        <path id="Path_2421" data-name="Path 2421" d="M0,.953V.578A.252.252,0,0,1,.27.321.247.247,0,0,1,.508.467h0V0h.1l0,1.164H.521l0-.155H.513a.285.285,0,0,1-.263.175A.224.224,0,0,1,0,.953ZM.511.845V.64A.245.245,0,0,0,.286.389.168.168,0,0,0,.1.578V.938a.155.155,0,0,0,.177.171A.245.245,0,0,0,.511.845Z" transform="translate(7.283 0.03)" fill="#c2341c"/>
        <path id="Path_2422" data-name="Path 2422" d="M0,.57V.312A.293.293,0,0,1,.319,0,.265.265,0,0,1,.612.289V.446H.1V.573C.1.72.182.788.339.788A.463.463,0,0,0,.563.725L.6.787A.459.459,0,0,1,.326.866C.132.867,0,.777,0,.57ZM.517.378V.28A.19.19,0,0,0,.308.073.2.2,0,0,0,.1.284V.378H.517Z" transform="translate(8.128 0.348)" fill="#c2341c"/>
        <path id="Path_2423" data-name="Path 2423" d="M0,.953V.578A.252.252,0,0,1,.27.321.247.247,0,0,1,.508.467h0V0h.1l0,1.164H.521l0-.155H.512a.285.285,0,0,1-.263.175A.224.224,0,0,1,0,.953ZM.511.845V.64A.245.245,0,0,0,.286.389.168.168,0,0,0,.1.578V.938a.155.155,0,0,0,.177.171A.245.245,0,0,0,.511.845Z" transform="translate(8.93 0.027)" fill="#c2341c"/>
      </g>
      <g id="layer1" transform="translate(0 0)">
        <path id="path3003-4" d="M2.567.008A2.385,2.385,0,0,0,.825,1,3.5,3.5,0,0,0,.009,3.347a3.443,3.443,0,0,0,2.52,3.4V6.186A2.959,2.959,0,0,1,.542,3.268a3.175,3.175,0,0,1,.709-1.9A2.257,2.257,0,0,1,2.572.542ZM3.14.745a2.1,2.1,0,0,0-.764.137,2.483,2.483,0,0,0-1.37,1.4,3.072,3.072,0,0,0,.282,2.69,2.17,2.17,0,0,0,2.6.815,4.082,4.082,0,0,0,.476-.245l-.254-.468a3.459,3.459,0,0,1-.422.219A1.939,1.939,0,0,1,1.477,2.531,2.013,2.013,0,0,1,2.531,1.42a1.694,1.694,0,0,1,1.564.218A2.164,2.164,0,0,1,4.863,4a.481.481,0,0,1-.4.327c0-.192,0-.474,0-.7a2.655,2.655,0,0,0-.082-.768,1.271,1.271,0,0,0-1.257-.978A1.136,1.136,0,0,0,2.056,2.5a1.607,1.607,0,0,0,.329,2.144,1.279,1.279,0,0,0,.98.226,1.372,1.372,0,0,0,.308-.1c.087-.042.2-.1.161-.1v-.6a2.748,2.748,0,0,1-.343.2.9.9,0,0,1-.208.069.819.819,0,0,1-.646-.183A1,1,0,0,1,3.115,2.4a.808.808,0,0,1,.751.637,2.1,2.1,0,0,1,.068.6c-.005.384,0,.919,0,.919l.006.314h.2s.122,0,.27,0a1.322,1.322,0,0,0,.239-.037A.626.626,0,0,0,4.915,4.7a1.227,1.227,0,0,0,.343-.477A2.519,2.519,0,0,0,5.4,3.128,2.6,2.6,0,0,0,4.374,1.162,2.265,2.265,0,0,0,3.14.745Z" transform="translate(0)" fill="#c2341c"/>
        <path id="path4227-4" d="M5.4.016a.63.63,0,0,0-.566.439c-.274.694-.346.852-.629,1.6-.189.5-.295.747-.538,1.375-.074.191-.438,1.119-.438,1.119l.9,0c.219-.568.24-.611.311-.813.183-.41.291-.743.491-1.232.158-.387.24-.613.306-.774.073-.179.078-.26.165-.264.061,0,.124.22.287.621.1.237.271.688.334.847s.1.279.143.369a1.656,1.656,0,0,1,.1.244c.011.043-.155.017-.365.02-.4,0-.972,0-.972,0l-.382.976c1.1.018,1.9-.036,2.993,0C7.051,3.269,6.134.936,6.09.816S5.983.551,5.955.472A.606.606,0,0,0,5.4.016ZM1.06.1A1.234,1.234,0,0,0,.677.2C.371.356.114.67.018,1.825A6.276,6.276,0,0,0,.147,3.711c.129.434.443.833.714.839l2.062,0,.356-.981s-1.415.021-2.09.021c-.4,0-.321-1.054-.335-1.672,0,0,.035-.828.272-.823.748.015,3.02-.012,3.02-.012L4.572.111,1.06.1ZM6.2.1c0,.025.408.977.4.98.444,0,.908-.022,1.4,0L7.983,4.535l.827,0,.009-3.469,1.443-.005c.009-.466,0-.705,0-.963C8.873.1,7.665.1,6.2.1Z" transform="translate(6.092 1.075)" fill="#fff"/>
      </g>
    </g>
  </g>
</svg>
