<svg xmlns="http://www.w3.org/2000/svg" xmlns:xlink="http://www.w3.org/1999/xlink" width="280" height="209" viewBox="0 0 280 209">
  <defs>
    <clipPath id="clip-path">
      <rect id="Rectangle_18" data-name="Rectangle 18" width="280" height="209" fill="#fff" stroke="#707070" stroke-width="1"/>
    </clipPath>
    <linearGradient id="linear-gradient" x1="0.535" y1="2.693" x2="0.457" y2="-1.742" gradientUnits="objectBoundingBox">
      <stop offset="0.01"/>
      <stop offset="0.13" stop-opacity="0.69"/>
      <stop offset="0.25" stop-opacity="0.322"/>
      <stop offset="1" stop-opacity="0"/>
    </linearGradient>
    <linearGradient id="linear-gradient-2" x1="-2.748" y1="1.259" x2="3.502" y2="-0.097" xlink:href="#linear-gradient"/>
    <linearGradient id="linear-gradient-3" x1="0.67" y1="1.411" x2="0.229" y2="-1.773" xlink:href="#linear-gradient"/>
    <linearGradient id="linear-gradient-4" x1="0.608" y1="1.742" x2="0.247" y2="-2.614" xlink:href="#linear-gradient"/>
    <linearGradient id="linear-gradient-5" x1="65.003" y1="0.214" x2="66.583" y2="1.247" xlink:href="#linear-gradient"/>
    <linearGradient id="linear-gradient-6" x1="44.659" y1="1.65" x2="45.314" y2="-1.164" xlink:href="#linear-gradient"/>
    <linearGradient id="linear-gradient-7" x1="18.062" y1="-0.458" x2="19.596" y2="1.916" xlink:href="#linear-gradient"/>
    <linearGradient id="linear-gradient-8" x1="1.107" y1="-1.085" x2="-0.786" y2="3.452" xlink:href="#linear-gradient"/>
    <linearGradient id="linear-gradient-9" x1="0.535" y1="2.695" x2="0.457" y2="-1.744" xlink:href="#linear-gradient"/>
    <linearGradient id="linear-gradient-10" x1="-2.746" y1="1.258" x2="3.506" y2="-0.097" xlink:href="#linear-gradient"/>
    <linearGradient id="linear-gradient-11" x1="0.535" y1="2.694" x2="0.457" y2="-1.744" xlink:href="#linear-gradient"/>
    <linearGradient id="linear-gradient-12" x1="-2.745" y1="1.259" x2="3.506" y2="-0.097" xlink:href="#linear-gradient"/>
    <linearGradient id="linear-gradient-13" x1="1.43" y1="1.994" x2="-0.71" y2="-2.009" xlink:href="#linear-gradient"/>
  </defs>
  <g id="back-end" transform="translate(-1164.408 -2564)">
    <g id="Mask_Group_13" data-name="Mask Group 13" transform="translate(1164.408 2564)" clip-path="url(#clip-path)">
      <g id="world_wide_web_1_" data-name="world_wide_web (1)" transform="translate(21.116 0)">
        <path id="Path_1705" data-name="Path 1705" d="M92.459,29.609c-8.131,10.512-13.2,23.581-20.2,35.063-5.185,8.58-11.51,16.262-16.781,24.806-10.508,17.015-16.851,37.757-15.693,58.481s10.37,41.186,25.725,52.532c9.428,6.975,20.584,10.285,31.679,12.435,37.357,7.256,77.565,1.669,109.486-21.468,5.479-3.973,10.724-8.453,16.669-11.464,15.269-7.746,35.075-5.95,46.145-20.171,6.662-8.562,8.132-20.806,7.907-32.225-.268-13.713-2.826-28.116-10.784-38.4-10.37-13.487-27.307-17.1-41.323-25.4-13.662-8.045-24.68-20.7-36.415-32C160.639,4.6,120.025-6.025,92.459,29.609Z" transform="translate(-39.646 -6.902)" fill="#f0f0f0"/>
        <path id="Path_1706" data-name="Path 1706" d="M375.476,255.439a6.279,6.279,0,0,1-1.841,4.48,6,6,0,0,1-3.655,1.741,4.333,4.333,0,0,1-.769,0l-42.922-.907a6.477,6.477,0,0,1-6.248-6.521,6.319,6.319,0,0,1,1.823-4.49,6.123,6.123,0,0,1,4.424-1.814h1.46a13.134,13.134,0,0,1-.458-3.419,12.439,12.439,0,0,1,3.612-8.834,11.866,11.866,0,0,1,8.71-3.51l3.647.082a12.619,12.619,0,0,1,10.966,7.129,7.128,7.128,0,0,1,3.37-.753h.942a7.69,7.69,0,0,1,7.423,7.736v.372a7.59,7.59,0,0,1-.294,2.086l3.552.073A6.5,6.5,0,0,1,375.476,255.439Z" transform="translate(-187.219 -120.168)" fill="#fff"/>
        <path id="Path_1707" data-name="Path 1707" d="M369.98,279.44a4.327,4.327,0,0,1-.769,0l-42.922-.907a6.477,6.477,0,0,1-6.248-6.521,6.319,6.319,0,0,1,1.823-4.49c-1.728,11.129,9.376,9.532,9.376,9.532h27.886Z" transform="translate(-187.219 -137.947)" fill="url(#linear-gradient)"/>
        <path id="Path_1708" data-name="Path 1708" d="M338.979,250.476l-3.12-1.243a13.135,13.135,0,0,1-.458-3.419,12.439,12.439,0,0,1,3.612-8.834,11.946,11.946,0,0,1,3.457-2.422C333.838,242.323,338.979,250.476,338.979,250.476Z" transform="translate(-195.303 -121.372)" fill="url(#linear-gradient-2)"/>
        <ellipse id="Ellipse_412" data-name="Ellipse 412" cx="54.907" cy="52.051" rx="54.907" ry="52.051" transform="translate(36.697 94.494)" fill="#c2341c" opacity="0.23"/>
        <path id="Path_1709" data-name="Path 1709" d="M259.09,228.013A57.27,57.27,0,0,1,248.418,261.5h0l-.112.163c-15.7,21.724-44.092,28.307-67.055,15.551s-33.74-41.1-25.457-66.942,33.188-41.588,58.829-37.184,44.465,27.656,44.467,54.926Z" transform="translate(-99.314 -90.093)" fill="#c2341c"/>
        <path id="Path_1710" data-name="Path 1710" d="M194.818,201.293c-2.912,1.261-6.127,1.56-9.117,2.594s-5.988,3.12-6.758,6.349c-.4,1.623-.19,3.428-.951,4.9-1.011,1.977-3.379,2.721-4.813,4.353-2.731,3.156-.933,8.571,2.4,11.011s7.6,2.812,11.588,3.528a5.345,5.345,0,0,1,2.99,1.243c2.325,2.331-.251,6.548.735,9.759.553,1.814,2.186,3.056,2.929,4.8,1.426,3.32-.735,6.984-2.16,10.3a26.769,26.769,0,0,0-.648,19.155,3.713,3.713,0,0,1-.328.426,53.3,53.3,0,0,1-15.39-10.757c-4.381-6.449-7.846-13.478-7.483-21.2.2-4.19,1.53-8.235,1.78-12.407.415-6.775-1.918-14.131,1.244-20.044,1.728-3.274,5.1-6.866,3.215-10.04-3.327.508-6.913.59-9.963-.626,7.6-16.617,22.541-28.21,39.906-30.964C207.278,183.516,204.669,196.939,194.818,201.293Z" transform="translate(-105.14 -90.754)" fill="url(#linear-gradient-3)"/>
        <path id="Path_1711" data-name="Path 1711" d="M320.923,240.213a58.225,58.225,0,0,1-.942,10.494,36.767,36.767,0,0,0-3.949,3.927c-4.191,5.152-5.1,12.3-5.781,19.046h0a1.4,1.4,0,0,1-.043.426.38.38,0,0,0-.069-.263,11.458,11.458,0,0,0-2.1-4.743c-1.193-1.351-3.31-2.023-4.761-.961q-1.037-2.721-2.083-5.4c-4.321,0-8.78,0-12.841-1.605s-7.423-4.68-10.672-7.682a78.614,78.614,0,0,0-.277-15.618,50.857,50.857,0,0,0,32.794-17.6,36.111,36.111,0,0,0-21.6,5.85c-1.383.907-2.783,1.923-4.4,2.068a9.088,9.088,0,0,1-3.024-.435l-10.447-2.784c-1.3-7.056,3.353-14.14,9.341-17.632,4.493-2.612,9.946-2.1,14.258-4.39,2.955-1.56,3.819-4.29,6.4-6.294h.052a56.614,56.614,0,0,1,20.143,43.6Z" transform="translate(-161.147 -102.293)" fill="url(#linear-gradient-4)"/>
        <path id="Path_1712" data-name="Path 1712" d="M299.238,253.217c-.311,1.07-.6,2.322,0,3.22a2.6,2.6,0,0,0,1.132.843,2.982,2.982,0,0,0,3.223-.354A4.463,4.463,0,0,0,304.57,255a46.616,46.616,0,0,0,1.728-7.99,1.511,1.511,0,0,0,0-.762,1.259,1.259,0,0,0-.614-.58c-1.374-.771-3.526-1.388-4.321.317A61.214,61.214,0,0,0,299.238,253.217Z" transform="translate(-176.084 -126.571)" fill="#fbc4d6"/>
        <path id="Path_1713" data-name="Path 1713" d="M302.523,263.017a1.849,1.849,0,0,1,.864.082,1.546,1.546,0,0,1,.484.444l2.981,3.51c.579.68,1.184,1.614.778,2.422a1.716,1.716,0,0,1-1.279.8,7.275,7.275,0,0,1-4.182-.862c-.916-.417-1.823-.907-2.713-1.36a4.518,4.518,0,0,1-1.685-1.4c-.683-1.088-.864-3.7.328-4.535.614-.408,1.149-.118,1.728.163A5.535,5.535,0,0,0,302.523,263.017Z" transform="translate(-175.213 -135.128)" fill="#c2341c"/>
        <path id="Path_1714" data-name="Path 1714" d="M328.775,279.663a1.405,1.405,0,0,1-.06.6,1.16,1.16,0,0,1-.432.444,3.584,3.584,0,0,1-1.918.68,2.186,2.186,0,0,1-1.806-.853,4.032,4.032,0,0,1-.562-1.75,21.34,21.34,0,0,1-.372-4.063.583.583,0,0,1,.107-.46.528.528,0,0,1,.4-.212c1.072-.236,3.206-.825,3.75.553A16.723,16.723,0,0,1,328.775,279.663Z" transform="translate(-189.099 -141.063)" fill="#fbc4d6"/>
        <path id="Path_1715" data-name="Path 1715" d="M333.054,284.853a9.772,9.772,0,0,1,2.7.544,3.429,3.429,0,0,1,1.97,1.9,2.05,2.05,0,0,1,.06,1.36,2.854,2.854,0,0,1-1.469,1.46,18,18,0,0,1-10.007,2.258,3.359,3.359,0,0,1-2.428-.907,4.141,4.141,0,0,1-.639-2.549l-.121-4.263a4.876,4.876,0,0,1,2.229.662c1.279.453,1.78-.635,2.834-.907C329.563,284.073,331.654,284.708,333.054,284.853Z" transform="translate(-188.841 -146.389)" fill="#c2341c"/>
        <path id="Path_1716" data-name="Path 1716" d="M302.523,263.017a1.849,1.849,0,0,1,.864.082,1.546,1.546,0,0,1,.484.444l2.981,3.51c.579.68,1.184,1.614.778,2.422a1.716,1.716,0,0,1-1.279.8,7.275,7.275,0,0,1-4.182-.862c-.916-.417-1.823-.907-2.713-1.36a4.518,4.518,0,0,1-1.685-1.4c-.683-1.088-.864-3.7.328-4.535.614-.408,1.149-.118,1.728.163A5.535,5.535,0,0,0,302.523,263.017Z" transform="translate(-175.213 -135.128)" fill="url(#linear-gradient-5)"/>
        <path id="Path_1717" data-name="Path 1717" d="M333.054,284.853a9.772,9.772,0,0,1,2.7.544,3.429,3.429,0,0,1,1.97,1.9,2.05,2.05,0,0,1,.06,1.36,2.854,2.854,0,0,1-1.469,1.46,18,18,0,0,1-10.007,2.258,3.359,3.359,0,0,1-2.428-.907,4.141,4.141,0,0,1-.639-2.549l-.121-4.263a4.876,4.876,0,0,1,2.229.662c1.279.453,1.78-.635,2.834-.907C329.563,284.073,331.654,284.708,333.054,284.853Z" transform="translate(-188.841 -146.389)" fill="url(#linear-gradient-6)"/>
        <path id="Path_1718" data-name="Path 1718" d="M232.751,192.4a26.107,26.107,0,0,0-5.582.091,1.371,1.371,0,0,0-.683.227,1.3,1.3,0,0,0-.38.907c-.259,2.63,1.728,4.916,3.871,6.3,5.8,3.773,13.109,3.628,19.512,6.095a2.931,2.931,0,0,1,1.547,1.061,3.977,3.977,0,0,1,.38,1.814c.285,3.546,2.16,6.739,2.783,10.231s-.043,7.147.467,10.666c2.1-2.349,5.677-2.721,7.777-5.043,1.97-2.14,2.359-5.333,2.653-8.29l.795-8.108a2.518,2.518,0,0,0-1.4-2.939C255.037,199,243.959,193.417,232.751,192.4Z" transform="translate(-137.768 -100.121)" fill="url(#linear-gradient-7)"/>
        <path id="Path_1719" data-name="Path 1719" d="M296.636,185.623a4.836,4.836,0,0,1,2.342,1.243,5.155,5.155,0,0,1,.864,3.41,72.2,72.2,0,0,1-4.571,25.141,1.736,1.736,0,0,1-.864,1.347,1.582,1.582,0,0,1-1.547,0,52.631,52.631,0,0,1-5.306-1.814l2.35-16.326a2.373,2.373,0,0,0-.069-1.37,2.168,2.168,0,0,0-.709-.762,62.048,62.048,0,0,0-8.469-5.442c-2.359-1.252-5.064-2.721-5.7-5.369a3.065,3.065,0,0,1,.467-2.676,4.149,4.149,0,0,1,1.3-.907c1.564-.807,3.534-1.814,5.332-1.651,1.443.154,2,1.025,3.2,1.669C288.583,183.863,293.016,184.516,296.636,185.623Z" transform="translate(-163.424 -94.158)" fill="#282328"/>
        <path id="Path_1720" data-name="Path 1720" d="M278.528,128c1.158,3.347,1.728,6.893,2.748,10.276a6.743,6.743,0,0,0,1.175,2.458,6.422,6.422,0,0,0,2.592,1.6,43.579,43.579,0,0,0,4.131,1.442c.933.263,2.048.717,2.152,1.714a1.89,1.89,0,0,1-.19.961,4.3,4.3,0,0,1-3.595,2.313,11.136,11.136,0,0,1-4.321-.744,6.4,6.4,0,0,1-3.318-1.877,7.572,7.572,0,0,1-1.063-2.63,77,77,0,0,0-5.867-15.219,17.67,17.67,0,0,1-1.728-4.081c-.57-2.5-.579-8.435,1.884-6.258C275.115,119.712,277.655,125.516,278.528,128Z" transform="translate(-161.371 -62.503)" fill="#fbc4d6"/>
        <path id="Path_1721" data-name="Path 1721" d="M244.686,150.3a34.381,34.381,0,0,0,4.243-2.077c5.185-3.011.942-4.49-.786-8.108-1.236-2.567-.735-5.641-.1-8.426,1.132-4.9,2.644-9.977,1.555-14.865a5.874,5.874,0,0,0-.864-2.213,6.093,6.093,0,0,0-1.089-1.1,11.638,11.638,0,0,0-3.716-2.276c-2.592-.907-5.53-.245-7.993,1.052-9.678,5.1-11.744,17.967-11.355,28.261.1,2.857.527,5.877,2.281,8.063a9.821,9.821,0,0,0,6.775,3.347A22.09,22.09,0,0,0,244.686,150.3Z" transform="translate(-136.957 -59.153)"/>
        <path id="Path_1722" data-name="Path 1722" d="M236.264,172.74a6.311,6.311,0,0,0,.864,2.721c.864,1.279,2.454,1.75,3.915,2.122l6.576,1.705a8.266,8.266,0,0,0,2.471.39c1.8-.091,3.344-1.3,4.77-2.458a3.749,3.749,0,0,0,.933-.97c-3.629-.363-7.25-.744-10.862-1.3-2.126-.327-4.373-.78-5.937-2.313a7.879,7.879,0,0,1-1.8-2.984c-.259-.7-.38-2.476-1.132-2.63a21.423,21.423,0,0,0,.2,5.714Z" transform="translate(-142.967 -87.415)" fill="url(#linear-gradient-8)"/>
        <path id="Path_1723" data-name="Path 1723" d="M257.979,114.983a1.107,1.107,0,0,1-.3.762.9.9,0,0,1-.6.127,4.676,4.676,0,0,1-3.5-1.882,5.165,5.165,0,0,1-.945-4,26,26,0,0,1,.76-2.54c.458-1.705.38-3.628,1.409-5.034a57.476,57.476,0,0,0,3.042,6.222,3.506,3.506,0,0,1,.57,2.839Z" transform="translate(-151.702 -54.926)" fill="#fbc4d6"/>
        <path id="Path_1725" data-name="Path 1725" d="M264.641,100.91a4.33,4.33,0,0,1-1.383,2.213,3.038,3.038,0,0,1-1.054.481,6.287,6.287,0,0,1-6.8-3.329,10.244,10.244,0,0,1-.363-8.163,5.676,5.676,0,0,1,2.592-3.365,4.274,4.274,0,0,1,4.182.517,10.625,10.625,0,0,1,3.638,4.825C266.084,96.076,265.289,99.014,264.641,100.91Z" transform="translate(-152.651 -47.892)" fill="#fbc4d6"/>
        <path id="Path_1726" data-name="Path 1726" d="M273.708,202.3a17.947,17.947,0,0,1,2.592,4.907,101.573,101.573,0,0,1,6.559,26.928,32.213,32.213,0,0,1-8.356,0,85.9,85.9,0,0,0-2.86-19.319,12.828,12.828,0,0,0-1.512-3.827c-1.236-1.877-3.266-2.966-5.185-3.982a74.2,74.2,0,0,0-14.008-5.442c-2.039-.59-4.1-1.134-6.1-1.814-1.685-.6-6.412-2.793-7.777-3.982a7.076,7.076,0,0,1-2.592-4.762c0,.472,13.169,1.415,14.111,1.306,3.171-.354,6.913-2.258,10.041-.907,2.445,1.052,4.684,3.247,6.913,4.762C268.238,197.946,271.539,199.669,273.708,202.3Z" transform="translate(-142.181 -99.434)" fill="#473f47"/>
        <path id="Path_1727" data-name="Path 1727" d="M229.325,188.677l-16.073-8.244,18.847-8.389,16.082,7.374Z" transform="translate(-112.229 -86.51)" fill="#c2341c"/>
        <path id="Path_1728" data-name="Path 1728" d="M234.8,130.216a7.183,7.183,0,0,1-.112.907c-.475,4.644-.043,9.2.121,13.813.1,2.857.458,8.3,3.353,9.759,5.409,2.721,15.848,1.687,15.848,1.687a8.771,8.771,0,0,1,3.638.154c.648.209,1.244.562,1.875.816,2.281.907,4.831.453,7.233,0a2.994,2.994,0,0,0,1.175-.408,2.319,2.319,0,0,0,.2-3.138,5.421,5.421,0,0,0-2.9-1.678,16.4,16.4,0,0,0-9.385-.381,10.087,10.087,0,0,1-1.21.345,7.771,7.771,0,0,1-1.452.109h-3.681c-4.234,0-8.227.054-8.866-5.143a29.617,29.617,0,0,1-.138-5.8c.251-3.492,1.123-6.956.942-10.448a7.2,7.2,0,0,0-.769-3.174,3.067,3.067,0,0,0-2.541-1.687,3.171,3.171,0,0,0-2.592,1.814A7.517,7.517,0,0,0,234.8,130.216Z" transform="translate(-142.18 -66.759)" fill="#fbc4d6"/>
        <path id="Path_1729" data-name="Path 1729" d="M272.657,153.417l-22.467,12-3.007,13.895,18.855-9.26Z" transform="translate(-130.086 -77.144)" fill="#c2341c"/>
        <path id="Path_1730" data-name="Path 1730" d="M241.694,91.671a3.837,3.837,0,0,0-1.815-3.183c-.5-.308-.622-.336-.951.163-.423.644-.562,1.4-.951,2.068a5.17,5.17,0,0,1-1.728,1.814,4.515,4.515,0,0,1-2.662.735,3.584,3.584,0,0,0-1.123,0,.868.868,0,0,0-.6.453,3.173,3.173,0,0,0-.1,1.043c-.078.907-.933,1.551-1.409,2.34s-.614,1.959-1.184,2.8a1.135,1.135,0,0,1-.423.4c-.406.181-.864-.054-1.288-.136-1.253-.227-2.264,1-3.336,1.741-2.152,1.487-4.969,1.107-7.509.662a7.207,7.207,0,0,1-2.247-.671,7.684,7.684,0,0,1-2.013-1.814c-.942-1.088-1.875-2.195-2.8-3.3a3.833,3.833,0,0,1-.8-1.243,2.337,2.337,0,0,1-.078-1.007,6.309,6.309,0,0,1,.527-1.814c.674-1.587,1.46-3.31,2.981-4.027s3.318-.181,4.995-.363a.962.962,0,0,0,.57-.19,1.329,1.329,0,0,0,.277-.553c.7-2.44,1.573-5.088,3.664-6.349a8.035,8.035,0,0,1,5.185-.717,19.522,19.522,0,0,0,5.28.317c.864-.145,1.728-.444,2.592-.626a8.111,8.111,0,0,1,5.945.907,6.641,6.641,0,0,1,3.059,5.36,7.882,7.882,0,0,0,0,1.279c.061.4.225.789.285,1.188a2.537,2.537,0,0,1-.593,1.914,2.293,2.293,0,0,1-1.757.807Z" transform="translate(-128.599 -43.66)" fill="#ff681c"/>
        <path id="Path_1731" data-name="Path 1731" d="M233.252,131.8a41.96,41.96,0,0,0-.086,7.727,1.149,1.149,0,0,0,.156.635,1.053,1.053,0,0,0,.709.363,22.982,22.982,0,0,0,4.243.426,1.368,1.368,0,0,0,1.2-.165,1.506,1.506,0,0,0,.646-1.077c.778-3.41,1.547-6.82,2.134-10.276.233-1.388.4-2.948-.4-4.072-1.149-1.633-4.252-1.814-5.746-.626C234.306,126.192,233.537,129.6,233.252,131.8Z" transform="translate(-141.423 -65.764)"/>
        <path id="Path_1732" data-name="Path 1732" d="M278.466,124.989l2.445,6.149a1.381,1.381,0,0,1,.138.78,1.242,1.242,0,0,1-.346.571,14.145,14.145,0,0,1-4.182,3.193,15.289,15.289,0,0,1-3.457-4.843,15.413,15.413,0,0,1-.389-6.947c.147-1.478.1-6.231,2.489-4.39C276.833,120.763,277.714,123.094,278.466,124.989Z" transform="translate(-162.182 -63.309)"/>
        <path id="Path_1733" data-name="Path 1733" d="M130.154,223.442a6.317,6.317,0,0,1-1.832,4.48,6.026,6.026,0,0,1-3.655,1.741,7.168,7.168,0,0,1-.769,0l-42.922-.907a6.486,6.486,0,0,1-6.256-6.53,6.317,6.317,0,0,1,1.832-4.48,6.039,6.039,0,0,1,4.424-1.814h1.46a12.849,12.849,0,0,1-.458-3.428,12.43,12.43,0,0,1,3.612-8.834,11.8,11.8,0,0,1,3.457-2.413,11.953,11.953,0,0,1,5.254-1.088l3.647.082a12.635,12.635,0,0,1,10.949,7.02,7.352,7.352,0,0,1,3.37-.753h.942a7.7,7.7,0,0,1,7.414,7.746v.372a7.429,7.429,0,0,1-.285,2.077l3.552.082A6.492,6.492,0,0,1,130.154,223.442Z" transform="translate(-58.106 -104.079)" fill="#fff"/>
        <path id="Path_1734" data-name="Path 1734" d="M124.667,247.443a7.16,7.16,0,0,1-.769,0l-42.922-.907a6.486,6.486,0,0,1-6.256-6.53,6.317,6.317,0,0,1,1.832-4.48c-1.685,11.119,9.376,9.532,9.376,9.532h27.886Z" transform="translate(-58.106 -121.858)" fill="url(#linear-gradient-9)"/>
        <path id="Path_1735" data-name="Path 1735" d="M93.613,218.479,90.5,217.237a12.849,12.849,0,0,1-.458-3.428,12.43,12.43,0,0,1,3.612-8.834,11.8,11.8,0,0,1,3.457-2.413C88.5,210.326,93.613,218.479,93.613,218.479Z" transform="translate(-66.17 -105.284)" fill="url(#linear-gradient-10)"/>
        <path id="Path_1736" data-name="Path 1736" d="M369.183,117.427a6.3,6.3,0,0,1-1.841,4.48,6.05,6.05,0,0,1-3.664,1.741,4.289,4.289,0,0,1-.769,0L320,122.742a6.475,6.475,0,0,1-6.23-6.467,6.321,6.321,0,0,1,1.823-4.535,6.148,6.148,0,0,1,4.433-1.814h1.452a13.132,13.132,0,0,1-.458-3.419,12.439,12.439,0,0,1,3.612-8.834,11.866,11.866,0,0,1,8.71-3.51l3.647.082a12.611,12.611,0,0,1,10.94,7.029,7.153,7.153,0,0,1,3.37-.753h.942a7.69,7.69,0,0,1,7.423,7.736v.372a7.589,7.589,0,0,1-.294,2.086l3.552.073A6.509,6.509,0,0,1,369.183,117.427Z" transform="translate(-183.915 -50.777)" fill="#fff"/>
        <path id="Path_1737" data-name="Path 1737" d="M363.687,141.428a4.29,4.29,0,0,1-.769,0l-42.913-.907a6.474,6.474,0,0,1-6.239-6.467,6.32,6.32,0,0,1,1.823-4.535c-1.728,11.129,9.376,9.532,9.376,9.532h27.886Z" transform="translate(-183.915 -68.557)" fill="url(#linear-gradient-11)"/>
        <path id="Path_1738" data-name="Path 1738" d="M332.613,112.455l-3.12-1.243a13.135,13.135,0,0,1-.458-3.419,12.439,12.439,0,0,1,3.612-8.834,11.868,11.868,0,0,1,3.457-2.422C327.5,104.3,332.613,112.455,332.613,112.455Z" transform="translate(-191.952 -51.973)" fill="url(#linear-gradient-12)"/>
        <path id="Path_1739" data-name="Path 1739" d="M232.525,106.2a.868.868,0,0,0-.6.453,3.173,3.173,0,0,0-.1,1.043c-.078.907-.933,1.551-1.409,2.34s-.614,1.959-1.184,2.8a1.135,1.135,0,0,1-.423.4c-.406.181-.864-.054-1.288-.136-1.253-.227-2.264,1-3.336,1.741-2.152,1.487-4.969,1.107-7.509.662a7.207,7.207,0,0,1-2.307-.689,7.684,7.684,0,0,1-2.013-1.814c-.942-1.088-1.875-2.195-2.8-3.3a3.833,3.833,0,0,1-.8-1.243,2.337,2.337,0,0,1-.078-1.007,10.548,10.548,0,0,1,1.253-.68,5.571,5.571,0,0,1,4.321-.5c1.158.472,1.979,1.551,2.973,2.322a6.882,6.882,0,0,0,9.194-.907,8.133,8.133,0,0,1,1.521-1.6A6.087,6.087,0,0,1,232.525,106.2Z" transform="translate(-128.599 -56.579)" fill="url(#linear-gradient-13)"/>
      </g>
    </g>
  </g>
</svg>
