<?xml version="1.0" encoding="UTF-8"?>
<svg xmlns="http://www.w3.org/2000/svg" xmlns:xlink="http://www.w3.org/1999/xlink" width="50px" height="136px" viewBox="0 0 50 135" version="1.1">
<g id="surface1">
<path style=" stroke:none;fill-rule:nonzero;fill:rgb(0%,0%,0%);fill-opacity:1;" d="M 20.238281 23.09375 C 20.238281 26.363281 17.574219 29.011719 14.285156 29.011719 C 11 29.011719 8.332031 26.363281 8.332031 23.09375 C 8.332031 19.820312 11 17.171875 14.285156 17.171875 C 17.574219 17.171875 20.238281 19.820312 20.238281 23.09375 Z M 20.238281 23.09375 "/>
<path style=" stroke:none;fill-rule:nonzero;fill:rgb(0%,0%,0%);fill-opacity:1;" d="M 44.046875 23.09375 C 44.046875 26.363281 41.382812 29.011719 38.09375 29.011719 C 34.808594 29.011719 32.144531 26.363281 32.144531 23.09375 C 32.144531 19.820312 34.808594 17.171875 38.09375 17.171875 C 41.382812 17.171875 44.046875 19.820312 44.046875 23.09375 Z M 44.046875 23.09375 "/>
<path style=" stroke:none;fill-rule:nonzero;fill:rgb(0%,0%,0%);fill-opacity:1;" d="M 20.238281 46.777344 C 20.238281 50.046875 17.574219 52.699219 14.285156 52.699219 C 11 52.699219 8.332031 50.046875 8.332031 46.777344 C 8.332031 43.507812 11 40.855469 14.285156 40.855469 C 17.574219 40.855469 20.238281 43.507812 20.238281 46.777344 Z M 20.238281 46.777344 "/>
<path style=" stroke:none;fill-rule:nonzero;fill:rgb(0%,0%,0%);fill-opacity:1;" d="M 44.046875 46.777344 C 44.046875 50.046875 41.382812 52.699219 38.09375 52.699219 C 34.808594 52.699219 32.144531 50.046875 32.144531 46.777344 C 32.144531 43.507812 34.808594 40.855469 38.09375 40.855469 C 41.382812 40.855469 44.046875 43.507812 44.046875 46.777344 Z M 44.046875 46.777344 "/>
<path style=" stroke:none;fill-rule:nonzero;fill:rgb(0%,0%,0%);fill-opacity:1;" d="M 20.238281 70.460938 C 20.238281 73.730469 17.574219 76.382812 14.285156 76.382812 C 11 76.382812 8.332031 73.730469 8.332031 70.460938 C 8.332031 67.191406 11 64.539062 14.285156 64.539062 C 17.574219 64.539062 20.238281 67.191406 20.238281 70.460938 Z M 20.238281 70.460938 "/>
<path style=" stroke:none;fill-rule:nonzero;fill:rgb(0%,0%,0%);fill-opacity:1;" d="M 44.046875 70.460938 C 44.046875 73.730469 41.382812 76.382812 38.09375 76.382812 C 34.808594 76.382812 32.144531 73.730469 32.144531 70.460938 C 32.144531 67.191406 34.808594 64.539062 38.09375 64.539062 C 41.382812 64.539062 44.046875 67.191406 44.046875 70.460938 Z M 44.046875 70.460938 "/>
<path style=" stroke:none;fill-rule:nonzero;fill:rgb(0%,0%,0%);fill-opacity:1;" d="M 20.238281 94.144531 C 20.238281 97.414062 17.574219 100.066406 14.285156 100.066406 C 11 100.066406 8.332031 97.414062 8.332031 94.144531 C 8.332031 90.875 11 88.222656 14.285156 88.222656 C 17.574219 88.222656 20.238281 90.875 20.238281 94.144531 Z M 20.238281 94.144531 "/>
<path style=" stroke:none;fill-rule:nonzero;fill:rgb(0%,0%,0%);fill-opacity:1;" d="M 44.046875 94.144531 C 44.046875 97.414062 41.382812 100.066406 38.09375 100.066406 C 34.808594 100.066406 32.144531 97.414062 32.144531 94.144531 C 32.144531 90.875 34.808594 88.222656 38.09375 88.222656 C 41.382812 88.222656 44.046875 90.875 44.046875 94.144531 Z M 44.046875 94.144531 "/>
<path style=" stroke:none;fill-rule:nonzero;fill:rgb(0%,0%,0%);fill-opacity:1;" d="M 20.238281 117.828125 C 20.238281 121.097656 17.574219 123.75 14.285156 123.75 C 11 123.75 8.332031 121.097656 8.332031 117.828125 C 8.332031 114.558594 11 111.90625 14.285156 111.90625 C 17.574219 111.90625 20.238281 114.558594 20.238281 117.828125 Z M 20.238281 117.828125 "/>
<path style=" stroke:none;fill-rule:nonzero;fill:rgb(0%,0%,0%);fill-opacity:1;" d="M 44.046875 117.828125 C 44.046875 121.097656 41.382812 123.75 38.09375 123.75 C 34.808594 123.75 32.144531 121.097656 32.144531 117.828125 C 32.144531 114.558594 34.808594 111.90625 38.09375 111.90625 C 41.382812 111.90625 44.046875 114.558594 44.046875 117.828125 Z M 44.046875 117.828125 "/>
</g>
</svg>
