<svg id="calendar-alt-regular" xmlns="http://www.w3.org/2000/svg" width="59.494" height="60.182" viewBox="0 0 59.494 60.182">
  <path id="calendar-alt-regular-2" data-name="calendar-alt-regular" d="M19.654,33.852H14.342a1.515,1.515,0,0,1-1.594-1.41v-4.7a1.515,1.515,0,0,1,1.594-1.411h5.312a1.515,1.515,0,0,1,1.594,1.411v4.7A1.515,1.515,0,0,1,19.654,33.852ZM34,32.442v-4.7A1.515,1.515,0,0,0,32.4,26.329H27.091A1.515,1.515,0,0,0,25.5,27.74v4.7a1.515,1.515,0,0,0,1.594,1.41H32.4A1.515,1.515,0,0,0,34,32.442Zm12.749,0v-4.7a1.515,1.515,0,0,0-1.594-1.411H39.84a1.515,1.515,0,0,0-1.594,1.411v4.7a1.515,1.515,0,0,0,1.594,1.41h5.312A1.515,1.515,0,0,0,46.746,32.442ZM34,43.726v-4.7A1.515,1.515,0,0,0,32.4,37.613H27.091A1.515,1.515,0,0,0,25.5,39.024v4.7a1.515,1.515,0,0,0,1.594,1.411H32.4A1.515,1.515,0,0,0,34,43.726Zm-12.749,0v-4.7a1.515,1.515,0,0,0-1.594-1.411H14.342a1.515,1.515,0,0,0-1.594,1.411v4.7a1.515,1.515,0,0,0,1.594,1.411h5.312A1.515,1.515,0,0,0,21.248,43.726Zm25.5,0v-4.7a1.515,1.515,0,0,0-1.594-1.411H39.84a1.515,1.515,0,0,0-1.594,1.411v4.7a1.515,1.515,0,0,0,1.594,1.411h5.312A1.515,1.515,0,0,0,46.746,43.726ZM59.494,13.165V54.539c0,3.115-2.855,5.642-6.374,5.642H6.374C2.855,60.181,0,57.654,0,54.539V13.165C0,10.05,2.855,7.523,6.374,7.523h6.374V1.411A1.515,1.515,0,0,1,14.342,0h5.312a1.515,1.515,0,0,1,1.594,1.411V7.523h17V1.411A1.515,1.515,0,0,1,39.84,0h5.312a1.515,1.515,0,0,1,1.594,1.411V7.523H53.12C56.639,7.523,59.494,10.05,59.494,13.165ZM53.12,53.834V18.807H6.374V53.834a.757.757,0,0,0,.8.705H52.323A.757.757,0,0,0,53.12,53.834Z" fill="#fff"/>
</svg>
