<svg id="layer1" xmlns="http://www.w3.org/2000/svg" width="160" height="56" viewBox="0 0 160 56">
  <path id="path3003-4" d="M-904.1-30.158c-8.2,0-14.463,5.406-17.021,8.245-4.717,5.089-7.939,10.623-7.939,19.474.537,16.47,13.9,26.507,24.736,28.281V21.2C-917.043,18.645-923.889,6.532-923.85-3.09A24.253,24.253,0,0,1-916.955-18.9c2.432-2.412,6.865-6.085,12.91-6.822Zm5.625,6.138a23.856,23.856,0,0,0-7.48,1.127,22.492,22.492,0,0,0-13.379,11.652,22.272,22.272,0,0,0,2.822,22.37c6.963,7.611,17.08,9.958,25.488,6.815a42.339,42.339,0,0,0,4.648-2.029l-2.5-3.894A36.372,36.372,0,0,1-893,13.838C-908.488,18.149-921.379,3.629-914.719-9.2a18.045,18.045,0,0,1,10.293-9.225c1.963-.708,9.678-2.075,15.313,1.842,5.537,3.438,11.025,11.776,7.568,19.651a4.578,4.578,0,0,1-3.9,2.712c.02-1.594-.049-3.94-.039-5.851a19.093,19.093,0,0,0-.82-6.386c-1.777-5.746-7.539-8.22-12.334-8.149-5.791.129-7.969,2-10.41,5.121a12.085,12.085,0,0,0,3.262,17.832,14.323,14.323,0,0,0,9.6,1.9,15.093,15.093,0,0,0,3.008-.812c.85-.35,1.982-.813,1.572-.833V3.645a27.392,27.392,0,0,1-3.35,1.617,9.892,9.892,0,0,1-2.041.57A9.065,9.065,0,0,1-903.322,4.3c-6.357-3.831-3.809-14.243,4.629-14.556,3.652.376,6.113,1.806,7.363,5.305A15,15,0,0,1-890.647.07c-.039,3.19-.029,7.642-.029,7.642l.068,2.612h2s1.191.037,2.637-.009a15.18,15.18,0,0,0,2.344-.3,6.57,6.57,0,0,0,2.607-1.155,10.467,10.467,0,0,0,3.35-3.959,18.057,18.057,0,0,0,1.318-9.072c-.518-7.651-4.551-12.427-10.039-16.359a24.95,24.95,0,0,0-12.09-3.489Z" transform="translate(929.064 30.158)" fill="#c2341c"/>
  <path id="path4227-4" d="M328.365,151.831a6.1,6.1,0,0,0-5.532,3.642c-2.671,5.763-3.369,7.074-6.123,13.295-1.846,4.166-2.871,6.2-5.239,11.421-.723,1.584-4.272,9.3-4.272,9.3l8.833.037c2.134-4.716,2.334-5.073,3.027-6.753,1.782-3.408,2.837-6.174,4.775-10.234,1.538-3.215,2.339-5.088,2.979-6.43.713-1.49.757-2.163,1.606-2.194.6-.022,1.216,1.834,2.827,5.171.947,1.973,2.666,5.722,3.281,7.048.586,1.254.942,2.321,1.411,3.07a13.006,13.006,0,0,1,1.011,2.026c.107.361-1.519.142-3.574.159-3.9.03-9.517-.012-9.517-.012l-3.721,8.108c10.737.17,18.628-.272,29.292.043-4.8-10.631-13.823-30.04-14.263-31.034s-1.055-2.206-1.328-2.865A5.874,5.874,0,0,0,328.365,151.831Zm-42.451.612s-3.057.3-3.745.8c-2.988,1.328-5.5,3.931-6.416,13.537-.19,5.877-.264,11.111,1.3,15.678,1.274,3.608,4.351,6.935,7.007,6.986h20.186l3.467-8.148s-13.848.154-20.459.137c-3.931-.01-3.164-8.767-3.31-13.907,0,0,.332-6.884,2.646-6.84,7.324.139,29.556-.053,29.556-.053l4.141-8.033-34.375-.159Zm50.293.115c.02.208,4.014,8.131,3.9,8.152,4.341.023,8.887-.171,13.677,0l0,28.728,8.1.028.015-28.84,14.126-.022c.078-3.876-.034-5.861,0-8.005C362.393,152.552,350.572,152.567,336.206,152.558Z" transform="translate(-216.039 -142.679)"/>
</svg>
