<svg id="layer1" xmlns="http://www.w3.org/2000/svg" width="116.691" height="126.747" viewBox="0 0 116.691 126.747">
  <path id="path3003-4" d="M-873.872-30.158c-18.131,0-31.972,12.235-37.638,18.662C-921.94.023-929.065,12.547-929.065,32.579c1.2,37.278,30.734,59.994,54.689,64.009V86.08c-28.1-5.78-43.246-33.195-43.155-54.973.272-17.119,10.573-31.408,15.25-35.777,5.371-5.459,15.181-13.773,28.542-15.44Zm12.43,13.893a51.52,51.52,0,0,0-16.529,2.55c-14.448,4.949-24.847,15.559-29.577,26.373-6.768,15.291-5.119,36.013,6.229,50.63,15.409,17.226,37.761,22.538,56.352,15.426a93.133,93.133,0,0,0,10.286-4.592l-5.528-8.814a78.857,78.857,0,0,1-9.128,4.112c-34.236,9.758-62.734-23.107-48-52.135,2.728-6.532,10.192-16.245,22.747-20.878,4.339-1.6,21.408-4.7,33.858,4.169,12.244,7.782,24.381,26.653,16.738,44.477a10.155,10.155,0,0,1-8.622,6.139c.041-3.608-.116-8.918-.086-13.242.051-7.149-.823-11.457-1.819-14.455-3.933-13-16.657-18.6-27.256-18.443-12.817.291-17.625,4.534-23.03,11.592-10.6,14.9-5.458,32.224,7.217,40.359a31.062,31.062,0,0,0,21.225,4.292,32.853,32.853,0,0,0,6.653-1.839c1.883-.793,4.376-1.84,3.48-1.885V46.351a62.169,62.169,0,0,1-7.408,3.66A21.593,21.593,0,0,1-858.15,51.3c-6.1.4-9.066-.407-14-3.471C-886.2,39.16-880.561,15.593-861.9,14.884c8.062.852,13.5,4.087,16.276,12.008a34.778,34.778,0,0,1,1.5,11.367c-.093,7.22-.058,17.3-.058,17.3l.154,5.911h4.413s2.635.084,5.835-.021a32.562,32.562,0,0,0,5.179-.683,14.321,14.321,0,0,0,5.767-2.614,23.491,23.491,0,0,0,7.394-8.959c2.232-4.717,3.523-11.412,2.92-20.533C-813.668,11.34-822.579.53-834.705-8.37a54.26,54.26,0,0,0-26.737-7.9Z" transform="translate(929.065 30.158)" fill="#fff"/>
</svg>
