<svg id="code-branch-solid" xmlns="http://www.w3.org/2000/svg" width="45" height="60.194" viewBox="0 0 45 60.194">
  <path id="code-branch-solid-2" data-name="code-branch-solid" d="M45,16.93a9.375,9.375,0,1,0-12.012,9.029A7.252,7.252,0,0,1,31.7,30.3c-1.8,2.257-5.777,2.634-9.984,3.021-3.3.306-6.727.635-9.527,1.987V18.376a9.375,9.375,0,1,0-5.625,0V41.807a9.4,9.4,0,1,0,6.188.212A4.129,4.129,0,0,1,14.5,40.443c1.9-.964,4.734-1.223,7.746-1.5,4.945-.459,10.547-.988,13.852-5.1a12.686,12.686,0,0,0,2.531-7.983A9.441,9.441,0,0,0,45,16.93ZM9.375,7.524A1.881,1.881,0,1,1,7.5,9.405,1.884,1.884,0,0,1,9.375,7.524Zm0,45.146a1.881,1.881,0,1,1,1.875-1.881A1.884,1.884,0,0,1,9.375,52.67Zm26.25-37.622A1.881,1.881,0,1,1,33.75,16.93,1.884,1.884,0,0,1,35.625,15.049Z" fill="#fff"/>
</svg>
