<svg id="Component_86_1" data-name="Component 86 – 1" xmlns="http://www.w3.org/2000/svg" xmlns:xlink="http://www.w3.org/1999/xlink" width="280" height="187" viewBox="0 0 280 187">
  <defs>
    <clipPath id="clip-path">
      <rect id="Rectangle_18" data-name="Rectangle 18" width="280" height="187" transform="translate(228 2213)" fill="#fff" stroke="#707070" stroke-width="1"/>
    </clipPath>
    <linearGradient id="linear-gradient" x1="0.5" y1="1" x2="0.5" gradientUnits="objectBoundingBox">
      <stop offset="0" stop-color="gray" stop-opacity="0.251"/>
      <stop offset="0.54" stop-color="gray" stop-opacity="0.122"/>
      <stop offset="1" stop-color="gray" stop-opacity="0.102"/>
    </linearGradient>
    <linearGradient id="linear-gradient-2" x1="0.5" y1="1" x2="0.5" y2="0" xlink:href="#linear-gradient"/>
  </defs>
  <g id="Mask_Group_42" data-name="Mask Group 42" transform="translate(-228 -2213)" clip-path="url(#clip-path)">
    <g id="undraw_gaming_6oy3_1_" data-name="undraw_gaming_6oy3 (1)" transform="translate(252.271 2213)">
      <path id="Path_1921" data-name="Path 1921" d="M266.833,116.4c-8.993,14.4-7.768,33.764-4.266,48.978,1.171,5.094,2.533,10.459,1.32,16.219-1.483,7.032-6.469,12.629-11.467,15.869-9.109,5.908-19.37,5.951-26.716.111-6.348-5.047-10.41-13.984-16.9-18.753-10.86-7.978-26.086-2.71-39.387,5.21-9.41,5.6-19.782,12.674-28.29,8.957-5.986-2.615-9.593-10.257-11.176-18.62-.765-4.037-1.185-8.456-3.069-11.507a12.149,12.149,0,0,0-4.315-3.986c-14.875-8.9-35.418-.8-49.729-10.922-9.666-6.834-14.943-21.235-16.453-36.719s.344-32.119,2.574-48.513C60.544,51.08,62.622,38.6,68.85,29.031c6.588-10.125,16.74-14.79,25.46-14.02s16.195,6.231,22.6,12.947c8,8.4,15.145,19.183,25.669,21.735,7.168,1.738,15.086-.594,22.768-1.978,12.842-2.314,25.448-1.972,37.963-1.446,11.981.5,24.031,1.188,35.119,5.241,7.846,2.869,13.785,9.044,21.091,12.992,4.756,2.573,10.178,2.8,14.586,6.273a21.748,21.748,0,0,1,7.616,22.543C279.412,103.089,271.615,108.757,266.833,116.4Z" transform="translate(-55.837 -14.929)" fill="#f0f0f0"/>
      <path id="Path_1922" data-name="Path 1922" d="M112.187,238.54s-15.811-24.593-11.375-46.66a41.133,41.133,0,0,0-3.758-27.305,72.567,72.567,0,0,0-7.448-11.416" transform="translate(-73.61 -91.668)" fill="none" stroke="#535461" stroke-width="1.001"/>
      <path id="Path_1923" data-name="Path 1923" d="M81.113,116.163c.912,3.267-2.737,14.291-2.737,14.291s-8.946-7.92-9.86-11.187a6.091,6.091,0,0,1,4.64-7.473,6.564,6.564,0,0,1,7.958,4.357Z" transform="translate(-62.396 -68.591)" fill="#c2341c"/>
      <path id="Path_1924" data-name="Path 1924" d="M113.976,146.757c-1.123,3.209-10.569,10.6-10.569,10.6s-2.927-11.214-1.8-14.423a6.611,6.611,0,0,1,8.221-3.9,6.042,6.042,0,0,1,4.15,7.721Z" transform="translate(-79.79 -83.656)" fill="#c2341c"/>
      <path id="Path_1925" data-name="Path 1925" d="M128.822,213.187c-2.694,2.225-14.823,4.139-14.823,4.139s3.5-11.067,6.2-13.3a6.81,6.81,0,0,1,9.191.533,5.859,5.859,0,0,1-.568,8.632Z" transform="translate(-86.448 -119.054)" fill="#c2341c"/>
      <path id="Path_1926" data-name="Path 1926" d="M131.083,269.852c-2.254,2.633-13.863,6.431-13.863,6.431s1.46-11.465,3.713-14.1a6.8,6.8,0,0,1,9.155-.934,5.866,5.866,0,0,1,.994,8.6Z" transform="translate(-88.143 -150.928)" fill="#c2341c"/>
      <path id="Path_1927" data-name="Path 1927" d="M74.308,174.989c3.13,1.66,15.4,1.153,15.4,1.153s-5.877-10.141-9-11.795A6.878,6.878,0,0,0,74.1,164.3,5.941,5.941,0,0,0,74.308,175Z" transform="translate(-63.739 -97.397)" fill="#c2341c"/>
      <path id="Path_1928" data-name="Path 1928" d="M74.645,239.412c3.517.705,15.076-3.231,15.076-3.231s-8.834-8.025-12.358-8.732a6.521,6.521,0,0,0-7.728,4.7,6.129,6.129,0,0,0,5.01,7.257Z" transform="translate(-63.023 -132.834)" fill="#c2341c"/>
      <path id="Path_1929" data-name="Path 1929" d="M86.912,302.919c3.339,1.253,15.441-.792,15.441-.792s-7.268-9.313-10.607-10.566a6.65,6.65,0,0,0-8.247,3.486,5.983,5.983,0,0,0,3.415,7.864Z" transform="translate(-70.15 -168.301)" fill="#c2341c"/>
      <path id="Path_1930" data-name="Path 1930" d="M81.113,116.163c.912,3.267-2.737,14.291-2.737,14.291s-8.946-7.92-9.86-11.187a6.091,6.091,0,0,1,4.64-7.473,6.564,6.564,0,0,1,7.958,4.357Z" transform="translate(-62.396 -68.591)" fill="#c2341c"/>
      <path id="Path_1931" data-name="Path 1931" d="M113.976,146.757c-1.123,3.209-10.569,10.6-10.569,10.6s-2.927-11.214-1.8-14.423a6.611,6.611,0,0,1,8.221-3.9,6.042,6.042,0,0,1,4.15,7.721Z" transform="translate(-79.79 -83.656)" fill="#c2341c"/>
      <path id="Path_1932" data-name="Path 1932" d="M128.822,213.187c-2.694,2.225-14.823,4.139-14.823,4.139s3.5-11.067,6.2-13.3a6.81,6.81,0,0,1,9.191.533,5.859,5.859,0,0,1-.568,8.632Z" transform="translate(-86.448 -119.054)" fill="#fc6681"/>
      <path id="Path_1933" data-name="Path 1933" d="M131.083,269.852c-2.254,2.633-13.863,6.431-13.863,6.431s1.46-11.465,3.713-14.1a6.8,6.8,0,0,1,9.155-.934,5.866,5.866,0,0,1,.994,8.6Z" transform="translate(-88.143 -150.928)" fill="#fc6681"/>
      <path id="Path_1934" data-name="Path 1934" d="M74.308,174.989c3.13,1.66,15.4,1.153,15.4,1.153s-5.877-10.141-9-11.795A6.878,6.878,0,0,0,74.1,164.3,5.941,5.941,0,0,0,74.308,175Z" transform="translate(-63.739 -97.397)" fill="#c2341c"/>
      <path id="Path_1935" data-name="Path 1935" d="M74.645,239.412c3.517.705,15.076-3.231,15.076-3.231s-8.834-8.025-12.358-8.732a6.521,6.521,0,0,0-7.728,4.7,6.129,6.129,0,0,0,5.01,7.257Z" transform="translate(-63.023 -132.834)" fill="#c2341c"/>
      <path id="Path_1936" data-name="Path 1936" d="M86.912,302.919c3.339,1.253,15.441-.792,15.441-.792s-7.268-9.313-10.607-10.566a6.65,6.65,0,0,0-8.247,3.486,5.983,5.983,0,0,0,3.415,7.864Z" transform="translate(-70.15 -168.301)" fill="#c2341c"/>
      <ellipse id="Ellipse_438" data-name="Ellipse 438" cx="113.865" cy="7.344" rx="113.865" ry="7.344" transform="translate(3.726 142.333)" fill="#707070" opacity="0.1"/>
      <path id="Path_1937" data-name="Path 1937" d="M455.35,220.1s-.19-.238-.453-.505l.076-.024s-3.384-7.942-2.63-11.3-3.007-11.472-3.007-11.472-5.547-10.668-2.922-19.183a21.657,21.657,0,0,0,.678-3.055c.784-5.043.507-6.082-.808-7.925l-.145-.2a1.557,1.557,0,0,0,.377-.523c1.128-2.824-5.261-7.942-3.562-12.709,1.569-4.417-2.514-13.533-3.121-14.843h0l-.069-.149-.2.062a4.513,4.513,0,0,1,1.341-3.055l.038-.036c.564-.487,1.249-.846,1.777-1.369l.031-.033c.052-.047.107-.093.156-.142a1.843,1.843,0,0,0,.6-1.945c-.258-.605-.983-.975-1.154-1.607a7.767,7.767,0,0,1-.076-.857c-.137-.89-1.059-1.449-1.9-1.889a7.454,7.454,0,0,0-3.334-1.126c-1.626,0-3.081,1.024-4.694,1.151a7.056,7.056,0,0,0-1.642.154,3.693,3.693,0,0,0-1.078.65,5.2,5.2,0,0,0-.526.445,1.561,1.561,0,0,0-.661,1.153,1.23,1.23,0,0,0,.46.857,5.376,5.376,0,0,0-1,4.681,5.731,5.731,0,0,0,3.176,3.727c.019.122.038.247.057.378a13.589,13.589,0,0,1-.256,5.886c-2.7,1.306-6.905,3.436-7.659,4.382a.634.634,0,0,0-.1.554.708.708,0,0,0-.014.265,2.686,2.686,0,0,1-2.329-.819c-2.256-1.941-9.4-7.767-9.4-7.767s-3.194-7.413-5.45-6.009,2.63,8.3,2.63,8.3l10.7,10.771s.377,2.294,4.322,1.059c1.3-.407,2.481-.8,3.476-1.133l.237.189c-.889,4.883-1.348,11.39,1.929,13.3a2.9,2.9,0,0,1,.545,1.073c-.017.058-.033.118-.047.176a15.99,15.99,0,0,0-.474,2.969,8.938,8.938,0,0,0-.832,4.215l-1.256,16.8a16.064,16.064,0,0,0,1.128,6.529c1.315,2.824,5.45,16.944,2.63,18l.268.033a8.78,8.78,0,0,1-3.2,2.2c-1.573.352-1.133,2.617,2.355,3s3.908.347,6.36-1.573c2.161-1.691,2.5-2.448,2.555-2.61l.123.016s-1.315-4.589,0-6.529-3-13.764-3-13.764a35.841,35.841,0,0,1,.178-4.526c.664,1.631,1.137,2.762,1.137,2.762s1.128,5.118,2.443,6.009,8.27,13.061,7.142,18.355l-.13.616.318-.087h.028a8.208,8.208,0,0,1-2.095,3.187c-1.315.89,0,2.824,3.384,1.941s3.758-1.059,5.263-3.705S455.35,220.1,455.35,220.1Z" transform="translate(-239.778 -76.71)" fill="url(#linear-gradient)"/>
      <path id="Path_1938" data-name="Path 1938" d="M454.759,230.128l-.825-.955a8.773,8.773,0,0,0-1.164,4.8l-1.228,16.43a15.685,15.685,0,0,0,1.1,6.385c1.287,2.762,5.329,16.566,2.573,17.6l8.258,1.048s-1.287-4.486,0-6.385-2.941-13.459-2.941-13.459-.367-9.663,3.123-11.908S454.759,230.128,454.759,230.128Z" transform="translate(-264.093 -133.868)" fill="#555388"/>
      <path id="Path_1939" data-name="Path 1939" d="M456.116,329.27s-2.268,2.488-3.8,2.833-1.107,2.557,2.3,2.929,3.82.34,6.221-1.538,2.507-2.584,2.507-2.584-.474-1.669-1.047-1.7S456.116,329.27,456.116,329.27Z" transform="translate(-264.057 -189.397)" fill="#603556"/>
      <path id="Path_1940" data-name="Path 1940" d="M455.314,230.647l-1.374-1.473a8.773,8.773,0,0,0-1.164,4.8l-1.228,16.43a15.685,15.685,0,0,0,1.1,6.385c1.287,2.762,5.329,16.566,2.574,17.6l8.256,1.048s-1.287-4.486,0-6.385-2.941-13.459-2.941-13.459-.367-9.663,3.123-11.908S455.314,230.647,455.314,230.647Z" transform="translate(-264.095 -133.868)" opacity="0.1"/>
      <path id="Path_1941" data-name="Path 1941" d="M281.819,187.368s-2.3-42.329-11.723-57.31c0,0-6.912-11.857-12.69-15.315v-1.366c-9.427-6.129-21.027,0-21.027,0v.605l-2.417,1.892-10.884-.036a5.386,5.386,0,0,0-4.04-1.78H169.373a5.4,5.4,0,0,0-3.863,1.589h-11.3a7.253,7.253,0,0,0-2.417-1.46v-.81c-9.427-6.129-21.027,0-21.027,0v1.645a3.041,3.041,0,0,0-.725.625s-9.548,6.009-11.723,13.5c0,0-11.723,33.025-11.965,58.9s10.394,29.506,15.951,30.187,15.467-.223,25.136-23.144l4.109-13.39s.725-7.945,9.427-2.951,16.434-2.724,16.434-2.724h32.631s10.865,6.347,20.785,1.344c0,0,3.867-4.767,7.493,11.349,0,0,11.119,33.138,28.278,29.733S281.819,187.368,281.819,187.368Z" transform="translate(-82.42 -68.07)" fill="url(#linear-gradient-2)"/>
      <path id="Path_1942" data-name="Path 1942" d="M160.5,118.142v-2.448s11.375-6.009,20.617,0v2.225Z" transform="translate(-110.923 -69.386)" fill="#535461"/>
      <path id="Path_1943" data-name="Path 1943" d="M379.116,118.142v-2.448s11.375-6.009,20.617,0v2.225Z" transform="translate(-225.979 -69.386)" fill="#535461"/>
      <path id="Path_1944" data-name="Path 1944" d="M160.5,118.142v-2.448s11.375-6.009,20.617,0v2.225Z" transform="translate(-110.923 -69.386)" opacity="0.1"/>
      <path id="Path_1945" data-name="Path 1945" d="M379.116,118.142v-2.448s11.375-6.009,20.617,0v2.225Z" transform="translate(-225.979 -69.386)" opacity="0.1"/>
      <path id="Path_1946" data-name="Path 1946" d="M168.031,120.4H156.893s-2.844-3.116-12.323-2.893S133.2,120.4,133.2,120.4s-9.36,5.9-11.493,13.241c0,0-11.493,32.379-11.73,57.749s10.19,28.93,15.64,29.6,15.166-.223,24.645-22.7l4.029-13.13s.711-7.789,9.242-2.893,16.114-2.67,16.114-2.67h31.991s10.664,6.231,20.38,1.335c0,0,3.792-4.673,7.346,11.127,0,0,10.9,32.491,27.726,29.153s14.929-30.488,14.929-30.488-2.251-41.5-11.493-56.191c0,0-8.886-15.244-14.811-15.911,0,0-12.8-2.225-17.773-.223l-2.844,2.225Z" transform="translate(-84.326 -71.872)" fill="#535461"/>
      <ellipse id="Ellipse_439" data-name="Ellipse 439" cx="20.617" cy="19.361" rx="20.617" ry="19.361" transform="translate(37.258 50.981)" fill="#e2e2ec"/>
      <ellipse id="Ellipse_440" data-name="Ellipse 440" cx="20.617" cy="19.361" rx="20.617" ry="19.361" transform="translate(144.843 50.981)" fill="#e2e2ec"/>
      <path id="Path_1947" data-name="Path 1947" d="M177.131,152.907l-2.749,2.283a1.338,1.338,0,0,1-1.685,0l-2.754-2.283a1.165,1.165,0,0,1-.431-.89v-6.282a1.238,1.238,0,0,1,1.275-1.2h5.51a1.316,1.316,0,0,1,.9.35,1.159,1.159,0,0,1,.373.847v6.276a1.166,1.166,0,0,1-.441.895Z" transform="translate(-115.665 -86.883)" fill="#535461"/>
      <path id="Path_1948" data-name="Path 1948" d="M177.131,179.535l-2.749-2.281a1.338,1.338,0,0,0-1.685,0l-2.754,2.283a1.165,1.165,0,0,0-.431.89V186.7a1.159,1.159,0,0,0,.373.847,1.316,1.316,0,0,0,.9.35h5.51a1.316,1.316,0,0,0,.9-.349,1.159,1.159,0,0,0,.374-.846V180.43A1.166,1.166,0,0,0,177.131,179.535Z" transform="translate(-115.665 -104.879)" fill="#535461"/>
      <path id="Path_1949" data-name="Path 1949" d="M158.42,171.714l2.431-2.586a1.143,1.143,0,0,0,0-1.582l-2.431-2.586a1.312,1.312,0,0,0-.948-.405H150.79a1.238,1.238,0,0,0-1.273,1.2v5.174a1.159,1.159,0,0,0,.373.847,1.316,1.316,0,0,0,.9.35h6.683a1.309,1.309,0,0,0,.946-.409Z" transform="translate(-105.141 -97.994)" fill="#535461"/>
      <path id="Path_1950" data-name="Path 1950" d="M184.667,171.711l-2.427-2.588a1.141,1.141,0,0,1,0-1.582l2.431-2.586a1.309,1.309,0,0,1,.948-.405H192.3a1.316,1.316,0,0,1,.9.35,1.159,1.159,0,0,1,.373.847v5.174a1.159,1.159,0,0,1-.372.846,1.315,1.315,0,0,1-.9.351h-6.683A1.309,1.309,0,0,1,184.667,171.711Z" transform="translate(-122.195 -97.992)" fill="#535461"/>
      <path id="Path_1951" data-name="Path 1951" d="M114.649,122.495h7.109L118.2,119.6Z" transform="translate(-60.33 -66.396)" fill="none" stroke="#535461" stroke-width="1.001"/>
      <path id="Path_1952" data-name="Path 1952" d="M114.649,190.138h7.109l-3.555,2.893Z" transform="translate(-60.33 -105.554)" fill="none" stroke="#535461" stroke-width="1.001"/>
      <path id="Path_1953" data-name="Path 1953" d="M86.714,150.618v6.676l-3.081-3.338Z" transform="translate(-44.006 -83.614)" fill="none" stroke="#535461" stroke-width="1.001"/>
      <path id="Path_1954" data-name="Path 1954" d="M154.17,150.618v6.676l3.081-3.338Z" transform="translate(-81.129 -83.614)" fill="none" stroke="#535461" stroke-width="1.001"/>
      <ellipse id="Ellipse_441" data-name="Ellipse 441" cx="14.929" cy="14.02" rx="14.929" ry="14.02" transform="translate(70.908 77.463)" fill="#e2e2ec"/>
      <ellipse id="Ellipse_442" data-name="Ellipse 442" cx="9.953" cy="9.347" rx="9.953" ry="9.347" transform="translate(75.41 79.911)" fill="#535461"/>
      <ellipse id="Ellipse_443" data-name="Ellipse 443" cx="14.929" cy="14.02" rx="14.929" ry="14.02" transform="translate(122.568 77.463)" fill="#e2e2ec"/>
      <ellipse id="Ellipse_444" data-name="Ellipse 444" cx="9.953" cy="9.347" rx="9.953" ry="9.347" transform="translate(127.07 79.911)" fill="#535461"/>
      <ellipse id="Ellipse_445" data-name="Ellipse 445" cx="6.635" cy="6.231" rx="6.635" ry="6.231" transform="translate(78.728 83.026)" fill="none" stroke="#000" stroke-width="1.001" opacity="0.1"/>
      <ellipse id="Ellipse_446" data-name="Ellipse 446" cx="6.635" cy="6.231" rx="6.635" ry="6.231" transform="translate(130.388 83.026)" fill="none" stroke="#000" stroke-width="1.001" opacity="0.1"/>
      <ellipse id="Ellipse_447" data-name="Ellipse 447" cx="4.265" cy="4.006" rx="4.265" ry="4.006" transform="translate(107.875 89.035)" fill="#e2e2ec"/>
      <ellipse id="Ellipse_448" data-name="Ellipse 448" cx="0.931" cy="0.875" rx="0.931" ry="0.875" transform="translate(104.691 78.796)" fill="#e2e2ec"/>
      <ellipse id="Ellipse_449" data-name="Ellipse 449" cx="0.931" cy="0.875" rx="0.931" ry="0.875" transform="translate(108.179 78.796)" fill="#e2e2ec"/>
      <ellipse id="Ellipse_450" data-name="Ellipse 450" cx="0.931" cy="0.875" rx="0.931" ry="0.875" transform="translate(107.714 82.946)" fill="#e2e2ec"/>
      <ellipse id="Ellipse_451" data-name="Ellipse 451" cx="0.948" cy="0.89" rx="0.948" ry="0.89" transform="translate(110.956 83.026)" fill="#e2e2ec"/>
      <ellipse id="Ellipse_452" data-name="Ellipse 452" cx="0.931" cy="0.875" rx="0.931" ry="0.875" transform="translate(114.226 82.946)" fill="#e2e2ec"/>
      <ellipse id="Ellipse_453" data-name="Ellipse 453" cx="0.931" cy="0.875" rx="0.931" ry="0.875" transform="translate(106.319 80.981)" fill="#e2e2ec"/>
      <ellipse id="Ellipse_454" data-name="Ellipse 454" cx="0.948" cy="0.89" rx="0.948" ry="0.89" transform="translate(109.297 81.023)" fill="#e2e2ec"/>
      <ellipse id="Ellipse_455" data-name="Ellipse 455" cx="0.948" cy="0.89" rx="0.948" ry="0.89" transform="translate(112.378 81.023)" fill="#e2e2ec"/>
      <ellipse id="Ellipse_456" data-name="Ellipse 456" cx="0.931" cy="0.875" rx="0.931" ry="0.875" transform="translate(115.622 80.981)" fill="#e2e2ec"/>
      <ellipse id="Ellipse_457" data-name="Ellipse 457" cx="0.948" cy="0.89" rx="0.948" ry="0.89" transform="translate(110.956 78.798)" fill="#e2e2ec"/>
      <ellipse id="Ellipse_458" data-name="Ellipse 458" cx="0.948" cy="0.89" rx="0.948" ry="0.89" transform="translate(114.274 78.798)" fill="#e2e2ec"/>
      <ellipse id="Ellipse_459" data-name="Ellipse 459" cx="0.931" cy="0.875" rx="0.931" ry="0.875" transform="translate(117.018 78.796)" fill="#e2e2ec"/>
      <rect id="Rectangle_987" data-name="Rectangle 987" width="5.213" height="8.456" rx="2.607" transform="translate(74.699 50.091)" fill="#e2e2ec"/>
      <rect id="Rectangle_988" data-name="Rectangle 988" width="5.213" height="8.456" rx="2.607" transform="translate(143.895 50.091)" fill="#e2e2ec"/>
      <ellipse id="Ellipse_460" data-name="Ellipse 460" cx="5.687" cy="5.341" rx="5.687" ry="5.341" transform="translate(160.009 53.206)" fill="#535461"/>
      <ellipse id="Ellipse_461" data-name="Ellipse 461" cx="5.687" cy="5.341" rx="5.687" ry="5.341" transform="translate(147.924 64.556)" fill="#535461"/>
      <ellipse id="Ellipse_462" data-name="Ellipse 462" cx="5.687" cy="5.341" rx="5.687" ry="5.341" transform="translate(172.569 63.888)" fill="#535461"/>
      <ellipse id="Ellipse_463" data-name="Ellipse 463" cx="5.687" cy="5.341" rx="5.687" ry="5.341" transform="translate(160.957 75.683)" fill="#535461"/>
      <rect id="Rectangle_989" data-name="Rectangle 989" width="59.006" height="29.598" rx="10.881" transform="translate(82.282 46.975)" fill="#e2e2ec"/>
      <path id="Path_1955" data-name="Path 1955" d="M342.517,129.945l3.318-5.341,3.555,5.341Z" transform="translate(-180.257 -69.173)" fill="none" stroke="#e2e2ec" stroke-width="1.001"/>
      <rect id="Rectangle_990" data-name="Rectangle 990" width="5.924" height="4.896" transform="translate(150.649 67.449)" fill="none" stroke="#e2e2ec" stroke-width="1.001"/>
      <ellipse id="Ellipse_464" data-name="Ellipse 464" cx="3.318" cy="3.116" rx="3.318" ry="3.116" transform="translate(174.939 66.113)" fill="none" stroke="#e2e2ec" stroke-width="1.001"/>
      <line id="Line_54" data-name="Line 54" x2="5.332" y2="5.007" transform="translate(163.919 78.52)" fill="none" stroke="#e2e2ec" stroke-width="1.001"/>
      <line id="Line_55" data-name="Line 55" x1="5.45" y2="4.896" transform="translate(163.919 78.52)" fill="none" stroke="#e2e2ec" stroke-width="1.001"/>
      <path id="Path_1956" data-name="Path 1956" d="M210.783,340.072a3.854,3.854,0,0,0,1.592-1.84,1.546,1.546,0,0,0-1.111-1.874,3.729,3.729,0,0,0-2.941.79,4.493,4.493,0,0,1-2.858,1.057,2.9,2.9,0,0,0,1.346-3.116,1.191,1.191,0,0,0-.374-.634,2.243,2.243,0,0,0-2.273.1c-2.159,1.164-2.761,3.409-2.773,5.432a7.951,7.951,0,0,1-.04-2.239,2.1,2.1,0,0,0-1.1-1.981,4.145,4.145,0,0,0-1.673-.3,4.225,4.225,0,0,0-2.713.592,1.7,1.7,0,0,0,.107,2.553,10.539,10.539,0,0,0,2.808,1.725,5.814,5.814,0,0,1,2.007,1.467,1.31,1.31,0,0,1,.149.263h6.083A17.826,17.826,0,0,0,210.783,340.072Z" transform="translate(-129.257 -192.164)" fill="#c2341c"/>
      <path id="Path_1957" data-name="Path 1957" d="M491.026,334.6s-1.1,3.116-2.389,3.97,0,2.762,3.318,1.9,3.675-1.035,5.145-3.623,1.287-3.278,1.287-3.278-1.1-1.38-1.659-1.208S491.026,334.6,491.026,334.6Z" transform="translate(-283.361 -191.146)" fill="#603556"/>
      <path id="Path_1958" data-name="Path 1958" d="M466.625,154.639s-14.884,7.764-11.394,5.521c2.346-1.507,2.2-5.506,1.858-7.969-.109-.768-.237-1.386-.315-1.734-.045-.2-.073-.3-.073-.3s7.218-4.068,6.813-1.622h0a.133.133,0,0,1-.012.067,2.483,2.483,0,0,0-.055.5C463.4,151.608,466.625,154.639,466.625,154.639Z" transform="translate(-265.759 -88.664)" fill="#c87486"/>
      <path id="Path_1959" data-name="Path 1959" d="M425.073,163.293s-1.287,1.9-3.491,0S412.4,155.7,412.4,155.7s-3.123-7.248-5.332-5.866,2.574,8.112,2.574,8.112l10.474,10.526s.367,2.243,4.228,1.035,6.616-2.243,6.616-2.243Z" transform="translate(-240.381 -89.725)" fill="#c87486"/>
      <path id="Path_1960" data-name="Path 1960" d="M458.152,219.879" transform="translate(-267.576 -128.708)" fill="none"/>
      <path id="Path_1961" data-name="Path 1961" d="M482.062,268.244l-7.346,2.417-.31.085.128-.6c1.1-5.176-5.687-17.084-6.984-17.948s-2.393-5.873-2.393-5.873-2.408-11.389-2.775-13.8a4.863,4.863,0,0,0-.837-1.747,13.377,13.377,0,0,1-1.422-3.2c-.808-2.67-2.692-7.411-2-10.092.14-.545-.431.848-.237.316l.111-.294,14.877-1.9a10.511,10.511,0,0,1,.692.879c1.126,1.569,1.052,1.569,1.289,4.551a29.015,29.015,0,0,1-.808,5.341c-2,8.374,2.514,19.583,2.514,19.583s3.675,7.938,2.941,11.216S482.062,268.244,482.062,268.244Z" transform="translate(-267.414 -126.339)" fill="#555388"/>
      <path id="Path_1962" data-name="Path 1962" d="M473.041,216.488c-2.2,2.593-16.3,4.607-16.128,3.783a1.648,1.648,0,0,0-.066-.85,16.074,16.074,0,0,1,.507-1.618l.111-.294,14.884-1.9a10.5,10.5,0,0,1,.692.877Z" transform="translate(-266.888 -126.339)" opacity="0.1"/>
      <path id="Path_1963" data-name="Path 1963" d="M465.846,155.08s-6.066,1.731-7.725,5.7,1.258,4.186,1.258,4.186-5.213,12.907-3.832,19.628a2.353,2.353,0,0,1,.552,1.725c-.182.861,15.252-1.38,16.351-4.141s-5.145-7.764-3.491-12.424S465.846,155.08,465.846,155.08Z" transform="translate(-266.082 -92.734)"/>
      <path id="Path_1964" data-name="Path 1964" d="M465.8,149.378a.523.523,0,0,1-.055.149c-.251.445-1.05-.042-.772.625-1.066,1.006-1.4,3.02-3.031,3.02a6.16,6.16,0,0,1-2.557-.545c-.109-.768-.237-1.386-.315-1.734.711-.4,6.4-3.489,6.74-1.927h0a.965.965,0,0,1-.01.412Z" transform="translate(-268.06 -89.097)" opacity="0.1"/>
      <ellipse id="Ellipse_465" data-name="Ellipse 465" cx="5.879" cy="5.521" rx="5.879" ry="5.521" transform="translate(188.003 52.69)" fill="#c87486"/>
      <path id="Path_1965" data-name="Path 1965" d="M459.449,176.322l-10.289,4.486s-6.984-5-5.882-6.38,9.74-5.341,9.74-5.341S461.838,170.8,459.449,176.322Z" transform="translate(-259.685 -100.511)" opacity="0.1"/>
      <path id="Path_1966" data-name="Path 1966" d="M459.451,175.561l-10.289,4.486s-6.984-5-5.879-6.385,9.74-5.341,9.74-5.341S461.84,170.031,459.451,175.561Z" transform="translate(-259.688 -100.086)"/>
      <path id="Path_1967" data-name="Path 1967" d="M457.673,134.163a6.723,6.723,0,0,1-2.607-.6,1.484,1.484,0,0,1-.882-1.142c-.017-.579.5-1.03.979-1.4a3.609,3.609,0,0,1,1.055-.634,6.852,6.852,0,0,1,1.6-.149c1.583-.125,3-1.135,4.59-1.126a7.136,7.136,0,0,1,3.258,1.1c.813.432,1.716.979,1.851,1.847a7.6,7.6,0,0,0,.073.837c.168.619.877.979,1.13,1.571a1.807,1.807,0,0,1-.585,1.9c-.512.505-1.185.852-1.723,1.324a4.407,4.407,0,0,0-1.545,3.414.421.421,0,0,1-.04.247.471.471,0,0,1-.332.156c-.585.1-1.308.158-1.659-.3s-.073-1.211-.474-1.658c-.51-.576-1.581-.118-2.27-.5a1.319,1.319,0,0,1-.521-.585c-.569-1.15.083-2.054.32-3.153C460.173,134.039,458.637,134.255,457.673,134.163Z" transform="translate(-265.487 -78.318)" opacity="0.1"/>
      <path id="Path_1968" data-name="Path 1968" d="M458.063,133.768a6.724,6.724,0,0,1-2.607-.6,1.484,1.484,0,0,1-.882-1.142c-.017-.579.5-1.03.979-1.4a3.609,3.609,0,0,1,1.055-.634,6.851,6.851,0,0,1,1.6-.149c1.583-.125,3-1.135,4.59-1.126a7.136,7.136,0,0,1,3.258,1.1c.813.432,1.716.979,1.851,1.847a7.606,7.606,0,0,0,.073.837c.168.619.877.979,1.13,1.571a1.807,1.807,0,0,1-.585,1.9c-.512.505-1.185.852-1.723,1.324a4.407,4.407,0,0,0-1.547,3.423.42.42,0,0,1-.04.247.471.471,0,0,1-.332.156c-.585.1-1.308.158-1.659-.3s-.073-1.211-.474-1.658c-.51-.576-1.581-.118-2.27-.5a1.319,1.319,0,0,1-.521-.585c-.573-1.153.081-2.063.318-3.173C460.561,133.646,459.025,133.864,458.063,133.768Z" transform="translate(-265.693 -78.098)" fill="#603456"/>
      <g id="Component_54" data-name="Component 54" transform="translate(93.848 54.079)">
        <g id="Group_683" data-name="Group 683" transform="translate(7.179 12.73)">
          <path id="Path_2413" data-name="Path 2413" d="M0,1.689V.756C0,.275.439,0,.972,0c.51,0,.908.242.908.68V.839H1.4V.723C1.4.518,1.231.385.972.385S.54.527.54.76v.909c0,.265.173.392.439.392.248,0,.417-.126.417-.329V1.6H1.88v.159c0,.445-.4.683-.9.683C.447,2.445,0,2.216,0,1.689Z" transform="translate(0 0)"/>
          <path id="Path_2414" data-name="Path 2414" d="M.788,0h.653l.777,2.369H1.678L1.5,1.8H.668L.5,2.369H0Zm.6,1.44-.3-.979H1.081l-.3.979Z" transform="translate(2.066 0.036)"/>
          <path id="Path_2415" data-name="Path 2415" d="M.713.382H0V0H1.959V.382H1.25V2.366H.713V.382Z" transform="translate(4.227 0.039)"/>
          <path id="Path_2416" data-name="Path 2416" d="M0,0H.769c.5,0,.769.265.769.664a.621.621,0,0,1-.608.66l.69,1.042H1.374L.713,1.354H.222V2.366H0ZM.709,1.2c.405,0,.608-.173.608-.521,0-.3-.169-.514-.582-.514H.222V1.2Z" transform="translate(7.242 0.039)" fill="#c2341c"/>
          <path id="Path_2417" data-name="Path 2417" d="M0,1.155V.63A.606.606,0,0,1,.668,0a.553.553,0,0,1,.619.587V.906H.214v.255c0,.3.169.438.5.438a1,1,0,0,0,.473-.126l.075.126a.994.994,0,0,1-.574.159C.278,1.759,0,1.576,0,1.155ZM1.088.766v-.2A.4.4,0,0,0,.645.146.406.406,0,0,0,.214.574V.766h.875Z" transform="translate(9.218 0.687)" fill="#c2341c"/>
          <path id="Path_2418" data-name="Path 2418" d="M0,2.044V0H.21V2.021c0,.116.06.2.229.2A1.334,1.334,0,0,0,.608,2.2v.15a.745.745,0,0,1-.232.033C.139,2.386,0,2.263,0,2.044Z" transform="translate(10.989 0.039)" fill="#c2341c"/>
          <path id="Path_2419" data-name="Path 2419" d="M0,1.158V.6A.588.588,0,0,1,.653,0,.577.577,0,0,1,1.31.6v.551a.581.581,0,0,1-.653.61A.578.578,0,0,1,0,1.158Zm1.1-.01V.584A.4.4,0,0,0,.649.149.4.4,0,0,0,.21.6v.551A.4.4,0,0,0,.664,1.6.4.4,0,0,0,1.1,1.148Z" transform="translate(11.923 0.687)" fill="#c2341c"/>
          <path id="Path_2420" data-name="Path 2420" d="M0,1.278C0,.889.371.753.675.75h.39V.441c0-.212-.158-.3-.394-.3-.206,0-.42.086-.42.279v.1H.064V.415C.064.139.349,0,.7,0c.323,0,.581.129.581.428v.859c0,.123.015.342.019.431H1.1L1.088,1.44H1.081a.612.612,0,0,1-.563.315A.472.472,0,0,1,0,1.278Zm1.066-.109V.883H.713c-.225,0-.5.066-.5.368a.341.341,0,0,0,.364.359A.459.459,0,0,0,1.066,1.168Z" transform="translate(13.625 0.687)" fill="#c2341c"/>
          <path id="Path_2421" data-name="Path 2421" d="M0,1.931V1.168A.52.52,0,0,1,.563.647a.527.527,0,0,1,.5.3h0V0h.214V2.366H1.1l-.007-.315H1.077a.6.6,0,0,1-.555.355A.467.467,0,0,1,0,1.931Zm1.073-.219V1.3A.508.508,0,0,0,.6.787a.347.347,0,0,0-.387.382V1.9c0,.209.109.348.375.348A.5.5,0,0,0,1.073,1.712Z" transform="translate(15.381 0.039)" fill="#c2341c"/>
          <path id="Path_2422" data-name="Path 2422" d="M0,1.155V.63A.605.605,0,0,1,.668,0a.553.553,0,0,1,.619.587V.906H.214v.255c0,.3.169.438.5.438a1,1,0,0,0,.473-.126l.075.126a.994.994,0,0,1-.574.159C.277,1.759,0,1.576,0,1.155ZM1.088.766v-.2A.4.4,0,0,0,.645.146.406.406,0,0,0,.214.574V.766h.875Z" transform="translate(17.162 0.687)" fill="#c2341c"/>
          <path id="Path_2423" data-name="Path 2423" d="M0,1.931V1.168A.52.52,0,0,1,.563.647a.527.527,0,0,1,.5.3h0V0h.214V2.366H1.1l-.008-.315H1.077a.6.6,0,0,1-.555.355A.467.467,0,0,1,0,1.931Zm1.073-.219V1.3A.508.508,0,0,0,.6.787a.347.347,0,0,0-.386.382V1.9c0,.209.109.348.375.348A.5.5,0,0,0,1.073,1.712Z" transform="translate(18.857 0.039)" fill="#c2341c"/>
        </g>
        <g id="layer1" transform="translate(0 0)">
          <path id="path3003-4" d="M5.385,0A5.048,5.048,0,0,0,1.713,2.016,6.926,6.926,0,0,0,0,6.777a7.091,7.091,0,0,0,5.336,6.914V12.556c-2.741-.624-4.22-3.586-4.211-5.938A6.3,6.3,0,0,1,2.614,2.753,4.763,4.763,0,0,1,5.4,1.085ZM6.6,1.5a4.583,4.583,0,0,0-1.613.275A5.108,5.108,0,0,0,2.1,4.625a6.049,6.049,0,0,0,.608,5.469,4.7,4.7,0,0,0,5.5,1.666,8.7,8.7,0,0,0,1-.5l-.539-.952a7.372,7.372,0,0,1-.891.444C4.439,11.811,1.658,8.261,3.1,5.125A4.132,4.132,0,0,1,5.315,2.87a3.7,3.7,0,0,1,3.3.45,4.325,4.325,0,0,1,1.633,4.8,1,1,0,0,1-.841.663c0-.39-.011-.963-.008-1.43A5.207,5.207,0,0,0,9.225,5.8,2.684,2.684,0,0,0,6.566,3.8,2.4,2.4,0,0,0,4.319,5.056a3.191,3.191,0,0,0,.7,4.36,2.79,2.79,0,0,0,2.071.464,2.97,2.97,0,0,0,.649-.2c.184-.086.427-.2.34-.2V8.265a5.854,5.854,0,0,1-.723.4,1.951,1.951,0,0,1-.44.139,1.781,1.781,0,0,1-1.365-.375,2,2,0,0,1,1-3.559,1.7,1.7,0,0,1,1.588,1.3,4.133,4.133,0,0,1,.146,1.228c-.009.78-.006,1.868-.006,1.868L8.3,9.9h.431s.257.009.569,0A2.889,2.889,0,0,0,9.8,9.822a1.337,1.337,0,0,0,.563-.282,2.489,2.489,0,0,0,.721-.968,4.934,4.934,0,0,0,.285-2.218,5.262,5.262,0,0,0-2.164-4A4.924,4.924,0,0,0,6.6,1.5Z" transform="translate(0 0)" fill="#c2341c"/>
          <path id="path4227-4" d="M11.371,0a1.319,1.319,0,0,0-1.193.891C9.6,2.3,9.45,2.62,8.856,4.141c-.4,1.019-.619,1.517-1.131,2.792C7.57,7.321,6.8,9.207,6.8,9.207l1.905.009c.46-1.153.5-1.24.653-1.651.384-.833.612-1.51,1.03-2.5.332-.786.5-1.244.643-1.572.154-.364.163-.529.346-.536.129-.005.263.448.609,1.264.205.482.576,1.4.708,1.723.126.307.2.568.3.751a3.319,3.319,0,0,1,.218.5c.024.088-.328.035-.771.039-.841.007-2.052,0-2.052,0L9.6,9.206c2.316.042,4.018-.066,6.319.011-1.037-2.6-2.982-7.344-3.077-7.587s-.227-.539-.286-.7A1.279,1.279,0,0,0,11.371,0ZM2.214.15a2.682,2.682,0,0,0-.808.2C.761.67.219,1.307.021,3.656A12.3,12.3,0,0,0,.3,7.489c.275.882.939,1.7,1.512,1.708H6.168L6.916,7.2s-2.987.038-4.413.033c-.848,0-.682-2.144-.714-3.4,0,0,.071-1.683.571-1.672,1.58.034,6.376-.013,6.376-.013L9.629.188ZM13.062.178c0,.051.866,1.988.84,1.993.937.006,1.917-.042,2.951,0V9.194L18.6,9.2l0-7.051,3.047-.005c.017-.948-.007-1.433,0-1.957C18.71.176,16.161.18,13.062.178Z" transform="translate(12.859 2.237)"/>
        </g>
      </g>
    </g>
  </g>
</svg>
