<svg id="flutter" xmlns="http://www.w3.org/2000/svg" width="280" height="209" viewBox="0 0 280 209">
  <path id="Path_2587" data-name="Path 2587" d="M216.465,599.85c14.12,7.959,31.76,7.555,48.72,5.69q3.552-.39,7.045-.843c.014,0,.033,0,.047-.008.112-.015.224-.029.331-.04l1.436-.188-.1.195-.318.6c.115-.2.231-.4.346-.6.034-.061.072-.122.106-.182,4-6.954,7.941-14.153,8.583-21.908.662-8.048-3.136-16.946-11.383-20.495a17.7,17.7,0,0,0-3.39-1.063c-.487-.105-.978-.186-1.475-.254a19.622,19.622,0,0,0-14.62,3.849,14.373,14.373,0,0,0-4.3,16.888c-7.164-5.794-6.507-15.776-4.675-24.18s4.109-17.765-1.12-24.987c-2.907-4.02-7.73-6.37-13.028-7.158-.162-.023-.325-.046-.487-.064a28.1,28.1,0,0,0-17.985,3.657c-9.668,6.017-14.163,16.77-15.2,27.143C193.326,572.6,200.411,590.8,216.465,599.85Z" transform="translate(-193.302 -397.877)" fill="#f2f2f2"/>
  <path id="Path_2588" data-name="Path 2588" d="M264.72,573.59a34.507,34.507,0,0,0,3.619,10.5,33.065,33.065,0,0,0,6.3,8.038,49.039,49.039,0,0,0,19.074,10.761,77.181,77.181,0,0,0,16.969,3.155q3.552-.39,7.045-.843c.014,0,.033,0,.047-.008.112-.015.224-.029.331-.04l1.436-.188-.1.195-.318.6c.115-.2.231-.4.346-.6.034-.061.072-.122.106-.182-9.206-7.234-13.848-17.941-12.453-28.724a31.362,31.362,0,0,1,6.263-14.742c-.487-.105-.978-.186-1.475-.254a33.81,33.81,0,0,0-3.3,5.451,30.443,30.443,0,0,0-2.052,21.458,34.352,34.352,0,0,0,11.165,16.98c-.456-.007-.916-.017-1.367-.032a78.428,78.428,0,0,1-25.028-4.355,44.661,44.661,0,0,1-17.395-11.219,32.976,32.976,0,0,1-8.27-19.044,72.152,72.152,0,0,1,1.281-22.266,84.993,84.993,0,0,1,7.579-21.693.636.636,0,0,0-.356-.868.725.725,0,0,0-.487-.064.539.539,0,0,0-.354.3c-.435.856-.86,1.713-1.267,2.578a85.367,85.367,0,0,0-7.017,22.466A66.7,66.7,0,0,0,264.72,573.59Z" transform="translate(-238.801 -398.38)" fill="#fff"/>
  <path id="Path_22" data-name="Path 22" d="M529.681,151.815h-1.306V120.363c0-10.054-9.275-18.2-20.716-18.2H431.828c-11.441,0-20.716,8.15-20.716,18.2V292.911c0,10.054,9.275,18.2,20.716,18.2h75.831c11.441,0,20.715-8.15,20.715-18.2V174.2h1.306Z" transform="translate(-335.689 -102.159)" fill="#3f3d56"/>
  <path id="Path_23" data-name="Path 23" d="M519.5,117.918h-9.9a5.8,5.8,0,0,1-.706,6.042,7.671,7.671,0,0,1-6.1,2.856H459.352a7.671,7.671,0,0,1-6.1-2.856,5.8,5.8,0,0,1-.706-6.042H443.3c-8.544,0-15.471,6.087-15.47,13.595v172.3c0,7.508,6.926,13.595,15.471,13.595h76.2c8.544,0,15.47-6.086,15.47-13.594h0v-172.3c0-7.508-6.926-13.594-15.47-13.594Z" transform="translate(-346.692 -113.184)" fill="#c2341c"/>
  <path id="Path_2589" data-name="Path 2589" d="M933.968,715.607c-5.5,3.479-12.617,3.653-19.5,3.226q-1.442-.089-2.861-.2l-.019,0-.134-.01-.584-.048.046.077.143.238-.155-.237c-.015-.024-.032-.048-.047-.072-1.783-2.727-3.552-5.554-4-8.668a8.049,8.049,0,0,1,4.081-8.48,7.055,7.055,0,0,1,1.34-.493c.194-.052.39-.094.588-.131a7.609,7.609,0,0,1,6.736,1.9,5.6,5.6,0,0,1,1.406,6.094c2.744-2.473,2.232-6.485,1.286-9.837s-2.1-7.083-.168-10.095a7.627,7.627,0,0,1,5.075-3.135c.065-.012.13-.025.195-.035a11.423,11.423,0,0,1,7.341,1.13c4.047,2.241,6.125,6.49,6.8,10.652C942.621,704.177,940.215,711.652,933.968,715.607Z" transform="translate(-661.887 -510.263)" fill="#f2f2f2"/>
  <path id="Path_2590" data-name="Path 2590" d="M940.075,705.278a13.77,13.77,0,0,1-1.2,4.3,13.087,13.087,0,0,1-2.342,3.361,19.443,19.443,0,0,1-7.423,4.7,30.9,30.9,0,0,1-6.763,1.6q-1.442-.089-2.861-.205l-.019,0-.134-.01-.584-.048.046.077.143.238-.154-.237c-.015-.024-.032-.048-.047-.072a12.516,12.516,0,0,0,4.309-11.818,12.861,12.861,0,0,0-2.89-5.823c.194-.052.39-.094.588-.131a13.918,13.918,0,0,1,1.466,2.134,12.352,12.352,0,0,1,1.359,8.611,13.619,13.619,0,0,1-4.08,7.059c.184-.011.369-.024.55-.039a31.413,31.413,0,0,0,9.982-2.234,17.689,17.689,0,0,0,6.735-4.856,13.13,13.13,0,0,0,2.862-7.836,29.237,29.237,0,0,0-1.068-8.952,34.794,34.794,0,0,0-3.593-8.6.254.254,0,0,1,.122-.357.291.291,0,0,1,.195-.035.222.222,0,0,1,.15.113c.2.337.389.674.575,1.015a34.909,34.909,0,0,1,3.385,8.923A26.975,26.975,0,0,1,940.075,705.278Z" transform="translate(-669.768 -510.67)" fill="#fff"/>
  <path id="Path_2591" data-name="Path 2591" d="M470.158,796.368H190.842a.3.3,0,1,1,0-.6H470.158a.3.3,0,1,1,0,.6Z" transform="translate(-190.5 -587.39)" fill="#3f3d56"/>
  <path id="Path_2592" data-name="Path 2592" d="M627.706,651.215h-4.191l-1.994-14.207h6.186Z" transform="translate(-409.035 -445.635)" fill="#ffb8b8"/>
  <path id="Path_2593" data-name="Path 2593" d="M608.8,680.793h8.083v4.472H603.71C603.71,682.8,605.989,680.793,608.8,680.793Z" transform="translate(-397.313 -476.266)" fill="#2f2e41"/>
  <path id="Path_2594" data-name="Path 2594" d="M673.706,651.215h-4.191l-1.994-14.207h6.186Z" transform="translate(-439.309 -445.635)" fill="#ffb8b8"/>
  <path id="Path_2595" data-name="Path 2595" d="M654.8,680.793h8.083v4.472H649.71C649.71,682.8,651.989,680.793,654.8,680.793Z" transform="translate(-427.587 -476.266)" fill="#2f2e41"/>
  <path id="Path_2596" data-name="Path 2596" d="M867.946,554.043a3.213,3.213,0,0,1-1.657-2.31,2.985,2.985,0,0,1,.952-2.6l-2.76-34.416,7.95.677.218,33.7a2.959,2.959,0,0,1,.148,4.308,4.055,4.055,0,0,1-4.851.637Z" transform="translate(-634.061 -390.774)" fill="#ffb8b8"/>
  <path id="Path_2597" data-name="Path 2597" d="M817.211,660.359l-4.614-.193a1.445,1.445,0,0,1-1.465-1.341L810.81,617.8a1.287,1.287,0,0,1,.528-1.029,1.688,1.688,0,0,1,1.232-.319l18.459,2.355a1.415,1.415,0,0,1,1.317,1.328l2.374,38.014a1.273,1.273,0,0,1-.447.963,1.652,1.652,0,0,1-1.092.4h-4.974a1.485,1.485,0,0,1-1.52-1.142l-3.069-17.145a1.164,1.164,0,0,0-1.2-.888,1.15,1.15,0,0,0-1.166.927l-2.436,17.906a1.489,1.489,0,0,1-1.528,1.191Z" transform="translate(-598.738 -461.936)" fill="#2f2e41"/>
  <path id="Path_2598" data-name="Path 2598" d="M819.484,531.626a25.52,25.52,0,0,0-8.779-2.642,1.576,1.576,0,0,1-1.044-.5,1.231,1.231,0,0,1-.318-1.022l4.423-28.856a10.223,10.223,0,0,1,6.62-7.8,12.363,12.363,0,0,1,10.734.739q.227.133.446.271a9.377,9.377,0,0,1,4.32,10.387c-2.712,9.75-3.644,25.735-3.8,28.84a1.37,1.37,0,0,1-1,1.2,17.329,17.329,0,0,1-5.205.814A14.474,14.474,0,0,1,819.484,531.626Z" transform="translate(-597.763 -373.426)"/>
  <path id="Path_2599" data-name="Path 2599" d="M867.388,520.079a1.314,1.314,0,0,1-.635-1.022l-.583-9.276a3.873,3.873,0,0,1,3.557-3.882,4.279,4.279,0,0,1,4.766,2.7l2.559,8.293a1.344,1.344,0,0,1-1.082,1.659l-7.279,1.734a1.706,1.706,0,0,1-1.3-.209Z" transform="translate(-635.167 -384.572)"/>
  <ellipse id="Ellipse_516" data-name="Ellipse 516" cx="8.397" cy="7.379" rx="8.397" ry="7.379" transform="translate(217.024 98.704)" fill="#ffb8b8"/>
  <path id="Path_2600" data-name="Path 2600" d="M761.517,512.052a4.62,4.62,0,0,1-2.625-.8l-14.286-9.9q-.174.054-.354.092a4.2,4.2,0,0,1-3.015-.508,3.237,3.237,0,0,1-1.582-2.323,3.4,3.4,0,0,1,3.085-3.641,3.782,3.782,0,0,1,4.312,2.5h0a2.834,2.834,0,0,1,.078.436l14.523,7.363,3.614-1.828,4,4.606-5.3,3.318A4.642,4.642,0,0,1,761.517,512.052Z" transform="translate(-551.893 -376.926)" fill="#ffb8b8"/>
  <path id="Path_2601" data-name="Path 2601" d="M805.567,507.442a1.254,1.254,0,0,1,.442-1.1l7.475-6.57a4.679,4.679,0,0,1,5.665-.261,3.426,3.426,0,0,1,.889,4.923l-5.323,7.208a1.673,1.673,0,0,1-2.128.4l-6.326-3.608A1.336,1.336,0,0,1,805.567,507.442Z" transform="translate(-595.282 -379.558)"/>
  <path id="Path_2602" data-name="Path 2602" d="M831.142,438.8a1.435,1.435,0,0,0,.949.41,1.476,1.476,0,0,0,1-.312,13.7,13.7,0,0,0,4.332-4.972,7.882,7.882,0,0,0,.009-7.22,10.921,10.921,0,0,0-4.818-3.908,8.477,8.477,0,0,0-2.341-.87,3.422,3.422,0,0,0-2.446.423,2.142,2.142,0,0,0-.984,2.171,7.634,7.634,0,0,0-3.351-2.21,3.844,3.844,0,0,0-5.184,2.427,5.115,5.115,0,0,0-.429,2.783,3.267,3.267,0,0,0,1.46,2.3,4.614,4.614,0,0,0,3.4.273,29.586,29.586,0,0,1,3.426-.838,3.462,3.462,0,0,1,3.155,1.06,4.665,4.665,0,0,1,.7,2.3l.52,4.206a5,5,0,0,0,.437,1.754A.974.974,0,0,0,831.142,438.8Z" transform="translate(-603.362 -325.814)" fill="#2f2e41"/>
  <g id="Group_1069" data-name="Group 1069" transform="translate(94.809 142.006)">
    <path id="Path_2603" data-name="Path 2603" d="M467.814,574.842H479.4v1.992h-9.233v6.025H478.5v1.967h-8.339v7.622h-2.351Z" transform="translate(-467.814 -574.842)" fill="#fff"/>
    <path id="Path_2604" data-name="Path 2604" d="M509.881,574.842h2.377v17.6h-2.377Z" transform="translate(-495.499 -574.842)" fill="#fff"/>
    <path id="Path_2605" data-name="Path 2605" d="M528.18,603.3a4.95,4.95,0,0,1-1.357-3.713V591.7H529.2v7.573a3.385,3.385,0,0,0,.923,2.631,3.571,3.571,0,0,0,2.49.836,4.057,4.057,0,0,0,3.593-2.041,3.809,3.809,0,0,0,.518-1.919V591.7H539.1v12.539h-2.267v-1.82h-.112a4.509,4.509,0,0,1-1.875,1.574,6.087,6.087,0,0,1-2.743.639A5.389,5.389,0,0,1,528.18,603.3Z" transform="translate(-506.649 -586.635)" fill="#fff"/>
    <path id="Path_2606" data-name="Path 2606" d="M575.463,596.137a3.768,3.768,0,0,1-1.245-.676,3.084,3.084,0,0,1-.839-1.1,3.718,3.718,0,0,1-.28-1.527v-7.484h-2.49v-1.893h2.49v-3.541h2.377v3.541h3.47v1.893h-3.47v6.987a2.291,2.291,0,0,0,.447,1.558,2.039,2.039,0,0,0,1.54.554,3.184,3.184,0,0,0,1.566-.418v2.041a4,4,0,0,1-.853.246,6.875,6.875,0,0,1-1.106.074,5.052,5.052,0,0,1-1.608-.252Z" transform="translate(-535.466 -578.39)" fill="#fff"/>
    <path id="Path_2607" data-name="Path 2607" d="M605,596.137a3.768,3.768,0,0,1-1.245-.676,3.083,3.083,0,0,1-.839-1.1,3.718,3.718,0,0,1-.28-1.527v-7.484h-2.49v-1.893h2.49v-3.541h2.377v3.541h3.47v1.893h-3.47v6.987a2.291,2.291,0,0,0,.447,1.558,2.039,2.039,0,0,0,1.54.554,3.185,3.185,0,0,0,1.566-.418v2.04a4.006,4.006,0,0,1-.853.246,6.876,6.876,0,0,1-1.106.074,5.072,5.072,0,0,1-1.608-.252Z" transform="translate(-554.907 -578.39)" fill="#fff"/>
    <path id="Path_2608" data-name="Path 2608" d="M632.4,602.851a6.367,6.367,0,0,1-2.531-2.372,6.481,6.481,0,0,1-.91-3.405,6.734,6.734,0,0,1,.853-3.343,6.366,6.366,0,0,1,2.421-2.434,7.118,7.118,0,0,1,3.637-.91,7.622,7.622,0,0,1,3.637.823,5.8,5.8,0,0,1,2.364,2.275,6.588,6.588,0,0,1,.826,3.32,2.192,2.192,0,0,1-.084.639H631.339a4.512,4.512,0,0,0,.784,2.41,4.369,4.369,0,0,0,1.776,1.475,5.344,5.344,0,0,0,2.252.492,4.761,4.761,0,0,0,4.226-2.261l2.014.862a6.689,6.689,0,0,1-2.5,2.41A8.437,8.437,0,0,1,632.4,602.851Zm7.777-7.13a3.692,3.692,0,0,0-.5-1.574,3.6,3.6,0,0,0-1.412-1.328,4.91,4.91,0,0,0-2.421-.54,4.349,4.349,0,0,0-2.84.947,4.424,4.424,0,0,0-1.525,2.5Z" transform="translate(-573.866 -585.716)" fill="#fff"/>
    <path id="Path_2609" data-name="Path 2609" d="M677.24,590.778h2.267v2.015h.113a3.554,3.554,0,0,1,1.624-1.721,5,5,0,0,1,2.518-.689,4.67,4.67,0,0,1,1.679.271v2.238a4.975,4.975,0,0,0-2.014-.393,3.655,3.655,0,0,0-1.9.517,3.934,3.934,0,0,0-1.386,1.392,3.631,3.631,0,0,0-.518,1.886v7.024h-2.377V590.778Z" transform="translate(-605.641 -585.713)" fill="#fff"/>
  </g>
  <path id="Path_2610" data-name="Path 2610" d="M397.978,337.858l31.129,27.484-29.4-.3-10.94-9.614Z" transform="translate(-255.854 -236.357)" fill="#fff"/>
  <path id="Path_2612" data-name="Path 2612" d="M358.157,149.89l-62.232,54.692-14.65-12.87,47.6-41.822Z" transform="translate(-185.112 -104.859)" fill="#fff"/>
  <path id="Path_2613" data-name="Path 2613" d="M345.265,301.372l25.641-22.532h29.4l-40.342,35.15Z" transform="translate(-227.226 -195.069)" fill="#fff"/>
  <path id="Path_2614" data-name="Path 2614" d="M360.328,310.52l14.649,12.867L360.466,336.3l-14.7-12.618Z" transform="translate(-227.555 -217.232)" fill="#fff"/>
  <g id="Component_69" data-name="Component 69" transform="matrix(0.999, 0.035, -0.035, 0.999, 218.912, 132.044)">
    <g id="Group_683" data-name="Group 683" transform="translate(3.381 5.739)">
      <path id="Path_2413" data-name="Path 2413" d="M0,.767,0,.345C0,.127.212,0,.464,0s.43.108.428.306V.378H.663V.327C.664.234.586.174.463.174S.259.24.258.345l0,.412c0,.12.081.177.207.177s.2-.058.2-.15V.725H.891V.8c0,.2-.19.311-.43.312S0,1.006,0,.767Z" transform="translate(0 0.024)" fill="#fff"/>
      <path id="Path_2414" data-name="Path 2414" d="M.379,0H.688L1.05,1.072H.794L.712.816l-.395,0-.083.258H0ZM.66.653.522.21H.517L.372.654Z" transform="translate(0.977 0.035)" fill="#fff"/>
      <path id="Path_2415" data-name="Path 2415" d="M.338.176,0,.177V0L.929,0V.173l-.336,0,0,.9H.333l0-.9Z" transform="translate(2.004 0.03)" fill="#fff"/>
      <path id="Path_2416" data-name="Path 2416" d="M.006,0,.37,0C.608,0,.734.119.733.3A.29.29,0,0,1,.443.6l.324.471H.65L.34.614H.107l0,.459H0ZM.339.543C.531.542.627.463.628.306.629.17.549.073.354.074H.11l0,.469Z" transform="translate(3.428 0.026)" fill="#c2341c"/>
      <path id="Path_2417" data-name="Path 2417" d="M0,.525V.287A.285.285,0,0,1,.319,0,.254.254,0,0,1,.611.265V.409L.1.412V.527c0,.135.079.2.235.2A.5.5,0,0,0,.561.666L.6.723A.49.49,0,0,1,.324.8C.13.8,0,.716,0,.525ZM.516.346V.256A.181.181,0,0,0,.308.066.19.19,0,0,0,.1.261V.348l.414,0Z" transform="translate(4.365 0.316)" fill="#c2341c"/>
      <path id="Path_2418" data-name="Path 2418" d="M0,.927,0,0H.1L.1.916C.1.968.127,1,.207,1A.665.665,0,0,0,.288,1v.068a.369.369,0,0,1-.11.016C.065,1.081,0,1.026,0,.927Z" transform="translate(5.203 0.019)" fill="#c2341c"/>
      <path id="Path_2419" data-name="Path 2419" d="M0,.526V.275A.277.277,0,0,1,.312,0C.5,0,.623.093.622.269v.25A.273.273,0,0,1,.31.8C.119.8,0,.7,0,.526ZM.521.519V.264A.185.185,0,0,0,.31.068.188.188,0,0,0,.1.273v.25c0,.126.061.2.214.2A.185.185,0,0,0,.521.519Z" transform="translate(5.645 0.31)" fill="#c2341c"/>
      <path id="Path_2420" data-name="Path 2420" d="M0,.58C0,.4.177.342.321.34H.506V.2C.507.1.433.063.321.063s-.2.04-.2.127V.237H.032V.189C.033.065.168,0,.333,0S.609.057.608.193l0,.39c0,.056.006.155.008.2H.521L.515.652h0A.3.3,0,0,1,.244.8.217.217,0,0,1,0,.58ZM.5.529V.4H.339C.232.4.1.431.1.568A.156.156,0,0,0,.275.73.216.216,0,0,0,.5.529Z" transform="translate(6.451 0.306)" fill="#c2341c"/>
      <path id="Path_2421" data-name="Path 2421" d="M0,.878,0,.532A.245.245,0,0,1,.27.295.248.248,0,0,1,.507.429h0L.511,0h.1L.607,1.072H.518l0-.143H.51a.29.29,0,0,1-.264.162A.215.215,0,0,1,0,.878Zm.509-.1V.588A.232.232,0,0,0,.285.358.163.163,0,0,0,.1.532L.1.864c0,.095.051.158.177.157A.236.236,0,0,0,.509.777Z" transform="translate(7.283 0.008)" fill="#c2341c"/>
      <path id="Path_2422" data-name="Path 2422" d="M0,.525V.287A.285.285,0,0,1,.319,0,.254.254,0,0,1,.611.265V.409L.1.412V.527c0,.135.079.2.235.2A.5.5,0,0,0,.561.666L.6.723A.49.49,0,0,1,.324.8C.13.8,0,.716,0,.525ZM.516.346V.256A.181.181,0,0,0,.308.066.19.19,0,0,0,.1.261V.348l.414,0Z" transform="translate(8.126 0.298)" fill="#c2341c"/>
      <path id="Path_2423" data-name="Path 2423" d="M0,.878,0,.532A.245.245,0,0,1,.27.295.248.248,0,0,1,.507.429h0L.511,0h.1L.607,1.072H.518l0-.143H.51a.29.29,0,0,1-.264.162A.215.215,0,0,1,0,.878Zm.509-.1V.588A.232.232,0,0,0,.285.358.163.163,0,0,0,.1.532L.1.864c0,.095.051.158.177.157A.236.236,0,0,0,.509.777Z" transform="translate(8.929 0)" fill="#c2341c"/>
    </g>
    <g id="layer1" transform="translate(0 0)">
      <path id="path3003-4" d="M2.566,0A2.444,2.444,0,0,0,.823.922,3.09,3.09,0,0,0,0,3.083,3.21,3.21,0,0,0,2.51,6.2l0-.514A2.72,2.72,0,0,1,.533,3.008a2.819,2.819,0,0,1,.714-1.755A2.3,2.3,0,0,1,2.57.492Zm.571.677a2.269,2.269,0,0,0-.764.128A2.4,2.4,0,0,0,1,2.1,2.632,2.632,0,0,0,1.274,4.58a2.269,2.269,0,0,0,2.6.743A4.243,4.243,0,0,0,4.35,5.1L4.1,4.666a3.592,3.592,0,0,1-.423.2,1.828,1.828,0,0,1-2.2-2.542A1.938,1.938,0,0,1,2.526,1.3a1.816,1.816,0,0,1,1.563.2,1.9,1.9,0,0,1,.762,2.174.478.478,0,0,1-.4.3c0-.177,0-.437,0-.648a2.258,2.258,0,0,0-.08-.707,1.252,1.252,0,0,0-1.255-.9,1.16,1.16,0,0,0-1.067.572,1.4,1.4,0,0,0,.323,1.974,1.361,1.361,0,0,0,.98.206,1.464,1.464,0,0,0,.308-.091c.087-.039.2-.091.161-.093l0-.549a2.84,2.84,0,0,1-.343.181.962.962,0,0,1-.209.064.865.865,0,0,1-.646-.167A.9.9,0,0,1,3.108,2.2a.787.787,0,0,1,.749.584,1.79,1.79,0,0,1,.066.556c-.006.353-.007.847-.007.847l.006.289h.2s.122,0,.27,0a1.431,1.431,0,0,0,.239-.035A.652.652,0,0,0,4.9,4.312a1.151,1.151,0,0,0,.344-.44,2.157,2.157,0,0,0,.14-1.006A2.332,2.332,0,0,0,4.371,1.058,2.385,2.385,0,0,0,3.137.677Z" transform="translate(0 0)" fill="#c2341c"/>
      <path id="path4227-4" d="M5.4,0a.63.63,0,0,0-.567.406c-.276.64-.349.785-.633,1.476-.191.462-.3.689-.542,1.268-.074.176-.442,1.032-.442,1.032h.9c.221-.524.241-.563.313-.75.184-.378.293-.685.494-1.136.159-.357.242-.565.308-.714.074-.165.079-.24.165-.244.061,0,.123.2.286.572.1.218.269.633.331.779s.095.257.142.34a1.451,1.451,0,0,1,.1.224c.011.04-.155.016-.365.019-.4.005-.972,0-.972,0l-.385.9c1.1.014,1.9-.039,2.992-.009C7.041,2.991,6.131.845,6.087.735S5.981.491,5.953.418A.6.6,0,0,0,5.4,0ZM1.06.088A1.326,1.326,0,0,0,.676.178C.37.327.112.616.013,1.681A5.33,5.33,0,0,0,.137,3.418c.128.4.44.766.712.771l2.062-.009.359-.9S1.855,3.3,1.18,3.3c-.4,0-.318-.97-.33-1.539C.85,1.76.887,1,1.124,1c.748.012,3.019-.02,3.019-.02L4.571.089H1.06ZM6.2.077c0,.023.405.9.393.9.444,0,.908-.023,1.4-.006L7.969,4.155H8.8l.018-3.2L10.258.95c.01-.43,0-.649,0-.887-1.391,0-2.6.008-4.066.014Z" transform="translate(6.089 0.973)" fill="#fff"/>
    </g>
  </g>
</svg>
