<svg xmlns="http://www.w3.org/2000/svg" xmlns:xlink="http://www.w3.org/1999/xlink" width="280" height="209" viewBox="0 0 280 209">
  <defs>
    <clipPath id="clip-path">
      <rect id="Rectangle_18" data-name="Rectangle 18" width="280" height="209" fill="#fff" stroke="#707070" stroke-width="1"/>
    </clipPath>
    <linearGradient id="linear-gradient" x1="0.745" y1="0.457" x2="-0.779" y2="0.983" gradientUnits="objectBoundingBox">
      <stop offset="0" stop-color="#010101" stop-opacity="0"/>
      <stop offset="0.95" stop-color="#010101"/>
    </linearGradient>
    <linearGradient id="linear-gradient-2" x1="0.825" y1="0.467" x2="-1.515" y2="1.103" xlink:href="#linear-gradient"/>
    <linearGradient id="linear-gradient-3" x1="0.308" y1="0.451" x2="1.614" y2="0.732" xlink:href="#linear-gradient"/>
    <linearGradient id="linear-gradient-4" x1="0.095" y1="0.466" x2="2.962" y2="0.997" xlink:href="#linear-gradient"/>
    <linearGradient id="linear-gradient-5" x1="0.499" y1="-0.457" x2="0.5" y2="1.156" gradientUnits="objectBoundingBox">
      <stop offset="0" stop-color="#fff" stop-opacity="0"/>
      <stop offset="0.95" stop-color="#fff"/>
    </linearGradient>
    <linearGradient id="linear-gradient-6" x1="0.491" y1="1.302" x2="0.538" y2="-2.971" xlink:href="#linear-gradient"/>
    <linearGradient id="linear-gradient-7" x1="0.492" y1="1.751" x2="0.522" y2="-4.883" xlink:href="#linear-gradient"/>
    <linearGradient id="linear-gradient-8" x1="0" y1="0.5" x2="0.998" y2="0.5" xlink:href="#linear-gradient"/>
    <linearGradient id="linear-gradient-9" x1="-0.001" y1="0.501" x2="0.999" y2="0.501" gradientUnits="objectBoundingBox">
      <stop offset="0" stop-color="#e5c6d6"/>
      <stop offset="0.42" stop-color="#ead4d0"/>
      <stop offset="1" stop-color="#f0e9cb"/>
    </linearGradient>
    <linearGradient id="linear-gradient-10" x1="-0.001" y1="0.498" x2="1.001" y2="0.498" xlink:href="#linear-gradient-9"/>
    <linearGradient id="linear-gradient-11" x1="-0.184" y1="0.725" x2="3.062" y2="0.095" xlink:href="#linear-gradient"/>
  </defs>
  <g id="front-end" transform="translate(-140.408 -1905)">
    <g id="Group_30" data-name="Group 30" transform="translate(140.408 1905)">
      <g id="Mask_Group_12" data-name="Mask Group 12" clip-path="url(#clip-path)">
        <g id="html_1_" data-name="html (1)" transform="translate(8.29 0)">
          <path id="Path_1671" data-name="Path 1671" d="M37.361,175.335c-4.537-5.612-8.456-11.93-10.487-18.964-4.537-15.758.88-32.679,7.576-47.592,6.425-14.285,17.7-32.881,17.93-49.034.044-2.915-.682-5.778-1.117-8.662A43.03,43.03,0,0,1,61.795,16.158,39.19,39.19,0,0,1,86.817,3.834C116.5,1,148.593,13.8,167.338,16.407c21.592,3,43.683-4.15,65.191-.519,19.141,3.221,37.689-6.162,47.662,11.287s11.011,61.467,3.573,80.26c-2.748,6.946-6.682,13.4-8.545,20.665-2.046,7.988-1.448,16.469-.089,24.618,1.082,6.5,2.644,13.082,1.809,19.628-.988,7.781-5.323,14.721-10.626,20.256-14.678,15.323-36.621,20.956-57.284,19.638s-40.471-8.818-59.8-16.562c-4.646-1.867-9.316-3.766-14.223-4.632-5.609-.986-11.367-.586-17.016-.078-15.874,1.406-32.475,6.515-48.255,6.79C57.367,197.977,44.843,184.6,37.361,175.335Z" transform="translate(-25.201 -3.426)" fill="#f8f8f8"/>
          <path id="Path_1672" data-name="Path 1672" d="M477.077,221.741c.652-1.831.41-3.875.7-5.81a5.547,5.547,0,0,1,.949-2.557,3.5,3.5,0,0,1,3.7-1.271c1.764.519,2.886,2.443,3.084,4.352a13.765,13.765,0,0,1-.934,5.623c-1.24,3.771-2.723,7.449-3.988,11.209-1.043,3.112-1.715,7.137.717,9.228a13.264,13.264,0,0,1,1.932,1.515,4.344,4.344,0,0,1,.815,2.018c.954,5.3-2.639,10.442-6.919,13.388a9.038,9.038,0,0,1-4.7,1.862c-2.679.067-5.115-1.93-6.356-4.425a17.7,17.7,0,0,1-1.433-8.206,95.4,95.4,0,0,1,.939-10.68,35.089,35.089,0,0,1,1.73-8.3c.766-2,2.343-5.187,4.537-5.654S475.9,225.061,477.077,221.741Z" transform="translate(-256.474 -108.291)" fill="#c2341c"/>
          <path id="Path_1673" data-name="Path 1673" d="M475.126,221.521c.652-1.836.41-3.875.7-5.81a5.563,5.563,0,0,1,.949-2.562,3.5,3.5,0,0,1,3.7-1.266c1.764.519,2.886,2.443,3.084,4.347a13.78,13.78,0,0,1-.934,5.623c-1.24,3.771-2.723,7.449-3.988,11.215-1.043,3.112-1.715,7.132.717,9.223a13.3,13.3,0,0,1,1.932,1.52,4.328,4.328,0,0,1,.815,2.013c.954,5.3-2.639,10.442-6.919,13.393a8.987,8.987,0,0,1-4.7,1.857c-2.679.073-5.115-1.93-6.356-4.419a17.713,17.713,0,0,1-1.433-8.211,95.615,95.615,0,0,1,.939-10.68,35.418,35.418,0,0,1,1.73-8.3c.766-2,2.343-5.156,4.542-5.649S473.945,224.83,475.126,221.521Z" transform="translate(-255.447 -108.179)" fill="url(#linear-gradient)"/>
          <path id="Path_1674" data-name="Path 1674" d="M471.606,183.976c-5.14,8.953-3.7,21.044-9.612,29.463-1.794,2.557-4.181,4.627-5.792,7.319s-2.263,6.416-.405,8.922c5-3.045,6.746-9.555,9.237-15.043a2.947,2.947,0,0,1,.81-1.188c1.349-1,3.025.96,3.173,2.687.4,4.6-3.316,8.346-4.853,12.672-1.927,5.426-.549,12.231-4.206,16.568A4,4,0,0,1,457.1,247a4.486,4.486,0,0,1-2.293-.8,20.953,20.953,0,0,1-9.751-15.774c-.529-5.529.089-12.013,3.316-16.417,2.634-3.595,2.55-7.407,4.161-11.723a31.769,31.769,0,0,1,7.7-11.744,28.362,28.362,0,0,1,5.3-4.02C466.615,185.905,471.127,184.837,471.606,183.976Z" transform="translate(-246.081 -94.21)" fill="#c2341c"/>
          <path id="Path_1675" data-name="Path 1675" d="M470.143,183.976c-5.14,8.953-3.707,21.044-9.612,29.463-1.794,2.557-4.181,4.627-5.792,7.319s-2.263,6.416-.41,8.922c5.006-3.045,6.746-9.555,9.242-15.043a2.9,2.9,0,0,1,.81-1.188c1.349-1,3.025.96,3.173,2.687.4,4.6-3.316,8.346-4.853,12.672-1.927,5.426-.549,12.231-4.206,16.568A4.006,4.006,0,0,1,455.633,247a4.519,4.519,0,0,1-2.3-.8,20.979,20.979,0,0,1-9.751-15.774c-.524-5.529.094-12.013,3.316-16.417,2.639-3.595,2.555-7.407,4.166-11.723a31.769,31.769,0,0,1,7.7-11.744,28.362,28.362,0,0,1,5.3-4.02C465.156,185.905,469.663,184.837,470.143,183.976Z" transform="translate(-245.309 -94.21)" fill="url(#linear-gradient-2)"/>
          <path id="Path_1676" data-name="Path 1676" d="M94.122,233.7c-.988-3.112-1.384-6.365-2.318-9.477s-2.57-6.2-5.3-7.755-6.706-.975-8.209,1.883a6.94,6.94,0,0,0-.618,3.994c.544,4.819,4.369,8.59,5.387,13.326.608,2.811.168,5.763.563,8.621a14.522,14.522,0,0,0,6,9.887c1.829,1.255,3.924,2.033,5.792,3.226a16.311,16.311,0,0,1,5.782,6.52A15.413,15.413,0,0,0,105.9,252.2C105.484,242.656,96.692,241.645,94.122,233.7Z" transform="translate(-52.784 -110.123)" fill="#c2341c"/>
          <path id="Path_1677" data-name="Path 1677" d="M94.122,233.7c-.988-3.112-1.384-6.365-2.318-9.477s-2.57-6.2-5.3-7.755-6.706-.975-8.209,1.883a6.94,6.94,0,0,0-.618,3.994c.544,4.819,4.369,8.59,5.387,13.326.608,2.811.168,5.763.563,8.621a14.522,14.522,0,0,0,6,9.887c1.829,1.255,3.924,2.033,5.792,3.226a16.311,16.311,0,0,1,5.782,6.52A15.413,15.413,0,0,0,105.9,252.2C105.484,242.656,96.692,241.645,94.122,233.7Z" transform="translate(-52.784 -110.123)" fill="url(#linear-gradient-3)"/>
          <path id="Path_1678" data-name="Path 1678" d="M120.915,207.176c-.4-2.028-.385-4.15-.988-6.126s-2.036-3.9-4-4.1c-2.263-.239-4.23,1.966-4.69,4.305s.183,4.746.825,7.039l2.506,8.974c.781,2.785,1.255,6.468-1.112,7.973a14.89,14.89,0,0,1-1.73.773,5.865,5.865,0,0,0-3.212,5.467c.128,2.832,2.17,5.089,3.954,7.226s3.494,4.855,2.812,7.6c-.494,2.033-2.288,3.8-1.918,5.861a3.75,3.75,0,0,0,3.741,2.791,10.568,10.568,0,0,0,4.72-1.515l7.151-3.631c2.3-1.167,4.715-2.438,6.089-4.7a12.069,12.069,0,0,0,1.443-5.125,29.7,29.7,0,0,0-4.942-19.312C128.062,215.563,122.294,214.142,120.915,207.176Z" transform="translate(-69.046 -100.723)" fill="#c2341c"/>
          <path id="Path_1679" data-name="Path 1679" d="M120.915,207.176c-.4-2.028-.385-4.15-.988-6.126s-2.036-3.9-4-4.1c-2.263-.239-4.23,1.966-4.69,4.305s.183,4.746.825,7.039l2.506,8.974c.781,2.785,1.255,6.468-1.112,7.973a14.89,14.89,0,0,1-1.73.773,5.865,5.865,0,0,0-3.212,5.467c.128,2.832,2.17,5.089,3.954,7.226s3.494,4.855,2.812,7.6c-.494,2.033-2.288,3.8-1.918,5.861a3.75,3.75,0,0,0,3.741,2.791,10.568,10.568,0,0,0,4.72-1.515l7.151-3.631c2.3-1.167,4.715-2.438,6.089-4.7a12.069,12.069,0,0,0,1.443-5.125,29.7,29.7,0,0,0-4.942-19.312C128.062,215.563,122.294,214.142,120.915,207.176Z" transform="translate(-69.046 -100.723)" fill="url(#linear-gradient-4)"/>
          <rect id="Rectangle_926" data-name="Rectangle 926" width="147.833" height="100.272" rx="16.578" transform="translate(58.497 42.174)" fill="#c2341c"/>
          <rect id="Rectangle_927" data-name="Rectangle 927" width="139.496" height="94.613" rx="15.639" transform="translate(62.041 46.054)" fill="#fff"/>
          <g id="Group_590" data-name="Group 590" transform="translate(82.022 66.616)" opacity="0.52">
            <rect id="Rectangle_928" data-name="Rectangle 928" width="28.051" height="2.158"/>
            <rect id="Rectangle_929" data-name="Rectangle 929" width="17.119" height="2.028" transform="translate(0 4.176)"/>
            <rect id="Rectangle_930" data-name="Rectangle 930" width="53.879" height="2.039" transform="translate(24.029 4.176)"/>
            <rect id="Rectangle_931" data-name="Rectangle 931" width="23.544" height="2.137" transform="translate(8.901 8.367)"/>
            <rect id="Rectangle_932" data-name="Rectangle 932" width="28.051" height="2.158" transform="translate(16.457 12.542)"/>
            <rect id="Rectangle_933" data-name="Rectangle 933" width="23.51" height="2.396" transform="translate(46.337 12.542)"/>
            <rect id="Rectangle_934" data-name="Rectangle 934" width="21.661" height="2.028" transform="translate(16.418 16.723)"/>
            <rect id="Rectangle_935" data-name="Rectangle 935" width="44.696" height="2.246" transform="translate(40.155 16.723)"/>
            <rect id="Rectangle_936" data-name="Rectangle 936" width="28.051" height="2.158" transform="translate(0 22.377)"/>
            <rect id="Rectangle_937" data-name="Rectangle 937" width="17.119" height="2.028" transform="translate(0 26.553)"/>
            <rect id="Rectangle_938" data-name="Rectangle 938" width="53.879" height="2.039" transform="translate(24.029 26.553)"/>
            <rect id="Rectangle_939" data-name="Rectangle 939" width="23.544" height="2.137" transform="translate(8.901 30.734)"/>
            <rect id="Rectangle_940" data-name="Rectangle 940" width="28.051" height="2.158" transform="translate(16.457 34.92)"/>
            <rect id="Rectangle_941" data-name="Rectangle 941" width="23.51" height="2.396" transform="translate(46.337 34.92)"/>
            <rect id="Rectangle_942" data-name="Rectangle 942" width="21.661" height="2.028" transform="translate(16.418 39.1)"/>
            <rect id="Rectangle_943" data-name="Rectangle 943" width="44.696" height="2.246" transform="translate(40.155 39.1)"/>
            <rect id="Rectangle_944" data-name="Rectangle 944" width="28.051" height="2.158" transform="translate(0 44.754)"/>
            <rect id="Rectangle_945" data-name="Rectangle 945" width="17.119" height="2.028" transform="translate(0 48.93)"/>
            <rect id="Rectangle_946" data-name="Rectangle 946" width="53.879" height="2.039" transform="translate(24.029 48.93)"/>
            <rect id="Rectangle_947" data-name="Rectangle 947" width="23.544" height="2.137" transform="translate(8.901 53.111)"/>
            <rect id="Rectangle_948" data-name="Rectangle 948" width="28.051" height="2.158" transform="translate(16.457 57.286)"/>
            <rect id="Rectangle_949" data-name="Rectangle 949" width="23.51" height="2.396" transform="translate(46.337 57.286)"/>
            <rect id="Rectangle_950" data-name="Rectangle 950" width="21.661" height="2.028" transform="translate(16.418 61.477)"/>
            <rect id="Rectangle_951" data-name="Rectangle 951" width="44.696" height="2.246" transform="translate(40.155 61.477)"/>
          </g>
          <rect id="Rectangle_952" data-name="Rectangle 952" width="64.737" height="24.924" rx="12.462" transform="translate(90.745 96.328) rotate(180)" fill="#c2341c" opacity="0.24"/>
          <path id="Path_1680" data-name="Path 1680" d="M102.945,284.663,75.462,306.381H267.868L241,284.341Z" transform="translate(-39.713 -142.974)" fill="#c2341c"/>
          <path id="Path_1681" data-name="Path 1681" d="M102.945,284.663,75.462,306.381H267.868L241,284.341Z" transform="translate(-39.713 -142.974)" fill="url(#linear-gradient-5)"/>
          <path id="Path_1682" data-name="Path 1682" d="M374.141,303.122a1.975,1.975,0,0,1,1.226,2.651c-.445.731-1.567,1.209-1.339,2.044l2.629,1.39a1.455,1.455,0,0,1,.712.612c.376.856-.85,1.468-1.745,1.556L355,313.113a25.662,25.662,0,0,1-8.288-.2,26.009,26.009,0,0,1-5.288-2.173l-7.561-3.771a7.714,7.714,0,0,1-3.034-2.21,2.914,2.914,0,0,1,0-3.574,3.733,3.733,0,0,1,2.471-.768,133.543,133.543,0,0,1,21.167.436q5.13.519,10.22,1.432a43.818,43.818,0,0,0,5.219,1.037C371.279,303.382,372.8,302.661,374.141,303.122Z" transform="translate(-185.73 -152.642)" fill="url(#linear-gradient-6)"/>
          <path id="Path_1683" data-name="Path 1683" d="M83.335,336.613l-7.873-7.941H267.868l-7.107,8.429Z" transform="translate(-39.713 -165.264)" fill="#c2341c"/>
          <path id="Path_1684" data-name="Path 1684" d="M83.335,336.613l-7.873-7.941H267.868l-7.107,8.429Z" transform="translate(-39.713 -165.264)" fill="url(#linear-gradient-7)"/>
          <path id="Path_1685" data-name="Path 1685" d="M232.906,314.777l8.184-6.811,29.959-.161,8.649,6.805Z" transform="translate(-122.576 -154.772)" fill="#c2341c" opacity="0.58"/>
          <path id="Path_1686" data-name="Path 1686" d="M112.624,298.2l155.652-.218-8.337-7.132H122.2Z" transform="translate(-59.272 -146.247)" fill="#c2341c" opacity="0.58"/>
          <path id="Path_1687" data-name="Path 1687" d="M339.12,303.458a15.25,15.25,0,0,0,3.637,2.884c.712.451,1.665.887,2.308.337s.455-1.556.129-2.3c-.835-1.924-2.8-3.989-4.883-4.331C337.983,299.666,337.756,301.834,339.12,303.458Z" transform="translate(-189.974 -152.551)" fill="#606161"/>
          <path id="Path_1688" data-name="Path 1688" d="M339.12,303.458a15.25,15.25,0,0,0,3.637,2.884c.712.451,1.665.887,2.308.337s.455-1.556.129-2.3c-.835-1.924-2.8-3.989-4.883-4.331C337.983,299.666,337.756,301.834,339.12,303.458Z" transform="translate(-189.974 -152.551)" fill="url(#linear-gradient-8)"/>
          <path id="Path_1689" data-name="Path 1689" d="M345.885,243.86l-5.861,14.4-8.9,2.428-1.038,5.815,14.668-3.029,6.919-8.725s.988-10.219-.618-14.182C350.318,238.714,346.636,242,345.885,243.86Z" transform="translate(-185.664 -122.391)"/>
          <g id="Group_591" data-name="Group 591" transform="translate(161.674 19.061)" opacity="0.24">
            <rect id="Rectangle_953" data-name="Rectangle 953" width="89.161" height="43.151" rx="13.323" fill="#c2341c"/>
            <path id="Path_1690" data-name="Path 1690" d="M341.3,127.163V111.487h12.627Z" transform="translate(-341.295 -75.12)" fill="#c2341c"/>
          </g>
          <rect id="Rectangle_954" data-name="Rectangle 954" width="89.161" height="43.151" rx="13.323" transform="translate(161.674 15.103)" fill="#fff"/>
          <path id="Path_1691" data-name="Path 1691" d="M341.3,119.2V103.527h12.627Z" transform="translate(-179.621 -52.057)" fill="#fff"/>
          <rect id="Rectangle_955" data-name="Rectangle 955" width="64.737" height="24.924" rx="12.462" transform="translate(89.588 94.144) rotate(180)" fill="#fff"/>
          <g id="Group_592" data-name="Group 592" transform="translate(34.844 74.713)" opacity="0.52">
            <rect id="Rectangle_956" data-name="Rectangle 956" width="15.064" height="1.162"/>
            <rect id="Rectangle_957" data-name="Rectangle 957" width="9.197" height="1.089" transform="translate(0 2.241)"/>
            <rect id="Rectangle_958" data-name="Rectangle 958" width="28.936" height="1.094" transform="translate(12.909 2.241)"/>
            <rect id="Rectangle_959" data-name="Rectangle 959" width="12.642" height="1.146" transform="translate(4.784 4.492)"/>
            <rect id="Rectangle_960" data-name="Rectangle 960" width="15.064" height="1.162" transform="translate(8.841 6.738)"/>
            <rect id="Rectangle_961" data-name="Rectangle 961" width="12.627" height="1.286" transform="translate(24.888 6.738)"/>
            <rect id="Rectangle_962" data-name="Rectangle 962" width="11.634" height="1.089" transform="translate(8.822 8.979)"/>
            <rect id="Rectangle_963" data-name="Rectangle 963" width="24.004" height="1.209" transform="translate(21.567 8.979)"/>
            <rect id="Rectangle_964" data-name="Rectangle 964" width="15.064" height="1.162" transform="translate(0 12.013)"/>
            <rect id="Rectangle_965" data-name="Rectangle 965" width="9.197" height="1.089" transform="translate(0 14.259)"/>
            <rect id="Rectangle_966" data-name="Rectangle 966" width="28.936" height="1.094" transform="translate(12.909 14.259)"/>
          </g>
          <path id="Path_1692" data-name="Path 1692" d="M283.934,114.733l.267-1.447c.049-.27.094-.545.143-.845.435.078.85.145,1.265.233a.208.208,0,0,0,.173-.007.226.226,0,0,0,.113-.138c.188-.384.4-.757.618-1.12a.225.225,0,0,0,0-.316c-.277-.337-.549-.685-.835-1.037l1.8-1.587c.282.348.558.685.82,1.037a.233.233,0,0,0,.149.114.223.223,0,0,0,.182-.037,8.832,8.832,0,0,1,1.112-.431c.178-.052.217-.124.212-.3v-1.312h2.352v1.318c0,.176.044.239.213.29a9.358,9.358,0,0,1,1.112.431.223.223,0,0,0,.183.034.234.234,0,0,0,.148-.117c.262-.342.534-.674.815-1.037l1.8,1.587-.924,1.157c.247.488.494.949.731,1.4a.254.254,0,0,0,.217.067l1.285-.233.41,2.428c-.44.083-.865.156-1.285.244a.232.232,0,0,0-.183.14c-.084.519-.153,1.037-.227,1.556l1.24.757L296.67,119.7l-1.25-.752c-.405.337-.8.659-1.176,1a.237.237,0,0,0-.04.207c.143.436.3.871.45,1.323l-2.209.846c-.133-.394-.282-.778-.4-1.172-.069-.228-.163-.3-.4-.275a7.685,7.685,0,0,1-1.147,0c-.138,0-.193.031-.232.166-.138.42-.292.84-.45,1.286l-2.234-.82.494-1.432-1.255-1.115-1.26.762-1.176-2.137c.385-.233.751-.462,1.122-.68a.212.212,0,0,0,.119-.119.228.228,0,0,0,0-.172q-.133-.6-.208-1.209c0-.2-.064-.29-.277-.316-.405-.052-.811-.14-1.216-.218Zm7.2-2.946A3.157,3.157,0,1,0,294.1,115,3.077,3.077,0,0,0,291.134,111.787Z" transform="translate(-161.367 -55.778)" fill="#c2341c" opacity="0.24"/>
          <path id="Path_1693" data-name="Path 1693" d="M403.935,72.21l9.128-4.938V68.7l-7.695,4.03v.036l7.695,4.051v1.426L403.935,73.3Z" transform="translate(-224.529 -35.529)" fill="#c2341c"/>
          <path id="Path_1694" data-name="Path 1694" d="M428.995,59.844h1.73v6.225h.04A3.318,3.318,0,0,1,432,64.787a3.48,3.48,0,0,1,1.774-.519c1.275,0,3.321.825,3.321,4.274v5.965h-1.73V68.766c0-1.613-.568-2.977-2.2-2.977a2.49,2.49,0,0,0-2.323,1.821,2.267,2.267,0,0,0-.119.866v6.033h-1.73Z" transform="translate(-237.718 -31.794)" fill="#c2341c"/>
          <path id="Path_1695" data-name="Path 1695" d="M452.751,63.454v2.874h2.471V67.7h-2.471v5.4c0,1.24.336,1.945,1.3,1.945a3.682,3.682,0,0,0,.988-.124l.079,1.364a4.189,4.189,0,0,1-1.537.244,2.332,2.332,0,0,1-1.868-.763,3.783,3.783,0,0,1-.672-2.594V67.7h-1.483V66.327h1.483v-2.4Z" transform="translate(-248.541 -33.609)" fill="#c2341c"/>
          <path id="Path_1696" data-name="Path 1696" d="M465.563,71.7c0-1.037-.025-1.878-.084-2.7H467l.079,1.608h.059a3.26,3.26,0,0,1,2.99-1.836,2.83,2.83,0,0,1,2.689,2h.04a3.994,3.994,0,0,1,1.063-1.3,3.125,3.125,0,0,1,2.105-.7c1.255,0,3.128.866,3.128,4.336V79h-1.7V73.336c0-1.924-.667-3.081-2.066-3.081a2.271,2.271,0,0,0-2.036,1.67,3.11,3.11,0,0,0-.138.908V79h-1.69V73c0-1.592-.672-2.749-1.977-2.749a2.675,2.675,0,0,0-2.293,2.708V79h-1.69Z" transform="translate(-256.92 -36.281)" fill="#c2341c"/>
          <path id="Path_1697" data-name="Path 1697" d="M500.315,59.844h1.73V74.508h-1.73Z" transform="translate(-275.254 -31.794)" fill="#c2341c"/>
          <path id="Path_1698" data-name="Path 1698" d="M518.968,73.3l-9.128,4.917V76.8l7.749-4.051v-.036l-7.749-4.051V67.23l9.128,4.917Z" transform="translate(-280.267 -35.508)" fill="#c2341c"/>
          <path id="Path_1699" data-name="Path 1699" d="M336.981,278.088a3.765,3.765,0,0,0-3,3.595,5.946,5.946,0,0,0,1.834,3.714c5.5,6.359,12.355,12,20.065,11.993,2.52,0,5.011-.617,7.532-.788,1.67-.114,3.4-.042,4.942-.825,2.293-1.167,3.637-3.947,4.819-6.551l3.746-8.2c.88-1.935,1.754-4.336.781-6.225-.89-1.707-2.891-2.013-4.571-1.727-3.37.571-6.37,2.728-9.444,4.466-3.845,2.179-8.995,4.948-13.378,4.456S341.483,277.2,336.981,278.088Z" transform="translate(-187.712 -138.962)" fill="#606161"/>
          <path id="Path_1700" data-name="Path 1700" d="M363.764,259.677c.623,2.92,1.572,5.95,3.741,7.89,2.051,1.841,4.878,2.412,7.576,2.516a12.457,12.457,0,0,0,6.82-1.349c3.039-1.79,1.927-10.639,2.219-14.285s3.835-3.3,2.773-6.79c-1.151-3.766-4.216-6.4-6.84-9.238a9.132,9.132,0,0,0-2.471-1.966c-2.061-1.037-4.478-.954-6.776-.814a11.292,11.292,0,0,0-4.537,2.521C361.5,245.045,362.015,251.534,363.764,259.677Z" transform="translate(-202.728 -120.146)"/>
          <path id="Path_1701" data-name="Path 1701" d="M368.464,209.29a3.435,3.435,0,0,0-.712.887,2.165,2.165,0,0,0,.173,1.769,13.077,13.077,0,0,1,.815,1.629c.336,1.063.148,2.453,1.028,3.081.623.441,1.557.28,2.066.856.6.685.222,1.992.944,2.526a1.673,1.673,0,0,0,.835.244,7.359,7.359,0,0,0,2.5,0,2.685,2.685,0,0,0,1.942-1.515,4.209,4.209,0,0,0,.217-1.515l.173-7.361a15.778,15.778,0,0,0-.178-3.486,5.107,5.107,0,0,0-1.611-2.983,4.883,4.883,0,0,0-2.708-1.006,3.626,3.626,0,0,0-2.585.565C369.5,204.429,370.1,207.542,368.464,209.29Z" transform="translate(-205.426 -103.459)" fill="url(#linear-gradient-9)"/>
          <path id="Path_1702" data-name="Path 1702" d="M373.529,201.7c.583.41,1.265.643,1.858,1.037a4.448,4.448,0,0,1,1.868,3.112,11.313,11.313,0,0,1,.988-1.255,4.052,4.052,0,0,1,.944,1.276,1.421,1.421,0,0,1-.232,1.509c-.227.213-.558.322-.692.612-.237.519.351,1.006.633,1.5a4.122,4.122,0,0,1,.247,1.976c.01.674.213,1.463.815,1.7.8.306,1.537-.581,1.977-1.354a16.18,16.18,0,0,0,1.824-4.15,6.2,6.2,0,0,0-.455-4.461c-.405-.711-.988-1.3-1.349-2.039-.558-1.172-.45-2.594-1.043-3.766-.934-1.841-5.1-3.335-7.028-2.718C370.96,195.611,371.365,200.2,373.529,201.7Z" transform="translate(-207.615 -99.517)" fill="#606161"/>
          <path id="Path_1703" data-name="Path 1703" d="M316.374,283.4a9.18,9.18,0,0,0-3.084,1.447,13.51,13.51,0,0,0-2.12,2.215.915.915,0,0,0-.292.763.671.671,0,0,0,.351.384,3.1,3.1,0,0,0,2.377-.13,22.88,22.88,0,0,1,2.471-.643c.445-.093,1.013-.114,1.231.3.089.171.094.379.188.55a.726.726,0,0,0,.845.275,2.251,2.251,0,0,0,.786-.555l1.927-1.857a3.61,3.61,0,0,0,.643-.742,2.708,2.708,0,0,0,.227-1.9c-.3-.97-.2-.742-1.181-.8a14.007,14.007,0,0,0-4.369.69Z" transform="translate(-175.551 -143.857)" fill="url(#linear-gradient-10)"/>
          <path id="Path_1704" data-name="Path 1704" d="M364.707,274.584l4.216-7.781-.272,16.453S365.863,282.038,364.707,274.584Z" transform="translate(-203.883 -135.857)" fill="url(#linear-gradient-11)"/>
        </g>
      </g>
    </g>
  </g>
</svg>
