<svg id="graphic" xmlns="http://www.w3.org/2000/svg" width="292.345" height="184.613" viewBox="0 0 292.345 184.613">
  <rect id="Rectangle_1185" data-name="Rectangle 1185" width="231.03" height="170.012" transform="translate(60.082 0.15)" fill="#e6e6e6"/>
  <rect id="Rectangle_1186" data-name="Rectangle 1186" width="83.405" height="98.476" transform="translate(80.511 22.98)" fill="#fff"/>
  <rect id="Rectangle_1187" data-name="Rectangle 1187" width="83.405" height="119.604" transform="translate(195.11 24.89)" fill="#fff"/>
  <ellipse id="Ellipse_518" data-name="Ellipse 518" cx="14.941" cy="2.452" rx="14.941" ry="2.452" transform="translate(262.464 177.619)" fill="#e6e6e6"/>
  <ellipse id="Ellipse_519" data-name="Ellipse 519" cx="14.941" cy="2.452" rx="14.941" ry="2.452" transform="translate(113.089 177.674)" fill="#e6e6e6"/>
  <ellipse id="Ellipse_520" data-name="Ellipse 520" cx="34.29" cy="1.887" rx="34.29" ry="1.887" transform="translate(0 175.787)" fill="#e6e6e6"/>
  <rect id="Rectangle_1188" data-name="Rectangle 1188" width="231.03" height="11.278" transform="translate(59.983)" fill="#c2341c"/>
  <ellipse id="Ellipse_521" data-name="Ellipse 521" cx="1.819" cy="2.09" rx="1.819" ry="2.09" transform="translate(65.457 3.676)" fill="#e6e6e6"/>
  <ellipse id="Ellipse_522" data-name="Ellipse 522" cx="1.819" cy="2.09" rx="1.819" ry="2.09" transform="translate(72.363 3.676)" fill="#e6e6e6"/>
  <ellipse id="Ellipse_523" data-name="Ellipse 523" cx="1.819" cy="2.09" rx="1.819" ry="2.09" transform="translate(79.268 3.676)" fill="#e6e6e6"/>
  <path id="Path_2788" data-name="Path 2788" d="M853.255,314.911h-.505v-15.9c0-5.084-3.586-9.2-8.011-9.2H815.415c-4.424,0-8.011,4.121-8.011,9.2v87.247c0,5.083,3.587,9.2,8.011,9.2h29.323c4.424,0,8.011-4.121,8.011-9.2V326.231h.505Z" transform="translate(-593.128 -257.938)" fill="#3f3d56"/>
  <path id="Path_2789" data-name="Path 2789" d="M848.583,296.15h-3.828a3.686,3.686,0,0,1-.273,3.055,2.763,2.763,0,0,1-2.359,1.444h-16.8a2.763,2.763,0,0,1-2.359-1.444,3.685,3.685,0,0,1-.273-3.055h-3.575c-3.3,0-5.982,3.077-5.982,6.874v87.12c0,3.8,2.678,6.874,5.982,6.874h29.465c3.3,0,5.982-3.078,5.982-6.874v-87.12c0-3.8-2.678-6.874-5.982-6.874Z" transform="translate(-596.978 -261.891)" fill="#fff"/>
  <rect id="Rectangle_1189" data-name="Rectangle 1189" width="57.971" height="3.038" transform="translate(93.285 85.186)" fill="#e6e6e6"/>
  <rect id="Rectangle_1190" data-name="Rectangle 1190" width="57.971" height="3.038" transform="translate(93.285 94.995)" fill="#c2341c"/>
  <rect id="Rectangle_1191" data-name="Rectangle 1191" width="57.971" height="3.038" transform="translate(93.285 104.805)" fill="#e6e6e6"/>
  <rect id="Rectangle_1192" data-name="Rectangle 1192" width="33.843" height="3.038" transform="translate(220.28 91.815)" fill="#e6e6e6"/>
  <rect id="Rectangle_1193" data-name="Rectangle 1193" width="33.843" height="3.038" transform="translate(220.28 101.247)" fill="#e6e6e6"/>
  <rect id="Rectangle_1194" data-name="Rectangle 1194" width="33.843" height="3.038" transform="translate(220.28 110.68)" fill="#e6e6e6"/>
  <rect id="Rectangle_1195" data-name="Rectangle 1195" width="6.481" height="5.64" transform="translate(257.661 151.378) rotate(90)" fill="#3f3d56"/>
  <rect id="Rectangle_1196" data-name="Rectangle 1196" width="6.481" height="5.64" transform="translate(248.574 151.378) rotate(90)" fill="#c2341c"/>
  <rect id="Rectangle_1197" data-name="Rectangle 1197" width="6.481" height="5.64" transform="translate(239.486 151.378) rotate(90)" fill="#3f3d56"/>
  <rect id="Rectangle_1198" data-name="Rectangle 1198" width="6.481" height="5.64" transform="translate(230.399 151.378) rotate(90)" fill="#3f3d56"/>
  <rect id="Rectangle_1199" data-name="Rectangle 1199" width="6.481" height="5.64" transform="translate(221.312 151.378) rotate(90)" fill="#3f3d56"/>
  <rect id="Rectangle_1200" data-name="Rectangle 1200" width="18.801" height="21.603" transform="translate(227.473 52.441)" fill="#c2341c"/>
  <path id="Path_2790" data-name="Path 2790" d="M501.965,467.559l-.243.559-.73-4.194s-.973-4.474.973-4.474,1.46,4.474,1.46,4.474V467Z" transform="translate(-387.167 -363.578)" fill="#a0616a"/>
  <path id="Path_2791" data-name="Path 2791" d="M598.6,466.041l.243.559.73-4.194s.973-4.474-.973-4.474-1.46,4.474-1.46,4.474v3.076Z" transform="translate(-451.87 -362.633)" fill="#a0616a"/>
  <path id="Path_2792" data-name="Path 2792" d="M376.242,358.94l-2.92,20.693,1.46,20.133,3.407-1.677-.487-15.1,3.407-12.024.73,14.261-1.46,14.82,4.38.56,3.164-30.48-.243-10.346Z" transform="translate(-250.736 -223.512)" fill="#2f2e41"/>
  <path id="Path_2793" data-name="Path 2793" d="M533.58,665.364l-1.7,3.076v6.873a.808.808,0,0,0,.609.823c.835.157,2.289.269,2.8-.7.73-1.4.243-4.474.243-4.474a6.974,6.974,0,0,0,.487-3.915c-.487-1.678-.973-1.957-.973-1.957Z" transform="translate(-408.073 -491.626)" fill="#2f2e41"/>
  <path id="Path_2794" data-name="Path 2794" d="M553.325,672.775l.487.839s.73.839.243,1.4a10.811,10.811,0,0,0-.974,1.4s-2.677.839-2.677-.28V672.5Z" transform="translate(-420.518 -496.242)" fill="#2f2e41"/>
  <ellipse id="Ellipse_524" data-name="Ellipse 524" cx="3.226" cy="3.707" rx="3.226" ry="3.707" transform="translate(128.704 105.256)" fill="#a0616a"/>
  <path id="Path_2795" data-name="Path 2795" d="M394.687,291.867l-.243,5.313,4.38.28-.243-5.313Z" transform="translate(-264.923 -181.746)" fill="#a0616a"/>
  <path id="Path_2796" data-name="Path 2796" d="M541.091,508.162l-.691-1.939s-3.2-1.416-4.176-.018l-.487,1.678-3.894-1.119-2.19,5.593L531.6,528.3s5.111,7.55,11.925.28l1.947-15.1-1.46-5.872Z" transform="translate(-406.58 -392.308)"/>
  <path id="Path_2797" data-name="Path 2797" d="M417.049,284.484l.487-1.119,4.867-3.356,2.97-10.1,2.3,1.132-2.592,12.047-7.058,7.55Z" transform="translate(-280.104 -168.071)"/>
  <path id="Path_2798" data-name="Path 2798" d="M358.068,284.069l-.487-.559-5.111-3.635-3.65-8.389L345.9,272.6l3.163,10.346,7.788,7.271Z" transform="translate(-232.318 -169.054)"/>
  <path id="Path_2799" data-name="Path 2799" d="M552.065,476.707l.527-.3-.791-.3v-.3s-3.956-1.818-4.483,1.212a6.831,6.831,0,0,0,0,7.273v.909l4.22.606.527-1.818S554.7,478.525,552.065,476.707Z" transform="translate(-417.74 -373.421)" fill="#2f2e41"/>
  <path id="Path_2800" data-name="Path 2800" d="M262.178,565.16l-.938.539s-3.751,1.975-2.657,3.052,4.063-1.077,4.063-1.077l.625-.9Z" transform="translate(-224.387 -429.403)" fill="#ffb8b8"/>
  <path id="Path_2801" data-name="Path 2801" d="M170.65,359.1l-2.9,22.354-4.376,15.621-2.344-1.257,2.188-21.367-6.251-6.105.469-8.978Z" transform="translate(-105.426 -223.61)" fill="#2f2e41"/>
  <path id="Path_2802" data-name="Path 2802" d="M320.439,662.3s2.657-1.616,2.813.718l-.312,2.334s.938,4.13-2.188,3.232-.938-3.591-.938-3.591Z" transform="translate(-265.145 -489.551)" fill="#2f2e41"/>
  <path id="Path_2803" data-name="Path 2803" d="M313.85,583.72l-2.032,1.975s0,12.21,1.406,14.005,10.314,10.953,10.626,11.312,1.719-3.591,1.719-3.591l-8.439-11.312.625-7Z" transform="translate(-260.274 -440.96)" fill="#2f2e41"/>
  <path id="Path_2804" data-name="Path 2804" d="M347.965,645s2.5-.539,2.5,1.436q.047,2.342.313,4.669s.625,6.285-1.406,5.387-2.813-7.182-2.813-7.182a2.608,2.608,0,0,1,.938-1.257C348.122,647.694,347.965,645,347.965,645Z" transform="translate(-283.607 -479.079)" fill="#2f2e41"/>
  <path id="Path_2805" data-name="Path 2805" d="M162.929,288.424l.469,6.644-1.25,2.514-3.438-3.771-.313-5.028Z" transform="translate(-106.385 -179.602)" fill="#ffb8b8"/>
  <ellipse id="Ellipse_525" data-name="Ellipse 525" cx="3.75" cy="4.309" rx="3.75" ry="4.309" transform="translate(49.98 102.358)" fill="#ffb8b8"/>
  <path id="Path_2806" data-name="Path 2806" d="M158.8,296.963l1.563-5.207,2.813,3.591,5.157,22.8-3.907,2.694-1.719-2.873-.313,3.771-7.657-1.8-.625-24.061,1.562-2.528Z" transform="translate(-103.509 -181.676)"/>
  <path id="Path_2809" data-name="Path 2809" d="M350.31,565.595l-.213,1.179s-.976,4.606.438,4.287,1.782-4.331,1.782-4.331l-.226-1.12Z" transform="translate(-285.764 -429.674)" fill="#ffb8b8"/>
  <path id="Path_2811" data-name="Path 2811" d="M309.758,467.837l1.1-.632v.632l.734-.422v1.054s2.752,2.319,2.2,5.06-.55,2.952-.55,2.952-.7-5.212-3.448-4.369-2.974,1-3.708,3.315l-.2.995S302.786,468.259,309.758,467.837Z" transform="translate(-255.83 -368.406)" fill="#2f2e41"/>
  <rect id="Rectangle_1201" data-name="Rectangle 1201" width="46.077" height="36.791" transform="translate(1.16 139.893)" fill="#c2341c"/>
  <path id="Path_2813" data-name="Path 2813" d="M208.578,595.148c-5.391,0-9.762,5.022-9.762,11.217s4.371,11.217,9.762,11.217,9.762-5.022,9.762-11.217c-.016-6.187-4.377-11.2-9.762-11.217Zm0,3.365a3.4,3.4,0,1,1-2.929,3.365A3.17,3.17,0,0,1,208.578,598.513Zm0,16.2a6.915,6.915,0,0,1-5.857-3.592c.047-2.243,3.9-3.478,5.857-3.478s5.81,1.235,5.857,3.478a6.926,6.926,0,0,1-5.857,3.591Z" transform="translate(-184.379 -448.077)" fill="#fff"/>
  <rect id="Rectangle_1202" data-name="Rectangle 1202" width="57.792" height="38.107" transform="translate(93.317 34.299)" fill="#e6e6e6"/>
  <path id="Path_2814" data-name="Path 2814" d="M959.64,486.2l.268-1.985s1.561-4.077.327-4.3-2.263,3.661-2.263,3.661l.451,4.145Z" transform="translate(-694.254 -376.32)" fill="#ffb8b8"/>
  <path id="Path_2815" data-name="Path 2815" d="M814.856,301.145,803.829,298.6l-1.281-9.228-3.246-.288.159,11.931,9.581,5.772Z" transform="translate(-536.839 -180.013)" fill="#151515"/>
  <rect id="Rectangle_1203" data-name="Rectangle 1203" width="33.843" height="3.038" transform="translate(281.861 107.442) rotate(180)" fill="#c2341c"/>
  <path id="Path_2817" data-name="Path 2817" d="M952.41,484.363l0-2.008s1-4.3-.245-4.3-1.752,4.014-1.752,4.014l.994,4.018Z" transform="translate(-689.178 -375.161)" fill="#ffb8b8"/>
  <path id="Path_2818" data-name="Path 2818" d="M989.967,490.81l1.513-.424a3.721,3.721,0,0,0,3.018-1.639,4.98,4.98,0,0,0,.8-3.723h0c0-3.231-2.273-5.853-5.085-5.857h0c-2.811,0-5.093,2.612-5.1,5.842h0a5.152,5.152,0,0,0,.97,4.5A3.715,3.715,0,0,0,989.967,490.81Z" transform="translate(-712.383 -375.856)" fill="#2f2e41"/>
  <path id="Path_2819" data-name="Path 2819" d="M818.254,377.681l1.232,15.494,2.23,15.209,3.745.005-.483-14.919L823,375.393Z" transform="translate(-549.567 -233.756)" fill="#2f2e41"/>
  <path id="Path_2820" data-name="Path 2820" d="M973.225,665.9l-2.5,1.718s-4,.568-3.248,2,9.487.587,9.488.014-.246-3.73-.745-3.731Z" transform="translate(-700.577 -492.137)" fill="#2f2e41"/>
  <path id="Path_2821" data-name="Path 2821" d="M987.222,578.379a14.953,14.953,0,0,1-1.822,5.655l.238,10.615,8.974,13.21-3.249,3.151L980.393,596.65l-2.728-17.218,3.5-4.011Z" transform="translate(-707.48 -435.793)" fill="#2f2e41"/>
  <path id="Path_2822" data-name="Path 2822" d="M1019.623,661.394s3,.578,2.495,2.012-1.757,8.031-5,7.165c0,0-1.5,0-1-1.149a21.765,21.765,0,0,1,1-2.007l0-3.73Z" transform="translate(-733.238 -489.328)" fill="#2f2e41"/>
  <ellipse id="Ellipse_526" data-name="Ellipse 526" cx="3.745" cy="4.303" rx="3.745" ry="4.303" transform="translate(272.218 106.638)" fill="#ffb8b8"/>
  <path id="Path_2823" data-name="Path 2823" d="M837.546,301.644l-.005,4.877-3.995-.006.5-4.876Z" transform="translate(-559.838 -187.831)" fill="#ffb8b8"/>
  <path id="Path_2824" data-name="Path 2824" d="M976.1,514.783l1.211-.342,3.783.349s2,2.3,1.745,2.871-1.514,14.63-1.514,14.63l2.236,10.044-7.991.562-3.994-.58.769-18.073s-1.742-4.88.506-6.311a10.327,10.327,0,0,0,3.249-3.151Z" transform="translate(-703.395 -397.821)"/>
  <path id="Path_2825" data-name="Path 2825" d="M809.486,297.4l-11.235-.59-2.487-8.9-3.246.282,1.735,11.765,10.233,4.031Z" transform="translate(-532.283 -179.282)"/>
  <ellipse id="Ellipse_527" data-name="Ellipse 527" cx="2.416" cy="2.776" rx="2.416" ry="2.776" transform="translate(280.777 102.218)" fill="#2f2e41"/>
  <path id="Path_2826" data-name="Path 2826" d="M1009.353,474.748a2.953,2.953,0,0,1,.886-2.146,2.189,2.189,0,0,1,2.006-.573,2.167,2.167,0,0,0-2.564.363,3.025,3.025,0,0,0-.812,2.818,2.6,2.6,0,0,0,1.87,2.049,2.831,2.831,0,0,1-1.386-2.512Z" transform="translate(-728.391 -371.245)" fill="#2f2e41"/>
  <path id="Path_2827" data-name="Path 2827" d="M988.747,482.71l-3.258-.689-2.505,1.8a4.622,4.622,0,0,0-1.751,4.262l2.509-.731.562-1.619.669,1.26,2.715,5.454,2.748-1.717,1.751-3.153Z" transform="translate(-709.856 -377.632)" fill="#2f2e41"/>
  <path id="Path_2828" data-name="Path 2828" d="M5.451.148l.73-.042L1.895,69.2l-.73.042Z" transform="translate(90.312 39.281) rotate(-60.15)" fill="#fff"/>
  <path id="Path_2829" data-name="Path 2829" d="M.148,5.451,69.24,1.164l-.042.73L.106,6.181Z" transform="matrix(0.867, -0.498, 0.498, 0.867, 90.312, 67.423)" fill="#fff"/>
  <g id="Component_67" data-name="Component 67" transform="matrix(0.998, -0.07, 0.07, 0.998, 50.484, 121.496)">
    <g id="Group_683" data-name="Group 683" transform="translate(2.313 7.04)">
      <path id="Path_2413" data-name="Path 2413" d="M0,.934V.418C0,.152.141,0,.313,0S.606.134.606.376V.464H.45V.4C.45.286.4.213.313.213S.174.292.174.42v.5c0,.147.056.217.141.217S.45,1.07.45.958V.886H.606V.974c0,.246-.128.378-.291.378S0,1.226,0,.934Z" transform="translate(0 0)" fill="#fff"/>
      <path id="Path_2414" data-name="Path 2414" d="M.254,0h.21l.25,1.31H.54L.484,1H.215L.16,1.31H0ZM.447.8.352.255h0L.252.8Z" transform="translate(0.665 0.02)" fill="#fff"/>
      <path id="Path_2415" data-name="Path 2415" d="M.23.211H0V0H.631V.211H.4v1.1H.23V.211Z" transform="translate(1.361 0.022)" fill="#fff"/>
      <path id="Path_2416" data-name="Path 2416" d="M0,0H.248C.41,0,.5.147.5.367.5.561.432.708.3.732l.222.576H.442L.23.749H.071v.56H0ZM.229.662c.131,0,.2-.1.2-.288C.424.209.37.09.237.09H.071V.662Z" transform="translate(2.333 0.022)" fill="#c2341c"/>
      <path id="Path_2417" data-name="Path 2417" d="M0,.639V.349C0,.123.091,0,.215,0s.2.123.2.325V.5H.069V.642c0,.165.054.242.161.242A.233.233,0,0,0,.382.815l.024.07A.233.233,0,0,1,.221.972C.09.973,0,.872,0,.639ZM.351.424V.314C.351.2.317.081.208.081S.069.2.069.317V.424H.351Z" transform="translate(2.969 0.38)" fill="#c2341c"/>
      <path id="Path_2418" data-name="Path 2418" d="M0,1.13V0H.068V1.118c0,.064.019.108.074.108A.255.255,0,0,0,.2,1.219V1.3a.149.149,0,0,1-.075.018C.045,1.319,0,1.252,0,1.13Z" transform="translate(3.54 0.022)" fill="#c2341c"/>
      <path id="Path_2419" data-name="Path 2419" d="M0,.64V.334C0,.121.087,0,.21,0S.422.116.422.33v.3c0,.224-.086.338-.21.338S0,.855,0,.64ZM.354.635V.323C.354.191.313.082.209.082S.068.2.068.332v.3c0,.154.042.25.146.25S.354.774.354.635Z" transform="translate(3.84 0.38)" fill="#c2341c"/>
      <path id="Path_2420" data-name="Path 2420" d="M0,.706C0,.492.12.417.218.415H.343V.244C.343.127.292.077.216.077A.138.138,0,0,0,.081.231V.288H.021V.229A.2.2,0,0,1,.225,0c.1,0,.187.072.187.237V.712C.412.78.417.9.418.95H.355L.35.8h0C.309.932.225.971.167.971.079.971,0,.883,0,.706ZM.343.646V.488H.23c-.073,0-.16.037-.16.2,0,.136.057.2.117.2C.272.89.343.787.343.646Z" transform="translate(4.389 0.38)" fill="#c2341c"/>
      <path id="Path_2421" data-name="Path 2421" d="M0,1.068V.646C0,.455.088.358.181.358c.066,0,.137.055.162.165h0V0H.413V1.308H.353l0-.174h0c-.041.147-.116.2-.179.2C.057,1.33,0,1.213,0,1.068ZM.346.947V.718C.346.56.269.435.192.435S.068.488.068.646v.406c0,.116.035.193.121.193S.346,1.13.346.947Z" transform="translate(4.954 0.022)" fill="#c2341c"/>
      <path id="Path_2422" data-name="Path 2422" d="M0,.639V.349C0,.123.091,0,.215,0s.2.123.2.325V.5H.069V.642c0,.165.054.242.161.242A.233.233,0,0,0,.382.815l.024.07A.233.233,0,0,1,.221.972C.089.973,0,.872,0,.639ZM.351.424V.314C.351.2.317.081.208.081S.069.2.069.317V.424H.351Z" transform="translate(5.528 0.38)" fill="#c2341c"/>
      <path id="Path_2423" data-name="Path 2423" d="M0,1.068V.646C0,.455.088.358.181.358c.066,0,.137.055.162.165h0V0H.413V1.308H.353l0-.174h0c-.041.147-.116.2-.179.2C.057,1.33,0,1.213,0,1.068ZM.346.947V.718C.346.56.269.435.192.435S.068.488.068.646v.406c0,.116.035.193.121.193S.346,1.13.346.947Z" transform="translate(6.074 0.022)" fill="#c2341c"/>
    </g>
    <g id="layer1" transform="translate(0 0)">
      <path id="path3003-4" d="M1.735,0C1.165,0,.73.731.552,1.115A5.674,5.674,0,0,0,0,3.748C.038,5.975.966,7.332,1.719,7.572V6.944C.836,6.6.36,4.961.363,3.66A5.047,5.047,0,0,1,.842,1.523C1.011,1.2,1.319.7,1.739.6Zm.391.83a.943.943,0,0,0-.519.152,2.6,2.6,0,0,0-.93,1.576,5.472,5.472,0,0,0,.2,3.025c.484,1.029,1.187,1.346,1.771.921a2.692,2.692,0,0,0,.323-.274L2.793,5.7a2.3,2.3,0,0,1-.287.246C1.43,6.532.534,4.568,1,2.834a2.183,2.183,0,0,1,.715-1.247.788.788,0,0,1,1.064.249A3.437,3.437,0,0,1,3.3,4.493c-.046.2-.147.349-.271.367,0-.216,0-.533,0-.791a4.851,4.851,0,0,0-.057-.863c-.124-.777-.524-1.111-.857-1.1-.4.017-.554.271-.724.692a2.67,2.67,0,0,0,.227,2.411.625.625,0,0,0,.667.256.708.708,0,0,0,.209-.11c.059-.047.138-.11.109-.113v-.67a1.907,1.907,0,0,1-.233.219.465.465,0,0,1-.142.077c-.192.024-.285-.024-.44-.207-.442-.518-.265-1.926.322-1.968.253.051.424.244.512.717a3.846,3.846,0,0,1,.047.679c0,.431,0,1.033,0,1.033l0,.353h.139a1.663,1.663,0,0,0,.183,0,.577.577,0,0,0,.163-.041.408.408,0,0,0,.181-.156,1.535,1.535,0,0,0,.232-.535,4.556,4.556,0,0,0,.092-1.227,3.771,3.771,0,0,0-.7-2.212A1.209,1.209,0,0,0,2.125.83Z" fill="#c2341c"/>
      <path id="path4227-4" d="M3.663,0c-.153,0-.307.168-.384.492-.186.779-.234.956-.426,1.8-.128.563-.2.839-.364,1.544-.05.214-.3,1.257-.3,1.257l.614.005c.148-.638.162-.686.21-.913.124-.461.2-.835.332-1.384.107-.435.162-.688.207-.869.049-.2.053-.292.112-.3.042,0,.085.248.2.7.066.267.185.774.228.953s.065.314.1.415a2.673,2.673,0,0,1,.07.274c.008.049-.105.019-.248.021-.271,0-.661,0-.661,0l-.259,1.1c.746.023,1.294-.037,2.035.006C4.792,3.66,4.166,1.035,4.135.9S4.062.6,4.043.513C3.968.167,3.816,0,3.663,0ZM.713.083S.5.123.453.191C.245.371.071.723.007,2.022A11.567,11.567,0,0,0,.1,4.141c.088.488.3.938.487.945h1.4l.241-1.1S1.266,4.005.806,4c-.273,0-.22-1.185-.23-1.88,0,0,.023-.931.184-.925.509.019,2.054-.007,2.054-.007L3.1.1ZM4.208.1c0,.028.279,1.1.27,1.1.3,0,.618-.023.95,0V5.085l.563,0v-3.9l.981,0c.005-.524,0-.792,0-1.082C6.027.1,5.206.1,4.208.1Z" transform="translate(4.142 1.237)" fill="#fff"/>
    </g>
  </g>
  <path id="Path_2830" data-name="Path 2830" d="M2.534.113,3.24.064,1.267,28.506l-.706.049Z" transform="translate(225.516 54.389) rotate(-45)" fill="#fff"/>
  <path id="Path_2831" data-name="Path 2831" d="M.113,2.534,28.555.562l-.049.706L.064,3.24Z" transform="translate(225.516 71.937) rotate(-45)" fill="#fff"/>
  <g id="Component_66" data-name="Component 66" transform="translate(125.875 123.771)">
    <g id="Group_683-2" data-name="Group 683" transform="translate(2.158 5.946)">
      <path id="Path_2413-2" data-name="Path 2413" d="M0,.789V.353C0,.129.132,0,.292,0A.28.28,0,0,1,.565.318V.392H.42V.338C.42.242.37.18.292.18S.162.246.162.355V.779C.162.9.214.962.294.962S.42.9.42.809V.748H.565V.823c0,.208-.12.319-.272.319S0,1.035,0,.789Z" transform="translate(0 0)" fill="#fff"/>
      <path id="Path_2414-2" data-name="Path 2414" d="M.237,0h.2L.667,1.107H.5L.451.842H.2l-.052.265H0Zm.18.672L.328.215h0L.235.672Z" transform="translate(0.621 0.017)" fill="#fff"/>
      <path id="Path_2415-2" data-name="Path 2415" d="M.214.178H0V0H.589V.178H.376V1.1H.214V.178Z" transform="translate(1.27 0.018)" fill="#fff"/>
      <path id="Path_2416-2" data-name="Path 2416" d="M0,0H.231C.382,0,.463.124.463.31.463.474.4.6.28.618L.487,1.1H.413L.214.632H.067V1.1H0ZM.213.559C.335.559.4.479.4.316.4.177.345.076.221.076H.067V.559Z" transform="translate(2.177 0.018)" fill="#c2341c"/>
      <path id="Path_2417-2" data-name="Path 2417" d="M0,.539V.294C0,.1.085,0,.2,0S.387.1.387.274V.423H.064V.542c0,.139.051.2.15.2A.227.227,0,0,0,.356.688L.379.747A.227.227,0,0,1,.206.821C.084.821,0,.736,0,.539ZM.327.358V.265c0-.1-.032-.2-.133-.2s-.13.1-.13.2v.09H.327Z" transform="translate(2.771 0.321)" fill="#c2341c"/>
      <path id="Path_2418-2" data-name="Path 2418" d="M0,.955V0H.063V.944c0,.054.018.091.069.091a.262.262,0,0,0,.051-.006V1.1a.151.151,0,0,1-.07.016C.042,1.114,0,1.057,0,.955Z" transform="translate(3.303 0.018)" fill="#c2341c"/>
      <path id="Path_2419-2" data-name="Path 2419" d="M0,.541V.282C0,.1.081,0,.2,0s.2.1.2.279V.536c0,.189-.08.285-.2.285S0,.722,0,.541Zm.331,0V.273C.331.161.292.07.2.07S.063.166.063.28V.538C.063.668.1.748.2.748S.331.654.331.536Z" transform="translate(3.584 0.321)" fill="#c2341c"/>
      <path id="Path_2420-2" data-name="Path 2420" d="M0,.6C0,.415.112.352.2.35H.32V.206C.32.107.273.065.2.065A.122.122,0,0,0,.076.2V.243H.019V.194A.18.18,0,0,1,.21,0c.1,0,.175.06.175.2V.6c0,.057,0,.16.006.2H.331l0-.13h0A.183.183,0,0,1,.156.82C.073.82,0,.746,0,.6ZM.32.546V.412H.214C.147.412.065.443.065.584.065.7.118.752.175.752.254.752.32.665.32.546Z" transform="translate(4.095 0.321)" fill="#c2341c"/>
      <path id="Path_2421-2" data-name="Path 2421" d="M0,.9V.546C0,.384.082.3.169.3A.165.165,0,0,1,.32.442h0V0H.386V1.1H.329l0-.147h0c-.038.124-.108.166-.167.166C.053,1.124,0,1.024,0,.9ZM.322.8V.606C.322.473.251.367.179.367S.063.412.063.546V.888c0,.1.033.163.113.163S.322.955.322.8Z" transform="translate(4.623 0.018)" fill="#c2341c"/>
      <path id="Path_2422-2" data-name="Path 2422" d="M0,.539V.294C0,.1.085,0,.2,0S.387.1.387.274V.423H.064V.542c0,.139.051.2.15.2A.227.227,0,0,0,.356.688L.379.747A.227.227,0,0,1,.206.821C.083.821,0,.736,0,.539ZM.327.358V.265c0-.1-.032-.2-.133-.2s-.13.1-.13.2v.09H.327Z" transform="translate(5.159 0.321)" fill="#c2341c"/>
      <path id="Path_2423-2" data-name="Path 2423" d="M0,.9V.546C0,.384.082.3.169.3A.165.165,0,0,1,.32.442h0V0H.386V1.1H.329l0-.147h0c-.038.124-.108.166-.167.166C.053,1.124,0,1.024,0,.9ZM.323.8V.606C.323.473.251.367.179.367S.063.412.063.546V.888c0,.1.033.163.113.163S.323.955.323.8Z" transform="translate(5.668 0.018)" fill="#c2341c"/>
    </g>
    <g id="layer1-2" data-name="layer1" transform="translate(0 0)">
      <path id="path3003-4-2" data-name="path3003-4" d="M1.619,0C1.087,0,.681.617.515.942A4.416,4.416,0,0,0,0,3.165C.035,5.046.9,6.192,1.6,6.395v-.53C.78,5.573.336,4.19.338,3.091A3.938,3.938,0,0,1,.786,1.286,1.509,1.509,0,0,1,1.623.507Zm.365.7A.949.949,0,0,0,1.5.83,2.172,2.172,0,0,0,.631,2.16,4.206,4.206,0,0,0,.814,4.715c.452.869,1.107,1.137,1.653.778a2.459,2.459,0,0,0,.3-.232l-.162-.445a2.1,2.1,0,0,1-.268.207C1.334,5.516.5,3.858.931,2.394A1.81,1.81,0,0,1,1.6,1.34a.786.786,0,0,1,.993.21,2.687,2.687,0,0,1,.491,2.244c-.043.172-.138.295-.253.31,0-.182,0-.45,0-.668a3.716,3.716,0,0,0-.053-.729c-.115-.656-.489-.939-.8-.93-.376.015-.517.229-.675.585A2.073,2.073,0,0,0,1.51,4.4a.616.616,0,0,0,.623.217.686.686,0,0,0,.2-.093c.055-.04.128-.093.1-.1V3.86a1.723,1.723,0,0,1-.217.185.451.451,0,0,1-.132.065.412.412,0,0,1-.41-.175c-.412-.437-.247-1.626.3-1.662.236.043.4.206.477.606a2.946,2.946,0,0,1,.044.574c0,.364,0,.873,0,.873l0,.3h.129s.077,0,.171,0a.585.585,0,0,0,.152-.034.374.374,0,0,0,.169-.132A1.241,1.241,0,0,0,3.332,4a3.494,3.494,0,0,0,.086-1.036A2.988,2.988,0,0,0,2.767,1.1,1.165,1.165,0,0,0,1.983.7Z" transform="translate(0 0)" fill="#c2341c"/>
      <path id="path4227-4-2" data-name="path4227-4" d="M3.418,0c-.143,0-.287.142-.359.416-.173.658-.219.808-.4,1.518-.12.476-.186.708-.34,1.3C2.275,3.419,2.045,4.3,2.045,4.3l.573,0c.138-.539.151-.579.2-.771.115-.389.184-.705.31-1.169.1-.367.152-.581.193-.734.046-.17.049-.247.1-.251.039,0,.079.209.183.59.062.225.173.653.213.8s.061.265.091.351a2.084,2.084,0,0,1,.066.231c.007.041-.1.016-.232.018-.253,0-.617,0-.617,0L2.884,4.3c.7.019,1.208-.031,1.9,0-.312-1.214-.9-3.43-.925-3.544S3.79.509,3.773.434C3.7.141,3.561,0,3.418,0ZM.665.07S.467.1.422.161C.229.313.066.61.006,1.707A8.851,8.851,0,0,0,.091,3.5c.083.412.282.792.454.8H1.854l.225-.93s-.9.018-1.326.016c-.255,0-.205-1-.215-1.588,0,0,.021-.786.172-.781.475.016,1.917-.006,1.917-.006L2.894.088ZM3.926.083c0,.024.26.928.252.931.282,0,.576-.02.887,0v3.28l.525,0V1l.916,0c.005-.443,0-.669,0-.914-.883-.005-1.649,0-2.581,0Z" transform="translate(3.865 1.045)" fill="#fff"/>
    </g>
  </g>
  <path id="Path_2807" data-name="Path 2807" d="M147.984,325.127l-.937-29.088-2.032,1.8-3.751,2.873,2.5,10.235.781,10.773Z" transform="translate(-94.878 -184.343)" fill="#2f2e41"/>
  <path id="Path_2808" data-name="Path 2808" d="M123.18,308.592l-1.094-.18-3.125,10.594-6.251,8.978,2.344,2.873,7.188-8.08,2.657-6.644Z" transform="translate(-75.7 -192.048)" fill="#2f2e41"/>
  <path id="Path_2810" data-name="Path 2810" d="M172.148,290.983l7.745,3.524-.937,10.773,1.875,11.851-1.875,2.334-6.934-26.956Z" transform="translate(-115.536 -181.195)" fill="#2f2e41"/>
  <path id="Path_2812" data-name="Path 2812" d="M190.105,300.322h1.25l2.032,12.569v10.953l-2.5-.539-2.032-16.519Z" transform="translate(-126.842 -187.01)" fill="#2f2e41"/>
  <g id="Component_68" data-name="Component 68" transform="matrix(0.998, -0.07, 0.07, 0.998, 272.488, 121.127)">
    <g id="Group_683-3" data-name="Group 683" transform="translate(2.313 7.04)">
      <path id="Path_2413-3" data-name="Path 2413" d="M0,.934V.418C0,.152.141,0,.313,0S.606.134.606.376V.464H.45V.4C.45.286.4.213.313.213S.174.292.174.42v.5c0,.147.056.217.141.217S.45,1.07.45.958V.886H.606V.974c0,.246-.128.378-.291.378S0,1.226,0,.934Z" transform="translate(0 0)" fill="#fff"/>
      <path id="Path_2414-3" data-name="Path 2414" d="M.254,0h.21l.25,1.31H.54L.484,1H.215L.16,1.31H0ZM.447.8.352.255h0L.252.8Z" transform="translate(0.665 0.02)" fill="#fff"/>
      <path id="Path_2415-3" data-name="Path 2415" d="M.23.211H0V0H.631V.211H.4v1.1H.23V.211Z" transform="translate(1.361 0.022)" fill="#fff"/>
      <path id="Path_2416-3" data-name="Path 2416" d="M0,0H.248C.41,0,.5.147.5.367.5.561.432.708.3.732l.222.576H.442L.23.749H.071v.56H0ZM.229.662c.131,0,.2-.1.2-.288C.424.209.37.09.237.09H.071V.662Z" transform="translate(2.333 0.022)" fill="#c2341c"/>
      <path id="Path_2417-3" data-name="Path 2417" d="M0,.639V.349C0,.123.091,0,.215,0s.2.123.2.325V.5H.069V.642c0,.165.054.242.161.242A.233.233,0,0,0,.382.815l.024.07A.233.233,0,0,1,.221.972C.09.973,0,.872,0,.639ZM.351.424V.314C.351.2.317.081.208.081S.069.2.069.317V.424H.351Z" transform="translate(2.969 0.38)" fill="#c2341c"/>
      <path id="Path_2418-3" data-name="Path 2418" d="M0,1.13V0H.068V1.118c0,.064.019.108.074.108A.255.255,0,0,0,.2,1.219V1.3a.149.149,0,0,1-.075.018C.045,1.319,0,1.252,0,1.13Z" transform="translate(3.54 0.022)" fill="#c2341c"/>
    </g>
    <g id="layer1-3" data-name="layer1" transform="translate(0 0)">
      <path id="path3003-4-3" data-name="path3003-4" d="M1.735,0C1.165,0,.73.731.552,1.115A5.674,5.674,0,0,0,0,3.748C.038,5.975.966,7.332,1.719,7.572V6.944C.836,6.6.36,4.961.363,3.66A5.047,5.047,0,0,1,.842,1.523C1.011,1.2,1.319.7,1.739.6Zm.391.83a.943.943,0,0,0-.519.152,2.6,2.6,0,0,0-.93,1.576,5.472,5.472,0,0,0,.2,3.025c.484,1.029,1.187,1.346,1.771.921a2.692,2.692,0,0,0,.323-.274L2.793,5.7a2.3,2.3,0,0,1-.287.246C1.43,6.532.534,4.568,1,2.834a2.183,2.183,0,0,1,.715-1.247.788.788,0,0,1,1.064.249A3.437,3.437,0,0,1,3.3,4.493c-.046.2-.147.349-.271.367,0-.216,0-.533,0-.791a4.851,4.851,0,0,0-.057-.863c-.124-.777-.524-1.111-.857-1.1-.4.017-.554.271-.724.692a2.67,2.67,0,0,0,.227,2.411.625.625,0,0,0,.667.256.708.708,0,0,0,.209-.11c.059-.047.138-.11.109-.113v-.67a1.907,1.907,0,0,1-.233.219.465.465,0,0,1-.142.077c-.192.024-.285-.024-.44-.207-.442-.518-.265-1.926.322-1.968.253.051.424.244.512.717a3.846,3.846,0,0,1,.047.679c0,.431,0,1.033,0,1.033l0,.353h.139a1.663,1.663,0,0,0,.183,0,.577.577,0,0,0,.163-.041.408.408,0,0,0,.181-.156,1.535,1.535,0,0,0,.232-.535,4.556,4.556,0,0,0,.092-1.227,3.771,3.771,0,0,0-.7-2.212A1.209,1.209,0,0,0,2.125.83Z" fill="#c2341c"/>
      <path id="path4227-4-3" data-name="path4227-4" d="M.713,0S.5.041.453.108C.245.288.071.64.007,1.939A11.567,11.567,0,0,0,.1,4.059C.186,4.546.4,5,.584,5h1.4l.241-1.1s-.962.021-1.422.019c-.273,0-.22-1.185-.23-1.88,0,0,.023-.931.184-.925.509.019,2.054-.007,2.054-.007L2.959.031Z" transform="translate(4.142 1.32)" fill="#fff"/>
    </g>
  </g>
</svg>
