<svg id="Group_971" data-name="Group 971" xmlns="http://www.w3.org/2000/svg" width="96.451" height="395.813" viewBox="0 0 96.451 395.813">
  <path id="Path_2529" data-name="Path 2529" d="M912.7,518.1s3.043,104.223,8.239,117.561c4.328,11.11,6.854,47.338,7.577,59.131.145,2.365.217,3.747.217,3.747s13.856,0,14.722-3.811,3.464-45.729,0-59.067,4.935-111.952,4.935-111.952Z" transform="translate(-889.222 -324.357)" fill="#2f2e41"/>
  <path id="Path_2530" data-name="Path 2530" d="M926.913,737.009s-8.66,2.858-10.392,6.669-30.311,10.48-21.651,15.243,34.641-3.811,34.641-3.811,13.856-.953,12.99-6.669a60.249,60.249,0,0,0-4.02-12.759Z" transform="translate(-883.937 -367.594)" fill="#2f2e41"/>
  <path id="Path_2531" data-name="Path 2531" d="M960.2,740.81s-8.66,2.858-10.392,6.669-30.311,10.48-21.65,15.242S962.8,758.91,962.8,758.91s13.856-.953,12.99-6.669a60.251,60.251,0,0,0-4.02-12.759Z" transform="translate(-892.977 -368.349)" fill="#2f2e41"/>
  <path id="Path_2532" data-name="Path 2532" d="M922.824,522.963l12.124,22.865,20.235,79.5s-2.048,72.935.55,72.935,16.454,4.763,17.32,0c.732-4.024,10.431-42.569,5.6-68.224a359.14,359.14,0,0,1-6.052-49.22L970.455,536.3s8.66-17.148-.866-20.007S922.824,522.963,922.824,522.963Z" transform="translate(-891.971 -323.892)" fill="#2f2e41"/>
  <ellipse id="Ellipse_498" data-name="Ellipse 498" cx="20.784" cy="22.865" rx="20.784" ry="22.865" transform="translate(21.326 6.627)" fill="#ffb8b8"/>
  <path id="Path_2533" data-name="Path 2533" d="M934.714,330.013s3.464,30.486,2.6,32.392S958.1,341.445,958.1,341.445s-7.794-13.338-6.062-20.007Z" transform="translate(-895.201 -285.278)" fill="#ffb8b8"/>
  <g id="Group_966" data-name="Group 966" transform="translate(21.331 52.356)">
    <path id="Path_2534" data-name="Path 2534" d="M976.434,364.515s-24.249-19.054-25.114-22.865L933.133,358.8l-3.09-4.047s-14.23,15.479-14.23,22.148-.866,26.675,1.732,32.392-7.794,78.121-7.794,78.121,8.66,8.574,9.526,9.527,35.507-5.716,35.507-5.716,17.32-1.905,17.32-4.763-5.2-45.729-3.464-57.161S976.434,364.515,976.434,364.515Z" transform="translate(-909.751 -341.65)"/>
  </g>
  <path id="Path_2535" data-name="Path 2535" d="M920.4,294.38a13.389,13.389,0,0,1,8.872-.761c4.1,1.305,6.939,5.259,10,8.529s7.358,6.168,11.39,4.63a7.9,7.9,0,0,1,1.276-5.425,5.108,5.108,0,0,0,1.133-2.074c.172-1.225-.764-2.281-1.045-3.481-.492-2.1.857-4.982-.8-6.161-.438-.311-.992-.382-1.419-.71-1.676-1.289.185-4.494-.923-6.385a3.648,3.648,0,0,0-1.259-1.156c-8.036-5.158-17.864-5.172-27.167-5.042-1.295.018-3.1.726-2.733,2.093-1.758-1.388-4.061.561-5.478,2.361l-2.9,3.683a28.382,28.382,0,0,0-3.545,5.275c-.886,1.864-1.082,4.73.682,5.543-1.311-.6-2.9,7.939,3.143,6.533C913.141,301.014,916.582,295.875,920.4,294.38Z" transform="translate(-887.169 -276.31)" fill="#2f2e41"/>
  <path id="Path_2539" data-name="Path 2539" d="M973.673,403.476s4.33,61.925-1.732,63.83-27.713,16.2-62.354,12.385c0,0-33.775,20.006-28.578.953s28.578-14.29,28.578-14.29,41.569-9.527,43.3-16.2-5.2-34.3-2.6-35.25S973.673,403.476,973.673,403.476Z" transform="translate(-880.466 -301.58)" fill="#ffb8b8"/>
  <path id="Path_2540" data-name="Path 2540" d="M979.366,372.09l13.856-1.905s13.856,29.533,6.062,34.3-27.713,8.574-27.713,6.669S979.366,372.09,979.366,372.09Z" transform="translate(-905.211 -294.964)"/>
  <g id="Component_38_11" data-name="Component 38 – 11" transform="matrix(0.999, 0.035, -0.035, 0.999, 30.234, 101.267)">
    <g id="Group_683" data-name="Group 683" transform="translate(5.886 12.583)">
      <path id="Path_2413" data-name="Path 2413" d="M.005,1.666l0-.92A.729.729,0,0,1,.792,0a.672.672,0,0,1,.742.674V.834H1.14V.717A.32.32,0,0,0,.793.382a.329.329,0,0,0-.35.369l0,.9A.339.339,0,0,0,.8,2.036a.31.31,0,0,0,.338-.323V1.585h.394v.157A.66.66,0,0,1,.8,2.416.719.719,0,0,1,.005,1.666Z" transform="translate(0 0)" fill="#fff"/>
      <path id="Path_2414" data-name="Path 2414" d="M.642,0l.532,0,.64,2.34-.44,0-.146-.561-.679,0-.139.56h-.4Zm.493,1.423L.891.458H.882L.64,1.423Z" transform="translate(1.683 0.042)" fill="#fff"/>
      <path id="Path_2415" data-name="Path 2415" d="M.582.379,0,.377V0L1.6.006V.382l-.578,0,.006,1.958-.437,0L.582.379Z" transform="translate(3.442 0.051)" fill="#fff"/>
      <path id="Path_2416" data-name="Path 2416" d="M0,0,.627,0a.593.593,0,0,1,.629.657.576.576,0,0,1-.493.65l.566,1.03h-.2l-.541-1h-.4l0,1H.007ZM.582,1.184c.33,0,.494-.169.493-.513A.447.447,0,0,0,.6.163H.181l0,1.022Z" transform="translate(5.898 0.059)" fill="#c2341c"/>
      <path id="Path_2417" data-name="Path 2417" d="M0,1.139,0,.622C0,.219.229,0,.544,0s.5.221.506.581V.9l-.874,0v.252c0,.295.139.433.408.433A.708.708,0,0,0,.97,1.457l.062.125a.7.7,0,0,1-.467.155A.523.523,0,0,1,0,1.139ZM.889.759v-.2C.887.36.8.146.526.145c-.25,0-.351.218-.35.421v.19l.712,0Z" transform="translate(7.51 0.704)" fill="#c2341c"/>
      <path id="Path_2418" data-name="Path 2418" d="M.006,2.017,0,0H.171L.177,1.995c0,.115.049.193.187.194A.9.9,0,0,0,.5,2.176v.148a.508.508,0,0,1-.189.032C.121,2.355.007,2.233.006,2.017Z" transform="translate(8.95 0.07)" fill="#c2341c"/>
      <path id="Path_2419" data-name="Path 2419" d="M0,1.143,0,.6A.524.524,0,0,1,.532,0a.521.521,0,0,1,.537.591l0,.544c0,.4-.215.6-.53.6A.522.522,0,0,1,0,1.143Zm.9-.007L.9.579C.9.343.792.15.529.149S.172.351.173.593l0,.544c0,.275.109.446.371.447S.9,1.385.9,1.136Z" transform="translate(9.713 0.712)" fill="#c2341c"/>
      <path id="Path_2420" data-name="Path 2420" d="M0,1.261A.507.507,0,0,1,.552.742H.87v-.3c0-.21-.129-.3-.322-.3C.379.139.205.223.206.413v.1H.053v-.1C.052.138.284,0,.568,0c.263,0,.474.129.475.424l0,.848c0,.121.013.337.017.426H.9L.89,1.424H.884a.481.481,0,0,1-.457.309A.426.426,0,0,1,0,1.261Zm.868-.1V.874H.583c-.184,0-.4.064-.4.362,0,.242.145.354.3.355A.408.408,0,0,0,.871,1.156Z" transform="translate(11.1 0.716)" fill="#c2341c"/>
      <path id="Path_2421" data-name="Path 2421" d="M.006,1.906l0-.753A.462.462,0,0,1,.46.64a.43.43,0,0,1,.41.3h0L.871,0h.174l.007,2.335H.9L.893,2.027H.884a.486.486,0,0,1-.451.349A.423.423,0,0,1,.006,1.906Zm.873-.213V1.283A.474.474,0,0,0,.488.778C.32.777.173.871.174,1.153l0,.724c0,.206.09.344.307.345S.88,2.02.879,1.693Z" transform="translate(12.527 0.083)" fill="#c2341c"/>
      <path id="Path_2422" data-name="Path 2422" d="M0,1.139,0,.622C0,.219.229,0,.544,0s.5.221.506.581V.9l-.874,0v.252c0,.295.139.433.408.433A.708.708,0,0,0,.97,1.457l.062.125a.7.7,0,0,1-.467.155A.523.523,0,0,1,0,1.139ZM.889.759v-.2C.887.36.8.146.526.145.275.145.175.364.176.567v.19l.712,0Z" transform="translate(13.98 0.726)" fill="#c2341c"/>
      <path id="Path_2423" data-name="Path 2423" d="M.006,1.906l0-.753A.462.462,0,0,1,.46.64a.43.43,0,0,1,.411.3h0L.871,0h.174l.007,2.335H.9L.892,2.027H.883a.486.486,0,0,1-.451.349A.423.423,0,0,1,.006,1.906Zm.873-.213V1.283A.474.474,0,0,0,.488.778C.32.777.174.871.174,1.153l0,.724c0,.206.09.344.307.345S.88,2.02.879,1.693Z" transform="translate(15.359 0.093)" fill="#c2341c"/>
    </g>
    <g id="layer1" transform="translate(0 0)">
      <path id="path3003-4" d="M4.385.014A3.99,3.99,0,0,0,1.4,1.993,7.693,7.693,0,0,0,.02,6.687c.108,3.974,2.463,6.4,4.368,6.839l0-1.12C2.149,11.781.936,8.855.936,6.533a6.921,6.921,0,0,1,1.2-3.81A3.817,3.817,0,0,1,4.4,1.085ZM5.377,1.5a3.14,3.14,0,0,0-1.313.267,4.648,4.648,0,0,0-2.342,2.8,7.081,7.081,0,0,0,.512,5.4c1.23,1.841,3.009,2.413,4.484,1.66a6.644,6.644,0,0,0,.816-.487L7.092,10.2a5.639,5.639,0,0,1-.724.436C3.651,11.667,1.375,8.156,2.536,5.065a3.81,3.81,0,0,1,1.8-2.219A2.574,2.574,0,0,1,7.029,3.3,4.794,4.794,0,0,1,8.374,8.046a.857.857,0,0,1-.683.652c0-.385-.012-.951-.011-1.412A6.19,6.19,0,0,0,7.53,5.745,2.294,2.294,0,0,0,5.358,3.771,1.91,1.91,0,0,0,3.532,5a3.609,3.609,0,0,0,.587,4.3,1.973,1.973,0,0,0,1.688.463,2.107,2.107,0,0,0,.528-.194c.149-.084.347-.195.276-.2l0-1.2a4.528,4.528,0,0,1-.587.388,1.385,1.385,0,0,1-.358.136,1.283,1.283,0,0,1-1.113-.374c-1.12-.928-.68-3.439.8-3.509A1.487,1.487,0,0,1,6.649,6.1a4.9,4.9,0,0,1,.123,1.212c0,.77,0,1.844,0,1.844l.014.63h.351s.209.01.464,0a1.964,1.964,0,0,0,.411-.071,1.018,1.018,0,0,0,.457-.277,2.435,2.435,0,0,0,.585-.953A5.81,5.81,0,0,0,9.28,6.3,5.584,5.584,0,0,0,7.5,2.348,3.577,3.577,0,0,0,5.377,1.5Z" transform="translate(0 0)" fill="#c2341c"/>
      <path id="path4227-4" d="M9.26.03a1.105,1.105,0,0,0-.969.875c-.465,1.389-.587,1.7-1.066,3.2-.321,1-.5,1.495-.912,2.752C6.188,7.243,5.57,9.1,5.57,9.1l1.552.014c.371-1.137.406-1.222.527-1.628.31-.821.494-1.488.831-2.466.268-.775.407-1.226.518-1.55.124-.359.131-.521.28-.528.105,0,.215.443.5,1.249.169.477.473,1.382.582,1.7.1.3.167.561.249.742a3.689,3.689,0,0,1,.179.489c.02.087-.267.033-.628.036-.685,0-1.672-.009-1.672-.009L7.843,9.11c1.886.048,3.272-.054,5.147.028-.853-2.568-2.452-7.256-2.53-7.5s-.186-.533-.235-.692C10.034.331,9.648.031,9.26.03ZM1.8.152a1.864,1.864,0,0,0-.658.191C.621.661.182,1.288.028,3.605A14.66,14.66,0,0,0,.269,7.389c.227.871.77,1.676,1.237,1.69l3.546.012.6-1.964s-2.433.029-3.594.02c-.691,0-.563-2.117-.593-3.358,0,0,.053-1.661.46-1.649,1.287.038,5.193.005,5.193.005L7.842.211,1.8.152ZM10.638.21c0,.05.711,1.964.69,1.969.763.008,1.561-.036,2.4.008l.021,6.931,1.423.012-.019-6.958,2.482,0c.011-.935-.011-1.414-.006-1.932C15.239.225,13.162.221,10.638.21Z" transform="translate(10.48 2.246)" fill="#fff"/>
    </g>
  </g>
</svg>
