<svg xmlns="http://www.w3.org/2000/svg" width="112.604" height="380.245" viewBox="0 0 112.604 380.245">
  <g id="Group_1013" data-name="Group 1013" transform="translate(0 0)">
    <path id="Path_2501" data-name="Path 2501" d="M613.6,332.048l10.474-1.435,3.7,37.312,9.438,51.525a8.283,8.283,0,0,1,3.718,8.382c-.489,3.444-2.863,6.105-5.837,6.542s-5.841-1.454-7.049-4.649a8.789,8.789,0,0,1,1.815-9.194l-9.479-30.361Z" transform="translate(-528.414 -227.545)" fill="#ffb6b6"/>
    <path id="Path_2502" data-name="Path 2502" d="M363.128,505.708h8.629l4.106-38.765H363.127Z" transform="translate(-293.157 -135.205)" fill="#ffb6b6"/>
    <path id="Path_2503" data-name="Path 2503" d="M641.207,711.776h27.824v-.41c0-6.965-4.848-12.612-10.829-12.613h-17Z" transform="translate(-573.437 -331.531)" fill="#2f2e41"/>
    <path id="Path_2504" data-name="Path 2504" d="M460.747,498.346l8.473,1.905L479.563,463.1l-12.5-2.812Z" transform="translate(-457 -133.324)" fill="#ffb6b6"/>
    <path id="Path_2505" data-name="Path 2505" d="M751.6,703.306l27.319,6.144.067-.4c1.134-6.839-2.707-13.455-8.58-14.776h0l-16.686-3.753Z" transform="translate(-751.596 -329.206)" fill="#2f2e41"/>
    <path id="Path_2506" data-name="Path 2506" d="M684.235,229.026l-5.014,11.2-37.552-9.646,4.114-21.722c3.256-17.193,16.31-29.61,31.072-25.818s21.651,20.6,18.395,37.79L689.2,242.792l-6.122-1.573Z" transform="translate(-602.383 -182.359)" fill="#2f2e41"/>
    <path id="Path_2507" data-name="Path 2507" d="M727.508,418.86s3.7,21.526-1.232,53.1-6.161,45.2-6.161,45.2,3.7,5.023,1.232,7.893,0,8.61,0,8.61l-5.545,69.6-19.1-3.588,2.464-65.3s-2.464-5.74-1.232-7.175-1.232-10.045-1.232-10.045L693.623,449l-19.1,74.624s1.848,2.87,0,5.023-5.545,12.916-5.545,12.916l-12.322,50.228-19.715-4.305,11.09-57.4s-1.232-3.588.616-5.74a6.267,6.267,0,0,0,1.232-5.023s-1.848-2.153.616-5.023,3.7-14.351,3.7-14.351,1.848-76.776,8.009-81.082S727.508,418.86,727.508,418.86Z" transform="translate(-630.616 -251.931)" fill="#2f2e41"/>
    <path id="Path_2541" data-name="Path 2541" d="M17.251,0C7.723,0,0,9,0,20.091c0,8.2.935,13.254,7.307,16.507.312.16-4.726,9.23-5.341,13.5-.341,2.366,6.825,2.532,7.156,2.649L14.4,54.324l2.855-14.142c.78.165-1.048,0,0,0,9.527,0,17.251-9,17.251-20.091S26.778,0,17.251,0Z" transform="translate(50.872 12.987)" fill="#ffb6b6"/>
    <path id="Path_2508" data-name="Path 2508" d="M636.8,264.714l3.7,86.822s-2.464,2.153-1.232,7.175a23.776,23.776,0,0,1,0,10.046s-3.7,5.023-1.848,7.175,68.387.718,68.387.718,2.464-5.023-1.232-7.893-1.848-10.763-1.848-10.763,1.232-2.153-1.848-5.74-5.545-33.007-5.545-33.007l8.009-35.877s-8.062-10.6-28.9-14.568L668,271.419l-5.313-5.82S640.492,260.409,636.8,264.714Z" transform="translate(-608.29 -208.286)"/>
    <path id="Path_2509" data-name="Path 2509" d="M629.371,292.107l9.545-.494s5.545,12.916,6.161,24.4l3.393,42.828-21.876,3.811Z" transform="translate(-543.872 -216.529)"/>
    <path id="Path_2510" data-name="Path 2510" d="M680.582,217.579l6.408-9.6c.787-4.209-1.493-8.367-5.1-9.306l-24.208-6.219c-3.614-.916-7.184,1.739-7.991,5.943l-.013.069,1.734,11.595.3-.063c15.023-3.12,19.3-2.022,28.623,7.337Z" transform="translate(-596.769 -188.469)" fill="#2f2e41"/>
    <path id="Path_2511" data-name="Path 2511" d="M739.947,403.294l1.155-56.5,1.232-40.182,14.786,2.153L749.18,404.8a8.965,8.965,0,0,1,.584,8.832,6.528,6.528,0,0,1-6.828,3.9,7.266,7.266,0,0,1-5.64-5.942,8.59,8.59,0,0,1,2.651-8.3Z" transform="translate(-720.607 -220.766)" fill="#ffb6b6"/>
    <path id="Path_2512" data-name="Path 2512" d="M759.086,266.824,748.3,265.613s-1.848,0-3.7,7.175-12.009,83.01-12.009,83.01l22.483,2.376Z" transform="translate(-719.794 -209.185)"/>
    <g id="Component_38_14" data-name="Component 38 – 14" transform="matrix(0.995, 0.105, -0.105, 0.995, 49.473, 82.476)">
      <g id="Group_683" data-name="Group 683" transform="translate(6.712 12.783)">
        <path id="Path_2413" data-name="Path 2413" d="M0,1.7V.76A.806.806,0,0,1,.909,0c.477,0,.849.243.849.683v.16H1.305V.726c0-.206-.154-.34-.4-.34a.359.359,0,0,0-.4.377v.913a.364.364,0,0,0,.41.393c.232,0,.39-.127.39-.33v-.13h.453v.16c0,.447-.372.686-.845.686C.417,2.455,0,2.225,0,1.7Z" fill="#fff"/>
        <path id="Path_2414" data-name="Path 2414" d="M.737,0h.611l.726,2.379H1.568L1.4,1.809H.624l-.161.57H0ZM1.3,1.446,1.021.463H1.011L.73,1.446Z" transform="translate(1.931 0.036)" fill="#fff"/>
        <path id="Path_2415" data-name="Path 2415" d="M.667.383H0V0H1.831V.383H1.168V2.376h-.5V.383Z" transform="translate(3.951 0.04)" fill="#fff"/>
        <path id="Path_2416" data-name="Path 2416" d="M0,0H.719a.637.637,0,0,1,.719.666.609.609,0,0,1-.568.663l.645,1.046H1.284L.667,1.359H.207V2.376H0ZM.663,1.2c.379,0,.568-.173.568-.523A.477.477,0,0,0,.688.163H.207V1.2Z" transform="translate(6.77 0.04)" fill="#c2341c"/>
        <path id="Path_2417" data-name="Path 2417" d="M0,1.159V.633A.585.585,0,0,1,.624,0,.535.535,0,0,1,1.2.59V.91H.2v.256c0,.3.158.44.467.44a.889.889,0,0,0,.442-.126l.07.126a.882.882,0,0,1-.537.16A.562.562,0,0,1,0,1.159ZM1.017.77v-.2A.384.384,0,0,0,.6.146a.4.4,0,0,0-.4.43V.769h.818Z" transform="translate(8.618 0.689)" fill="#c2341c"/>
        <path id="Path_2418" data-name="Path 2418" d="M0,2.052V0H.2V2.029c0,.117.056.2.214.2a1.163,1.163,0,0,0,.158-.013v.15A.652.652,0,0,1,.351,2.4.317.317,0,0,1,0,2.052Z" transform="translate(10.273 0.04)" fill="#c2341c"/>
        <path id="Path_2419" data-name="Path 2419" d="M0,1.163V.606A.568.568,0,0,1,.611,0a.557.557,0,0,1,.614.6v.553a.561.561,0,0,1-.61.613A.558.558,0,0,1,0,1.163Zm1.028-.01V.586A.391.391,0,0,0,.607.15C.305.15.2.356.2.6v.553c0,.28.123.453.424.453S1.028,1.406,1.028,1.152Z" transform="translate(11.146 0.69)" fill="#c2341c"/>
        <path id="Path_2420" data-name="Path 2420" d="M0,1.283C0,.893.347.756.631.753H1V.443C1,.23.849.14.628.14.435.14.235.227.235.42v.1H.06V.417C.06.14.326,0,.652,0c.3,0,.544.13.544.43v.863c0,.123.014.343.018.433H1.031l-.014-.28H1.01a.564.564,0,0,1-.526.317A.455.455,0,0,1,0,1.283Zm1-.11V.886H.667C.456.886.2.953.2,1.256a.33.33,0,0,0,.34.36A.443.443,0,0,0,1,1.173Z" transform="translate(12.738 0.689)" fill="#c2341c"/>
        <path id="Path_2421" data-name="Path 2421" d="M0,1.939V1.173A.5.5,0,0,1,.526.65.489.489,0,0,1,1,.95H1V0h.2V2.376H1.025l-.007-.316H1.007a.56.56,0,0,1-.519.356A.451.451,0,0,1,0,1.939Zm1-.22V1.3A.5.5,0,0,0,.557.79.336.336,0,0,0,.2,1.173v.736a.313.313,0,0,0,.351.35A.492.492,0,0,0,1,1.72Z" transform="translate(14.379 0.04)" fill="#c2341c"/>
        <path id="Path_2422" data-name="Path 2422" d="M0,1.159V.633A.585.585,0,0,1,.624,0,.535.535,0,0,1,1.2.59V.91H.2v.256c0,.3.158.44.467.44a.889.889,0,0,0,.442-.126l.07.126a.882.882,0,0,1-.537.16A.562.562,0,0,1,0,1.159ZM1.017.77v-.2A.383.383,0,0,0,.6.146a.4.4,0,0,0-.4.43V.769h.818Z" transform="translate(16.044 0.689)" fill="#c2341c"/>
        <path id="Path_2423" data-name="Path 2423" d="M0,1.939V1.173A.5.5,0,0,1,.526.65.489.489,0,0,1,1,.95H1V0h.2V2.376H1.024l-.007-.316H1.007a.56.56,0,0,1-.519.356A.451.451,0,0,1,0,1.939Zm1-.22V1.3A.5.5,0,0,0,.557.79.335.335,0,0,0,.2,1.173v.736a.313.313,0,0,0,.351.35A.492.492,0,0,0,1,1.72Z" transform="translate(17.629 0.04)" fill="#c2341c"/>
      </g>
      <g id="layer1" transform="translate(0)">
        <path id="path3003-4" d="M5.035,0A4.66,4.66,0,0,0,1.6,2.024,7.264,7.264,0,0,0,0,6.8c.11,4.043,2.8,6.507,4.989,6.943v-1.14c-2.563-.627-3.945-3.6-3.937-5.963A6.575,6.575,0,0,1,2.443,2.765a4.418,4.418,0,0,1,2.6-1.675ZM6.168,1.507a4.019,4.019,0,0,0-1.508.277,4.965,4.965,0,0,0-2.7,2.861,6.462,6.462,0,0,0,.568,5.492C3.936,12,5.975,12.58,7.671,11.809a7.928,7.928,0,0,0,.938-.5l-.5-.956a6.725,6.725,0,0,1-.833.446C4.15,11.859,1.55,8.295,2.894,5.146A4.036,4.036,0,0,1,4.969,2.881a3.256,3.256,0,0,1,3.088.452A4.514,4.514,0,0,1,9.584,8.158a.953.953,0,0,1-.787.666c0-.391-.011-.967-.008-1.436A5.6,5.6,0,0,0,8.624,5.82a2.535,2.535,0,0,0-2.486-2,2.221,2.221,0,0,0-2.1,1.257A3.361,3.361,0,0,0,4.7,9.454a2.466,2.466,0,0,0,1.936.465,2.638,2.638,0,0,0,.607-.2c.172-.086.4-.2.317-.2V8.3a5.366,5.366,0,0,1-.676.4,1.733,1.733,0,0,1-.411.14,1.584,1.584,0,0,1-1.277-.377c-1.282-.941-.768-3.5.934-3.574a1.618,1.618,0,0,1,1.485,1.3,4.439,4.439,0,0,1,.137,1.233C7.739,8.2,7.743,9.3,7.743,9.3l.014.641h.4s.24.009.532,0a2.527,2.527,0,0,0,.472-.074,1.217,1.217,0,0,0,.526-.284,2.486,2.486,0,0,0,.674-.972,5.292,5.292,0,0,0,.266-2.227A5.392,5.392,0,0,0,8.607,2.363a4.389,4.389,0,0,0-2.439-.856Z" fill="#c2341c"/>
        <path id="path4227-4" d="M10.63,0A1.244,1.244,0,0,0,9.515.894c-.539,1.415-.68,1.737-1.235,3.264-.372,1.023-.579,1.523-1.057,2.8-.145.389-.861,2.283-.861,2.283l1.781.009c.43-1.158.47-1.245.611-1.658.359-.837.572-1.516.963-2.512.31-.789.471-1.249.6-1.579.144-.366.153-.531.324-.539.121-.005.246.45.57,1.269.192.484.538,1.4.662,1.73.117.308.19.57.284.754a3.468,3.468,0,0,1,.2.5c.022.089-.306.035-.721.039-.786.007-1.919,0-1.919,0l-.75,1.991c2.165.042,3.756-.067,5.907.011C13.908,6.645,12.09,1.88,12,1.636s-.212-.542-.268-.7A1.212,1.212,0,0,0,10.63,0ZM2.069.15a2.364,2.364,0,0,0-.755.2C.711.673.205,1.312.02,3.671A13.243,13.243,0,0,0,.283,7.52c.257.886.878,1.7,1.413,1.715h4.07l.7-2s-2.793.038-4.126.034c-.793,0-.638-2.152-.668-3.414,0,0,.067-1.69.533-1.679,1.477.034,5.961-.013,5.961-.013L9,.189ZM12.211.179c0,.051.809,2,.785,2,.876.006,1.792-.042,2.758,0V9.232l1.633.007,0-7.08,2.848-.005c.016-.952-.007-1.439,0-1.965-2.747-.011-5.13-.008-8.027-.01Z" transform="translate(12.022 2.247)" fill="#fff"/>
      </g>
    </g>
  </g>
</svg>
