<svg xmlns="http://www.w3.org/2000/svg" xmlns:xlink="http://www.w3.org/1999/xlink" width="280.456" height="209.003" viewBox="0 0 280.456 209.003">
  <defs>
    <clipPath id="clip-path">
      <rect id="Rectangle_18" data-name="Rectangle 18" width="280.456" height="209.003" transform="translate(0 0)" fill="#fff" stroke="#707070" stroke-width="1"/>
    </clipPath>
    <linearGradient id="linear-gradient" y1="0.5" x2="1" y2="0.5" gradientUnits="objectBoundingBox">
      <stop offset="0" stop-opacity="0"/>
      <stop offset="1"/>
    </linearGradient>
    <linearGradient id="linear-gradient-2" x1="0.494" y1="1.389" x2="0.51" y2="-1.128" xlink:href="#linear-gradient"/>
    <linearGradient id="linear-gradient-3" x1="-0.005" y1="0.501" x2="1.001" y2="0.501" gradientUnits="objectBoundingBox">
      <stop offset="0" stop-color="#e5c5d5"/>
      <stop offset="0.42" stop-color="#ead4d1"/>
      <stop offset="1" stop-color="#f0e9cb"/>
    </linearGradient>
    <linearGradient id="linear-gradient-4" x1="-0.002" y1="0.5" x2="1" y2="0.5" xlink:href="#linear-gradient-3"/>
    <linearGradient id="linear-gradient-5" x1="0.052" y1="0.57" x2="1.528" y2="0.229" xlink:href="#linear-gradient"/>
    <linearGradient id="linear-gradient-6" x1="0.003" y1="0.498" x2="1" y2="0.498" xlink:href="#linear-gradient-3"/>
    <linearGradient id="linear-gradient-7" x1="0.002" y1="0.499" x2="1.001" y2="0.499" xlink:href="#linear-gradient-3"/>
    <linearGradient id="linear-gradient-8" x1="-0.002" y1="0.502" x2="1" y2="0.502" gradientUnits="objectBoundingBox">
      <stop offset="0" stop-color="#867580"/>
      <stop offset="0.57" stop-color="#9b8f8e"/>
    </linearGradient>
    <linearGradient id="linear-gradient-9" x1="0.291" y1="1.351" x2="0.697" y2="-1.001" xlink:href="#linear-gradient"/>
    <linearGradient id="linear-gradient-10" x1="0.001" y1="0.499" x2="0.999" y2="0.499" xlink:href="#linear-gradient-8"/>
    <linearGradient id="linear-gradient-11" x1="0.002" y1="0.497" x2="0.999" y2="0.497" xlink:href="#linear-gradient-8"/>
    <linearGradient id="linear-gradient-12" x1="1.719" y1="0.581" x2="-1.813" y2="0.395" xlink:href="#linear-gradient"/>
  </defs>
  <g id="hr" transform="translate(-1274 -1528)">
    <g id="Mask_Group_25" data-name="Mask Group 25" transform="translate(1274 1528)" clip-path="url(#clip-path)">
      <g id="team_meeting_" transform="translate(4.097 0)">
        <path id="Path_2305" data-name="Path 2305" d="M216.28,217.145l-.288,12.069c-.159,6.522-.294,13.243,1.487,19.329a7.907,7.907,0,0,0,1.781,3.527,4.988,4.988,0,0,0,3.323,1.154c3.06.186,6.377-.378,8.568-3.149,1.94-2.418,2.668-6.06,2.993-9.549a114.7,114.7,0,0,0,.1-14.506c-.147-4.252-.367-8.792-2.313-12.185a17.939,17.939,0,0,0-3.286-3.925C223.012,204.4,216.525,207.75,216.28,217.145Z" transform="translate(-119.51 -115.861)" fill="#2f2e41"/>
        <path id="Path_2287" data-name="Path 2287" d="M13.9,172.753c-1.5-19-2.846-39.01,4.841-56.287,4.351-9.78,11.316-17.956,17.185-26.825,7.062-10.652,12.6-22.368,19.933-32.834s16.928-19.88,28.874-23.311c24.529-7.054,50.147,12.826,75.1,7.7,11.065-2.277,20.667-9.247,31.212-13.467,11.181-4.489,23.758-5.836,35.208-2.161S247.8,38.3,251.641,50.188c4.382,13.557.459,28.679,3.672,42.589,3.262,14.2,13.464,25.363,20.2,38.157a84.127,84.127,0,0,1,9,48.033c-.949,8.465-3.292,16.994-8.3,23.728-5.465,7.33-13.6,11.9-21.763,15.564a162.164,162.164,0,0,1-106.475,9.132c-12.644-3.271-25.043-8.093-38.036-8.978-13.1-.9-26.108,2.251-39.168,3.809-12.619,1.513-31.316,1.77-42.442-5.861C16.335,208.094,14.952,186,13.9,172.753Z" transform="translate(-12.741 -23.442)" fill="#d8d8d8" opacity="0.18"/>
        <path id="Path_2288" data-name="Path 2288" d="M128.4,223.358a1.074,1.074,0,0,1,.881.09,1.135,1.135,0,0,1,.318.641,12.984,12.984,0,0,1,.373,2.745,2.583,2.583,0,0,1-.171,1.186,2.684,2.684,0,0,1-.875.943,118.625,118.625,0,0,1-13.794,9.2c-.2.115-2.038-6.413-2.069-7.054a2.968,2.968,0,0,1,1.836-3.271A49.964,49.964,0,0,1,128.4,223.358Z" transform="translate(-65.46 -123.934)" fill="#c2341c"/>
        <path id="Path_2289" data-name="Path 2289" d="M128.4,223.459a1.051,1.051,0,0,1,.881.09,1.134,1.134,0,0,1,.318.641,12.986,12.986,0,0,1,.373,2.745,2.6,2.6,0,0,1-.171,1.186,2.671,2.671,0,0,1-.875.936,117.858,117.858,0,0,1-13.794,9.209c-.2.115-2.038-6.413-2.069-7.054a2.968,2.968,0,0,1,1.836-3.271A49.741,49.741,0,0,1,128.4,223.459Z" transform="translate(-65.46 -123.984)" fill="#b7b7b7"/>
        <path id="Path_2290" data-name="Path 2290" d="M194.684,331.462a4.762,4.762,0,0,1,1.622.641,1.649,1.649,0,0,1,.722,1.552c-.184.994-1.389,1.283-2.35,1.34a53.182,53.182,0,0,1-11.42-.571c-.349-.058-.771-.09-.991.2s-.147.513-.226.77c-.263.866-1.518.917-2.154.3a4.6,4.6,0,0,1-.985-2.456,37.046,37.046,0,0,0-3.476-9.85,9.854,9.854,0,0,1-.979-2.289c-.514-2.238,1.7-4.1,3.543-2.668,1.659,1.283,2.778,3.918,4.284,5.49a27.819,27.819,0,0,0,12.411,7.542Z" transform="translate(-97.682 -171.512)" fill="#3e3e54"/>
        <path id="Path_2291" data-name="Path 2291" d="M169.794,384.807a7.686,7.686,0,0,0,.135,2.565,1.918,1.918,0,0,0,1.787,1.494c1.089-.1,1.6-1.437,1.885-2.565,3.923,3.354,9.5,3.572,14.51,2.751a.863.863,0,0,0,.612-.269c.324-.43-.239-.981-.71-1.218l-8.231-4.1c-1.94-.968-3.96-2.007-5.208-3.848-.924-1.353-2.693-8.209-5.122-4.489C167.829,377.612,169.886,382.114,169.794,384.807Z" transform="translate(-94.768 -199.725)" fill="#3e3e54"/>
        <path id="Path_2292" data-name="Path 2292" d="M112.836,304.175l12.436,4.637a4.2,4.2,0,0,1,2.032,1.244,4.625,4.625,0,0,1,.673,1.924,263.208,263.208,0,0,1,3.495,26.094,25.274,25.274,0,0,0,11.811.192,1.247,1.247,0,0,0,.894-.513,1.338,1.338,0,0,0,.1-.641c-.159-10.12-1.224-20.368-4.9-29.743a10.8,10.8,0,0,0-2.5-4.194,14.608,14.608,0,0,0-4.284-2.238c-2.448-1.065-4.853-2.565-7.521-2.8-3.929-.321-7.552,2.257-10.324,5.195C114.188,303.277,113.332,303.893,112.836,304.175Z" transform="translate(-65.344 -161.547)" fill="#c2341c"/>
        <path id="Path_2293" data-name="Path 2293" d="M112.629,303.98l12.436,4.63a4.246,4.246,0,0,1,2.032,1.244,4.492,4.492,0,0,1,.673,1.924q2.4,12.94,3.5,26.088a25.25,25.25,0,0,0,11.805.2,1.21,1.21,0,0,0,.894-.513,1.445,1.445,0,0,0,.1-.641c-.159-10.113-1.261-20.367-4.9-29.737a10.72,10.72,0,0,0-2.5-4.2,14.668,14.668,0,0,0-4.284-2.232c-2.448-1.065-4.853-2.565-7.521-2.8-3.929-.327-7.552,2.257-10.324,5.195C113.982,303.063,113.131,303.7,112.629,303.98Z" transform="translate(-65.235 -161.448)"/>
        <rect id="Rectangle_1055" data-name="Rectangle 1055" width="2.43" height="29.371" transform="translate(35.105 152.786)" fill="#c2341c"/>
        <rect id="Rectangle_1056" data-name="Rectangle 1056" width="17.13" height="3.591" transform="translate(26.66 182.401)" fill="#c2341c"/>
        <rect id="Rectangle_1057" data-name="Rectangle 1057" width="2.43" height="29.371" transform="translate(110.185 141.608)" fill="#c2341c"/>
        <rect id="Rectangle_1058" data-name="Rectangle 1058" width="17.13" height="3.591" transform="translate(101.733 171.223)" fill="#c2341c"/>
        <path id="Path_2294" data-name="Path 2294" d="M229.861,279.2c-.288.693-1.88,1.126-2.044,1.862a1.969,1.969,0,0,0,.734,1.982,1.677,1.677,0,0,0,.7.192,2.316,2.316,0,0,0,1.873-.8,4.547,4.547,0,0,0,.857-2.155,20.575,20.575,0,0,0,.263-5.65c-.135-1.469-1.554-3.207-2.674-1.546C228.576,274.58,230.418,277.489,229.861,279.2Z" transform="translate(-125.748 -148.625)" fill="#3e3e54"/>
        <path id="Path_2295" data-name="Path 2295" d="M217.36,282.31l.15.688.07.138c-.841,1.657,1.186,6.836,2.342,8.511,1.248,1.808,2.228,3.848,4.284,4.419a37.5,37.5,0,0,0,7.711,1.007c5.588.321,11.193.487,16.787.25a33.815,33.815,0,0,0,7.344-.93c1.554-.417,3.219-1.174,3.831-2.726a4.239,4.239,0,0,0-1.034-4.271,8.929,8.929,0,0,0-3.892-2.187c-5.1-1.661-10.49-1.783-15.789-1.873-2.607-.039-5.245,0-7.846-.289-1.646-.173-6.759-3.019-8.417-2.9C220.7,282.316,217.336,282.285,217.36,282.31Z" transform="translate(-120.308 -153.462)" fill="#4e4d5c"/>
        <path id="Path_2296" data-name="Path 2296" d="M236.011,291.142c2.044,1.424,4.5,1.4,6.848,1.36l13.415-.289a9.519,9.519,0,0,0,4.529-.853c2.375-1.283,3.856-4.893,3.1-7.991a3.243,3.243,0,0,0-1.01-1.834,2.746,2.746,0,0,0-1.867-.34c-6.958.41-15.82-2.116-22.778-1.706-1.628.1-4.184.165-5.341,2.185C231.558,284.041,234.469,290.071,236.011,291.142Z" transform="translate(-128.335 -152.163)" fill="#2f2e41"/>
        <path id="Path_2297" data-name="Path 2297" d="M252.417,319.892c.055.859.208,1.86.967,2.251a2.489,2.489,0,0,0,1.083.192l4.614.147a1.141,1.141,0,0,0,.759-.16,1.118,1.118,0,0,0,.33-.718c1.028-5.708.985-33.431,1.836-40.5.4-3.45-2.625-4.572-6.579-5.246-3.415-.584-4.186,1.789-4.119,4.675.214,8.484.067,16.962.4,25.447Q251.952,312.94,252.417,319.892Z" transform="translate(-138.114 -150.316)" fill="#2f2e41"/>
        <path id="Path_2298" data-name="Path 2298" d="M278.672,328.415c.061.891.208,1.924.973,2.354a2.391,2.391,0,0,0,1.083.205l4.608.147a1.084,1.084,0,0,0,.765-.16,1.226,1.226,0,0,0,.324-.75c1.034-5.983.991-35.028,1.836-42.428.4-3.617-2.625-4.8-6.573-5.5-3.421-.609-4.192,1.879-4.119,4.9.214,8.888.067,17.77.4,26.659Q278.213,321.13,278.672,328.415Z" transform="translate(-151.914 -153.542)" fill="#2f2e41"/>
        <ellipse id="Ellipse_474" data-name="Ellipse 474" cx="71.646" cy="7.894" rx="71.646" ry="7.894" transform="translate(58.863 111.519)" fill="#c2341c"/>
        <path id="Path_2306" data-name="Path 2306" d="M280.081,267.295c0,4.361-32.075,7.894-71.646,7.894s-71.646-3.527-71.646-7.894a1.632,1.632,0,0,1,.857-1.225c5.33,3.784,34.994,6.676,70.789,6.676s65.483-2.892,70.8-6.676A1.622,1.622,0,0,1,280.081,267.295Z" transform="translate(-77.932 -145.438)" fill="#c2341c"/>
        <path id="Path_2307" data-name="Path 2307" d="M280.081,267.295c0,4.361-32.075,7.894-71.646,7.894s-71.646-3.527-71.646-7.894a1.632,1.632,0,0,1,.857-1.225c5.33,3.784,34.994,6.676,70.789,6.676s65.483-2.892,70.8-6.676A1.622,1.622,0,0,1,280.081,267.295Z" transform="translate(-77.932 -145.438)" fill="url(#linear-gradient)"/>
        <path id="Path_2308" data-name="Path 2308" d="M280.179,259.325c-5.33,3.784-35,6.676-70.8,6.676s-65.483-2.892-70.789-6.676c5.33-3.777,34.994-6.669,70.789-6.669S274.849,255.548,280.179,259.325Z" transform="translate(-78.881 -138.693)" fill="#c2341c"/>
        <path id="Path_2309" data-name="Path 2309" d="M280.081,255.629a1.613,1.613,0,0,1-.851,1.218c-5.33,3.784-35,6.676-70.8,6.676s-65.483-2.892-70.789-6.676c-.563-.4-.857-.8-.857-1.218,0-4.361,32.081-7.9,71.646-7.9S280.081,251.268,280.081,255.629Z" transform="translate(-77.932 -136.216)" fill="url(#linear-gradient-2)"/>
        <path id="Path_2310" data-name="Path 2310" d="M480.807,189.576a13.188,13.188,0,0,1,1.34,4.553,11.353,11.353,0,0,1-.826,4.284,74.851,74.851,0,0,1-4.021,8.94c.379-.75-.208-3.206-.263-4.059q-.128-2.123-.239-4.258-.226-4.361-.385-8.728c-.049-1.379-.906-5.637,1.071-6.189C479.136,183.657,480.225,188.229,480.807,189.576Z" transform="translate(-256.295 -104.216)" fill="url(#linear-gradient-3)"/>
        <path id="Path_2312" data-name="Path 2312" d="M110.1,170.823a1.917,1.917,0,0,1,0,1.174c-.2.443-.7.641-1.047.968-.869.814-.722,2.264-1.163,3.392A3.059,3.059,0,0,1,104,178.076a1.1,1.1,0,0,0-.612-.147.783.783,0,0,0-.41.333c-.612.872-.612,2.18-1.346,2.924a2.017,2.017,0,0,1-2.215.3,3.723,3.723,0,0,1-1.652-1.706c-1.224-2.257-.912-5.021-.612-7.58a28.053,28.053,0,0,1,1.53-7.272,4.772,4.772,0,0,1,1.163-1.86,5.171,5.171,0,0,1,3.213-.962,9.88,9.88,0,0,1,3.28.173C109.663,163.2,109.485,167.9,110.1,170.823Z" transform="translate(-56.957 -93.132)" fill="url(#linear-gradient-4)"/>
        <path id="Path_2313" data-name="Path 2313" d="M104.518,154.644a1.652,1.652,0,0,1,.82,1.283,2.143,2.143,0,0,1-1.053,1.924,4.417,4.417,0,0,1-2.154.558,13.556,13.556,0,0,0-2.228.173,2.812,2.812,0,0,0-1.836,1.186,5.77,5.77,0,0,0-.379,3.065,1.743,1.743,0,0,1-.159.872.6.6,0,0,1-.728.327.932.932,0,0,1-.355-.359,12.319,12.319,0,0,0-.759-1.2,1.517,1.517,0,0,0-1.151-.641,1.464,1.464,0,0,0-1.053.6,2.024,2.024,0,0,0-.471,1.052,3.489,3.489,0,0,0,.93,2.341,5.475,5.475,0,0,1-2.228,2.283,1.555,1.555,0,0,1-.863.25c-.532-.051-.906-.564-1.224-1.026l-2.252-3.476a4.194,4.194,0,0,1-.789-1.847,4.323,4.323,0,0,1,.477-2.065,14.056,14.056,0,0,1,1.952-3.617,18.386,18.386,0,0,0,1.616-2.854,3.921,3.921,0,0,1,2.405-2.129c1.114-.225,2.209.4,3.323.641s2.307.1,3.439.333A21.387,21.387,0,0,1,104.518,154.644Z" transform="translate(-51.549 -87.727)" fill="#3e3e54"/>
        <path id="Path_2314" data-name="Path 2314" d="M97.376,194.743a5.7,5.7,0,0,1,1.836,1.924,6.846,6.846,0,0,1,.177,4.239,21.985,21.985,0,0,1-6.891-5.964c-.7-.968-.435-2.738,1.022-2.642C94.793,192.37,96.421,194.031,97.376,194.743Z" transform="translate(-54.462 -108.344)" fill="#fff"/>
        <path id="Path_2315" data-name="Path 2315" d="M86.572,200.806a9.7,9.7,0,0,1,1.273,1.841c.49.981,5.4,17.572,5.545,18.6a12.932,12.932,0,0,1-.037,2.918l-1.383,15.68a1.534,1.534,0,0,1-.22.8,1.368,1.368,0,0,1-.612.391L81.3,244.882a24.394,24.394,0,0,1-4.5,1.43,7.455,7.455,0,0,0-3.274,1.43c-1.689,1.283-2.234,5.175-3.7,5.2-1.12-3.335,2.5-16.879,3.127-19.361,2.2-8.8-.679-18.046-.8-27.152a19.29,19.29,0,0,1,.367-4.489c.7-3.117,2.87-6.413,5.734-7.766.942-.436.814-.487,1.793.256.771.6,1.524,1.244,2.252,1.924A43.78,43.78,0,0,1,86.572,200.806Z" transform="translate(-42.63 -109.129)" fill="#b7b7b7"/>
        <path id="Path_2316" data-name="Path 2316" d="M83.995,230.861l8.917,18.918.19,10.4s6.273-2.11,6.579-5.323.581-10.133.581-10.133L86.241,227.013Z" transform="translate(-50.187 -125.8)" fill="url(#linear-gradient-5)"/>
        <path id="Path_2317" data-name="Path 2317" d="M81.867,208.844a55.6,55.6,0,0,0-.612,9.023,6.51,6.51,0,0,0,1.444,4.457,99.909,99.909,0,0,0,11.628,14.429,3.057,3.057,0,0,0,1.383.975,2.962,2.962,0,0,0,1.138,0l15.673-2.4a.956.956,0,0,0,.879-.35,1.064,1.064,0,0,0,.192-.964l-.4-4.976a47.2,47.2,0,0,1-15.031-.994,3.259,3.259,0,0,1-1.506-.641,3.636,3.636,0,0,1-.777-1.366c-2.215-5.419-4.4-10.844-6.634-16.251-.612-1.539-1.291-3.328-3.06-3.732A3.4,3.4,0,0,0,81.867,208.844Z" transform="translate(-48.744 -115.204)" fill="#b7b7b7"/>
        <path id="Path_2318" data-name="Path 2318" d="M147.246,253.819c.526-.1,1.181-.135,1.481.327a1.508,1.508,0,0,1,.177.641c.08.641.141,1.334.178,2.007a3.741,3.741,0,0,1-.251,1.924c-.955,0-1.916-.032-2.87-.1a.733.733,0,0,1-.386-.109.827.827,0,0,1-.19-.321c-.312-.847-.985-2.565-.667-3.463S146.543,253.928,147.246,253.819Z" transform="translate(-82.055 -139.248)" fill="#fff"/>
        <path id="Path_2319" data-name="Path 2319" d="M153.96,251.1a6.351,6.351,0,0,1,1.977-.994,4.025,4.025,0,0,1,3,.8c.887.6,1.658,1.372,2.558,1.962a17.978,17.978,0,0,1,2.791,1.815.569.569,0,0,1,.214.372.541.541,0,0,1-.349.443,4.821,4.821,0,0,1-3.384-.1,3.459,3.459,0,0,0-2.693.083c-.673.417-1.071,1.283-1.836,1.533a2.556,2.556,0,0,1-1.438-.038,20.271,20.271,0,0,1-3.721-1.283,1.519,1.519,0,0,1-.5-.321,2.228,2.228,0,0,1,.312-2.822,7.327,7.327,0,0,1,1.224-.5A13.386,13.386,0,0,0,153.96,251.1Z" transform="translate(-84.987 -137.391)" fill="url(#linear-gradient-6)"/>
        <path id="Path_2320" data-name="Path 2320" d="M107.122,275.023a2.6,2.6,0,0,1,3.672.859,143.087,143.087,0,0,1,13.244,18.36,1.36,1.36,0,0,1,.233.552,1.391,1.391,0,0,1-.612,1.077l-4.394,4.232a.86.86,0,0,1-1.42.1l-11.7-9.376a1.858,1.858,0,0,0-1-.513,1.709,1.709,0,0,0-.765.205c-2,.917-3.794,2.27-5.777,3.245-4.376,2.148-9.382,2.309-14.217,2.219-4.743-.09-9.565-.4-14-2.167-.906-.359,2.742-7.228,4.492-7.394a27.087,27.087,0,0,0,8.568-2.3,48.36,48.36,0,0,1,6.359-2.892c1.414-.41,1.291-1.924,2.681-2.456C96.89,277.159,102.691,276.588,107.122,275.023Z" transform="translate(-42.959 -149.723)" fill="#c2341c"/>
        <path id="Path_2321" data-name="Path 2321" d="M107.122,275.023a2.6,2.6,0,0,1,3.672.859,143.087,143.087,0,0,1,13.244,18.36,1.36,1.36,0,0,1,.233.552,1.391,1.391,0,0,1-.612,1.077l-4.394,4.232a.86.86,0,0,1-1.42.1l-11.7-9.376a1.858,1.858,0,0,0-1-.513,1.709,1.709,0,0,0-.765.205c-2,.917-3.794,2.27-5.777,3.245-4.376,2.148-9.382,2.309-14.217,2.219-4.743-.09-9.565-.4-14-2.167-.906-.359,2.742-7.228,4.492-7.394a27.087,27.087,0,0,0,8.568-2.3,48.36,48.36,0,0,1,6.359-2.892c1.414-.41,1.291-1.924,2.681-2.456C96.89,277.159,102.691,276.588,107.122,275.023Z" transform="translate(-42.959 -149.723)"/>
        <path id="Path_2322" data-name="Path 2322" d="M53.892,228.54c1.187,3.424,1.279,7.144,1.353,10.787l.477,23.395A5.753,5.753,0,0,0,56,264.7c.777,2.033,3.348,2.347,5.435,2.347h16.83c1.909,0,3.917,0,5.588.988s2.858,3.206,2.056,5.009c-.906,2.071-3.55,2.366-5.722,2.366H52.418a4.194,4.194,0,0,1-2.16-.391c-1.224-.705-1.463-2.36-1.6-3.8L44.737,229.31c-.22-2.379-.612-7.824,2.448-8.177C50.086,220.845,53.127,226.341,53.892,228.54Z" transform="translate(-29.479 -122.838)" fill="#4e4d5c"/>
        <path id="Path_2323" data-name="Path 2323" d="M143.173,221a24.354,24.354,0,0,1,6.377-6.49l-.312,2.443a27.071,27.071,0,0,1,8.213-2.982c.5-.09,1.163-.077,1.334.423.135.4-.165.8-.441,1.1a35.949,35.949,0,0,1-4.761,4.669,11.576,11.576,0,0,1-5.985,2.514,3.823,3.823,0,0,1-2.381-.468,2.04,2.04,0,0,1-.9-2.2" transform="translate(-81.287 -119.219)" fill="url(#linear-gradient-7)"/>
        <path id="Path_2324" data-name="Path 2324" d="M227.59,191.022a4.525,4.525,0,0,0-1.946,1.077,4.618,4.618,0,0,0-.875,2.424l-3.635,23.529a4.74,4.74,0,0,0,.245,3.168c.661,1.109,2.075,1.469,3.354,1.693a67.009,67.009,0,0,0,12.711,1.026.939.939,0,0,0,.612-.16.962.962,0,0,0,.239-.641,20.316,20.316,0,0,0-.1-5.278l-7.876-1.039c-.679-.09-.649,0-.955-.609a2.047,2.047,0,0,1-.141-1.02c.135-3.322-.037-6.868,1.089-10a56.814,56.814,0,0,1,1.616,12.416c7.613-.333,15.177-.577,22.8-.218a99.074,99.074,0,0,1,.82-14.256l2.993,6.689a7.242,7.242,0,0,1,.869,3.206c-.049,1.372-.869,2.706-.569,4.047l9.669-.327-1.3-6.971a18.317,18.317,0,0,0-2.209-6.5l-4.725-9.267a7.587,7.587,0,0,0-1.408-2.136,7.033,7.033,0,0,0-1.9-1.186,39.223,39.223,0,0,0-15.728-3.662C236.6,186.962,231.849,189.508,227.59,191.022Z" transform="translate(-122.179 -105.694)"/>
        <path id="Path_2326" data-name="Path 2326" d="M262.213,180.152a6.857,6.857,0,0,0-.092,2.026,3.948,3.948,0,0,0,.539,1.353,4.162,4.162,0,0,0,2.7,2.161,4.96,4.96,0,0,0,2.938-.821,3.069,3.069,0,0,0,1.126-.847,3.581,3.581,0,0,0,.612-1.924,13.334,13.334,0,0,0-.159-2.745l-.428-3.367a.969.969,0,0,0-.122-.41.476.476,0,0,0-.306-.167c-1.634-.41-3.886-1.167-5.539-.551S262.433,178.472,262.213,180.152Z" transform="translate(-143.778 -99.461)" fill="url(#linear-gradient-8)"/>
        <path id="Path_2327" data-name="Path 2327" d="M269.53,177.444s-2.723,5.772-5.459,5.265-1.548-4.861-1.548-4.861Z" transform="translate(-143.874 -100.876)" fill="url(#linear-gradient-9)"/>
        <path id="Path_2328" data-name="Path 2328" d="M267.756,157.622c.361-.571.912-1.218,1.561-1.045a1.121,1.121,0,0,1,.6.617,1.2,1.2,0,0,1,.007.884,5.92,5.92,0,0,1-.979,1.513c-1.175,1.642-1.383,3.906-2.834,5.31a6,6,0,0,1-4.106,1.436,4.686,4.686,0,0,1-1.744-.224,4.9,4.9,0,0,1-2.589-3.155,18.792,18.792,0,0,1-.943-4.8,11.473,11.473,0,0,1,.318-4.335,5.017,5.017,0,0,1,2.742-3.206c2.111-.853,4.621.366,5.93,2.232a13.956,13.956,0,0,1,1.964,6.483" transform="translate(-140.925 -87.249)" fill="url(#linear-gradient-10)"/>
        <path id="Path_2329" data-name="Path 2329" d="M254.424,150.355c0,.25-.129.507,0,.731a.514.514,0,0,0,.649.212,1.313,1.313,0,0,0,.551-.513,9.818,9.818,0,0,1,1.671-2.251,1.793,1.793,0,0,1,2.5.115.442.442,0,0,0,.129.154.392.392,0,0,0,.281,0,3.226,3.226,0,0,1,3.213.988,4.944,4.944,0,0,1,1.175,3.264c0,.359.428,1.622.771,1.513.1-.032.129-1.065.2-1.142.239-.282.251-.372.49-.641a.712.712,0,0,1,.275-.237c.263-.1.532.115.814.18a1.055,1.055,0,0,0,1.138-.8,3.133,3.133,0,0,0-.061-1.52,2.959,2.959,0,0,1-.043-1.513c.233-.731,1.01-1.283.985-2.033a1.745,1.745,0,0,0-.19-.641,5.963,5.963,0,0,0-1.622-2.129,5.606,5.606,0,0,0-.924-1.462,1.9,1.9,0,0,0-1.548-.641c-.257.038-.508.148-.765.167-1.022.071-1.836-1.212-2.84-.981-.324.077-.612.308-.924.366-.581.109-1.132-.34-1.72-.327s-1.04.455-1.567.693-1.285.346-1.542.9c-.11.231-.141.532-.367.641a.977.977,0,0,1-.557,0,1.53,1.53,0,0,0-1.414.641,5.851,5.851,0,0,0-.912,3.752,1.73,1.73,0,0,0,.845,1.558C253.543,149.592,254.388,149.669,254.424,150.355Z" transform="translate(-138.603 -82.624)" fill="#3e3e54"/>
        <path id="Path_2330" data-name="Path 2330" d="M263.635,191.537a3.324,3.324,0,0,0-1.977,1.635,9.96,9.96,0,0,0-.881,2.475c.067-.269-.612-1.321-.741-1.616-.245-.59-.459-1.193-.667-1.8-.269-.789-1.114-2.341-.716-3.162C259.6,187.131,262.931,190.754,263.635,191.537Z" transform="translate(-141.92 -106.439)" fill="#fff"/>
        <path id="Path_2331" data-name="Path 2331" d="M271.681,192.227c1.3.526,2.081,1.847,3.176,2.732a.407.407,0,0,0,.19.09.329.329,0,0,0,.2-.1,4.757,4.757,0,0,0,1.389-2.168c.294-.827.7-4.053-1.022-3.283a11.483,11.483,0,0,0-1.805,1.379A19.511,19.511,0,0,1,271.681,192.227Z" transform="translate(-148.821 -106.88)" fill="#fff"/>
        <path id="Path_2334" data-name="Path 2334" d="M257.562,250.489a.684.684,0,0,1,.612.205.663.663,0,0,1,.086.3,11.151,11.151,0,0,1-.073,2.924,1.312,1.312,0,0,1-.343.8,1.378,1.378,0,0,1-1,.212l-1.444-.058a.635.635,0,0,1-.306-.071.557.557,0,0,1-.2-.289,5.088,5.088,0,0,1-.324-3.405C254.992,250.194,256.742,250.476,257.562,250.489Z" transform="translate(-139.727 -137.578)" fill="#fff"/>
        <path id="Path_2335" data-name="Path 2335" d="M264.516,250.456a.645.645,0,0,1-.386.68,4.362,4.362,0,0,0,1.622.462,10.617,10.617,0,0,1,3.158,1.071,2.673,2.673,0,0,1,1.579,1.719.53.53,0,0,1,0,.308.63.63,0,0,1-.19.205,4.022,4.022,0,0,1-2.448.468c-2.448-.045-5.031-.045-7.344-.988a1.364,1.364,0,0,1-.5-.308,1.129,1.129,0,0,1-.245-.571,1.809,1.809,0,0,1,.912-2.251,8.126,8.126,0,0,1,3.843-.8Z" transform="translate(-142.519 -137.584)" fill="url(#linear-gradient-11)"/>
        <path id="Path_2336" data-name="Path 2336" d="M253.539,372.825a3.1,3.1,0,0,0,.906,1.129,9.123,9.123,0,0,0,8.262,2.969,1.365,1.365,0,0,0,1.371-2.289c-1.138-2.084-2.65-4.034-3.158-6.355a3.711,3.711,0,0,0-.808-2.052c-1.224-1.1-4.321-.7-5.324.577a5.543,5.543,0,0,0-.845,2.3C253.729,370.164,253.117,371.76,253.539,372.825Z" transform="translate(-139.211 -195.477)" fill="#3e3e54"/>
        <path id="Path_2337" data-name="Path 2337" d="M282.339,373.963c.575.289,1.163.558,1.756.8a.5.5,0,0,0,.771-.231l.8-1.283c1.481,1.712,4.027,1.924,6.291,1.879,1.077,0,2.148-.045,3.219-.1.471,0,1.047-.128,1.224-.577s-.22-.834-.569-1.1c-1.873-1.443-4.492-1.841-6.01-3.649a9.8,9.8,0,0,0-1.836-2.225,4.706,4.706,0,0,0-2.448-.526c-1.371-.038-2.9-.18-3.06,1.411A39.058,39.058,0,0,0,282.339,373.963Z" transform="translate(-154.4 -196.153)" fill="#3e3e54"/>
        <path id="Path_2338" data-name="Path 2338" d="M279.175,205.294l5.679-23.516h24.29l-7.944,23.01-.233,2.572-29.816.853v-1.956Z" transform="translate(-142.497 -91.409)" fill="#3e3e54"/>
        <path id="Path_2342" data-name="Path 2342" d="M141.349,223.369a1.27,1.27,0,0,0-.661.231,1.251,1.251,0,0,0-.343.949,6,6,0,0,0,.557,2.36,3.95,3.95,0,0,0,.875,1.385,1.53,1.53,0,0,0,1.475.417,2.309,2.309,0,0,0,1.175-1.283.663.663,0,0,0,.1-.353c0-.205-.184-.346-.324-.487-.93-.911-.263-1.853-.716-2.8S142.163,223.254,141.349,223.369Z" transform="translate(-79.799 -123.875)" fill="#fff"/>
        <rect id="Rectangle_1059" data-name="Rectangle 1059" width="17.13" height="3.591" transform="translate(116.837 182.401)" fill="#c2341c"/>
        <rect id="Rectangle_1060" data-name="Rectangle 1060" width="3.372" height="54.728" transform="translate(123.594 129.776)" fill="#c2341c"/>
        <path id="Path_2343" data-name="Path 2343" d="M281.046,165.783a.255.255,0,0,0,0-.135,1.127,1.127,0,0,1,0-.641.527.527,0,0,1,.19-.2.812.812,0,0,1,.392-.128.221.221,0,0,1,.116,0,.217.217,0,0,1,.092.128,1.193,1.193,0,0,1,0,.744,1.943,1.943,0,0,1-.428.75.923.923,0,0,1-.612.333.227.227,0,0,1-.092,0,.127.127,0,0,1-.055-.071.4.4,0,0,1,0-.443C280.777,166.014,280.979,165.95,281.046,165.783Z" transform="translate(-153.499 -94.454)" fill="url(#linear-gradient-12)"/>
        <g id="Group_971" data-name="Group 971" transform="translate(197.138 55.749)">
          <path id="Path_2529" data-name="Path 2529" d="M912.7,518.1s1.108,35.194,3,39.7c1.575,3.752,2.495,15.985,2.758,19.967.053.8.079,1.265.079,1.265s5.043,0,5.359-1.287,1.261-15.442,0-19.946,1.8-37.8,1.8-37.8Z" transform="translate(-904.156 -452.674)" fill="#2f2e41"/>
          <path id="Path_2530" data-name="Path 2530" d="M905.5,736.13s-3.152.965-3.782,2.252-11.033,3.539-7.88,5.147,12.609-1.287,12.609-1.287,5.043-.322,4.728-2.252a19.334,19.334,0,0,0-1.463-4.309Z" transform="translate(-889.854 -611.385)" fill="#2f2e41"/>
          <path id="Path_2531" data-name="Path 2531" d="M938.787,739.93s-3.152.965-3.783,2.252-11.033,3.539-7.88,5.147,12.609-1.287,12.609-1.287,5.043-.322,4.728-2.252A19.327,19.327,0,0,0,943,739.482Z" transform="translate(-914.318 -614.156)" fill="#2f2e41"/>
          <path id="Path_2532" data-name="Path 2532" d="M922.824,518.191l4.413,7.721,7.365,26.844s-.745,24.629.2,24.629,5.989,1.609,6.3,0c.266-1.359,3.8-14.375,2.037-23.038a112.948,112.948,0,0,1-2.2-16.621l-.78-15.032s3.152-5.791-.315-6.756S922.824,518.191,922.824,518.191Z" transform="translate(-911.594 -450.969)" fill="#2f2e41"/>
          <ellipse id="Ellipse_498" data-name="Ellipse 498" cx="7.565" cy="7.721" rx="7.565" ry="7.721" transform="translate(7.762 2.238)" fill="#ffb8b8"/>
          <path id="Path_2533" data-name="Path 2533" d="M934.714,324.334s1.261,10.295.946,10.938,7.565-7.078,7.565-7.078-2.837-4.5-2.207-6.756Z" transform="translate(-920.332 -309.228)" fill="#ffb8b8"/>
          <g id="Group_966" data-name="Group 966" transform="translate(7.764 17.68)">
            <path id="Path_2534" data-name="Path 2534" d="M934.022,349.371s-8.826-6.434-9.141-7.721l-6.62,5.791-1.125-1.366s-5.18,5.227-5.18,7.479-.315,9.008.63,10.938-2.837,26.38-2.837,26.38,3.152,2.9,3.467,3.217,12.924-1.93,12.924-1.93,6.3-.643,6.3-1.608-1.891-15.442-1.261-19.3S934.022,349.371,934.022,349.371Z" transform="translate(-909.751 -341.65)"/>
          </g>
          <path id="Path_2535" data-name="Path 2535" d="M910.7,282.412a5.224,5.224,0,0,1,3.229-.257c1.492.441,2.526,1.776,3.641,2.88s2.678,2.083,4.146,1.564a2.52,2.52,0,0,1,.464-1.832,1.693,1.693,0,0,0,.412-.7c.063-.414-.278-.77-.38-1.175-.179-.71.312-1.682-.292-2.08-.159-.105-.361-.129-.516-.24-.61-.435.067-1.518-.336-2.156a1.3,1.3,0,0,0-.458-.39c-2.925-1.742-6.5-1.747-9.888-1.7-.471.006-1.128.245-.995.707-.64-.469-1.478.189-1.994.8l-1.056,1.244a9.571,9.571,0,0,0-1.29,1.781c-.323.629-.394,1.6.248,1.872-.477-.2-1.056,2.681,1.144,2.206C908.054,284.652,909.307,282.917,910.7,282.412Z" transform="translate(-898.601 -276.31)" fill="#2f2e41"/>
          <path id="Path_2539" data-name="Path 2539" d="M914.392,403.476s1.576,20.911-.63,21.554-10.087,5.469-22.7,4.182c0,0-12.293,6.756-10.4.322s10.4-4.826,10.4-4.826,15.13-3.217,15.761-5.469-1.891-11.582-.946-11.9S914.392,403.476,914.392,403.476Z" transform="translate(-880.466 -369.067)" fill="#ffb8b8"/>
          <path id="Path_2540" data-name="Path 2540" d="M974.408,370.828l5.043-.643s5.043,9.973,2.207,11.581-10.087,2.9-10.087,2.252S974.408,370.828,974.408,370.828Z" transform="translate(-947.417 -344.784)"/>
          <g id="Component_38_11" data-name="Component 38 – 11" transform="matrix(0.999, 0.035, -0.035, 0.999, 11.001, 34.193)">
            <g id="Group_683" data-name="Group 683" transform="translate(2.134 4.247)">
              <path id="Path_2413" data-name="Path 2413" d="M0,.563V.253A.259.259,0,0,1,.289,0C.44,0,.558.082.558.228V.281H.415V.242A.112.112,0,0,0,.289.129.116.116,0,0,0,.161.254v.3a.118.118,0,0,0,.13.131A.11.11,0,0,0,.415.578V.535H.559V.588C.559.736.441.816.291.816S0,.739,0,.563Z" transform="translate(0 0)" fill="#fff"/>
              <path id="Path_2414" data-name="Path 2414" d="M.235,0H.429l.231.79H.5L.447.6H.2L.149.79H0Zm.178.48L.325.155h0L.233.481Z" transform="translate(0.612 0.012)" fill="#fff"/>
              <path id="Path_2415" data-name="Path 2415" d="M.212.128H0V0H.581V.129H.371V.79H.212V.128Z" transform="translate(1.254 0.014)" fill="#fff"/>
              <path id="Path_2416" data-name="Path 2416" d="M0,0H.229A.207.207,0,0,1,.458.222a.2.2,0,0,1-.18.22l.2.347H.409L.213.452H.067V.789H0ZM.212.4C.332.4.392.342.392.226A.155.155,0,0,0,.219.055H.067V.4Z" transform="translate(2.146 0.015)" fill="#c2341c"/>
              <path id="Path_2417" data-name="Path 2417" d="M0,.385V.21A.19.19,0,0,1,.2,0,.174.174,0,0,1,.382.2V.3H.064V.387A.13.13,0,0,0,.212.533.273.273,0,0,0,.352.492L.375.534A.271.271,0,0,1,.2.586.182.182,0,0,1,0,.385ZM.323.256V.19A.125.125,0,0,0,.192.049.129.129,0,0,0,.064.192V.256H.323Z" transform="translate(2.733 0.231)" fill="#c2341c"/>
              <path id="Path_2418" data-name="Path 2418" d="M0,.681V0H.063V.674c0,.039.018.065.068.065a.355.355,0,0,0,.05,0v.05A.2.2,0,0,1,.113.8.1.1,0,0,1,0,.681Z" transform="translate(3.257 0.016)" fill="#c2341c"/>
              <path id="Path_2419" data-name="Path 2419" d="M0,.386V.2A.184.184,0,0,1,.194,0,.181.181,0,0,1,.389.2V.383A.182.182,0,0,1,.2.587.181.181,0,0,1,0,.386Zm.326,0V.2A.127.127,0,0,0,.193.05C.1.05.063.119.063.2V.384C.063.477.1.534.2.535S.327.467.327.383Z" transform="translate(3.535 0.232)" fill="#c2341c"/>
              <path id="Path_2420" data-name="Path 2420" d="M0,.426A.181.181,0,0,1,.2.25H.317v-.1C.317.077.27.047.2.047S.075.076.075.14V.174H.02V.139C.02.047.1,0,.208,0S.38.044.38.143V.43c0,.041,0,.114.006.144H.328l0-.093h0a.177.177,0,0,1-.167.1A.148.148,0,0,1,0,.426ZM.317.39v-.1h-.1C.145.295.065.317.065.417a.107.107,0,0,0,.108.12A.143.143,0,0,0,.317.39Z" transform="translate(4.039 0.232)" fill="#c2341c"/>
              <path id="Path_2421" data-name="Path 2421" d="M0,.644V.39A.162.162,0,0,1,.168.216a.155.155,0,0,1,.149.1h0V0H.382V.789H.327l0-.105h0A.177.177,0,0,1,.156.8.147.147,0,0,1,0,.644ZM.32.572V.433A.162.162,0,0,0,.178.263C.117.263.063.295.063.39V.634A.1.1,0,0,0,.175.751.161.161,0,0,0,.32.572Z" transform="translate(4.559 0.016)" fill="#c2341c"/>
              <path id="Path_2422" data-name="Path 2422" d="M0,.385V.21A.19.19,0,0,1,.2,0,.174.174,0,0,1,.382.2V.3H.064V.387A.13.13,0,0,0,.212.533.273.273,0,0,0,.352.492L.375.534A.271.271,0,0,1,.2.586.182.182,0,0,1,0,.385ZM.323.256V.19A.125.125,0,0,0,.192.049.129.129,0,0,0,.064.192V.256H.323Z" transform="translate(5.088 0.233)" fill="#c2341c"/>
              <path id="Path_2423" data-name="Path 2423" d="M0,.644V.39A.162.162,0,0,1,.168.216a.155.155,0,0,1,.149.1h0V0H.381V.789H.326l0-.105h0A.177.177,0,0,1,.156.8.147.147,0,0,1,0,.644ZM.319.572V.433A.162.162,0,0,0,.178.263C.117.263.064.295.064.39V.634A.1.1,0,0,0,.175.751.161.161,0,0,0,.319.572Z" transform="translate(5.59 0.017)" fill="#c2341c"/>
            </g>
            <g id="layer1" transform="translate(0 0)">
              <path id="path3003-4" d="M1.6,0A1.467,1.467,0,0,0,.512.675,2.48,2.48,0,0,0,.005,2.261,2.32,2.32,0,0,0,1.589,4.567V4.189a2.021,2.021,0,0,1-1.25-1.98A2.24,2.24,0,0,1,.779.921,1.4,1.4,0,0,1,1.6.366Zm.36.5A1.223,1.223,0,0,0,1.482.6a1.617,1.617,0,0,0-.855.949A2.234,2.234,0,0,0,.808,3.368a1.307,1.307,0,0,0,1.63.557,2.476,2.476,0,0,0,.3-.165l-.16-.317a2.1,2.1,0,0,1-.264.148C1.322,3.94.5,2.756.923,1.711A1.318,1.318,0,0,1,1.58.96a.994.994,0,0,1,.979.151,1.54,1.54,0,0,1,.485,1.6.306.306,0,0,1-.249.221c0-.13,0-.321,0-.477a1.943,1.943,0,0,0-.053-.52.813.813,0,0,0-.789-.665.7.7,0,0,0-.666.417,1.152,1.152,0,0,0,.21,1.453.756.756,0,0,0,.614.155A.809.809,0,0,0,2.3,3.231c.054-.028.127-.066.1-.068v-.4a1.677,1.677,0,0,1-.214.132.532.532,0,0,1-.13.046.488.488,0,0,1-.4-.125c-.407-.312-.244-1.161.3-1.186a.522.522,0,0,1,.471.433,1.539,1.539,0,0,1,.044.409c0,.26,0,.623,0,.623l0,.213h.128s.076,0,.169,0a.767.767,0,0,0,.15-.024.38.38,0,0,0,.167-.094.823.823,0,0,0,.214-.322,1.832,1.832,0,0,0,.084-.739A1.821,1.821,0,0,0,2.733.789,1.354,1.354,0,0,0,1.96.5Z" transform="translate(0 0)" fill="#c2341c"/>
              <path id="path4227-4" d="M3.373.008A.4.4,0,0,0,3.02.3C2.849.774,2.8.881,2.629,1.388c-.118.339-.183.505-.335.93-.046.129-.272.757-.272.757l.565,0c.136-.384.149-.413.193-.55.114-.278.181-.5.3-.834.1-.262.149-.414.19-.524s.048-.176.1-.179c.038,0,.078.149.181.421.061.161.171.466.21.574s.06.189.09.25a1.182,1.182,0,0,1,.065.165c.007.029-.1.012-.229.013-.249,0-.608,0-.608,0l-.238.66c.686.014,1.191-.021,1.873,0C4.414,2.214,3.837.633,3.808.552S3.741.372,3.723.318a.389.389,0,0,0-.35-.31ZM.659.056A.722.722,0,0,0,.419.121C.228.229.068.441.01,1.224A4.6,4.6,0,0,0,.094,2.5c.082.294.279.565.449.57H1.833l.221-.664s-.886.012-1.308.01c-.251,0-.2-.715-.213-1.133,0,0,.021-.561.169-.557.468.012,1.89,0,1.89,0L2.857.071.659.056ZM3.875.068c0,.017.257.663.249.664.278,0,.568-.014.875,0V3.074l.518,0V.726h.9c0-.316,0-.478,0-.652-.871,0-1.627,0-2.545-.005Z" transform="translate(3.813 0.745)" fill="#fff"/>
            </g>
          </g>
        </g>
        <g id="Component_49" data-name="Component 49" transform="translate(117.166 97.257)">
          <g id="Group_683-2" data-name="Group 683" transform="translate(2.449 4.929)">
            <path id="Path_2413-2" data-name="Path 2413" d="M0,.654V.293A.3.3,0,0,1,.332,0C.505,0,.641.095.641.264V.326H.476V.281A.129.129,0,0,0,.332.15.134.134,0,0,0,.185.295V.646A.136.136,0,0,0,.335.8.127.127,0,0,0,.476.671V.621H.641V.682C.641.854.506.947.334.947S0,.858,0,.654Z" transform="translate(-0.001 -0.001)" fill="#fff"/>
            <path id="Path_2414-2" data-name="Path 2414" d="M.269,0H.492L.756.918H.572L.512.7H.229L.17.917H0Zm.2.557L.373.179h0l-.1.379Z" transform="translate(0.701 0.014)" fill="#fff"/>
            <path id="Path_2415-2" data-name="Path 2415" d="M.243.149H0V0H.667V.149H.425V.917H.243V.149Z" transform="translate(1.437 0.015)" fill="#fff"/>
            <path id="Path_2416-2" data-name="Path 2416" d="M0,0H.263A.238.238,0,0,1,.525.258.23.23,0,0,1,.318.513l.235.4H.469L.244.524H.077V.916H0ZM.243.464A.18.18,0,0,0,.45.263a.179.179,0,0,0-.2-.2H.077v.4Z" transform="translate(2.462 0.016)" fill="#c2341c"/>
            <path id="Path_2417-2" data-name="Path 2417" d="M0,.447v-.2A.219.219,0,0,1,.228,0,.2.2,0,0,1,.439.228V.351H.074v.1a.149.149,0,0,0,.17.169A.31.31,0,0,0,.4.57L.43.619a.308.308,0,0,1-.2.061A.21.21,0,0,1,0,.447ZM.371.3V.22A.145.145,0,0,0,.22.057.149.149,0,0,0,.073.222V.3h.3Z" transform="translate(3.135 0.267)" fill="#c2341c"/>
            <path id="Path_2418-2" data-name="Path 2418" d="M0,.791V0H.073V.782A.068.068,0,0,0,.151.858.4.4,0,0,0,.209.853V.911A.225.225,0,0,1,.13.923.119.119,0,0,1,0,.791Z" transform="translate(3.737 0.018)" fill="#c2341c"/>
            <path id="Path_2419-2" data-name="Path 2419" d="M0,.448V.234A.212.212,0,0,1,.223,0,.209.209,0,0,1,.446.232V.445A.21.21,0,0,1,.225.681.209.209,0,0,1,0,.448Zm.374,0V.226C.375.134.331.058.221.058S.072.138.072.233V.446C.072.554.117.62.227.62S.375.542.375.445Z" transform="translate(4.055 0.268)" fill="#c2341c"/>
            <path id="Path_2420-2" data-name="Path 2420" d="M0,.495a.208.208,0,0,1,.23-.2H.363V.171C.363.089.31.055.229.054S.086.088.086.162V.2H.022V.161c0-.107.1-.16.216-.16s.2.05.2.166V.5c0,.048.005.132.007.167H.376L.371.558h0A.2.2,0,0,1,.177.679.171.171,0,0,1,0,.495ZM.363.453V.342H.243C.167.342.075.368.075.484A.124.124,0,0,0,.2.623.166.166,0,0,0,.363.453Z" transform="translate(4.634 0.268)" fill="#c2341c"/>
            <path id="Path_2421-2" data-name="Path 2421" d="M0,.748v-.3a.188.188,0,0,1,.191-.2A.178.178,0,0,1,.364.367h0V0H.438V.916H.374l0-.122h0A.2.2,0,0,1,.179.931.169.169,0,0,1,0,.748ZM.366.663V.5A.188.188,0,0,0,.2.305C.134.3.073.342.073.453V.736C.073.817.11.871.2.871A.186.186,0,0,0,.366.663Z" transform="translate(5.231 0.018)" fill="#c2341c"/>
            <path id="Path_2422-2" data-name="Path 2422" d="M0,.447v-.2A.219.219,0,0,1,.228,0,.2.2,0,0,1,.439.228V.351H.074v.1a.149.149,0,0,0,.17.169A.31.31,0,0,0,.4.57L.43.619a.308.308,0,0,1-.2.061A.21.21,0,0,1,0,.447ZM.371.3V.22A.145.145,0,0,0,.22.057.149.149,0,0,0,.073.222V.3h.3Z" transform="translate(5.837 0.269)" fill="#c2341c"/>
            <path id="Path_2423-2" data-name="Path 2423" d="M0,.748v-.3a.187.187,0,0,1,.191-.2A.178.178,0,0,1,.364.367h0V0H.437V.916H.374l0-.122h0A.2.2,0,0,1,.179.931.169.169,0,0,1,0,.748ZM.366.663V.5A.188.188,0,0,0,.2.305C.134.3.073.342.073.453V.736C.073.817.11.871.2.871A.186.186,0,0,0,.366.663Z" transform="translate(6.413 0.019)" fill="#c2341c"/>
          </g>
          <g id="layer1-2" data-name="layer1" transform="translate(0.005 0.004)">
            <path id="path3003-4-2" data-name="path3003-4" d="M1.835,0A1.682,1.682,0,0,0,.587.783,2.9,2.9,0,0,0,.005,2.624,2.69,2.69,0,0,0,1.822,5.3V4.861a2.347,2.347,0,0,1-1.434-2.3A2.618,2.618,0,0,1,.893,1.068,1.6,1.6,0,0,1,1.84.424Zm.413.581A1.39,1.39,0,0,0,1.7.691a1.869,1.869,0,0,0-.981,1.1A2.619,2.619,0,0,0,.927,3.908,1.491,1.491,0,0,0,2.8,4.554a2.833,2.833,0,0,0,.341-.192l-.184-.368a2.4,2.4,0,0,1-.3.172C1.516,4.573.57,3.2,1.058,1.986a1.526,1.526,0,0,1,.754-.872,1.13,1.13,0,0,1,1.124.175,1.8,1.8,0,0,1,.557,1.859.352.352,0,0,1-.286.256c0-.151,0-.373,0-.553a2.28,2.28,0,0,0-.061-.6.935.935,0,0,0-.905-.771.8.8,0,0,0-.764.484,1.349,1.349,0,0,0,.241,1.687.86.86,0,0,0,.7.18.921.921,0,0,0,.221-.077c.062-.033.145-.077.115-.079V3.2a1.921,1.921,0,0,1-.246.153.606.606,0,0,1-.15.054.555.555,0,0,1-.465-.145c-.467-.363-.28-1.347.339-1.377a.6.6,0,0,1,.541.5,1.806,1.806,0,0,1,.05.475c0,.3,0,.723,0,.723l.005.247h.146s.087,0,.194,0A.871.871,0,0,0,3.34,3.8.434.434,0,0,0,3.532,3.7a.956.956,0,0,0,.245-.374,2.15,2.15,0,0,0,.1-.858A2.122,2.122,0,0,0,3.136.915,1.543,1.543,0,0,0,2.248.585Z" transform="translate(-0.005 -0.004)" fill="#c2341c"/>
            <path id="path4227-4-2" data-name="path4227-4" d="M3.87.008a.457.457,0,0,0-.406.344c-.2.545-.247.669-.449,1.257-.135.394-.21.587-.384,1.08-.053.15-.313.879-.313.879l.648,0c.156-.446.171-.48.222-.639.13-.322.208-.584.35-.968.113-.3.171-.481.218-.608s.055-.2.118-.207c.044,0,.089.174.208.489.07.187.2.541.241.667s.069.22.1.29a1.382,1.382,0,0,1,.074.192c.008.034-.111.013-.262.015-.286,0-.7,0-.7,0l-.273.767c.788.017,1.367-.025,2.149.006C5.065,2.569,4.4.733,4.37.639S4.292.43,4.272.368a.448.448,0,0,0-.4-.359ZM.755.064A.821.821,0,0,0,.481.14C.261.265.077.511.011,1.42A5.4,5.4,0,0,0,.107,2.9c.094.341.32.656.515.661H2.1l.254-.771s-1.016.014-1.5.012c-.289,0-.233-.829-.244-1.316,0,0,.024-.651.194-.647.538.013,2.169,0,2.169,0l.3-.76L.755.064Zm3.69.014c0,.02.295.769.286.771.319,0,.652-.016,1,0V3.567l.594,0V.842H7.367c.006-.367,0-.554,0-.757-1-.005-1.867,0-2.921-.006Z" transform="translate(4.37 0.862)" fill="#fff"/>
          </g>
        </g>
        <path id="path3003-4-3" data-name="path3003-4" d="M1.835,0A1.682,1.682,0,0,0,.587.783,2.9,2.9,0,0,0,.005,2.624,2.69,2.69,0,0,0,1.822,5.3V4.861a2.347,2.347,0,0,1-1.434-2.3A2.618,2.618,0,0,1,.893,1.068,1.6,1.6,0,0,1,1.84.424Zm.413.581A1.39,1.39,0,0,0,1.7.691a1.869,1.869,0,0,0-.981,1.1A2.619,2.619,0,0,0,.927,3.908,1.491,1.491,0,0,0,2.8,4.554a2.833,2.833,0,0,0,.341-.192l-.184-.368a2.4,2.4,0,0,1-.3.172C1.516,4.573.57,3.2,1.058,1.986a1.526,1.526,0,0,1,.754-.872,1.13,1.13,0,0,1,1.124.175,1.8,1.8,0,0,1,.557,1.859.352.352,0,0,1-.286.256c0-.151,0-.373,0-.553a2.28,2.28,0,0,0-.061-.6.935.935,0,0,0-.905-.771.8.8,0,0,0-.764.484,1.349,1.349,0,0,0,.241,1.687.86.86,0,0,0,.7.18.921.921,0,0,0,.221-.077c.062-.033.145-.077.115-.079V3.2a1.921,1.921,0,0,1-.246.153.606.606,0,0,1-.15.054.555.555,0,0,1-.465-.145c-.467-.363-.28-1.347.339-1.377a.6.6,0,0,1,.541.5,1.806,1.806,0,0,1,.05.475c0,.3,0,.723,0,.723l.005.247h.146s.087,0,.194,0A.871.871,0,0,0,3.34,3.8.434.434,0,0,0,3.532,3.7a.956.956,0,0,0,.245-.374,2.15,2.15,0,0,0,.1-.858A2.122,2.122,0,0,0,3.136.915,1.543,1.543,0,0,0,2.248.585Z" transform="translate(149.971 99.357) rotate(16)" fill="#fff"/>
      </g>
    </g>
  </g>
</svg>
