<svg id="ios" xmlns="http://www.w3.org/2000/svg" width="280" height="224.882" viewBox="0 0 280 224.882">
  <path id="Path_2845" data-name="Path 2845" d="M138.946,10.267A76.842,76.842,0,0,1,161,17.543c9.7,5.052,17.714,12.806,26.835,18.845,15.544,10.285,34.157,16.1,51.826,20.13,7.057,1.62,14.2,3.125,20.554,6.777,9.7,5.6,16.655,15.749,21.489,26.514,10.586,23.629,12.518,52.289,3.1,76.541-9.21,23.571-30.249,43.48-54.155,46.011-30.17,3.365-60.33,9.787-90.553,13.851-20.986,3.374-42.061,6.71-63.277,7.007-8.822.105-17.872-.364-26.279-3.46-15.773-5.838-30.02-17.868-36.195-35.045a60.377,60.377,0,0,1,1.209-43.471c3.529-8.33,9.016-15.682,11.583-24.424,2.32-7.9,2.064-16.238,1.711-24.415a65.673,65.673,0,0,1,2.6-22.507c4.181-14.848,10.771-29.044,20.078-40.854C62.993,24.425,78.783,13.478,96.17,9.951a98.007,98.007,0,0,1,20.369-1.562,134.132,134.132,0,0,1,22.407,1.879Z" transform="translate(-10.874 -8.35)" fill="#f0f0f0"/>
  <g id="Group_1103" data-name="Group 1103" transform="translate(106 47.339)">
    <path id="Path_2834" data-name="Path 2834" d="M703.149,726.327H599.179a.289.289,0,0,1,0-.577h103.97a.289.289,0,0,1,0,.577Z" transform="translate(-598.906 -566.117)" fill="#ccc"/>
    <path id="Path_2835" data-name="Path 2835" d="M926.266,281.263h-.23a1.125,1.125,0,0,1-1.092-1.154v-9.161a1.125,1.125,0,0,1,1.092-1.154h.23a1.125,1.125,0,0,1,1.092,1.154v9.161A1.125,1.125,0,0,1,926.266,281.263Z" transform="translate(-835.972 -241.662)" fill="#e6e6e6"/>
    <path id="Path_2836" data-name="Path 2836" d="M648.345,252.019h-.231a1.125,1.125,0,0,1-1.092-1.154v-5.3a1.125,1.125,0,0,1,1.092-1.154h.231a1.125,1.125,0,0,1,1.092,1.154v5.3A1.125,1.125,0,0,1,648.345,252.019Z" transform="translate(-633.893 -223.598)" fill="#e6e6e6"/>
    <path id="Path_2837" data-name="Path 2837" d="M648.345,296.787h-.231a1.125,1.125,0,0,1-1.092-1.154v-5.3a1.125,1.125,0,0,1,1.092-1.154h.231a1.125,1.125,0,0,1,1.092,1.154v5.3A1.125,1.125,0,0,1,648.345,296.787Z" transform="translate(-633.893 -255.454)" fill="#e6e6e6"/>
    <path id="Path_2838" data-name="Path 2838" d="M719.359,332.877h-55.01a9.773,9.773,0,0,1-9.481-10.021V183.271a9.773,9.773,0,0,1,9.481-10.021h55.01a9.773,9.773,0,0,1,9.481,10.021V322.856A9.773,9.773,0,0,1,719.359,332.877Z" transform="translate(-639.597 -172.962)" fill="#c2341c"/>
    <path id="Path_2839" data-name="Path 2839" d="M712.928,332.454h-55.01a10.055,10.055,0,0,1-9.754-10.309v-108.4a1.279,1.279,0,0,1-.546.123h-.231a1.406,1.406,0,0,1-1.364-1.442v-5.3a1.406,1.406,0,0,1,1.364-1.442h.23a1.28,1.28,0,0,1,.546.123v-4.971a1.28,1.28,0,0,1-.546.123h-.23a1.406,1.406,0,0,1-1.364-1.442v-5.3a1.406,1.406,0,0,1,1.364-1.442h.23a1.28,1.28,0,0,1,.546.123V182.559a10.055,10.055,0,0,1,9.754-10.309h55.01a10.055,10.055,0,0,1,9.754,10.309v17.658a1.279,1.279,0,0,1,.546-.123h.23a1.406,1.406,0,0,1,1.364,1.442V210.7a1.406,1.406,0,0,1-1.364,1.442h-.23a1.279,1.279,0,0,1-.546-.123V322.145A10.055,10.055,0,0,1,712.928,332.454ZM648.71,212.416V322.145a9.492,9.492,0,0,0,9.209,9.732h55.01a9.492,9.492,0,0,0,9.209-9.732V210.683l.478.579a.8.8,0,0,0,.613.3h.23a.844.844,0,0,0,.819-.865v-9.161a.844.844,0,0,0-.819-.865h-.23a.8.8,0,0,0-.613.3l-.478.579V182.559a9.492,9.492,0,0,0-9.209-9.732h-55.01a9.492,9.492,0,0,0-9.208,9.732v11.669l-.478-.578a.8.8,0,0,0-.613-.3h-.23a.844.844,0,0,0-.819.865v5.3a.844.844,0,0,0,.819.865h.23a.8.8,0,0,0,.613-.3l.478-.578v7.635l-.478-.579a.8.8,0,0,0-.613-.3h-.23a.844.844,0,0,0-.819.865v5.3a.844.844,0,0,0,.819.865h.23a.8.8,0,0,0,.613-.3Z" transform="translate(-633.166 -172.25)" fill="#ccc"/>
    <path id="Path_2840" data-name="Path 2840" d="M695.786,218.736H680.743a8.964,8.964,0,0,1-8.7-9.191V191.116a8.964,8.964,0,0,1,8.7-9.19h15.043a8.964,8.964,0,0,1,8.7,9.19v18.429A8.964,8.964,0,0,1,695.786,218.736Z" transform="translate(-652.088 -179.135)" fill="#fff"/>
    <path id="Path_2841" data-name="Path 2841" d="M695.059,218.313H680.016a9.245,9.245,0,0,1-8.969-9.479V190.4a9.245,9.245,0,0,1,8.969-9.479h15.043a9.245,9.245,0,0,1,8.969,9.479v18.429A9.245,9.245,0,0,1,695.059,218.313ZM680.016,181.5a8.682,8.682,0,0,0-8.423,8.9v18.429a8.682,8.682,0,0,0,8.423,8.9h15.043a8.682,8.682,0,0,0,8.423-8.9V190.4a8.682,8.682,0,0,0-8.423-8.9Z" transform="translate(-651.361 -178.424)" fill="#ccc"/>
    <ellipse id="Ellipse_529" data-name="Ellipse 529" cx="4.587" cy="4.848" rx="4.587" ry="4.848" transform="translate(24.556 7.621)" fill="#2f2e41"/>
    <ellipse id="Ellipse_530" data-name="Ellipse 530" cx="4.587" cy="4.848" rx="4.587" ry="4.848" transform="translate(24.556 25.074)" fill="#2f2e41"/>
    <ellipse id="Ellipse_531" data-name="Ellipse 531" cx="4.587" cy="4.848" rx="4.587" ry="4.848" transform="translate(38.623 16.261)" fill="#2f2e41"/>
    <ellipse id="Ellipse_532" data-name="Ellipse 532" cx="1.606" cy="1.697" rx="1.606" ry="1.697" transform="translate(27.538 10.772)" fill="#b3b3b3"/>
    <path id="Path_2842" data-name="Path 2842" d="M700.7,212.571a1.988,1.988,0,1,1,1.878-1.985A1.934,1.934,0,0,1,700.7,212.571Zm0-3.394a1.411,1.411,0,1,0,1.333,1.408,1.372,1.372,0,0,0-1.333-1.408Z" transform="translate(-671.554 -198.117)" fill="#e6e6e6"/>
    <ellipse id="Ellipse_533" data-name="Ellipse 533" cx="1.606" cy="1.697" rx="1.606" ry="1.697" transform="translate(41.605 19.412)" fill="#b3b3b3"/>
    <path id="Path_2843" data-name="Path 2843" d="M752.246,242.528a1.988,1.988,0,1,1,1.878-1.985A1.934,1.934,0,0,1,752.246,242.528Zm0-3.394a1.411,1.411,0,1,0,1.333,1.408,1.372,1.372,0,0,0-1.333-1.408Z" transform="translate(-709.036 -219.434)" fill="#e6e6e6"/>
    <ellipse id="Ellipse_534" data-name="Ellipse 534" cx="1.606" cy="1.697" rx="1.606" ry="1.697" transform="translate(27.538 28.225)" fill="#b3b3b3"/>
    <path id="Path_2844" data-name="Path 2844" d="M700.7,273.086a1.988,1.988,0,1,1,1.878-1.985A1.934,1.934,0,0,1,700.7,273.086Zm0-3.394a1.411,1.411,0,1,0,1.333,1.408,1.372,1.372,0,0,0-1.333-1.408Z" transform="translate(-671.554 -241.179)" fill="#e6e6e6"/>
    <g id="c5Uefy" transform="translate(43.906 75.025)">
      <path id="Path_1777" data-name="Path 1777" d="M343.286,223.389l-.427.4a5.573,5.573,0,0,0-1.4,1.861,4.989,4.989,0,0,0,.528,4.973,3.731,3.731,0,0,0,1.617,1.419l.292.116c-.045.134-.084.268-.129.4a13.055,13.055,0,0,1-2.246,4,6.418,6.418,0,0,1-.881.838,2.392,2.392,0,0,1-2.274.459c-.5-.151-.994-.32-1.493-.477a4.773,4.773,0,0,0-1.269-.25,4.358,4.358,0,0,0-1.841.4,6.172,6.172,0,0,1-1.426.448,2.334,2.334,0,0,1-1.359-.221,4.473,4.473,0,0,1-1.465-1.216,14.2,14.2,0,0,1-2.044-3.49,12.622,12.622,0,0,1-1.027-3.862,9.567,9.567,0,0,1,.533-4.5,5.851,5.851,0,0,1,1.74-2.425,4.085,4.085,0,0,1,2.807-.919,8.487,8.487,0,0,1,2.246.43c.3.087.612.157.921.244a2.448,2.448,0,0,0,1.46,0l1.6-.5a5.241,5.241,0,0,1,2.01-.244,4.417,4.417,0,0,1,2.807,1.262c.247.238.472.506.707.762A.856.856,0,0,1,343.286,223.389Z" transform="translate(-326.369 -216.381)" fill="#fff"/>
      <path id="Path_1778" data-name="Path 1778" d="M340.782,218.579a5.8,5.8,0,0,1,1.123-3.489,5.088,5.088,0,0,1,3.015-1.745,1.762,1.762,0,0,1,.067.849,5.35,5.35,0,0,1-2.038,3.728,3.116,3.116,0,0,1-1.684.64Z" transform="translate(-332.207 -213.345)" fill="#fff"/>
    </g>
  </g>
  <g id="Group_1104" data-name="Group 1104" transform="translate(55.453 54.829)">
    <path id="Path_2501" data-name="Path 2501" d="M613.6,331.189l4.909-.576,1.733,14.986,4.424,20.694a3.173,3.173,0,1,1-3.446.434l-4.443-12.194Z" transform="translate(-573.669 -289.217)" fill="#ffb6b6"/>
    <path id="Path_2502" data-name="Path 2502" d="M363.128,482.512h4.045l1.924-15.569h-5.97Z" transform="translate(-330.329 -333.706)" fill="#ffb6b6"/>
    <path id="Path_2503" data-name="Path 2503" d="M641.207,703.983h13.042v-.165a5.071,5.071,0,0,0-5.076-5.066h-7.967Z" transform="translate(-609.44 -551.264)" fill="#2f2e41"/>
    <path id="Path_2504" data-name="Path 2504" d="M460.747,475.572l3.971.765,4.848-14.922-5.862-1.129Z" transform="translate(-458.99 -328.966)" fill="#ffb6b6"/>
    <path id="Path_2505" data-name="Path 2505" d="M751.6,695.655l12.806,2.468.031-.162a5.067,5.067,0,0,0-4.022-5.935h0l-7.821-1.507Z" transform="translate(-751.596 -545.404)" fill="#2f2e41"/>
    <path id="Path_2506" data-name="Path 2506" d="M661.622,201.1l-2.35,4.5-17.6-3.874L643.6,193c1.526-6.905,7.645-11.893,14.565-10.37s10.149,8.272,8.622,15.178l-2.837,8.819-2.87-.632Z" transform="translate(-623.254 -182.358)" fill="#2f2e41"/>
    <path id="Path_2507" data-name="Path 2507" d="M679.394,417.715s1.733,8.646-.578,21.326-2.888,18.156-2.888,18.156,1.733,2.017.578,3.17,0,3.458,0,3.458l-2.6,27.954-8.953-1.441,1.155-26.225s-1.155-2.306-.578-2.882-.578-4.035-.578-4.035l-1.444-27.378-8.953,29.971s.866,1.153,0,2.017-2.6,5.187-2.6,5.187l-5.776,20.173-9.241-1.729,5.2-23.055a2.329,2.329,0,0,1,.289-2.305,2.254,2.254,0,0,0,.578-2.017s-.866-.865.289-2.017,1.733-5.764,1.733-5.764.866-30.836,3.754-32.565S679.394,417.715,679.394,417.715Z" transform="translate(-633.977 -350.671)" fill="#2f2e41"/>
    <path id="Path_2541" data-name="Path 2541" d="M8.086,0A8.078,8.078,0,0,0,0,8.069c0,3.292.438,5.323,3.425,6.63.146.064-2.215,3.707-2.5,5.423-.16.95,3.2,1.017,3.355,1.064l2.472.632,1.338-5.68c.366.066-.491,0,0,0A8.069,8.069,0,1,0,8.086,0Z" transform="translate(23.846 5.216)" fill="#ffb6b6"/>
    <path id="Path_2508" data-name="Path 2508" d="M636.8,263.692l1.733,34.871a2.591,2.591,0,0,0-.578,2.882,8.215,8.215,0,0,1,0,4.035s-1.733,2.017-.866,2.882,32.056.288,32.056.288,1.155-2.017-.578-3.17-.866-4.323-.866-4.323.578-.865-.866-2.305-2.6-13.257-2.6-13.257l3.754-14.409s-3.779-4.257-13.547-5.851l-3.017,1.051-2.49-2.338S638.528,261.963,636.8,263.692Z" transform="translate(-623.434 -241.029)"/>
    <path id="Path_2509" data-name="Path 2509" d="M627.9,291.811l4.474-.2s2.6,5.187,2.888,9.8l1.591,17.2-10.254,1.531Z" transform="translate(-587.818 -261.457)"/>
    <path id="Path_2510" data-name="Path 2510" d="M664.163,202.436l3-3.856a3.144,3.144,0,0,0-2.392-3.738l-11.347-2.5a3.151,3.151,0,0,0-3.746,2.387l-.006.028.813,4.657.143-.025c7.042-1.253,9.048-.812,13.417,2.947Z" transform="translate(-624.876 -190.744)" fill="#2f2e41"/>
    <path id="Path_2511" data-name="Path 2511" d="M738.436,345.443l.541-22.692.578-16.138,6.931.865-3.722,38.573a3.176,3.176,0,1,1-4.328-.607Z" transform="translate(-729.37 -272.134)" fill="#ffb6b6"/>
    <path id="Path_2512" data-name="Path 2512" d="M745.012,266.1l-5.056-.487s-.866,0-1.733,2.882-5.629,33.34-5.629,33.34l10.539.954Z" transform="translate(-726.594 -242.949)"/>
    <g id="Component_38_14" data-name="Component 38 – 14" transform="matrix(0.995, 0.105, -0.105, 0.995, 22.494, 33.061)">
      <g id="Group_683" data-name="Group 683" transform="translate(2.803 6.943)">
        <path id="Path_2413" data-name="Path 2413" d="M.007.922,0,.414A.37.37,0,0,1,.372,0,.343.343,0,0,1,.723.374V.461H.538V.4A.165.165,0,0,0,.374.212C.269.212.209.29.21.416l0,.5c0,.145.068.214.17.214A.158.158,0,0,0,.542.947V.876H.727V.964a.334.334,0,0,1-.344.372A.367.367,0,0,1,.007.922Z" transform="translate(0 0.01)" fill="#fff"/>
        <path id="Path_2414" data-name="Path 2414" d="M.3,0H.551L.859,1.3H.651L.581.986H.262L.2,1.294H.008ZM.537.788.419.255h0L.3.788Z" transform="translate(0.794 0.031)" fill="#fff"/>
        <path id="Path_2415" data-name="Path 2415" d="M.275.212H0L0,0,.751,0l0,.208H.481L.49,1.294H.284L.275.212Z" transform="translate(1.621 0.033)" fill="#fff"/>
        <path id="Path_2416" data-name="Path 2416" d="M0,0H.3c.193,0,.3.145.3.362C.595.556.519.7.363.724l.269.569h-.1L.279.74H.091l0,.552H.01ZM.277.655C.433.655.51.561.508.371.507.209.441.091.283.091h-.2l0,.564Z" transform="translate(2.777 0.038)" fill="#c2341c"/>
        <path id="Path_2417" data-name="Path 2417" d="M0,.631,0,.345C0,.122.107,0,.256,0S.494.123.5.322V.5H.085V.634C.088.8.153.873.28.873A.3.3,0,0,0,.461.805L.49.874A.3.3,0,0,1,.27.96C.114.96.006.86,0,.631ZM.42.42V.311C.418.2.377.081.248.081S.083.2.084.314v.1H.42Z" transform="translate(3.539 0.393)" fill="#c2341c"/>
        <path id="Path_2418" data-name="Path 2418" d="M.009,1.115,0,0H.081L.089,1.1c0,.063.024.107.089.107A.363.363,0,0,0,.243,1.2v.081A.207.207,0,0,1,.154,1.3C.064,1.3.01,1.234.009,1.115Z" transform="translate(4.215 0.042)" fill="#c2341c"/>
        <path id="Path_2419" data-name="Path 2419" d="M0,.632l0-.3C0,.12.1,0,.25,0S.5.116.5.328l0,.3c0,.221-.1.333-.248.332S.006.844,0,.632Zm.422,0,0-.307C.423.19.373.083.249.083S.082.195.083.329l0,.3c0,.152.052.246.176.246S.427.765.426.628Z" transform="translate(4.576 0.395)" fill="#c2341c"/>
        <path id="Path_2420" data-name="Path 2420" d="M0,.7A.256.256,0,0,1,.261.41h.15V.243C.408.127.348.078.257.078A.148.148,0,0,0,.1.229V.285H.025V.227A.218.218,0,0,1,.266,0,.212.212,0,0,1,.491.236L.5.7C.5.771.5.89.5.939H.429L.422.787h0A.227.227,0,0,1,.2.958C.1.958.006.871,0,.7ZM.413.639V.483H.276a.173.173,0,0,0-.188.2c0,.134.069.2.141.2C.33.879.414.778.413.639Z" transform="translate(5.23 0.396)" fill="#c2341c"/>
        <path id="Path_2421" data-name="Path 2421" d="M.007,1.055,0,.639C0,.451.107.355.218.355A.208.208,0,0,1,.412.519h0L.409,0H.491L.5,1.293H.429l0-.172h0c-.048.145-.137.193-.211.193C.077,1.314.008,1.2.007,1.055ZM.418.937l0-.226C.415.555.323.432.231.431S.083.483.084.639l0,.4c0,.114.043.19.145.19S.419,1.117.418.937Z" transform="translate(5.9 0.044)" fill="#c2341c"/>
        <path id="Path_2422" data-name="Path 2422" d="M0,.631,0,.345C0,.122.107,0,.256,0S.494.123.5.322V.5H.085V.634C.088.8.153.873.28.873A.3.3,0,0,0,.461.805L.49.874A.3.3,0,0,1,.27.96C.113.96.006.86,0,.631ZM.42.42V.311C.418.2.377.081.248.081S.083.2.084.314v.1H.42Z" transform="translate(6.586 0.399)" fill="#c2341c"/>
        <path id="Path_2423" data-name="Path 2423" d="M.007,1.055,0,.639C0,.451.107.355.218.355A.208.208,0,0,1,.412.519h0L.409,0H.491L.5,1.293H.429l0-.172h0c-.048.145-.137.193-.212.193C.077,1.314.008,1.2.007,1.055ZM.418.937l0-.226C.415.555.323.432.231.431S.083.483.084.639l0,.4c0,.114.043.19.145.19S.419,1.117.418.937Z" transform="translate(7.234 0.047)" fill="#c2341c"/>
      </g>
      <g id="layer1" transform="translate(0 0)">
        <path id="path3003-4" d="M2.059.013c-.679,0-1.191.718-1.4,1.1A4.769,4.769,0,0,0,.023,3.7C.085,5.9,1.2,7.238,2.1,7.477l0-.619C1.04,6.515.461,4.9.454,3.617a4.262,4.262,0,0,1,.554-2.105A1.841,1.841,0,0,1,2.069.605Zm.472.819a1.291,1.291,0,0,0-.617.149A2.5,2.5,0,0,0,.819,2.532a4.528,4.528,0,0,0,.257,2.982c.585,1.016,1.424,1.33,2.116.913a3.07,3.07,0,0,0,.383-.27l-.211-.519a2.613,2.613,0,0,1-.34.241C1.747,6.451.665,4.513,1.2,2.805a2.07,2.07,0,0,1,.842-1.227,1.074,1.074,0,0,1,1.269.248,2.956,2.956,0,0,1,.647,2.62c-.053.2-.173.344-.32.361,0-.212-.009-.525-.009-.78a3.987,3.987,0,0,0-.075-.851c-.153-.766-.632-1.1-1.029-1.088-.48.016-.658.266-.857.681a2.257,2.257,0,0,0,.289,2.377.837.837,0,0,0,.8.255.9.9,0,0,0,.248-.108c.07-.047.163-.108.129-.111l-.005-.661a2.131,2.131,0,0,1-.276.215.593.593,0,0,1-.168.076.554.554,0,0,1-.525-.206c-.53-.512-.33-1.9.368-1.939.3.051.507.242.615.708a3.162,3.162,0,0,1,.061.669c0,.425.006,1.018.006,1.018l.008.348h.165s.1.005.218,0a.8.8,0,0,0,.194-.04.469.469,0,0,0,.215-.153,1.387,1.387,0,0,0,.273-.527,3.732,3.732,0,0,0,.1-1.209A3.345,3.345,0,0,0,3.535,1.3a1.56,1.56,0,0,0-1-.467Z" fill="#c2341c"/>
        <path id="path4227-4" d="M4.357.028c-.182,0-.364.165-.454.484-.215.768-.272.942-.493,1.771-.148.555-.231.826-.422,1.521-.058.211-.343,1.238-.343,1.238l.731.007c.172-.628.188-.676.243-.9.144-.454.228-.822.384-1.363.124-.428.188-.678.24-.856.057-.2.06-.288.131-.292.049,0,.1.245.239.69.081.263.227.763.279.94s.08.31.12.409a2.291,2.291,0,0,1,.086.27c.009.048-.125.019-.3.02-.323,0-.787,0-.787,0l-.3,1.08c.888.025,1.541-.033,2.424.011C5.731,3.639,4.964,1.05,4.927.918S4.837.624,4.814.536C4.722.194,4.54.029,4.357.028ZM.845.1S.592.141.536.208C.29.385.085.731.019,2.011A9.477,9.477,0,0,0,.144,4.1c.109.481.367.925.587.932l1.67,0,.278-1.085S1.534,3.97.987,3.966C.661,3.964.716,2.8.7,2.112c0,0,.02-.917.212-.911.606.02,2.446,0,2.446,0L3.69.13ZM5.007.127c0,.028.341,1.084.331,1.087.36,0,.735-.021,1.132,0L6.5,5.045l.67.005L7.14,1.207H8.309C8.311.69,8.3.425,8.3.14,7.173.131,6.2.131,5.007.127Z" transform="translate(4.94 1.221)" fill="#fff"/>
      </g>
    </g>
  </g>
</svg>
