<svg xmlns="http://www.w3.org/2000/svg" xmlns:xlink="http://www.w3.org/1999/xlink" width="280" height="209" viewBox="0 0 280 209">
  <defs>
    <clipPath id="clip-path">
      <rect id="Rectangle_18" data-name="Rectangle 18" width="280" height="209" fill="#d8d8d8" stroke="#707070" stroke-width="1"/>
    </clipPath>
    <linearGradient id="linear-gradient" x1="0.225" y1="-3.669" x2="2.067" y2="24.245" gradientUnits="objectBoundingBox">
      <stop offset="0.01"/>
      <stop offset="0.13" stop-opacity="0.69"/>
      <stop offset="1" stop-opacity="0"/>
    </linearGradient>
    <linearGradient id="linear-gradient-2" x1="-0.061" y1="-7.996" x2="1.781" y2="19.918" xlink:href="#linear-gradient"/>
    <linearGradient id="linear-gradient-3" x1="-0.346" y1="-12.323" x2="1.496" y2="15.591" xlink:href="#linear-gradient"/>
    <linearGradient id="linear-gradient-4" x1="-0.556" y1="-0.123" x2="2.928" y2="1.934" xlink:href="#linear-gradient"/>
    <radialGradient id="radial-gradient" cx="0.5" cy="0.5" r="0.453" gradientUnits="objectBoundingBox">
      <stop offset="0.34" stop-color="#fff"/>
      <stop offset="1" stop-color="#fff" stop-opacity="0.388"/>
    </radialGradient>
    <linearGradient id="linear-gradient-5" x1="135.493" y1="75.604" x2="136.493" y2="75.604" xlink:href="#linear-gradient"/>
    <linearGradient id="linear-gradient-6" x1="121.179" y1="207.241" x2="122.179" y2="207.241" xlink:href="#linear-gradient"/>
    <linearGradient id="linear-gradient-7" x1="0.646" y1="-0.332" x2="0.411" y2="1.099" xlink:href="#linear-gradient"/>
  </defs>
  <g id="logistic" clip-path="url(#clip-path)">
    <g id="idea_applications" transform="translate(61.205 0)">
      <path id="Path_2191" data-name="Path 2191" d="M218.724,125.911c.15,12.519,3.812,24.948,2.508,37.378-2.448,23.164-22.612,41.337-44.425,45.68-11.291,2.248-23.77,1.153-32.984-6.054-3.4-2.664-6.23-6.059-9.585-8.792-10.739-8.755-25.651-9.934-36.756-18.168-12.941-9.6-18.328-26.817-21.674-43.074Q72.858,118.562,71.183,104c-1.675-14.509-2.006-30.587,6.566-42.116,6.405-8.65,16.552-13.019,25.405-18.836C114.841,35.372,124.6,24.843,136,16.688c12.871-9.213,24.939-11.714,37.769-9.576l1.134.2a81.45,81.45,0,0,1,16.934,5.38c17.1,7.312,31.951,22.637,35.226,42.258C231,78.557,218.443,101.942,218.724,125.911Z" transform="translate(-70.235 -6.397)" fill="#d8d8d8" opacity="0.18"/>
      <rect id="Rectangle_1041" data-name="Rectangle 1041" width="35.919" height="4.364" rx="2.182" transform="translate(79.115 152.417) rotate(180)" fill="#c2341c"/>
      <rect id="Rectangle_1042" data-name="Rectangle 1042" width="35.919" height="4.364" rx="2.182" transform="translate(84.783 174.044) rotate(180)" fill="#c2341c"/>
      <rect id="Rectangle_1043" data-name="Rectangle 1043" width="35.919" height="4.364" rx="2.182" transform="translate(90.456 195.67) rotate(180)" fill="#c2341c"/>
      <path id="Path_2192" data-name="Path 2192" d="M167.483,360.474h5.106l-13.9-59.226h-5.1Z" transform="translate(-80.839 -151.474)" fill="#c2341c"/>
      <path id="Path_2193" data-name="Path 2193" d="M107.625,360.474h5.1L98.832,301.249h-5.1Z" transform="translate(-49.336 -151.474)" fill="#c2341c"/>
      <rect id="Rectangle_1044" data-name="Rectangle 1044" width="35.919" height="4.364" rx="2.182" transform="translate(79.115 152.417) rotate(180)" fill="url(#linear-gradient)"/>
      <rect id="Rectangle_1045" data-name="Rectangle 1045" width="35.919" height="4.364" rx="2.182" transform="translate(84.783 174.044) rotate(180)" fill="url(#linear-gradient-2)"/>
      <rect id="Rectangle_1046" data-name="Rectangle 1046" width="35.919" height="4.364" rx="2.182" transform="translate(90.456 195.67) rotate(180)" fill="url(#linear-gradient-3)"/>
      <path id="Path_2194" data-name="Path 2194" d="M167.483,360.474h5.106l-13.9-59.226h-5.1Z" transform="translate(-80.839 -151.474)" fill="#c2341c"/>
      <path id="Path_2195" data-name="Path 2195" d="M107.625,360.474h5.1L98.832,301.249h-5.1Z" transform="translate(-49.336 -151.474)" fill="url(#linear-gradient-4)"/>
      <path id="Path_2196" data-name="Path 2196" d="M250.136,115.284a3.14,3.14,0,0,1,2.327-1.053,5.175,5.175,0,0,1-.788,2.469,3.763,3.763,0,0,0-.441.937,1.037,1.037,0,0,0,.2.974c.166.168.406.247.5.453a.647.647,0,0,1-.171.748,1.709,1.709,0,0,1-.717.347l-1.3.384a1.486,1.486,0,0,1-1,.058C246.761,119.717,249.409,116.079,250.136,115.284Z" transform="translate(-163.804 -60.618)" fill="#f3bd8f"/>
      <path id="Path_2197" data-name="Path 2197" d="M229.464,125.647a4.935,4.935,0,0,0,2.137-.953,13.207,13.207,0,0,0,2.764-2.6,10.2,10.2,0,0,1,2.814,3.733.818.818,0,0,1-.115,1.053c-1.881,2.28-4.334,4.375-7.208,4.485a6.13,6.13,0,0,1-4.274-1.542c-1.184-1.053-3.32-4.659-1.635-6.128.893-.779,1.615.211,2.282.763A4.327,4.327,0,0,0,229.464,125.647Z" transform="translate(-150.805 -64.574)"/>
      <rect id="Rectangle_1047" data-name="Rectangle 1047" width="20.62" height="10.329" rx="4.331" transform="translate(115.239 35.187) rotate(180)" fill="#c2341c"/>
      <rect id="Rectangle_1048" data-name="Rectangle 1048" width="23.058" height="3.754" rx="1.877" transform="translate(116.338 31.76) rotate(180)" fill="#c2341c"/>
      <path id="Path_2198" data-name="Path 2198" d="M251.768,105.2a19.745,19.745,0,0,1,2.062-8.839l7.5-19.637h18.343l6.972,20.716a19.841,19.841,0,0,1-3.552,21.061,17.613,17.613,0,0,1-19.935,4.436A19.149,19.149,0,0,1,251.768,105.2Z" transform="translate(-165.776 -41.76)" fill="#c2341c"/>
      <path id="Path_2199" data-name="Path 2199" d="M251.768,105.2a19.745,19.745,0,0,1,2.062-8.839l7.5-19.637h18.343l6.972,20.716a19.841,19.841,0,0,1-3.552,21.061,17.613,17.613,0,0,1-19.935,4.436A19.149,19.149,0,0,1,251.768,105.2Z" transform="translate(-165.776 -41.76)" opacity="0.69" fill="url(#radial-gradient)"/>
      <path id="Path_2200" data-name="Path 2200" d="M284.061,76.09a45.742,45.742,0,0,1,4.123,18.794c0,1.458-.2,3.159-1.414,3.885-1.5.869-3.331-.49-4.143-2.058a8.6,8.6,0,0,1-.441-6.754,8.939,8.939,0,0,1,1.435,4.654,8.462,8.462,0,0,1-.206,3.622,3.06,3.06,0,0,1-2.538,2.2c-1.786.063-2.944-2.037-3.145-3.906a9.944,9.944,0,0,1,1.314-6.091,7.433,7.433,0,0,1-1.4,7.039,3.906,3.906,0,0,1-2.036,1.332,2.1,2.1,0,0,1-2.177-.8A3.207,3.207,0,0,1,273,96.633c-.5-3.522.692-7.065,2.147-10.282s3.22-6.317,4.078-9.766" transform="translate(-176.887 -41.44)" fill="none" stroke="#fff" stroke-width="1.472"/>
      <rect id="Rectangle_1049" data-name="Rectangle 1049" width="20.62" height="10.329" rx="4.331" transform="translate(115.239 35.187) rotate(180)" fill="url(#linear-gradient-5)"/>
      <rect id="Rectangle_1050" data-name="Rectangle 1050" width="23.058" height="3.754" rx="1.877" transform="translate(116.338 31.76) rotate(180)" fill="url(#linear-gradient-6)"/>
      <path id="Path_2201" data-name="Path 2201" d="M212.435,218.688a17.45,17.45,0,0,1-.191,2.453,26.524,26.524,0,0,1-1.2,3.875,48.084,48.084,0,0,0-1.5,6.2l-2.924,15.093a1.236,1.236,0,0,0,0,.648,1.04,1.04,0,0,0,.351.426,5.638,5.638,0,0,0,1.57.932.855.855,0,0,0,.567.068,1.036,1.036,0,0,0,.5-.574,29.438,29.438,0,0,0,2.578-6.528c3.01-10.977,6.235-17.6,6.832-23.022.1-.879,1-1.674.562-2.427a3.365,3.365,0,0,0-1.1-1.2c-1.139-.8-3.722-3.159-5.237-2.222C211.9,213.187,212.48,217.277,212.435,218.688Z" transform="translate(-141.987 -109.877)" fill="#f3bd8f"/>
      <path id="Path_2202" data-name="Path 2202" d="M179.5,219.043a1.275,1.275,0,0,1-1.284,1.163c-6.942,1.106-14.2,1.269-20.535,4.438a2.394,2.394,0,0,0-1.053.816c-.587.958.176,2.269-.161,3.348a58.324,58.324,0,0,0,11.687-1.19l14.365-2.443a4.256,4.256,0,0,0,2.538-1.053,4.739,4.739,0,0,0,.933-2.106l1.124-4.433a3.994,3.994,0,0,0,.065-2.632c-.5-1.132-1.9-1.437-3.085-1.506C180.562,213.242,180.337,216.148,179.5,219.043Z" transform="translate(-115.582 -110.501)" fill="#f3bd8f"/>
      <path id="Path_2203" data-name="Path 2203" d="M179.5,219.043a1.275,1.275,0,0,1-1.284,1.163c-6.942,1.106-14.2,1.269-20.535,4.438a2.394,2.394,0,0,0-1.053.816c-.587.958.176,2.269-.161,3.348a58.324,58.324,0,0,0,11.687-1.19l14.365-2.443a4.256,4.256,0,0,0,2.538-1.053,8.822,8.822,0,0,0,.933-2.106l1.124-4.433a3.994,3.994,0,0,0,.065-2.632c-.5-1.132-1.9-1.437-3.085-1.506C180.562,213.242,180.337,216.148,179.5,219.043Z" transform="translate(-115.582 -110.501)" fill="url(#linear-gradient-7)"/>
      <path id="Path_2204" data-name="Path 2204" d="M264.226,137.411c.105-.226.346-.484.527-.332a.437.437,0,0,1,.115.284l.161,1.137a.43.43,0,0,0,.065.211c.125.153.361.053.5-.063a13.538,13.538,0,0,0,2.448-2.285c.14-.168.341-.358.542-.268a.475.475,0,0,1,.211.274,4.018,4.018,0,0,1,.155,2.027,5.91,5.91,0,0,1-.767,2.369,3.242,3.242,0,0,1-1.871,1.485,8.105,8.105,0,0,0-1.861.4c-.341.184-.657.5-1.038.458-.471-.053-.717-.621-.762-1.116C262.521,140.359,263.569,138.811,264.226,137.411Z" transform="translate(-171.498 -71.6)" fill="#f3bd8f"/>
      <path id="Path_2205" data-name="Path 2205" d="M220.875,98.5a7.989,7.989,0,0,0,1.214,4.248c.376.479.863.858,1.2,1.369a2.937,2.937,0,0,1,.477,1.627c-2.433-.116-4.815,1.053-7.243.821a12.7,12.7,0,0,1,.176-4.238c.416-1.943,1.3-3.817,1.219-5.791a3.4,3.4,0,0,1,.216-2.037.992.992,0,0,1,1.5-.258,5.715,5.715,0,0,1,.8,1.8,11.814,11.814,0,0,1,.436,2.459Z" transform="translate(-147.172 -50.438)" fill="#3e3e54"/>
      <path id="Path_2206" data-name="Path 2206" d="M211.388,118.2c4.294,2.632,6.019,12.324,6.706,14.709a36.758,36.758,0,0,1,1.259,11.134,12.065,12.065,0,0,1-.843,4.849,8.062,8.062,0,0,1-4.971,4.08,17.766,17.766,0,0,1-6.435.526,6.25,6.25,0,0,1-3.947-1.2c-1.445-1.3-1.59-3.548-1.61-5.549q-.135-11.866.226-23.748a12.594,12.594,0,0,1,.451-3.527,4.061,4.061,0,0,1,2.172-2.6C206.312,116.129,209.6,117.1,211.388,118.2Z" transform="translate(-139.325 -61.816)" fill="#c2341c"/>
      <path id="Path_2207" data-name="Path 2207" d="M211.388,118.2c4.294,2.632,6.019,12.324,6.706,14.709a36.758,36.758,0,0,1,1.259,11.134,12.065,12.065,0,0,1-.843,4.849,8.062,8.062,0,0,1-4.971,4.08,17.766,17.766,0,0,1-6.435.526,6.25,6.25,0,0,1-3.947-1.2c-1.445-1.3-1.59-3.548-1.61-5.549q-.135-11.866.226-23.748a12.594,12.594,0,0,1,.451-3.527,4.061,4.061,0,0,1,2.172-2.6C206.312,116.129,209.6,117.1,211.388,118.2Z" transform="translate(-139.325 -61.816)"/>
      <path id="Path_2208" data-name="Path 2208" d="M215.408,100.764a2.246,2.246,0,0,1-.461,1.5,1.754,1.754,0,0,1-1.419.4,9.7,9.7,0,0,0-1.5-.142.8.8,0,0,0-.676.236.888.888,0,0,0-.247.7c0,.732.3,1.432.291,2.164s-.537,1.579-1.219,1.421a1.369,1.369,0,0,1-.777-.653c-.968-1.479-1.028-3.417-1.766-5.043a25.806,25.806,0,0,1-1.409-2.8,4.746,4.746,0,0,1,1.334-4.77c1.269-1.153,4.2-2.016,5.568-.574C214.842,95.026,215.5,98.306,215.408,100.764Z" transform="translate(-141.71 -49.668)" fill="#f3bd8f"/>
      <path id="Path_2209" data-name="Path 2209" d="M206.836,88.052a3.648,3.648,0,0,1,.938.526,4.976,4.976,0,0,1,1.384,2.448l-3.571,2.006a.581.581,0,0,1-.361.105c-.256-.047-.376-.421-.632-.437a3.1,3.1,0,0,1,.286.695l-1.394,1.053a1.531,1.531,0,0,0-.406.379,1.7,1.7,0,0,0-.181.963,45.237,45.237,0,0,0,1.219,8.318,3.873,3.873,0,0,1-1.73.526,23.726,23.726,0,0,0-6.636,2.106,9.084,9.084,0,0,0-.326-2.232,6.49,6.49,0,0,1-.391-1.816,5.452,5.452,0,0,1,.607-2.011c.391-.905.722-1.837,1.053-2.769a8.207,8.207,0,0,0,.5-1.943,13.454,13.454,0,0,0-.211-2.569,3.651,3.651,0,0,1,.451-2.48c.717-1.011,2.087-1.29,3.065-1.937a7.06,7.06,0,0,1,3.968-1.374A6.093,6.093,0,0,1,206.836,88.052Z" transform="translate(-135.916 -47.232)" fill="#2f2e41"/>
      <path id="Path_2210" data-name="Path 2210" d="M218.024,145.179c1,1.053,5.573,2.137,7.2,2.106,4.2,0,12.961-5.465,12.811-5.859l-2.573-6.628a20.132,20.132,0,0,1-6.987,3.48,7.642,7.642,0,0,1-7.228-1.927c-1.284-1.4-1.871-3.338-2.909-4.943s-2.959-2.959-4.67-2.222c-2.252.969-2.769,4.859-1.961,6.928C213,139.467,215.636,142.657,218.024,145.179Z" transform="translate(-144.502 -68.034)"/>
      <path id="Path_2211" data-name="Path 2211" d="M194.585,203.722c.411.29-15.265,2.342-17.806,4.861.166.288.516.491.211,1.021-.411.816-3.3,3.352,1.951,3.028,0,0,23.04-2.867,24.567-3.952s1.6-1.566,1.6-1.566c.383-.1-2.635-1.6,0,0-1.011,1.066-4.539,14.711-5.655,23.761.781.192,3.5,1.124,4.052.512.5-.658,9-25.662,8.946-26.525l2.569-14.911c-.1-1.932.5-7.949-1.69-8.492-1.394-.347-3.551.368-5.016.469-1.761.126-3.511.179-5.3.174a8.906,8.906,0,0,1-2.608-.311c-.5-.168-2.147-1.121-2.7-.99a25.037,25.037,0,0,0,1.747,13.079,14.124,14.124,0,0,1,0,7.51C199.147,202.792,196.857,203.123,194.585,203.722Z" transform="translate(-135.312 -94.084)" fill="#3e3e54"/>
      <path id="Path_2213" data-name="Path 2213" d="M150.125,236.209a1.688,1.688,0,0,0-1.093.469,2.036,2.036,0,0,0-.3,1.4,88.724,88.724,0,0,0,1.2,11.582c.08.474.231,1.053.667,1.179.637.221,1.124-.6,1.344-1.263l2.829-8.6a1.65,1.65,0,0,0,.115-.863c-.11-.479-.612-.727-.913-1.111-.577-.753-.191-2.043-.913-2.659C152.423,235.793,150.858,236.109,150.125,236.209Z" transform="translate(-111.538 -121.86)" fill="#c2341c"/>
      <path id="Path_2214" data-name="Path 2214" d="M200.665,282.288a1.877,1.877,0,0,0-.4,1.169,1.953,1.953,0,0,0,.787,1.163,80.3,80.3,0,0,0,8.993,6.844c.391.253.883.526,1.279.274.587-.353.331-1.279,0-1.9l-4.188-7.965a1.528,1.528,0,0,0-.5-.669c-.416-.237-.928,0-1.4-.037-.923-.053-1.575-1.216-2.508-1.053C201.909,280.219,201.087,281.651,200.665,282.288Z" transform="translate(-138.669 -144.022)" fill="#c2341c"/>
      <path id="Path_2215" data-name="Path 2215" d="M150.125,236.209a1.688,1.688,0,0,0-1.093.469,2.036,2.036,0,0,0-.3,1.4,88.724,88.724,0,0,0,1.2,11.582c.08.474.231,1.053.667,1.179.637.221,1.124-.6,1.344-1.263l2.829-8.6a1.65,1.65,0,0,0,.115-.863c-.11-.479-.612-.727-.913-1.111-.577-.753-.191-2.043-.913-2.659C152.423,235.793,150.858,236.109,150.125,236.209Z" transform="translate(-111.538 -121.86)" fill="#2f2e41"/>
      <path id="Path_2216" data-name="Path 2216" d="M200.665,282.288a1.877,1.877,0,0,0-.4,1.169,1.953,1.953,0,0,0,.787,1.163,80.3,80.3,0,0,0,8.993,6.844c.391.253.883.526,1.279.274.587-.353.331-1.279,0-1.9l-4.188-7.965a1.528,1.528,0,0,0-.5-.669c-.416-.237-.928,0-1.4-.037-.923-.053-1.575-1.216-2.508-1.053C201.909,280.219,201.087,281.651,200.665,282.288Z" transform="translate(-138.669 -144.022)" fill="#2f2e41"/>
      <rect id="Rectangle_1051" data-name="Rectangle 1051" width="35.919" height="4.364" rx="2.182" transform="translate(41.777 147.79)" fill="#c2341c"/>
      <rect id="Rectangle_1052" data-name="Rectangle 1052" width="35.919" height="4.364" rx="2.182" transform="translate(36.104 169.416)" fill="#c2341c"/>
      <rect id="Rectangle_1053" data-name="Rectangle 1053" width="35.919" height="4.364" rx="2.182" transform="translate(30.436 191.043)" fill="#c2341c"/>
      <path id="Path_2217" data-name="Path 2217" d="M66.637,359.945H61.531l13.894-59.226h5.106Z" transform="translate(-32.389 -151.208)" fill="#c2341c"/>
      <path id="Path_2218" data-name="Path 2218" d="M126.5,359.945h-5.1l13.894-59.226h5.1Z" transform="translate(-63.898 -151.208)" fill="#c2341c"/>
      <path id="Path_2219" data-name="Path 2219" d="M289.93,8.036v23.99H288.8V7.836Z" transform="translate(-185.264 -7.12)" fill="#c2341c"/>
    </g>
  </g>
</svg>
