<svg xmlns="http://www.w3.org/2000/svg" width="888.433" height="375.114" viewBox="0 0 888.433 375.114"><defs><style>.a{fill:#fff;}.b{fill:#c2341c;}</style></defs><g transform="translate(184.812 314.668)"><path class="a" d="M324.66,502.78V479.738c0-11.889,11.3-18.7,25.022-18.7,13.136,0,23.38,5.987,23.38,16.815v3.935H360.6v-2.874c0-5.081-4.251-8.365-10.919-8.365-7.051,0-11.111,3.524-11.111,9.271v22.47c0,6.56,4.443,9.682,11.3,9.682,6.376,0,10.728-3.122,10.728-8.125v-3.2h12.461v3.935c0,10.991-10.235,16.893-23.28,16.893C336.154,521.478,324.66,515.824,324.66,502.78Z" transform="translate(-324.66 -461.04)"/><path class="a" d="M403.257,462.2h16.812l20,58.564h-13.92L421.6,506.737H400.155l-4.443,14.027H382.96Zm15.453,35.591L411.083,473.6h-.292l-7.727,24.189Z" transform="translate(-329.778 -461.301)"/><path class="a" d="M462.283,471.734H443.93V462.3h50.427v9.434H476.1v49.044H462.293V471.734Z" transform="translate(-335.131 -461.324)"/><path class="b" d="M529.02,462.3h19.8c12.944,0,19.8,6.56,19.8,16.405,0,8.69-5.117,15.259-15.644,16.32l17.77,25.754h-6.376l-17-25.018H534.721v25.018h-5.7Zm18.262,29.611c10.436,0,15.644-4.268,15.644-12.881,0-7.381-4.351-12.71-14.969-12.71H534.721v25.591Z" transform="translate(-342.601 -461.324)"/><path class="b" d="M584.79,511.492V498.534c0-10.092,7.243-15.584,17.2-15.584,10.144,0,15.936,5.492,15.936,14.515v7.877H590.29v6.313c0,7.381,4.351,10.82,12.853,10.82a26.639,26.639,0,0,0,12.169-3.114l1.934,3.114c-4.15,2.788-9.368,3.935-14.778,3.935C591.942,526.418,584.79,521.91,584.79,511.492Zm28.014-9.6v-4.926c0-5.081-2.709-10.418-11.4-10.418-7.918,0-11.111,5.491-11.111,10.58v4.756H612.8Z" transform="translate(-347.498 -465.98)"/><path class="b" d="M634.75,512.824V462.3h5.409v49.951c0,2.874,1.542,4.841,5.893,4.841a35.953,35.953,0,0,0,4.351-.325v3.695a19.923,19.923,0,0,1-5.984.821C638.326,521.274,634.75,518.238,634.75,512.824Z" transform="translate(-351.884 -461.324)"/><path class="b" d="M661.1,511.58V497.885c0-9.511,6.96-14.926,16.812-14.926,10.235,0,16.9,5.166,16.9,14.763V511.34c0,10.007-6.86,15.088-16.8,15.088C667.668,526.42,661.1,521.176,661.1,511.58Zm28.306-.248V497.39c0-5.91-3.284-10.743-11.594-10.743s-11.3,5.081-11.3,11.154v13.617c0,6.894,3.384,11.154,11.685,11.154C686.7,522.57,689.406,517.567,689.406,511.332Z" transform="translate(-354.197 -465.982)"/><path class="b" d="M709.15,514.529c0-9.6,9.56-12.958,17.386-13.044H736.58v-7.629c0-5.251-4.06-7.459-10.144-7.459-5.309,0-10.819,2.13-10.819,6.894v2.54h-4.825v-2.626c0-6.808,7.343-10.255,16.319-10.255,8.311,0,14.969,3.2,14.969,10.58v21.246c0,3.036.383,8.443.484,10.658h-5.026l-.383-6.893h-.191c-3.092,6.072-9.852,7.792-14.486,7.792C715.426,526.34,709.15,522.406,709.15,514.529Zm27.43-2.7v-7.056H727.5c-5.8,0-12.753,1.642-12.753,9.1,0,6.073,4.543,8.861,9.369,8.861C730.888,522.731,736.58,518.138,736.58,511.825Z" transform="translate(-358.416 -465.98)"/><path class="b" d="M758.68,510.036v-18.86c0-8.528,7.051-12.881,14.486-12.881,5.309,0,10.919,2.463,12.944,7.382h.1V462.3h5.51v58.478h-4.825l-.192-7.792h-.292a15.558,15.558,0,0,1-14.294,8.776C763.214,521.762,758.68,516.518,758.68,510.036Zm27.622-5.406V494.374c0-7.056-6.084-12.633-12.269-12.633-5.309,0-9.952,2.378-9.952,9.434V509.3c0,5.166,2.8,8.613,9.661,8.613C780.217,517.913,786.3,512.824,786.3,504.629Z" transform="translate(-362.764 -461.324)"/><path class="b" d="M808.95,511.492V498.534c0-10.092,7.243-15.584,17.2-15.584,10.144,0,15.936,5.492,15.936,14.515v7.877H814.45v6.313c0,7.381,4.351,10.82,12.853,10.82a26.64,26.64,0,0,0,12.169-3.114l1.934,3.114c-4.151,2.788-9.368,3.935-14.778,3.935C816.093,526.418,808.95,521.91,808.95,511.492Zm28.014-9.6v-4.926c0-5.081-2.709-10.418-11.4-10.418-7.918,0-11.111,5.491-11.111,10.58v4.756h22.513Z" transform="translate(-367.177 -465.98)"/><path class="b" d="M856.79,510.036v-18.86c0-8.528,7.051-12.881,14.486-12.881,5.309,0,10.919,2.463,12.944,7.382h.1V462.3h5.5v58.478H885l-.192-7.792h-.292a15.558,15.558,0,0,1-14.294,8.776C861.333,521.762,856.79,516.518,856.79,510.036Zm27.621-5.406V494.374c0-7.056-6.084-12.633-12.269-12.633-5.309,0-9.943,2.378-9.943,9.434V509.3c0,5.166,2.8,8.613,9.66,8.613C878.327,517.913,884.411,512.824,884.411,504.629Z" transform="translate(-371.378 -461.324)"/></g><path class="b" d="M-790.436-30.158c-45.539,0-80.3,32.67-94.537,49.83-26.2,30.756-44.092,64.2-44.092,117.685,3.021,99.536,77.2,160.191,137.364,170.911V280.209c-70.569-15.434-108.62-88.633-108.393-146.783.683-45.709,26.557-83.863,38.3-95.529C-848.3,23.319-823.659,1.122-790.1-3.33Zm31.22,37.095c-14.005.054-28.13,1.935-41.516,6.809-36.29,13.215-62.408,41.543-74.29,70.419-17,40.827-12.859,96.157,15.645,135.188,38.7,46,94.844,60.179,141.539,41.188A227.5,227.5,0,0,0-692,248.28l-13.884-23.533a192.738,192.738,0,0,1-22.926,10.978c-85.991,26.055-157.57-61.7-120.562-139.2,6.853-17.441,25.6-43.374,57.134-55.747,10.9-4.276,53.77-12.54,85.04,11.13,30.754,20.778,61.237,71.165,42.042,118.758-3.664,9.085-11.779,15.607-21.657,16.392.1-9.633-.292-23.812-.215-35.357.128-19.09-2.068-30.592-4.568-38.6-9.88-34.723-41.839-49.675-68.46-49.245-32.193.778-44.268,12.107-57.845,30.951-26.625,39.794-13.709,86.041,18.126,107.762a74.2,74.2,0,0,0,53.311,11.459,78.746,78.746,0,0,0,16.709-4.91c4.73-2.116,10.992-4.912,8.741-5.033V174.129a152.506,152.506,0,0,1-18.607,9.772,51.76,51.76,0,0,1-11.325,3.447c-15.327,1.073-22.771-1.088-35.153-9.269C-821.393,154.927-807.238,92-760.375,90.11c20.249,2.275,33.9,10.913,40.88,32.061,1.881,6.437,3.948,15.6,3.769,30.352-.234,19.279-.146,46.183-.146,46.183l.386,15.784H-704.4s6.617.225,14.657-.057a77.213,77.213,0,0,0,13.009-1.823,34.969,34.969,0,0,0,14.485-6.98,61.884,61.884,0,0,0,18.573-23.923c5.605-12.6,8.849-30.47,7.333-54.825-2.878-46.236-25.26-75.1-55.717-98.862C-713.57,14.2-738.216,7.1-759.216,6.936Z" transform="translate(929.065 30.158)"/><path class="a" d="M568.356,151.831c-12.241.013-24.542,7.519-30.718,22.011-14.841,34.827-18.723,42.749-34.012,80.345-10.239,25.178-15.946,37.488-29.1,69.02-3.995,9.573-23.7,56.193-23.7,56.193l49.04.225c11.853-28.5,12.95-30.655,16.811-40.811,9.886-20.6,15.748-37.312,26.524-61.846,8.534-19.431,12.98-30.749,16.539-38.858,3.953-9.006,4.2-13.072,8.915-13.259,3.324-.132,6.761,11.083,15.69,31.251,5.279,11.923,14.819,34.58,18.237,42.6,3.232,7.579,5.233,14.028,7.811,18.556A80.29,80.29,0,0,1,616,329.5c.612,2.18-8.43.861-19.85.958-21.656.184-52.827-.075-52.827-.075l-20.665,49c59.608,1.03,103.421-1.642,162.657.263C658.617,315.4,608.552,198.1,606.1,192.1s-5.838-13.332-7.369-17.316c-5.953-15.487-18.137-22.963-30.378-22.95Zm-235.725,3.7s-16.985,1.811-20.8,4.846c-16.6,8.026-30.532,23.757-35.625,81.81-1.063,35.519-1.459,67.15,7.234,94.75,7.072,21.8,24.164,41.911,38.92,42.22H434.43l19.256-49.244s-76.9.929-113.6.826c-21.838-.061-17.567-52.984-18.39-84.045,0,0,1.833-41.6,14.688-41.337,40.68.838,164.134-.319,164.134-.319l22.992-48.549-190.879-.958Zm279.262.695c.11,1.257,22.281,49.138,21.616,49.262,24.128.137,49.352-1.034,75.954,0L709.43,379.1l44.964.169.085-174.288,78.433-.131c.436-23.425-.193-35.42,0-48.38-75.628-.277-141.25-.191-221.019-.244Z" transform="translate(55.363 -96.524)"/></svg>