<svg xmlns="http://www.w3.org/2000/svg" xmlns:xlink="http://www.w3.org/1999/xlink" width="280" height="209" viewBox="0 0 280 209">
  <defs>
    <clipPath id="clip-path">
      <rect id="Rectangle_18" data-name="Rectangle 18" width="280" height="209" fill="#fff" stroke="#707070" stroke-width="1"/>
    </clipPath>
    <linearGradient id="linear-gradient" x1="0.413" y1="1.33" x2="0.774" y2="-1.764" gradientUnits="objectBoundingBox">
      <stop offset="0" stop-color="#010101" stop-opacity="0"/>
      <stop offset="0.95" stop-color="#010101"/>
    </linearGradient>
    <linearGradient id="linear-gradient-2" x1="0.443" y1="1.323" x2="0.628" y2="-1.068" xlink:href="#linear-gradient"/>
    <linearGradient id="linear-gradient-3" x1="0.098" y1="0.688" x2="0.9" y2="0.222" xlink:href="#linear-gradient"/>
    <linearGradient id="linear-gradient-4" x1="1.194" y1="0.566" x2="-2.164" y2="0.305" xlink:href="#linear-gradient"/>
    <linearGradient id="linear-gradient-5" x1="0.416" y1="0.847" x2="0.769" y2="-1.337" xlink:href="#linear-gradient"/>
    <linearGradient id="linear-gradient-6" x1="0.568" y1="-2.056" x2="0.331" y2="6.825" xlink:href="#linear-gradient"/>
    <linearGradient id="linear-gradient-7" x1="0" y1="0.501" x2="1" y2="0.501" xlink:href="#linear-gradient"/>
    <linearGradient id="linear-gradient-8" x1="0.497" y1="-0.325" x2="0.513" y2="3.892" xlink:href="#linear-gradient"/>
    <linearGradient id="linear-gradient-9" x1="0.47" y1="1.325" x2="0.562" y2="-1.48" gradientUnits="objectBoundingBox">
      <stop offset="0" stop-color="#fff" stop-opacity="0"/>
      <stop offset="0.95" stop-color="#fff"/>
    </linearGradient>
    <linearGradient id="linear-gradient-10" x1="0.48" y1="0.065" x2="0.573" y2="1.763" xlink:href="#linear-gradient-9"/>
    <linearGradient id="linear-gradient-11" x1="0.409" y1="-0.407" x2="0.703" y2="1.933" xlink:href="#linear-gradient-9"/>
  </defs>
  <g id="media" transform="translate(-1274 -1528)">
    <g id="Mask_Group_22" data-name="Mask Group 22" transform="translate(1274 1528)" clip-path="url(#clip-path)">
      <g id="social_media_1_" data-name="social_media (1)" transform="translate(33.571 0)">
        <path id="Path_2154" data-name="Path 2154" d="M62.882,143.983c-3.248-6.181-6.1-12.787-6.671-19.823-1.588-19.552,14.054-35.394,21.337-53.471,3-7.452,4.606-15.472,7.708-22.878,9.209-21.986,31.026-36.17,53.57-40.263,6.131-1.113,12.668-1.534,18.362,1.1,6.973,3.23,11.433,10.42,17.429,15.342,17.945,14.8,44.556,6.823,66.171,14.534,17.266,6.156,30.975,25.108,27.675,43.935-3.229,18.485-20.832,32.06-22.064,50.808-.556,8.482,2.4,16.776,3,25.254,1.191,16.805-7.883,33.915-22.087,41.763-7.148,3.943-15.186,5.623-23.1,7.252-13.835,2.847-29.632,8.782-43.8,8.09-13.1-.642-27.373-6.977-38.957-13.062C97.688,190.085,74.906,169.27,62.882,143.983Z" transform="translate(-56.098 -6.682)" fill="#d8d8d8" opacity="0.24"/>
        <path id="Path_2155" data-name="Path 2155" d="M267.5,401.527a4.928,4.928,0,0,0-1.314,1.538,1.8,1.8,0,0,0,.155,1.942,2.289,2.289,0,0,0,1.986.446,27.644,27.644,0,0,0,7.676-1.967,3.4,3.4,0,0,0,1.89-1.446,3.86,3.86,0,0,0,.286-1.492l.135-2.3c.032-.538-.036-1.23-.528-1.38a1.064,1.064,0,0,0-.4-.021c-1.588.092-3.9-.246-5.3.613C270.431,398.493,269.021,400.252,267.5,401.527Z" transform="translate(-166.557 -202.861)" fill="#c2341c"/>
        <path id="Path_2156" data-name="Path 2156" d="M317.935,403.476a5.118,5.118,0,0,1,1.112,1.7,1.808,1.808,0,0,1-.4,1.9,2.268,2.268,0,0,1-2.021.167,27.872,27.872,0,0,1-7.358-3.018,3.48,3.48,0,0,1-1.692-1.692,3.93,3.93,0,0,1-.1-1.521l.155-2.3c.036-.538.191-1.213.695-1.292a1.1,1.1,0,0,1,.4.029c1.549.313,3.9.3,5.162,1.346C315.413,400.063,316.592,402,317.935,403.476Z" transform="translate(-188.384 -203.155)" fill="#c2341c"/>
        <path id="Path_2157" data-name="Path 2157" d="M267.5,401.527a4.928,4.928,0,0,0-1.314,1.538,1.8,1.8,0,0,0,.155,1.942,2.289,2.289,0,0,0,1.986.446,27.644,27.644,0,0,0,7.676-1.967,3.4,3.4,0,0,0,1.89-1.446,3.86,3.86,0,0,0,.286-1.492l.135-2.3c.032-.538-.036-1.23-.528-1.38a1.064,1.064,0,0,0-.4-.021c-1.588.092-3.9-.246-5.3.613C270.431,398.493,269.021,400.252,267.5,401.527Z" transform="translate(-166.557 -202.861)" fill="url(#linear-gradient)"/>
        <path id="Path_2158" data-name="Path 2158" d="M317.935,403.476a5.118,5.118,0,0,1,1.112,1.7,1.808,1.808,0,0,1-.4,1.9,2.268,2.268,0,0,1-2.021.167,27.872,27.872,0,0,1-7.358-3.018,3.48,3.48,0,0,1-1.692-1.692,3.93,3.93,0,0,1-.1-1.521l.155-2.3c.036-.538.191-1.213.695-1.292a1.1,1.1,0,0,1,.4.029c1.549.313,3.9.3,5.162,1.346C315.413,400.063,316.592,402,317.935,403.476Z" transform="translate(-188.384 -203.155)" fill="url(#linear-gradient-2)"/>
        <path id="Path_2159" data-name="Path 2159" d="M274.877,254.22l.989,27.388.993,41.951s1.747,1.325,6.032.217l3.876-43.209,1.986-19.414L293.7,282.3l-2.641,41.588a9.875,9.875,0,0,0,6.274,2.084l7.267-43.685-5.286-31.881Z" transform="translate(-171.241 -129.231)" fill="#606161"/>
        <path id="Path_2160" data-name="Path 2160" d="M274.877,254.22l.989,27.388.993,41.951s1.735.563,6.032.217l3.876-43.209,1.986-19.414L293.7,282.3l-2.641,41.588a9.875,9.875,0,0,0,6.274,2.084l7.267-43.685-5.286-31.881Z" transform="translate(-171.241 -129.231)" fill="url(#linear-gradient-3)"/>
        <path id="Path_2161" data-name="Path 2161" d="M270.23,155.914s-6.529,3.751-7.267,4.51c-.663.692,4.952,43.347,5.286,45.431s11.23,1.384,15.853,0a49.908,49.908,0,0,0,8.919-3.814s-2.311-44.381-3.3-45.072-10.242-2.776-10.242-2.776Z" transform="translate(-164.942 -80.853)"/>
        <path id="Path_2162" data-name="Path 2162" d="M319.509,159.75a6.938,6.938,0,0,1,2.97,2.084c.985,1.392,8.919,18.026,7.942,21.494s-4.3,4.51-5.286,3.814-2.986-5.535-3.3-6.936-.969-5.956-.969-5.956Z" transform="translate(-194.731 -83.648)"/>
        <path id="Path_2163" data-name="Path 2163" d="M335.284,200.6a3.036,3.036,0,0,0,1.457-.171,4.44,4.44,0,0,0,1.322-1,16.491,16.491,0,0,0,2.156-2.388,13.326,13.326,0,0,0,1.314-2.538,30.973,30.973,0,0,0,2.2-8.961,7.7,7.7,0,0,0-.377-3.855,1.154,1.154,0,0,0-.318-.458.948.948,0,0,0-.794-.108c-1.366.292-2.152,1.755-2.839,3.03a35.55,35.55,0,0,1-4.71,6.735,30.373,30.373,0,0,0-2.557,3.03c-.838,1.25-1.8,3.026-.794,4.385A5.613,5.613,0,0,0,335.284,200.6Z" transform="translate(-200.733 -94.374)" fill="#c2341c"/>
        <path id="Path_2164" data-name="Path 2164" d="M335.284,200.6a3.036,3.036,0,0,0,1.457-.171,4.44,4.44,0,0,0,1.322-1,16.491,16.491,0,0,0,2.156-2.388,13.326,13.326,0,0,0,1.314-2.538,30.973,30.973,0,0,0,2.2-8.961,7.7,7.7,0,0,0-.377-3.855,1.154,1.154,0,0,0-.318-.458.948.948,0,0,0-.794-.108c-1.366.292-2.152,1.755-2.839,3.03a35.55,35.55,0,0,1-4.71,6.735,30.373,30.373,0,0,0-2.557,3.03c-.838,1.25-1.8,3.026-.794,4.385A5.613,5.613,0,0,0,335.284,200.6Z" transform="translate(-200.733 -94.374)"/>
        <path id="Path_2165" data-name="Path 2165" d="M250.7,166.2s-4.606,2.342-5.6,5.81-7.942,20.8-5.615,23.228c.2.208.5.55.858.967a3.946,3.946,0,0,0,3.938,1.3,4.155,4.155,0,0,0,2.987-2.99l4.253-15.717S252.657,168.71,250.7,166.2Z" transform="translate(-152.365 -86.889)"/>
        <path id="Path_2166" data-name="Path 2166" d="M241.879,210.977a1.1,1.1,0,0,1-.425.542,4.04,4.04,0,0,1-.882.538v.021a5.222,5.222,0,0,1-3.058.521c-2.041-.288-3.939-2.626-5.23-4.81a11.994,11.994,0,0,1-.349-1.625,2.465,2.465,0,0,1-.111-1.1c.1-2.146-.091-5.568.1-7.869a4,4,0,0,1,.036-.5c.036-.329.127-.717.4-.775a.716.716,0,0,1,.516.138c1.95,1.2,4.122,6.723,5.341,8.753,1.1,1.8,3.054,3.459,3.645,5.531A1.069,1.069,0,0,1,241.879,210.977Z" transform="translate(-148.573 -101.831)"/>
        <path id="Path_2167" data-name="Path 2167" d="M240.628,213.2c-.02.058-.04.117-.056.154v.021a5.222,5.222,0,0,1-3.058.521c-2.041-.288-3.939-2.626-5.23-4.81a11.994,11.994,0,0,1-.349-1.626,2.465,2.465,0,0,1-.111-1.1c.1-2.147-.091-5.568.1-7.869,1.878,1.53,3.884,6.61,5.043,8.544,1.1,1.8,3.058,3.459,3.645,5.527A1.108,1.108,0,0,1,240.628,213.2Z" transform="translate(-148.573 -103.126)" fill="url(#linear-gradient-4)"/>
        <path id="Path_2168" data-name="Path 2168" d="M276.964,148.528s.993,4.506.663,6.252,2.311,6.59,5.615,6.59,3.3-5.894,3.3-6.59-1.39-2.151-1.06-3.885S277.3,146.448,276.964,148.528Z" transform="translate(-172.34 -77.627)" fill="#f5e0cd"/>
        <path id="Path_2169" data-name="Path 2169" d="M279.235,156.076a5.859,5.859,0,0,0,1.164,1.313,4.335,4.335,0,0,0,2.716.888,2.185,2.185,0,0,0,2.482-2.209,21.187,21.187,0,0,0,.191-2.747c0-.417-.079-.967-.544-1.13a1.557,1.557,0,0,0-.758,0,19.309,19.309,0,0,1-4.491.225c-1.032-.071-2.414-.383-2.172.8A8.243,8.243,0,0,0,279.235,156.076Z" transform="translate(-172.777 -79.823)" fill="url(#linear-gradient-5)"/>
        <path id="Path_2170" data-name="Path 2170" d="M276.521,158.953s2.661,6.54,4.932,7.236c0,0,.62.346-1.033,1.388s-6.278-4.168-5.615-7.977a2.84,2.84,0,0,1,1.644-2.213Z" transform="translate(-171.17 -82.459)" fill="#fff"/>
        <path id="Path_2171" data-name="Path 2171" d="M294.052,155.375s1.231,5.9-.623,9.22c0,0,.794,1.25,1.453,1.25s2.311-4.168,1.648-7.281C296.145,156.726,294.382,154.879,294.052,155.375Z" transform="translate(-181.005 -81.407)" fill="#fff"/>
        <path id="Path_2172" data-name="Path 2172" d="M260.231,213.445" transform="translate(-163.533 -110.646)" fill="none" stroke="#000" stroke-width="1.76"/>
        <path id="Path_2173" data-name="Path 2173" d="M283.068,123.083s.659,9.015,0,11.445-2.645,4.506-4.626,4.506-4.956-1.734-6.274-4.856-1.986-10.745-1.652-11.787,2.323-4.318,7.6-3.814C281.746,118.924,283.068,121.7,283.068,123.083Z" transform="translate(-168.901 -62.919)" fill="#f5e0cd"/>
        <path id="Path_2174" data-name="Path 2174" d="M297.892,137.285a3.42,3.42,0,0,1-.2.717,1.442,1.442,0,0,1-.25.5,1.316,1.316,0,0,1-.6.338.5.5,0,0,1-.29.033c-.647-.188-.568-1.888-.242-2.351.179-.25.826-.792,1.112-.7C297.844,135.959,297.943,136.926,297.892,137.285Z" transform="translate(-182.39 -71.61)" fill="#f5e0cd"/>
        <path id="Path_2175" data-name="Path 2175" d="M270.3,140.375a.59.59,0,0,0-.306-.167.406.406,0,0,0-.246.071.907.907,0,0,0-.373.692,2.289,2.289,0,0,0,.1.834,2.245,2.245,0,0,0,.953,1.517.355.355,0,0,0,.4,0,.422.422,0,0,0,.111-.2,4.041,4.041,0,0,0,.31-1.55C271.184,141.092,270.639,140.671,270.3,140.375Z" transform="translate(-168.342 -73.821)" fill="#f5e0cd"/>
        <path id="Path_2176" data-name="Path 2176" d="M283.464,75.34H227.972a4.127,4.127,0,0,0-4.015,4.222V187.208a4.318,4.318,0,0,0,1.175,2.981,3.917,3.917,0,0,0,2.84,1.233h55.492a3.924,3.924,0,0,0,2.851-1.228,4.326,4.326,0,0,0,1.184-2.986V79.562a4.129,4.129,0,0,0-4.035-4.222ZM281.92,178.376H228.782V80.15h53.145Z" transform="translate(-144.442 -41.204)" fill="#c2341c"/>
        <ellipse id="Ellipse_471" data-name="Ellipse 471" cx="3.824" cy="4.014" rx="3.824" ry="4.014" transform="translate(109.874 139.206)" fill="url(#linear-gradient-6)"/>
        <path id="Path_2177" data-name="Path 2177" d="M279.876,157.237a4.239,4.239,0,0,0,.866,1.275,2.574,2.574,0,0,0,1.93.6,1.98,1.98,0,0,0,1.1-.371,3.109,3.109,0,0,0,.552-.642,13.836,13.836,0,0,0,1.755-2.918,3.248,3.248,0,0,0,.274-1.292,1.5,1.5,0,0,0-.524-1.159,1.947,1.947,0,0,0-.973-.292,12.563,12.563,0,0,0-3.038-.046c-.858.117-2.462.463-2.907,1.421S279.467,156.416,279.876,157.237Z" transform="translate(-173.306 -79.913)" fill="none"/>
        <path id="Path_2178" data-name="Path 2178" d="M222.1,177.225a14.078,14.078,0,0,1,4.452.471,2.406,2.406,0,0,1,.826.354,1.011,1.011,0,0,1,.433.779,1.511,1.511,0,0,1-.723,1.075,2.366,2.366,0,0,1,.743.9.856.856,0,0,1-.3,1.038c-.1.046-.218.079-.246.183s.06.2.127.279a1.145,1.145,0,0,1,.233,1.08,1.074,1.074,0,0,1-.777.749.522.522,0,0,1,.379.217.576.576,0,0,1,.1.441.871.871,0,0,1-.612.634,2.4,2.4,0,0,1-.9.063,6.905,6.905,0,0,0-3.09.317,2.3,2.3,0,0,1-1.108.321,1.155,1.155,0,0,1-.834-.65,2.776,2.776,0,0,1-.25-1.1c-.087-1.592.4-3.2.147-4.772C220.483,178.3,220.578,177.3,222.1,177.225Z" transform="translate(-142.644 -92.424)" fill="#f5e0cd"/>
        <path id="Path_2179" data-name="Path 2179" d="M347.4,167.37a5.092,5.092,0,0,0-2.43.834,1.939,1.939,0,0,0-.608,2.38c.143.233.361.442.377.717a1.3,1.3,0,0,1-.179.6,2.788,2.788,0,0,0,.246,2.647c-.286.879-.465,2,.2,2.613a2.34,2.34,0,0,0,2.2.167l1.986-.525a1.873,1.873,0,0,0,1.108-.6,1.9,1.9,0,0,0,.258-.654,18.151,18.151,0,0,0,.568-6.84C350.811,166.487,349.111,167.091,347.4,167.37Z" transform="translate(-207.706 -87.333)" fill="#f5e0cd"/>
        <path id="Path_2180" data-name="Path 2180" d="M270.14,108.507c1.422-1.33,3.177-2.3,4.261-3.951l.175,1.8,1.95-1.667a2.178,2.178,0,0,0,.139,1.25,2.609,2.609,0,0,1,1.013-1.046,3.624,3.624,0,0,0,.266,1.509,8.722,8.722,0,0,0,1.275-1.667,2.106,2.106,0,0,0,.163,1.538,1.657,1.657,0,0,0,.822-1.1c.52,1.951,1.561,3.722,1.986,5.7a19.126,19.126,0,0,1,.2,4.885,12.851,12.851,0,0,1-1.255,5,39.392,39.392,0,0,0-1.263-4.23,6.1,6.1,0,0,0-1.191-2.084c-1.191-1.2-3.086-1.171-4.765-1.029-1.529.129-3.209.367-4.213,1.58a5.339,5.339,0,0,0-.9,3.73,27.262,27.262,0,0,1,.246,3.935,10.844,10.844,0,0,1-2.478-4.493,5.029,5.029,0,0,1,.139-2.6c.294-.859,1.128-1.292,1.418-2.026s0-1.688.258-2.5A6.468,6.468,0,0,1,270.14,108.507Z" transform="translate(-166.814 -55.894)" fill="#606161"/>
        <path id="Path_2181" data-name="Path 2181" d="M270.14,108.507c1.422-1.33,3.177-2.3,4.261-3.951l.175,1.8,1.95-1.667a2.178,2.178,0,0,0,.139,1.25,2.609,2.609,0,0,1,1.013-1.046,3.624,3.624,0,0,0,.266,1.509,8.722,8.722,0,0,0,1.275-1.667,2.106,2.106,0,0,0,.163,1.538,1.657,1.657,0,0,0,.822-1.1c.52,1.951,1.561,3.722,1.986,5.7a19.126,19.126,0,0,1,.2,4.885,12.851,12.851,0,0,1-1.255,5,39.392,39.392,0,0,0-1.263-4.23,6.1,6.1,0,0,0-1.191-2.084c-1.191-1.2-3.086-1.171-4.765-1.029-1.529.129-3.209.367-4.213,1.58a5.339,5.339,0,0,0-.9,3.73,27.262,27.262,0,0,1,.246,3.935,10.844,10.844,0,0,1-2.478-4.493,5.029,5.029,0,0,1,.139-2.6c.294-.859,1.128-1.292,1.418-2.026s0-1.688.258-2.5A6.468,6.468,0,0,1,270.14,108.507Z" transform="translate(-166.814 -55.894)" fill="url(#linear-gradient-7)"/>
        <rect id="Rectangle_1034" data-name="Rectangle 1034" width="24.117" height="19.089" rx="9.545" transform="translate(132.537 45.918)" fill="#c2341c"/>
        <rect id="Rectangle_1035" data-name="Rectangle 1035" width="24.117" height="19.089" rx="9.545" transform="translate(132.537 45.918)" fill="url(#linear-gradient-8)"/>
        <path id="Path_2182" data-name="Path 2182" d="M300.7,102.795l6.624,4.356-6.624,4.255Z" transform="translate(-158.276 -51.687)" fill="#c2341c"/>
        <path id="Path_2183" data-name="Path 2183" d="M403.307,172.95v10.391a4.248,4.248,0,0,1-4.142,4.347h-.747v4.585l-2.26-4.585H378.972a4.041,4.041,0,0,1-2.93-1.272,4.455,4.455,0,0,1-1.212-3.075V172.95a4.455,4.455,0,0,1,1.212-3.075,4.041,4.041,0,0,1,2.93-1.272h20.193a4.041,4.041,0,0,1,2.93,1.272A4.455,4.455,0,0,1,403.307,172.95Z" transform="translate(-223.847 -88.099)" fill="#c2341c"/>
        <path id="Path_2184" data-name="Path 2184" d="M403.307,172.95v10.391a4.248,4.248,0,0,1-4.142,4.347h-.747v4.585l-2.26-4.585H378.972a4.041,4.041,0,0,1-2.93-1.272,4.455,4.455,0,0,1-1.212-3.075V172.95a4.455,4.455,0,0,1,1.212-3.075,4.041,4.041,0,0,1,2.93-1.272h20.193a4.041,4.041,0,0,1,2.93,1.272A4.455,4.455,0,0,1,403.307,172.95Z" transform="translate(-223.847 -88.099)" fill="url(#linear-gradient-9)"/>
        <rect id="Rectangle_1036" data-name="Rectangle 1036" width="21.218" height="1.246" transform="translate(154.569 84.276)" fill="#c2341c"/>
        <rect id="Rectangle_1037" data-name="Rectangle 1037" width="21.218" height="1.246" transform="translate(154.569 87.565)" fill="#c2341c"/>
        <rect id="Rectangle_1038" data-name="Rectangle 1038" width="21.218" height="1.246" transform="translate(154.569 90.849)" fill="#c2341c"/>
        <path id="Path_2185" data-name="Path 2185" d="M167.968,229.037c0,6.194-6.135,11.2-13.7,11.2a15.973,15.973,0,0,1-3.777-.442l-5.981,3.214,2.383-4.543c-3.816-1.971-6.354-5.452-6.354-9.432,0-6.189,6.135-11.2,13.7-11.2S167.968,222.847,167.968,229.037Z" transform="translate(-100.538 -112.855)" fill="#c2341c"/>
        <path id="Path_2186" data-name="Path 2186" d="M167.968,229.037c0,6.194-6.135,11.2-13.7,11.2a15.973,15.973,0,0,1-3.777-.442l-5.981,3.214,2.383-4.543c-3.816-1.971-6.354-5.452-6.354-9.432,0-6.189,6.135-11.2,13.7-11.2S167.968,222.847,167.968,229.037Z" transform="translate(-100.538 -112.855)" fill="url(#linear-gradient-10)"/>
        <path id="Path_2187" data-name="Path 2187" d="M382.707,239.189s-3.177-4.356-6.127-.208,6.719,9.132,6.719,9.132,6.922-5.189,6.131-8.3A3.56,3.56,0,0,0,382.707,239.189Z" transform="translate(-224.473 -122.519)" fill="#c2341c"/>
        <path id="Path_2188" data-name="Path 2188" d="M159.58,154.057s-3.177-4.356-6.127-.208,6.723,9.132,6.723,9.132,6.918-5.189,6.127-8.3A3.56,3.56,0,0,0,159.58,154.057Z" transform="translate(-107.041 -79.713)" fill="#c2341c"/>
        <path id="Path_2189" data-name="Path 2189" d="M159.58,154.057s-3.177-4.356-6.127-.208,6.723,9.132,6.723,9.132,6.918-5.189,6.127-8.3A3.56,3.56,0,0,0,159.58,154.057Z" transform="translate(-107.041 -79.713)" fill="url(#linear-gradient-11)"/>
        <rect id="Rectangle_1039" data-name="Rectangle 1039" width="17.397" height="16.184" rx="8.092" transform="translate(56.431 44.259)" fill="#c2341c"/>
        <rect id="Rectangle_1040" data-name="Rectangle 1040" width="10.146" height="10.649" rx="4.56" transform="translate(60.12 47.235)" fill="none" stroke="#fff" stroke-width="1.484"/>
        <ellipse id="Ellipse_472" data-name="Ellipse 472" cx="1.851" cy="1.942" rx="1.851" ry="1.942" transform="translate(63.372 50.024)" fill="none" stroke="#fff" stroke-width="1.484"/>
        <ellipse id="Ellipse_473" data-name="Ellipse 473" cx="0.616" cy="0.646" rx="0.616" ry="0.646" transform="translate(67.443 48.807)" fill="none" stroke="#fff" stroke-width="0.738"/>
        <path id="Path_2190" data-name="Path 2190" d="M253.91,47.219s3.5,6.456,9.225,5.706a6.645,6.645,0,0,0,6.151-5.706h2.073l-1.716-1.425s-.572-2.176-2.144-1.667a13.229,13.229,0,0,0-3.721,2.626l-6.354-6a2.753,2.753,0,0,0,.143,2.776s-.858,1.275.071,2.026a2.219,2.219,0,0,0,.929,1.8A3.5,3.5,0,0,1,253.91,47.219Z" transform="translate(-160.207 -23.812)" fill="#c2341c"/>
      </g>
    </g>
  </g>
</svg>
