<svg xmlns="http://www.w3.org/2000/svg" xmlns:xlink="http://www.w3.org/1999/xlink" width="280.456" height="209" viewBox="0 0 280.456 209">
  <defs>
    <clipPath id="clip-path">
      <rect id="Rectangle_18" data-name="Rectangle 18" width="280.456" height="209" fill="#fff" stroke="#707070" stroke-width="1"/>
    </clipPath>
    <linearGradient id="linear-gradient" x1="0.102" y1="8.609" x2="1.106" y2="8.609" gradientUnits="objectBoundingBox">
      <stop offset="0" stop-color="#ecc4d7"/>
      <stop offset="0.42" stop-color="#efd4d1"/>
      <stop offset="1" stop-color="#f2eac9"/>
    </linearGradient>
    <linearGradient id="linear-gradient-2" x1="0.795" y1="12.308" x2="-1.351" y2="14.828" xlink:href="#linear-gradient"/>
    <linearGradient id="linear-gradient-3" x1="0.05" y1="5.887" x2="1.05" y2="5.887" xlink:href="#linear-gradient"/>
    <linearGradient id="linear-gradient-4" x1="-0.014" y1="13.316" x2="0.652" y2="12.94" xlink:href="#linear-gradient"/>
    <linearGradient id="linear-gradient-5" x1="0.669" y1="24.11" x2="-0.138" y2="28.474" xlink:href="#linear-gradient"/>
    <linearGradient id="linear-gradient-6" x1="0.616" y1="40.854" x2="0.333" y2="43.489" xlink:href="#linear-gradient"/>
    <linearGradient id="linear-gradient-7" x1="0.064" y1="13.32" x2="1.064" y2="13.32" xlink:href="#linear-gradient"/>
    <linearGradient id="linear-gradient-8" x1="0.548" y1="8.539" x2="0.416" y2="6.841" gradientUnits="objectBoundingBox">
      <stop offset="0" stop-opacity="0"/>
      <stop offset="0.44" stop-opacity="0.349"/>
      <stop offset="0.91" stop-opacity="0.8"/>
      <stop offset="1"/>
    </linearGradient>
    <linearGradient id="linear-gradient-9" x1="0.673" y1="1.691" x2="1.435" y2="1.562" gradientUnits="objectBoundingBox">
      <stop offset="0" stop-opacity="0"/>
      <stop offset="0.91" stop-opacity="0.8"/>
      <stop offset="1"/>
    </linearGradient>
    <linearGradient id="linear-gradient-10" x1="0.479" y1="1.722" x2="0.056" y2="1.717" xlink:href="#linear-gradient-9"/>
    <linearGradient id="linear-gradient-11" x1="1.722" y1="0.171" x2="-1.08" y2="1.101" gradientUnits="objectBoundingBox">
      <stop offset="0" stop-color="#fff" stop-opacity="0"/>
      <stop offset="1" stop-color="#3f3d56"/>
    </linearGradient>
    <linearGradient id="linear-gradient-12" x1="0.504" y1="-1.641" x2="0.14" y2="-0.072" xlink:href="#linear-gradient-9"/>
    <linearGradient id="linear-gradient-13" x1="-31.203" y1="1.881" x2="17.904" y2="4.163" gradientUnits="objectBoundingBox">
      <stop offset="0.17" stop-color="#00272e"/>
      <stop offset="1" stop-color="#69b9eb" stop-opacity="0"/>
    </linearGradient>
    <linearGradient id="linear-gradient-14" y1="809.279" x2="1" y2="809.279" gradientUnits="objectBoundingBox">
      <stop offset="0" stop-color="#68e1fd"/>
      <stop offset="1" stop-color="#69b9eb"/>
    </linearGradient>
    <linearGradient id="linear-gradient-15" x1="1.179" y1="13.43" x2="0.121" y2="14.215" xlink:href="#linear-gradient-9"/>
    <linearGradient id="linear-gradient-16" x1="1.04" y1="17.356" x2="0.15" y2="18.723" xlink:href="#linear-gradient-9"/>
    <linearGradient id="linear-gradient-17" x1="0.078" y1="17.459" x2="0.795" y2="18.7" gradientUnits="objectBoundingBox">
      <stop offset="0" stop-color="#484848"/>
      <stop offset="0.91" stop-opacity="0.8"/>
      <stop offset="1"/>
    </linearGradient>
  </defs>
  <g id="pr_fr" data-name="pr&amp;fr" transform="translate(-1282 -1665)">
    <g id="Mask_Group_24" data-name="Mask Group 24" transform="translate(1282 1665)" clip-path="url(#clip-path)">
      <g id="handshake" transform="translate(0 12.429)">
        <path id="Path_2220" data-name="Path 2220" d="M280.841,130.581a43.26,43.26,0,0,1-4.085,16.387,53.158,53.158,0,0,1-17.338,20.09,69.023,69.023,0,0,1-12.909,7.216,76,76,0,0,1-7.625,2.8c-15.659,4.8-32.183,5.037-48.483,5.237l-114.715,1.4h0l-15.087.182c-4.8.061-9.692.1-14.533-.182-9.236-.521-18.3-2.172-26.25-6.927A35.527,35.527,0,0,1,9.3,167.059,46.737,46.737,0,0,1,.861,140.634v-1C.919,130.4,3.642,121.282,9.3,114.165c.361-.449.729-.9,1.113-1.327.8-.906,1.675-1.784,2.594-2.661,5.852-5.533,13.579-10.491,17.082-17.618C36.255,80.017,28.571,74.9,27.56,62.595c-1.7-20.69,18.287-44.465,34.526-53.957a64.084,64.084,0,0,1,57.855-3.25c19.472,8.69,37.644,27.613,58.185,22.277,6.6-1.716,12.671-5.939,19.476-6.064,12.575-.253,21.3,13.149,25.218,25.684s6.039,26.682,15.346,35.554c6.679,6.364,15.887,8.757,23.976,12.984a39.166,39.166,0,0,1,6.941,4.512,32.124,32.124,0,0,1,9.927,15.25A42.614,42.614,0,0,1,280.841,130.581Z" transform="translate(-0.452 0.003)" fill="#d8d8d8" opacity="0.18"/>
        <path id="Path_2221" data-name="Path 2221" d="M268.938,336.252A71.71,71.71,0,0,1,248.4,346.262c-14.638,4.491-30.029,4.994-45.276,5.194l-3.2.043-42.117.517-21.392.264-47.615.581L85.2,352.9h0l-15.091.186c-4.8.061-9.688.093-14.533-.186-9.246-.507-18.311-2.158-26.267-6.9a35.511,35.511,0,0,1-10.465-9.738Z" transform="translate(-9.901 -169.072)" fill="#b8a9a6" opacity="0.18"/>
        <path id="Path_2222" data-name="Path 2222" d="M445.943,345.755c.1,1.488-.909,2.925-.623,4.384.422,2.14,2.754,1.784,4.844,1.623a102.353,102.353,0,0,0,16.521-2.586c4.579-1.241,7.911-2.44,12.276-3.924.34-.118.235-1.131.252-1.505.027-.5-.6-.681-1.072-.713-4.317-.146-8.681,0-12.916-.892-1.9-.407-3.768-1.027-5.7-1.259-2.383-.282-4.766.025-7.149-.164-1.726-.139-5.93-2.119-7.534-1.306C442.44,340.657,445.824,343.957,445.943,345.755Z" transform="translate(-233.326 -170.563)" fill="#000405" opacity="0.05"/>
        <path id="Path_2223" data-name="Path 2223" d="M199.444,354.3c4.987,1.466,9.021,4.57,13.413,6.974q-23.809.285-47.615.578a21.842,21.842,0,0,1,4.425-3.417c5.219-3.061,11.35-3.767,17.293-4.416C191.114,353.56,195.407,353.114,199.444,354.3Z" transform="translate(-86.839 -177.765)" fill="#000405" opacity="0.05"/>
        <path id="Path_2224" data-name="Path 2224" d="M356.818,356.119a2.7,2.7,0,0,1-.565,1.291,2.377,2.377,0,0,0-.266.464l-3.2.043-42.124.507a12.785,12.785,0,0,0,2.063-2.122,30.222,30.222,0,0,1,2.6-3.428c3.016-2.932,7.792-2.386,11.7-1.07a10.939,10.939,0,0,0,3.636.853c2.22-.029,4.126-1.541,6.128-2.583a15.875,15.875,0,0,1,19.186,4.063A3.023,3.023,0,0,1,356.818,356.119Z" transform="translate(-163.265 -175.191)" fill="#000405" opacity="0.05"/>
        <path id="Path_2225" data-name="Path 2225" d="M345.5,233.1l-7.785,40.134-5.232-.628-.6-.075s1.5-11.893,2.145-28.855c.426-11.237,2.26-20.411,3.139-28.038a36.127,36.127,0,0,1,1.362-6.185c1.062-3.375,2.679-6.531,4.735-6.207,4.541.713,10.522,4.826,11.312,7.4C355.943,215.141,345.5,233.1,345.5,233.1Z" transform="translate(-174.41 -102.182)" fill="#2f2e41"/>
        <path id="Path_2226" data-name="Path 2226" d="M340.041,215.846s-3.489,28.327-3.6,37.163-3.581,25.812-3.581,25.812l-.4.075-.6-.075s1.5-11.893,2.145-28.855c.426-11.237,2.26-20.411,3.139-28.038a36.135,36.135,0,0,1,1.362-6.185,6.38,6.38,0,0,1,1.542.1Z" transform="translate(-174.399 -108.473)" fill="#f8f8f8" opacity="0.07"/>
        <path id="Path_2227" data-name="Path 2227" d="M377.842,275.318h-5.787v-.036c-.157-.817-3.064-15.906-7.173-26.836-3.064-8.151-4.545-24.753-5.106-33.249-.225-3.21-.313-5.265-.313-5.265s11.751-3.635,13.276-2.023S376,216.827,376,216.827s-4.024,28.93-1.464,30.892S377.842,275.318,377.842,275.318Z" transform="translate(-188.908 -104.332)" fill="#2f2e41"/>
        <path id="Path_2228" data-name="Path 2228" d="M191.732,111.345s-8.558,2.765-12.024,28.648c-1.253,9.332,6.713,25.816,6.713,25.816Z" transform="translate(-94.372 -55.985)" fill="#c2341c"/>
        <path id="Path_2229" data-name="Path 2229" d="M191.732,111.345s-8.558,2.765-12.024,28.648c-1.253,9.332,6.713,25.816,6.713,25.816Z" transform="translate(-94.372 -55.985)" fill="#c8c8c8"/>
        <path id="Path_2230" data-name="Path 2230" d="M187.721,214.343a3.252,3.252,0,0,0-2.91.986,3.614,3.614,0,0,0-.93,3.052c.654,4.045,1.9,9.66,4.085,12.842,3.69,5.326,8.728,12.674,8.728,12.674l5.208,37.455,6.424-.91-.058-35.893-7.251-27.906Z" transform="translate(-96.611 -107.751)" fill="#25233a"/>
        <path id="Path_2231" data-name="Path 2231" d="M197.244,215.925,196.41,247.1l-13.77,33.556-4.613-2.044-1.341-.6,7.625-31.462s-2.968-8.561-5.154-14.8c-2.1-5.989.756-17.857.994-18.813v-.064Z" transform="translate(-92.853 -107.032)" fill="#25233a"/>
        <path id="Path_2232" data-name="Path 2232" d="M316.957,148.5l-16.99,8.825-3.173-4.234h0L295.98,152,310.5,143.73s4.987-11.618,6.07-16.958c.208-.992.415-1.784.609-2.465.378-1.238,3.983-5.611,5.195-5.872s-.153,3.642.654,4.637a8.122,8.122,0,0,1,1.294,4.637C324.457,131.028,316.957,148.5,316.957,148.5Z" transform="translate(-155.546 -59.544)"/>
        <path id="Path_2233" data-name="Path 2233" d="M361.941,158.143s-8.439,10.627-18.168,8.1a12.861,12.861,0,0,1-1.961-.692,3.633,3.633,0,0,1-1.784-4.673v-.021c.94-2.233.967-5.461.882-8.44-.2-6.853-1.852-14.269-1.974-17.354a34.815,34.815,0,0,1,.776-7.555c.977-4.958,2.723-9.9,4.531-10.184,5.324-.86,7.149.66,7.149.66l9.089,5.533C365,128.457,362.806,136.219,361.941,158.143Z" transform="translate(-178.011 -56.307)"/>
        <path id="Path_2236" data-name="Path 2236" d="M352.16,185.066l-4.177,17.625,25.811,5.55L377.5,191Z" transform="translate(-182.875 -93.053)" fill="#fff"/>
        <path id="Path_2237" data-name="Path 2237" d="M355.009,104.967c0,.078-.092,4.07-.225,6.61a6.928,6.928,0,0,1-2.315,4.719,8.284,8.284,0,0,1-2.754,1.99,1.442,1.442,0,0,1-1.872-.9h0a1.626,1.626,0,0,1-.037-.927c.133-.528.266-1.141.368-1.784a8.475,8.475,0,0,0-.031-3.77,1.02,1.02,0,0,0-.034-.111,1.694,1.694,0,0,1,.463-1.669,11.84,11.84,0,0,1,2.921-2.322,33.86,33.86,0,0,1,3.517-1.834Z" transform="translate(-182.755 -52.778)" fill="url(#linear-gradient)"/>
        <path id="Path_2238" data-name="Path 2238" d="M349.352,115.235a3.054,3.054,0,0,1-.735.271,8.475,8.475,0,0,0-.031-3.77l.429-1.784.323-1.327,2.6-1,2.631-1.006C353.934,111.532,351.428,114.2,349.352,115.235Z" transform="translate(-183.192 -53.611)" fill="url(#linear-gradient-2)"/>
        <path id="Path_2239" data-name="Path 2239" d="M340.906,76.906a7.728,7.728,0,0,0-7.016,8.315h0a4.517,4.517,0,0,0,.058.6,27.513,27.513,0,0,0,2.322,9.2c2.448,4.352,8.6.749,9.566-1.049s4.63-9.931,3.084-12.239C347.9,80.134,344.9,76.713,340.906,76.906Z" transform="translate(-175.461 -38.664)" fill="url(#linear-gradient-3)"/>
        <path id="Path_2240" data-name="Path 2240" d="M330.036,69.247l1.266.678a4.691,4.691,0,0,0-3.9,1.99,6.7,6.7,0,0,0-1.821,4.577l2.148-1.07s-.16,2.779,3.911,2.982,8.381.357,8.381.357l-1.382-2s2.533,1.07,2.975,2.037a33.469,33.469,0,0,1,.872,4.787s1-2.743,1.423-2.14-.436,3.086-.963,3.631-.439,2.18-.487,2.315,2.523-2.108,2.635-2.879,2.659-8.561.987-10.188l1.021-.082a4.639,4.639,0,0,0-2-.806S338.393,64.275,330.036,69.247Z" transform="translate(-171.1 -34.074)" fill="#3f3d56"/>
        <path id="Path_2241" data-name="Path 2241" d="M278.365,189.929A19.984,19.984,0,0,1,282,187.286a11.5,11.5,0,0,1,3.163-.685s.177,1.559-.681,1.662-1.573,1.47-1.573,1.47,5.5,2.361,6.264,2.14.609.927-.783.853-1.733,1.966-2.7,1.937-2.488.6-3.9.649a14.141,14.141,0,0,1-4.174-1.02Z" transform="translate(-145.894 -93.825)" fill="url(#linear-gradient-4)"/>
        <path id="Path_2242" data-name="Path 2242" d="M205.115,135.55,200.5,162.739s-1.593,5.2-9.838,4.427a12.935,12.935,0,0,1-8.037-3.792h0l-.133-.132-.092-.1a16.873,16.873,0,0,1-3.632-5.765s5.3-38.358,10.859-45.014a2.16,2.16,0,0,1,1.668-.985,9.574,9.574,0,0,1,4.248,1.7A22.225,22.225,0,0,1,205.115,135.55Z" transform="translate(-93.947 -56.001)" fill="#b7b7b7"/>
        <path id="Path_2244" data-name="Path 2244" d="M205.2,89.63s.882-7,1.236-11.543,1.77-10.641,9.055-9.86,7.309,12.321,5.3,17.151-4.694,4.691-4.694,4.691-3.629-.828-3.493,3.746Z" transform="translate(-107.838 -34.27)" fill="#f2eac9"/>
        <path id="Path_2245" data-name="Path 2245" d="M207.611,64.3a8.651,8.651,0,0,0-2.216,3.9,21.406,21.406,0,0,0-.66,3.685l.742-.853a59.676,59.676,0,0,1-.453,6.382,36.3,36.3,0,0,0-.34,5.957l1.362-.071,1.7,2.19,1.879-1.334,1.423-.767,1.26-3.26a1.885,1.885,0,0,1-.613-2.14c.463-1.331,1.614-1.637,1.883-.853a16.151,16.151,0,0,1,.34,2.975l2.008-5.961s1.26-1.851,2.363-.578a5.876,5.876,0,0,0,2.431,1.7l-.681-1.969,1.821.489-.143-2.276,1.362,1s.6-3.685-.558-5.319S216.778,59.017,207.611,64.3Z" transform="translate(-107.561 -31.313)" fill="#3f3d56"/>
        <path id="Path_2246" data-name="Path 2246" d="M242.466,159.828l-.923,5.108-.249,1.373-16.616-1.3c-4.6-.414-9.113-3.71-9.685-8.529l-5.75-21.271a5.6,5.6,0,0,1,1-5.116,5.03,5.03,0,0,1,4.667-1.833,6.007,6.007,0,0,1,4.766,4.256l3.619,19.038a5.823,5.823,0,0,0,4.265,4.637Z" transform="translate(-109.842 -64.462)" fill="#b7b7b7"/>
        <path id="Path_2247" data-name="Path 2247" d="M290.222,188.137l-2.315.756s-2.894.271-3.857,1.134-.426,1.252-.426,1.252,3.064-.471,3.724-.2,3.891,1.612,4.912,1.594,1.134-.3,1.134-.3Z" transform="translate(-148.974 -94.597)" fill="url(#linear-gradient-5)"/>
        <path id="Path_2248" data-name="Path 2248" d="M282.1,200.39a1.417,1.417,0,0,1,1.27-.357.245.245,0,0,1,.133.071.316.316,0,0,1,0,.282,4.891,4.891,0,0,1-.722,1.509c.361-.128.528-.549.756-.867a1.881,1.881,0,0,1,1.464-.792.328.328,0,0,1,.2.043c.14.1.078.328,0,.489-.143.3-.283.6-.426.906a8.893,8.893,0,0,1,1.246-1.5.931.931,0,0,1,.409-.268.335.335,0,0,1,.409.189.477.477,0,0,1,0,.293,3.376,3.376,0,0,1-.511,1.145,5.475,5.475,0,0,1,1.069-1.323.276.276,0,0,1,.245-.1.211.211,0,0,1,.119.107.851.851,0,0,1-.15.817c-.276.46-.626.952-1.14,1.034a1.371,1.371,0,0,0-.34.064,1.183,1.183,0,0,0-.221.153,1.061,1.061,0,0,1-1.208.029,1.448,1.448,0,0,1-1.654-.029.328.328,0,0,0-.409-.032,1.1,1.1,0,0,1-1.253-.389C281.074,201.407,281.762,200.7,282.1,200.39Z" transform="translate(-147.833 -100.508)" fill="url(#linear-gradient-6)"/>
        <path id="Path_2249" data-name="Path 2249" d="M378.9,173.315l-5.685-2.058-.194-.071,4.143-13.955s-5.447-15.7-6.352-20.5a14.1,14.1,0,0,1-.041-4.841,4.1,4.1,0,0,1,3.132-3.407,3.71,3.71,0,0,1,2.608.357,17,17,0,0,1,2.043,1.306,2.864,2.864,0,0,1,1.045,1.634c1.021,4.395,5.13,22.323,5.283,24.025C385.046,157.755,378.9,173.315,378.9,173.315Z" transform="translate(-194.75 -64.554)"/>
        <path id="Path_2250" data-name="Path 2250" d="M369.789,215.822c-.279.278-.545.778-.249,1.042.072.064.17.1.228.178.143.189-.034.453-.2.621l-1.362,1.388a2.368,2.368,0,0,0-.936,1.873,1.446,1.446,0,0,0,.987,1.088,2.7,2.7,0,0,0,1.488-.018.774.774,0,0,0,.405.731,2.128,2.128,0,0,0,.831.214,5.92,5.92,0,0,0,2.5-.071c.061.1.122.189.187.282,1.076-.2,1.661-1.405,2.043-2.476s.769-2.262,1.1-3.414a.8.8,0,0,0,.031-.489.754.754,0,0,0-.483-.382c-1.3-.517-2.6-1.045-3.9-1.555C371.252,214.363,370.7,214.927,369.789,215.822Z" transform="translate(-193.004 -107.935)" fill="url(#linear-gradient-7)"/>
        <path id="Path_2256" data-name="Path 2256" d="M203.111,108.992l8.357,4.355,2.26,4.591-12.061-6.8Z" transform="translate(-105.982 -54.802)" fill="#c2341c"/>
        <path id="Path_2257" data-name="Path 2257" d="M203.111,108.992l8.357,4.355,2.26,4.591-12.061-6.8Z" transform="translate(-105.982 -54.802)" fill="url(#linear-gradient-8)"/>
        <path id="Path_2258" data-name="Path 2258" d="M74.791,230.46v69.56H67.482V268.465H1.556A48.74,48.74,0,0,1,0,256.932v-.985c.058-9.239,2.778-18.378,8.446-25.473Z" transform="translate(0 -115.878)" fill="#c2341c"/>
        <path id="Path_2259" data-name="Path 2259" d="M91.944,222.418v3.988H17.8c.357-.449.729-.9,1.11-1.327.8-.906,1.675-1.784,2.6-2.661Z" transform="translate(-9.355 -111.834)" fill="#c2341c"/>
        <path id="Path_2260" data-name="Path 2260" d="M82.71,162.638c-.837-.842-1.838-1.484-2.723-2.254a1.29,1.29,0,0,1-.582-1.07.869.869,0,0,1,.681-.667,2.446,2.446,0,0,1,.991.064l-1.906-2.247c-.177-.21-.368-.5-.238-.746s.494-.232.746-.107a1.557,1.557,0,0,0,.769.289c-.681-1-1.546-1.819-2.271-2.772a4.994,4.994,0,0,1-1.2-3.339.8.8,0,0,1,.167-.478c.218-.228.586-.132.868,0a9.066,9.066,0,0,1,4.538,4.694,8.913,8.913,0,0,1-.374-3.171.87.87,0,0,1,.259-.671c.34-.246.79.178.987.574,1.341,2.736.405,6.064.953,9.093a3.383,3.383,0,0,1,1.048-2.187,16.435,16.435,0,0,1-.17,4.677c.419.193.385.82.279,1.291q-.2,1.07-.511,2.14c-.749-.064-.763-.492-1-1.124A5.685,5.685,0,0,0,82.71,162.638Z" transform="translate(-40.447 -75.006)" fill="#c2341c"/>
        <path id="Path_2261" data-name="Path 2261" d="M97.459,155.617a5.025,5.025,0,0,1,2.594-1.862,1.968,1.968,0,0,1-.439,1.987,6.289,6.289,0,0,0-1.205,1.734,6.676,6.676,0,0,1,3.523-2.308,1.9,1.9,0,0,1,1.491.089.59.59,0,0,1,.279.357c.082.392-.395.628-.769.713a11.746,11.746,0,0,0-6.526,4.691,7.91,7.91,0,0,1,5.178-1.188c.313.039.681.139.8.442.18.449-.306.878-.749,1.031-1.7.592-3.833-.039-5.208,1.181a2.831,2.831,0,0,1,2.09.606c.48.382.834,1.163.412,1.612a1.193,1.193,0,0,1-1.021.243c-.984-.089-2.2-.26-2.761.589a4.5,4.5,0,0,0-.4,1.641c-.092.453-.449,1.256-.919.813-.313-.3-.191-1.331-.191-1.723a16.873,16.873,0,0,1,3.82-10.637Z" transform="translate(-49.195 -77.309)" fill="#c2341c"/>
        <path id="Path_2262" data-name="Path 2262" d="M82.71,162.638c-.837-.842-1.838-1.484-2.723-2.254a1.29,1.29,0,0,1-.582-1.07.869.869,0,0,1,.681-.667,2.446,2.446,0,0,1,.991.064l-1.906-2.247c-.177-.21-.368-.5-.238-.746s.494-.232.746-.107a1.557,1.557,0,0,0,.769.289c-.681-1-1.546-1.819-2.271-2.772a4.994,4.994,0,0,1-1.2-3.339.8.8,0,0,1,.167-.478c.218-.228.586-.132.868,0a9.066,9.066,0,0,1,4.538,4.694,8.913,8.913,0,0,1-.374-3.171.87.87,0,0,1,.259-.671c.34-.246.79.178.987.574,1.341,2.736.405,6.064.953,9.093a3.383,3.383,0,0,1,1.048-2.187,16.435,16.435,0,0,1-.17,4.677c.419.193.385.82.279,1.291q-.2,1.07-.511,2.14c-.749-.064-.763-.492-1-1.124A5.685,5.685,0,0,0,82.71,162.638Z" transform="translate(-40.447 -75.006)" fill="url(#linear-gradient-9)"/>
        <path id="Path_2263" data-name="Path 2263" d="M97.459,155.617a5.025,5.025,0,0,1,2.594-1.862,1.968,1.968,0,0,1-.439,1.987,6.289,6.289,0,0,0-1.205,1.734,6.676,6.676,0,0,1,3.523-2.308,1.9,1.9,0,0,1,1.491.089.59.59,0,0,1,.279.357c.082.392-.395.628-.769.713a11.746,11.746,0,0,0-6.526,4.691,7.91,7.91,0,0,1,5.178-1.188c.313.039.681.139.8.442.18.449-.306.878-.749,1.031-1.7.592-3.833-.039-5.208,1.181a2.831,2.831,0,0,1,2.09.606c.48.382.834,1.163.412,1.612a1.193,1.193,0,0,1-1.021.243c-.984-.089-2.2-.26-2.761.589a4.5,4.5,0,0,0-.4,1.641c-.092.453-.449,1.256-.919.813-.313-.3-.191-1.331-.191-1.723a16.873,16.873,0,0,1,3.82-10.637Z" transform="translate(-49.195 -77.309)" fill="url(#linear-gradient-10)"/>
        <path id="Path_2264" data-name="Path 2264" d="M90.824,201.743l-3.894.021H83.076C74.6,196.5,84.4,185.79,84.4,185.79a5,5,0,0,0-.119-2.722,1.47,1.47,0,0,0-.528-.617c-1.249-.785.494-1.1.494-1.1h5.229s1.791.157.446,1.145-.6,3.289-.6,3.289C99.784,197.979,90.824,201.743,90.824,201.743Z" transform="translate(-41.844 -91.188)" fill="#fff"/>
        <path id="Path_2265" data-name="Path 2265" d="M87.212,203.169a2.747,2.747,0,0,1-.283.321H83.076C74.6,198.225,84.4,187.516,84.4,187.516a5,5,0,0,0-.119-2.722c1.7-.136,2.523,2.165,2.294,3.628-.174,1.127-.34,2.258-.528,3.385a10.691,10.691,0,0,0-.17,3.21,20.064,20.064,0,0,0,1.494,4.027A4.422,4.422,0,0,1,87.212,203.169Z" transform="translate(-41.844 -92.914)" opacity="0.51" fill="url(#linear-gradient-11)"/>
        <path id="Path_2266" data-name="Path 2266" d="M74.791,230.46,36.7,241.8A50.068,50.068,0,0,0,5.991,268.465H1.566A48.749,48.749,0,0,1,0,256.932v-.985c.058-9.239,2.778-18.378,8.446-25.473Z" transform="translate(0 -115.878)" fill="url(#linear-gradient-12)"/>
        <rect id="Rectangle_1054" data-name="Rectangle 1054" width="3.493" height="31.498" transform="translate(67.482 152.587)" opacity="0.61" fill="url(#linear-gradient-13)"/>
        <path id="Path_2267" data-name="Path 2267" d="M512.315,228.213A43.322,43.322,0,0,1,508.23,244.6a47.667,47.667,0,0,1-3.03,5.383,55.3,55.3,0,0,1-14.3,14.711,69.2,69.2,0,0,1-12.909,7.213l-9.025-1.744-17.3-3.342c-.848-.164-1.668-.268-2.444-.357-3.19-.378-5.671-.564-6.608-3.956-1.161-4.177,0-10.57,0-14.95,0-7.612.759-16.676,7.084-20.415,5.249-3.1,11.915-.91,17.773-2.344a3.3,3.3,0,0,0,1.546-.713,3.784,3.784,0,0,0,.8-2.7c.146-7.366-2.2-15.628,2-21.535,3.214-4.516,9.093-5.761,14.444-6.282a46.014,46.014,0,0,1,4.956-.225q1.205,0,2.407.107c5.545.449,10.829,2.315,13.647,7.1,1.508,2.554,2.043,5.586,2.546,8.543.228,1.366.456,2.743.681,4.12C511.256,218.143,511.937,223.19,512.315,228.213Z" transform="translate(-232.339 -97.214)" fill="#3f3d56"/>
        <path id="Path_2268" data-name="Path 2268" d="M520.147,228.211a43.324,43.324,0,0,1-4.085,16.388,47.686,47.686,0,0,1-3.03,5.383c-2.073.924-4.568.913-6.88.949a73.961,73.961,0,0,0-10.863.977,9.044,9.044,0,0,0-4.562,1.7c-1.671,1.427-2.25,3.863-2.342,6.128s.2,4.559-.17,6.8a4.471,4.471,0,0,1-.793,2.08c-.868,1.1-2.383,1.291-3.745,1.381q-3.452.218-6.907.178a90.518,90.518,0,0,1-17.249-1.9c-.984-.207-2.131-.574-2.444-1.577a1.29,1.29,0,0,1-.048-.228,3.608,3.608,0,0,1,.123-1.4l3.115-13.973a19.159,19.159,0,0,1,1.821-5.5c1.92-3.335,5.569-5.04,8.991-6.549l9.212-4.07c2.519-1.106,4.231-1.249,4.007-4.355-.494-6.87-1.869-13.555-1.869-20.49a14.047,14.047,0,0,1,.906-5.839,12.376,12.376,0,0,1,3.792-4.352,43.412,43.412,0,0,1,11.9-6.6q1.205,0,2.407.107c5.545.449,10.829,2.315,13.647,7.1,1.508,2.554,2.043,5.586,2.546,8.543.228,1.366.456,2.743.681,4.12.494,3.128.946,6.289,1.311,9.457C519.827,224.5,520,226.345,520.147,228.211Z" transform="translate(-240.171 -97.213)" fill="#25233a"/>
        <path id="Path_2269" data-name="Path 2269" d="M557.5,257.862a43.325,43.325,0,0,1-4.085,16.388,47.69,47.69,0,0,1-3.03,5.383c-2.073.924-4.569.913-6.88.949a73.957,73.957,0,0,0-10.863.977,9.044,9.044,0,0,0-4.562,1.7s2.114-12.242,10.737-16.366,18.151-14.586,18.151-14.586C557.176,254.155,557.346,256,557.5,257.862Z" transform="translate(-277.52 -126.863)" fill="#3f3d56"/>
        <path id="Path_2270" data-name="Path 2270" d="M191.078,212.458c-.048-.043-.092-.089-.136-.136l.031.029A.615.615,0,0,1,191.078,212.458Z" transform="translate(-100.345 -106.758)" fill="url(#linear-gradient-14)"/>
        <path id="Path_2271" data-name="Path 2271" d="M181.115,157.005s.494,5.74,1.76,7.2a17.243,17.243,0,0,1-3.714-5.9s5-38.169,10.672-44.982l1.7.945Z" transform="translate(-94.154 -56.981)" fill="#fff" opacity="0.24"/>
        <path id="Path_2272" data-name="Path 2272" d="M316.185,138.946l.078,3.924-4.888,12.9-14.938,8.2h0l-.837-1.124,14.846-8.44S315.079,144.418,316.185,138.946Z" transform="translate(-155.346 -69.863)" fill="#fff" opacity="0.24"/>
        <path id="Path_2273" data-name="Path 2273" d="M241.417,165.068l-.252,1.405-16.994-1.327c-4.7-.425-9.321-3.8-9.906-8.722l-5.865-21.76a5.755,5.755,0,0,1,1.021-5.24s5.477,26.932,7.489,29.343a16.4,16.4,0,0,0,5.845,3.856Z" transform="translate(-109.394 -65.076)" fill="#fff" opacity="0.24"/>
        <path id="Path_2274" data-name="Path 2274" d="M186.836,248.69,177.7,278.94l-1.362-.614,7.8-32.176s-3.037-8.754-5.27-15.143c-2.145-6.125.773-18.26,1.021-19.238l1.168,1.266s-3.064,14.361.878,21.189A43.59,43.59,0,0,1,186.836,248.69Z" transform="translate(-92.669 -106.481)" fill="#fff" opacity="0.12"/>
        <path id="Path_2275" data-name="Path 2275" d="M344.1,171.064h0a13.079,13.079,0,0,1-2.005-.713,3.565,3.565,0,0,1-1.858-1.994,3.8,3.8,0,0,1,.033-2.786v-.054c.963-2.283.991-5.586.9-8.633-.2-7.006-1.893-14.579-2.019-17.747a35.88,35.88,0,0,1,.793-7.726l1.069-4.741s-.98,7.691-1.232,9.8,2.043,14.112,2.9,15.852-.643,11.986-.443,14.418A8.4,8.4,0,0,0,344.1,171.064Z" transform="translate(-178.227 -63.691)" fill="#fff" opacity="0.24"/>
        <path id="Path_2276" data-name="Path 2276" d="M374.08,282.628l-1.392.713c-.16-.838-3.139-16.266-7.336-27.446-3.135-8.336-4.647-25.327-5.236-34l1.726.357s2.56,22.152,5.372,30.342S374.08,282.628,374.08,282.628Z" transform="translate(-189.251 -111.571)" fill="#f8f8f8" opacity="0.07"/>
        <path id="Path_2277" data-name="Path 2277" d="M378.66,155.827l-4.514,15.235-1.021-.2-.2-.071,4.238-14.269s-5.549-16.031-6.488-20.968a14.482,14.482,0,0,1-.044-4.951,4.2,4.2,0,0,1,3.2-3.485s-3.064,2.237-2.131,7.181C372.921,140.649,378.66,155.827,378.66,155.827Z" transform="translate(-194.676 -63.914)" fill="#fff" opacity="0.24"/>
        <path id="Path_2279" data-name="Path 2279" d="M176.354,344.431l-1.957,3.731,1.968,1.181.732-.614,3.173,3.061a7.08,7.08,0,0,0,3.908.82c2.774,0,3.323-.417,3.323-.417s0-4.281-3.4-4.084-3.639-1.834-3.639-1.834Z" transform="translate(-91.651 -173.185)" fill="#c2341c"/>
        <path id="Path_2280" data-name="Path 2280" d="M223.814,348.219l-.32,5.515h2.383v-2.069l3.234,2.069,8-.021s0-5.707-3.595-5.408a20.328,20.328,0,0,1-5.045,0l-.568-.8Z" transform="translate(-117.452 -174.733)" fill="#c2341c"/>
        <path id="Path_2281" data-name="Path 2281" d="M382.85,343.186l.34,5.511h-2.383v-2.083l-3.21,2.09-8,.021s0-5.707,3.571-5.426a21.714,21.714,0,0,0,5.045,0l.562-.8Z" transform="translate(-194.236 -172.215)" fill="#c2341c"/>
        <path id="Path_2282" data-name="Path 2282" d="M327.89,343.341l.34,5.508h-2.383v-2.083l-3.231,2.112-8,.021s0-5.707,3.571-5.426a21.716,21.716,0,0,0,5.045,0l.562-.8Z" transform="translate(-165.342 -172.301)" fill="#c2341c"/>
        <path id="Path_2283" data-name="Path 2283" d="M176.354,344.431l-1.957,3.731,1.968,1.181.732-.614,3.173,3.061a7.08,7.08,0,0,0,3.908.82c2.774,0,3.323-.417,3.323-.417s0-4.281-3.4-4.084-3.639-1.834-3.639-1.834Z" transform="translate(-91.651 -173.185)" fill="url(#linear-gradient-15)"/>
        <path id="Path_2284" data-name="Path 2284" d="M223.814,348.219l-.32,5.515h2.383v-2.069l3.234,2.069,8-.021s0-5.707-3.595-5.408a20.328,20.328,0,0,1-5.045,0l-.568-.8Z" transform="translate(-117.452 -174.733)" fill="url(#linear-gradient-16)"/>
        <path id="Path_2285" data-name="Path 2285" d="M382.85,343.186l.34,5.511h-2.383v-2.083l-3.21,2.09-8,.021s0-5.707,3.571-5.426a21.714,21.714,0,0,0,5.045,0l.562-.8Z" transform="translate(-194.236 -172.215)" fill="url(#linear-gradient-17)"/>
        <path id="Path_2286" data-name="Path 2286" d="M327.89,343.341l.34,5.508h-2.383v-2.083l-3.231,2.112-8,.021s0-5.707,3.571-5.426a21.716,21.716,0,0,0,5.045,0l.562-.8Z" transform="translate(-165.342 -172.301)" fill="url(#linear-gradient-17)"/>
        <g id="Component_50" data-name="Component 50" transform="matrix(0.996, -0.087, 0.087, 0.996, 162.943, 77.145)">
          <g id="Group_683" data-name="Group 683" transform="translate(1.866 4.247)">
            <path id="Path_2413" data-name="Path 2413" d="M0,.563V.253A.24.24,0,0,1,.253,0,.218.218,0,0,1,.488.228V.281H.363V.242A.1.1,0,0,0,.253.129C.182.129.141.176.141.254v.3c0,.088.045.131.114.131A.1.1,0,0,0,.363.578V.535H.488V.588A.217.217,0,0,1,.254.816.233.233,0,0,1,0,.563Z" transform="translate(-0.001 -0.001)" fill="#fff"/>
            <path id="Path_2414" data-name="Path 2414" d="M.205,0H.375l.2.79H.436L.39.6H.175L.13.79H0Zm.156.48L.284.155h0L.2.481Z" transform="translate(0.533 0.012)" fill="#fff"/>
            <path id="Path_2415" data-name="Path 2415" d="M.185.128H0V0H.507V.129H.324V.79H.185V.128Z" transform="translate(1.094 0.013)" fill="#fff"/>
            <path id="Path_2416" data-name="Path 2416" d="M0,0H.2A.194.194,0,0,1,.4.222C.4.339.348.428.243.442L.422.789H.357L.186.452H.059V.789H0ZM.185.4C.29.4.343.342.342.226.342.127.3.055.192.055H.059V.4Z" transform="translate(1.874 0.014)" fill="#c2341c"/>
            <path id="Path_2417" data-name="Path 2417" d="M0,.385V.21C0,.074.073,0,.174,0s.16.074.16.2V.3H.056V.387c0,.1.044.146.129.146A.218.218,0,0,0,.308.492L.327.534A.217.217,0,0,1,.179.586C.073.586,0,.526,0,.385ZM.283.256V.19C.283.121.255.049.168.049S.056.123.056.192V.256H.283Z" transform="translate(2.386 0.23)" fill="#c2341c"/>
            <path id="Path_2418" data-name="Path 2418" d="M0,.681V0H.055V.674c0,.039.016.065.059.065a.272.272,0,0,0,.044,0v.05A.153.153,0,0,1,.1.8C.038.8,0,.754,0,.681Z" transform="translate(2.844 0.015)" fill="#c2341c"/>
            <path id="Path_2419" data-name="Path 2419" d="M0,.386V.2C0,.073.071,0,.17,0S.34.07.34.2V.383c0,.135-.069.2-.169.2S0,.516,0,.386Zm.285,0V.2C.285.115.252.05.169.05S.055.119.055.2V.384c0,.093.034.15.118.15S.286.467.286.383Z" transform="translate(3.087 0.231)" fill="#c2341c"/>
            <path id="Path_2420" data-name="Path 2420" d="M0,.426A.166.166,0,0,1,.176.25h.1v-.1a.091.091,0,0,0-.1-.1A.1.1,0,0,0,.066.14V.174H.017V.139C.017.047.091,0,.181,0A.135.135,0,0,1,.332.143V.43c0,.041,0,.114,0,.144H.287l0-.093h0a.154.154,0,0,1-.146.1C.064.585,0,.532,0,.426ZM.277.39v-.1H.186A.113.113,0,0,0,.057.417C.057.5.1.537.152.537A.136.136,0,0,0,.277.39Z" transform="translate(3.527 0.231)" fill="#c2341c"/>
            <path id="Path_2421" data-name="Path 2421" d="M0,.644V.39A.153.153,0,0,1,.147.216a.137.137,0,0,1,.13.1h0V0H.333V.789H.285l0-.105h0A.157.157,0,0,1,.137.8C.047.8,0,.732,0,.644ZM.279.572V.433c0-.1-.061-.17-.124-.17s-.1.032-.1.127V.634c0,.07.028.116.1.116S.279.682.279.572Z" transform="translate(3.981 0.016)" fill="#c2341c"/>
            <path id="Path_2422" data-name="Path 2422" d="M0,.385V.21C0,.074.073,0,.174,0s.16.074.16.2V.3H.056V.387c0,.1.044.146.129.146A.218.218,0,0,0,.308.492L.327.534A.217.217,0,0,1,.179.586C.073.586,0,.526,0,.385ZM.283.256V.19C.283.121.255.049.168.049S.056.123.056.192V.256H.283Z" transform="translate(4.443 0.232)" fill="#c2341c"/>
            <path id="Path_2423" data-name="Path 2423" d="M0,.644V.39A.153.153,0,0,1,.147.216a.137.137,0,0,1,.13.1h0V0H.333V.789H.285l0-.105h0A.157.157,0,0,1,.137.8C.047.8,0,.732,0,.644ZM.279.572V.433c0-.1-.061-.17-.124-.17s-.1.032-.1.127V.634c0,.07.028.116.1.116S.279.682.279.572Z" transform="translate(4.882 0.016)" fill="#c2341c"/>
          </g>
          <g id="layer1" transform="translate(0.005 0.004)">
            <path id="path3003-4" d="M1.4,0A1.279,1.279,0,0,0,.448.675,2.724,2.724,0,0,0,.005,2.261,2.308,2.308,0,0,0,1.388,4.567V4.189C.678,3.98.295,2.993.3,2.209A2.445,2.445,0,0,1,.681.921,1.231,1.231,0,0,1,1.4.366Zm.314.5A.951.951,0,0,0,1.3.6a1.562,1.562,0,0,0-.747.949A2.522,2.522,0,0,0,.707,3.368c.39.62.955.812,1.424.557a2.108,2.108,0,0,0,.26-.165l-.14-.317a1.791,1.791,0,0,1-.231.148C1.156,3.94.435,2.756.806,1.711A1.285,1.285,0,0,1,1.381.96a.779.779,0,0,1,.856.151,1.678,1.678,0,0,1,.424,1.6.282.282,0,0,1-.218.221c0-.13,0-.321,0-.477a2.212,2.212,0,0,0-.046-.52A.74.74,0,0,0,1.7,1.272a.613.613,0,0,0-.582.417,1.273,1.273,0,0,0,.183,1.453.6.6,0,0,0,.536.155.649.649,0,0,0,.168-.066c.048-.028.111-.066.088-.068v-.4a1.445,1.445,0,0,1-.187.132.427.427,0,0,1-.114.046.392.392,0,0,1-.354-.125C1.088,2.5,1.23,1.651,1.7,1.626c.2.031.341.147.411.433a1.752,1.752,0,0,1,.038.409c0,.26,0,.623,0,.623l0,.213h.112s.067,0,.147,0a.593.593,0,0,0,.131-.024.322.322,0,0,0,.146-.094.836.836,0,0,0,.187-.322,2.081,2.081,0,0,0,.073-.739A1.927,1.927,0,0,0,2.388.789,1.1,1.1,0,0,0,1.713.5Z" transform="translate(-0.005 -0.004)" fill="#c2341c"/>
            <path id="path4227-4" d="M2.947.008c-.123,0-.247.1-.309.3C2.489.774,2.45.881,2.3,1.388c-.1.339-.16.505-.292.93-.04.129-.238.757-.238.757l.493,0c.119-.384.13-.413.169-.55.1-.278.158-.5.266-.834.086-.262.13-.414.166-.524S2.9,1,2.951.993s.068.149.158.421c.053.161.149.466.184.574s.053.189.079.25a1.292,1.292,0,0,1,.057.165c.006.029-.085.012-.2.013-.218,0-.531,0-.531,0l-.207.66c.6.014,1.04-.021,1.636,0-.269-.866-.774-2.448-.8-2.529S3.268.372,3.253.318c-.06-.209-.183-.31-.306-.31ZM.576.056A.569.569,0,0,0,.367.121C.2.229.06.441.009,1.224A5.248,5.248,0,0,0,.083,2.5c.071.294.243.565.392.57H1.6L1.8,2.408s-.774.012-1.143.01c-.22,0-.177-.715-.186-1.133,0,0,.018-.561.147-.557.409.012,1.651,0,1.651,0L2.5.071.576.056ZM3.385.068c0,.017.225.663.218.664.243,0,.5-.014.764,0V3.074l.452,0V.726h.789c0-.316,0-.478,0-.652-.761,0-1.421,0-2.223-.005Z" transform="translate(3.326 0.741)" fill="#fff"/>
          </g>
        </g>
        <g id="Component_51" data-name="Component 51" transform="translate(168.997 106.497) rotate(-76)">
          <g id="Group_683-2" data-name="Group 683" transform="translate(1.866 4.247)">
            <path id="Path_2413-2" data-name="Path 2413" d="M0,.563V.253A.24.24,0,0,1,.253,0,.218.218,0,0,1,.488.228V.281H.363V.242A.1.1,0,0,0,.253.129C.182.129.141.176.141.254v.3c0,.088.045.131.114.131A.1.1,0,0,0,.363.578V.535H.488V.588A.217.217,0,0,1,.254.816.233.233,0,0,1,0,.563Z" transform="translate(-0.001 -0.001)"/>
            <path id="Path_2414-2" data-name="Path 2414" d="M.205,0H.375l.2.79H.436L.39.6H.175L.13.79H0Zm.156.48L.284.155h0L.2.481Z" transform="translate(0.533 0.012)"/>
            <path id="Path_2415-2" data-name="Path 2415" d="M.185.128H0V0H.507V.129H.324V.79H.185V.128Z" transform="translate(1.094 0.013)"/>
            <path id="Path_2416-2" data-name="Path 2416" d="M0,0H.2A.194.194,0,0,1,.4.222C.4.339.348.428.243.442L.422.789H.357L.186.452H.059V.789H0ZM.185.4C.29.4.343.342.342.226.342.127.3.055.192.055H.059V.4Z" transform="translate(1.874 0.014)" fill="#c2341c"/>
            <path id="Path_2417-2" data-name="Path 2417" d="M0,.385V.21C0,.074.073,0,.174,0s.16.074.16.2V.3H.056V.387c0,.1.044.146.129.146A.218.218,0,0,0,.308.492L.327.534A.217.217,0,0,1,.179.586C.073.586,0,.526,0,.385ZM.283.256V.19C.283.121.255.049.168.049S.056.123.056.192V.256H.283Z" transform="translate(2.386 0.23)" fill="#c2341c"/>
            <path id="Path_2418-2" data-name="Path 2418" d="M0,.681V0H.055V.674c0,.039.016.065.059.065a.272.272,0,0,0,.044,0v.05A.153.153,0,0,1,.1.8C.038.8,0,.754,0,.681Z" transform="translate(2.844 0.015)" fill="#c2341c"/>
            <path id="Path_2419-2" data-name="Path 2419" d="M0,.386V.2C0,.073.071,0,.17,0S.34.07.34.2V.383c0,.135-.069.2-.169.2S0,.516,0,.386Zm.285,0V.2C.285.115.252.05.169.05S.055.119.055.2V.384c0,.093.034.15.118.15S.286.467.286.383Z" transform="translate(3.087 0.231)" fill="#c2341c"/>
            <path id="Path_2420-2" data-name="Path 2420" d="M0,.426A.166.166,0,0,1,.176.25h.1v-.1a.091.091,0,0,0-.1-.1A.1.1,0,0,0,.066.14V.174H.017V.139C.017.047.091,0,.181,0A.135.135,0,0,1,.332.143V.43c0,.041,0,.114,0,.144H.287l0-.093h0a.154.154,0,0,1-.146.1C.064.585,0,.532,0,.426ZM.277.39v-.1H.186A.113.113,0,0,0,.057.417C.057.5.1.537.152.537A.136.136,0,0,0,.277.39Z" transform="translate(3.527 0.231)" fill="#c2341c"/>
            <path id="Path_2421-2" data-name="Path 2421" d="M0,.644V.39A.153.153,0,0,1,.147.216a.137.137,0,0,1,.13.1h0V0H.333V.789H.285l0-.105h0A.157.157,0,0,1,.137.8C.047.8,0,.732,0,.644ZM.279.572V.433c0-.1-.061-.17-.124-.17s-.1.032-.1.127V.634c0,.07.028.116.1.116S.279.682.279.572Z" transform="translate(3.981 0.016)" fill="#c2341c"/>
            <path id="Path_2422-2" data-name="Path 2422" d="M0,.385V.21C0,.074.073,0,.174,0s.16.074.16.2V.3H.056V.387c0,.1.044.146.129.146A.218.218,0,0,0,.308.492L.327.534A.217.217,0,0,1,.179.586C.073.586,0,.526,0,.385ZM.283.256V.19C.283.121.255.049.168.049S.056.123.056.192V.256H.283Z" transform="translate(4.443 0.232)" fill="#c2341c"/>
            <path id="Path_2423-2" data-name="Path 2423" d="M0,.644V.39A.153.153,0,0,1,.147.216a.137.137,0,0,1,.13.1h0V0H.333V.789H.285l0-.105h0A.157.157,0,0,1,.137.8C.047.8,0,.732,0,.644ZM.279.572V.433c0-.1-.061-.17-.124-.17s-.1.032-.1.127V.634c0,.07.028.116.1.116S.279.682.279.572Z" transform="translate(4.882 0.016)" fill="#c2341c"/>
          </g>
          <g id="layer1-2" data-name="layer1" transform="translate(0.005 0.004)">
            <path id="path3003-4-2" data-name="path3003-4" d="M1.4,0A1.279,1.279,0,0,0,.448.675,2.724,2.724,0,0,0,.005,2.261,2.308,2.308,0,0,0,1.388,4.567V4.189C.678,3.98.295,2.993.3,2.209A2.445,2.445,0,0,1,.681.921,1.231,1.231,0,0,1,1.4.366Zm.314.5A.951.951,0,0,0,1.3.6a1.562,1.562,0,0,0-.747.949A2.522,2.522,0,0,0,.707,3.368c.39.62.955.812,1.424.557a2.108,2.108,0,0,0,.26-.165l-.14-.317a1.791,1.791,0,0,1-.231.148C1.156,3.94.435,2.756.806,1.711A1.285,1.285,0,0,1,1.381.96a.779.779,0,0,1,.856.151,1.678,1.678,0,0,1,.424,1.6.282.282,0,0,1-.218.221c0-.13,0-.321,0-.477a2.212,2.212,0,0,0-.046-.52A.74.74,0,0,0,1.7,1.272a.613.613,0,0,0-.582.417,1.273,1.273,0,0,0,.183,1.453.6.6,0,0,0,.536.155.649.649,0,0,0,.168-.066c.048-.028.111-.066.088-.068v-.4a1.445,1.445,0,0,1-.187.132.427.427,0,0,1-.114.046.392.392,0,0,1-.354-.125C1.088,2.5,1.23,1.651,1.7,1.626c.2.031.341.147.411.433a1.752,1.752,0,0,1,.038.409c0,.26,0,.623,0,.623l0,.213h.112s.067,0,.147,0a.593.593,0,0,0,.131-.024.322.322,0,0,0,.146-.094.836.836,0,0,0,.187-.322,2.081,2.081,0,0,0,.073-.739A1.927,1.927,0,0,0,2.388.789,1.1,1.1,0,0,0,1.713.5Z" transform="translate(-0.005 -0.004)" fill="#c2341c"/>
            <path id="path4227-4-2" data-name="path4227-4" d="M2.947.008c-.123,0-.247.1-.309.3C2.489.774,2.45.881,2.3,1.388c-.1.339-.16.505-.292.93-.04.129-.238.757-.238.757l.493,0c.119-.384.13-.413.169-.55.1-.278.158-.5.266-.834.086-.262.13-.414.166-.524S2.9,1,2.951.993s.068.149.158.421c.053.161.149.466.184.574s.053.189.079.25a1.292,1.292,0,0,1,.057.165c.006.029-.085.012-.2.013-.218,0-.531,0-.531,0l-.207.66c.6.014,1.04-.021,1.636,0-.269-.866-.774-2.448-.8-2.529S3.268.372,3.253.318c-.06-.209-.183-.31-.306-.31ZM.576.056A.569.569,0,0,0,.367.121C.2.229.06.441.009,1.224A5.248,5.248,0,0,0,.083,2.5c.071.294.243.565.392.57H1.6L1.8,2.408s-.774.012-1.143.01c-.22,0-.177-.715-.186-1.133,0,0,.018-.561.147-.557.409.012,1.651,0,1.651,0L2.5.071.576.056ZM3.385.068c0,.017.225.663.218.664.243,0,.5-.014.764,0V3.074l.452,0V.726h.789c0-.316,0-.478,0-.652-.761,0-1.421,0-2.223-.005Z" transform="translate(3.326 0.741)"/>
          </g>
        </g>
      </g>
    </g>
  </g>
</svg>
