<?xml version="1.0" encoding="UTF-8"?>
<svg xmlns="http://www.w3.org/2000/svg" xmlns:xlink="http://www.w3.org/1999/xlink" width="50pt" height="157pt" viewBox="0 0 50 157" version="1.1">
<defs>
<clipPath id="clip1">
  <path d="M 5 13.871094 L 17 13.871094 L 17 25 L 5 25 Z M 5 13.871094 "/>
</clipPath>
<clipPath id="clip2">
  <path d="M 27 13.871094 L 38.890625 13.871094 L 38.890625 25 L 27 25 Z M 27 13.871094 "/>
</clipPath>
<clipPath id="clip3">
  <path d="M 27 36 L 38.890625 36 L 38.890625 48 L 27 48 Z M 27 36 "/>
</clipPath>
<clipPath id="clip4">
  <path d="M 27 58 L 38.890625 58 L 38.890625 70 L 27 70 Z M 27 58 "/>
</clipPath>
<clipPath id="clip5">
  <path d="M 27 80 L 38.890625 80 L 38.890625 92 L 27 92 Z M 27 80 "/>
</clipPath>
<clipPath id="clip6">
  <path d="M 27 102 L 38.890625 102 L 38.890625 114 L 27 114 Z M 27 102 "/>
</clipPath>
<clipPath id="clip7">
  <path d="M 27 124 L 38.890625 124 L 38.890625 136 L 27 136 Z M 27 124 "/>
</clipPath>
</defs>
<g id="surface1">
<g clip-path="url(#clip1)" clip-rule="nonzero">
<path style=" stroke:none;fill-rule:nonzero;fill:rgb(76.078431%,20.392157%,10.980392%);fill-opacity:1;" d="M 16.667969 19.417969 C 16.667969 22.480469 14.179688 24.964844 11.109375 24.964844 C 8.042969 24.964844 5.554688 22.480469 5.554688 19.417969 C 5.554688 16.351562 8.042969 13.871094 11.109375 13.871094 C 14.179688 13.871094 16.667969 16.351562 16.667969 19.417969 Z M 16.667969 19.417969 "/>
</g>
<g clip-path="url(#clip2)" clip-rule="nonzero">
<path style=" stroke:none;fill-rule:nonzero;fill:rgb(76.078431%,20.392157%,10.980392%);fill-opacity:1;" d="M 38.890625 19.417969 C 38.890625 22.480469 36.402344 24.964844 33.332031 24.964844 C 30.265625 24.964844 27.777344 22.480469 27.777344 19.417969 C 27.777344 16.351562 30.265625 13.871094 33.332031 13.871094 C 36.402344 13.871094 38.890625 16.351562 38.890625 19.417969 Z M 38.890625 19.417969 "/>
</g>
<path style=" stroke:none;fill-rule:nonzero;fill:rgb(76.078431%,20.392157%,10.980392%);fill-opacity:1;" d="M 16.667969 41.609375 C 16.667969 44.671875 14.179688 47.15625 11.109375 47.15625 C 8.042969 47.15625 5.554688 44.671875 5.554688 41.609375 C 5.554688 38.542969 8.042969 36.058594 11.109375 36.058594 C 14.179688 36.058594 16.667969 38.542969 16.667969 41.609375 Z M 16.667969 41.609375 "/>
<g clip-path="url(#clip3)" clip-rule="nonzero">
<path style=" stroke:none;fill-rule:nonzero;fill:rgb(76.078431%,20.392157%,10.980392%);fill-opacity:1;" d="M 38.890625 41.609375 C 38.890625 44.671875 36.402344 47.15625 33.332031 47.15625 C 30.265625 47.15625 27.777344 44.671875 27.777344 41.609375 C 27.777344 38.542969 30.265625 36.058594 33.332031 36.058594 C 36.402344 36.058594 38.890625 38.542969 38.890625 41.609375 Z M 38.890625 41.609375 "/>
</g>
<path style=" stroke:none;fill-rule:nonzero;fill:rgb(76.078431%,20.392157%,10.980392%);fill-opacity:1;" d="M 16.667969 63.796875 C 16.667969 66.863281 14.179688 69.347656 11.109375 69.347656 C 8.042969 69.347656 5.554688 66.863281 5.554688 63.796875 C 5.554688 60.734375 8.042969 58.25 11.109375 58.25 C 14.179688 58.25 16.667969 60.734375 16.667969 63.796875 Z M 16.667969 63.796875 "/>
<g clip-path="url(#clip4)" clip-rule="nonzero">
<path style=" stroke:none;fill-rule:nonzero;fill:rgb(76.078431%,20.392157%,10.980392%);fill-opacity:1;" d="M 38.890625 63.796875 C 38.890625 66.863281 36.402344 69.347656 33.332031 69.347656 C 30.265625 69.347656 27.777344 66.863281 27.777344 63.796875 C 27.777344 60.734375 30.265625 58.25 33.332031 58.25 C 36.402344 58.25 38.890625 60.734375 38.890625 63.796875 Z M 38.890625 63.796875 "/>
</g>
<path style=" stroke:none;fill-rule:nonzero;fill:rgb(76.078431%,20.392157%,10.980392%);fill-opacity:1;" d="M 16.667969 85.988281 C 16.667969 89.054688 14.179688 91.535156 11.109375 91.535156 C 8.042969 91.535156 5.554688 89.054688 5.554688 85.988281 C 5.554688 82.925781 8.042969 80.441406 11.109375 80.441406 C 14.179688 80.441406 16.667969 82.925781 16.667969 85.988281 Z M 16.667969 85.988281 "/>
<g clip-path="url(#clip5)" clip-rule="nonzero">
<path style=" stroke:none;fill-rule:nonzero;fill:rgb(76.078431%,20.392157%,10.980392%);fill-opacity:1;" d="M 38.890625 85.988281 C 38.890625 89.054688 36.402344 91.535156 33.332031 91.535156 C 30.265625 91.535156 27.777344 89.054688 27.777344 85.988281 C 27.777344 82.925781 30.265625 80.441406 33.332031 80.441406 C 36.402344 80.441406 38.890625 82.925781 38.890625 85.988281 Z M 38.890625 85.988281 "/>
</g>
<path style=" stroke:none;fill-rule:nonzero;fill:rgb(76.078431%,20.392157%,10.980392%);fill-opacity:1;" d="M 16.667969 108.179688 C 16.667969 111.242188 14.179688 113.726562 11.109375 113.726562 C 8.042969 113.726562 5.554688 111.242188 5.554688 108.179688 C 5.554688 105.117188 8.042969 102.632812 11.109375 102.632812 C 14.179688 102.632812 16.667969 105.117188 16.667969 108.179688 Z M 16.667969 108.179688 "/>
<g clip-path="url(#clip6)" clip-rule="nonzero">
<path style=" stroke:none;fill-rule:nonzero;fill:rgb(76.078431%,20.392157%,10.980392%);fill-opacity:1;" d="M 38.890625 108.179688 C 38.890625 111.242188 36.402344 113.726562 33.332031 113.726562 C 30.265625 113.726562 27.777344 111.242188 27.777344 108.179688 C 27.777344 105.117188 30.265625 102.632812 33.332031 102.632812 C 36.402344 102.632812 38.890625 105.117188 38.890625 108.179688 Z M 38.890625 108.179688 "/>
</g>
<path style=" stroke:none;fill-rule:nonzero;fill:rgb(76.078431%,20.392157%,10.980392%);fill-opacity:1;" d="M 16.667969 130.371094 C 16.667969 133.433594 14.179688 135.917969 11.109375 135.917969 C 8.042969 135.917969 5.554688 133.433594 5.554688 130.371094 C 5.554688 127.308594 8.042969 124.824219 11.109375 124.824219 C 14.179688 124.824219 16.667969 127.308594 16.667969 130.371094 Z M 16.667969 130.371094 "/>
<g clip-path="url(#clip7)" clip-rule="nonzero">
<path style=" stroke:none;fill-rule:nonzero;fill:rgb(76.078431%,20.392157%,10.980392%);fill-opacity:1;" d="M 38.890625 130.371094 C 38.890625 133.433594 36.402344 135.917969 33.332031 135.917969 C 30.265625 135.917969 27.777344 133.433594 27.777344 130.371094 C 27.777344 127.308594 30.265625 124.824219 33.332031 124.824219 C 36.402344 124.824219 38.890625 127.308594 38.890625 130.371094 Z M 38.890625 130.371094 "/>
</g>
</g>
</svg>
