<svg xmlns="http://www.w3.org/2000/svg" xmlns:xlink="http://www.w3.org/1999/xlink" width="629.367" height="405.566" viewBox="0 0 629.367 405.566">
  <defs>
    <filter id="Path_2948">
      <feOffset dy="3" input="SourceAlpha"/>
      <feGaussianBlur stdDeviation="3" result="blur"/>
      <feFlood flood-color="#c2341c" result="color"/>
      <feComposite operator="out" in="SourceGraphic" in2="blur"/>
      <feComposite operator="in" in="color"/>
      <feComposite operator="in" in2="SourceGraphic"/>
    </filter>
  </defs>
  <g id="salary-day" transform="translate(-153.9 -12.834)">
    <path id="Path_2943" data-name="Path 2943" d="M821.648,84.012c0,149.828-124.793,271.294-278.724,271.294S264.2,233.84,264.2,84.012,388.993,67.433,542.924,67.433,821.648-65.777,821.648,84.012Z" transform="translate(-66.81)" fill="#eb0101" opacity="0.1"/>
    <ellipse id="Ellipse_604" data-name="Ellipse 604" cx="314.683" cy="60.407" rx="314.683" ry="60.407" transform="translate(153.9 297.586)" fill="#e2e2e2"/>
    <path id="Path_2944" data-name="Path 2944" d="M845.455,406.627H466.9c-9.305,0-17.27-6.946-17.743-15.5L433.46,119.9c-.513-8.558,6.664-15.5,15.969-15.5H827.987c9.305,0,17.23,6.946,17.743,15.5l15.693,271.218C861.9,399.681,854.76,406.627,845.455,406.627Z" transform="translate(-169.317 -56.424)" fill="#f1a4a4"/>
    <path id="Path_2945" data-name="Path 2945" d="M1443.021,102.3h0c-1.262,10.976-11.947,19.88-23.815,19.88a22.964,22.964,0,0,1-3.706-.307c10.291-1.65,18.965-9.786,20.069-19.573Z" transform="translate(-764.163 -55.13)" fill="#d3d3d3"/>
    <path id="Path_2946" data-name="Path 2946" d="M746.519,406.308H365.635c-9.345,0-16.166-6.985-15.18-15.62L381.6,117.82c.986-8.635,9.384-15.62,18.729-15.62H781.217c9.345,0,16.166,6.985,15.18,15.62L765.248,390.688C764.262,399.323,755.864,406.308,746.519,406.308Z" transform="translate(-118.998 -55.069)" fill="#f7f7f7"/>
    <path id="Path_2947" data-name="Path 2947" d="M529.4,150.046c.434-3.838-2.6-6.946-6.742-6.946-4.179,0-7.886,3.109-8.319,6.946s2.6,6.946,6.742,6.946S528.965,153.884,529.4,150.046Zm84.063,0c.434-3.838-2.6-6.946-6.742-6.946s-7.886,3.109-8.319,6.946,2.6,6.946,6.742,6.946S613.028,153.884,613.461,150.046Zm84.1,0c.434-3.838-2.6-6.946-6.742-6.946s-7.886,3.109-8.32,6.946,2.6,6.946,6.742,6.946S697.13,153.884,697.563,150.046Zm84.063,0c.434-3.838-2.6-6.946-6.742-6.946-4.18,0-7.886,3.109-8.359,6.946-.434,3.838,2.6,6.946,6.742,6.946C777.447,156.993,781.193,153.884,781.626,150.046Zm84.063,0c.434-3.838-2.6-6.946-6.742-6.946-4.179,0-7.886,3.109-8.319,6.946s2.6,6.946,6.742,6.946C861.549,156.993,865.255,153.884,865.689,150.046Z" transform="translate(-218.295 -80.272)" fill="#0b4870"/>
    <g data-type="innerShadowGroup">
      <path id="Path_2948-2" data-name="Path 2948" d="M497.183,85.592c-13.6-2.264-22.435-13.356-20.937-26.366,1.7-14.776,16.087-26.788,32.135-26.788S536.1,44.451,534.4,59.226h-7.491c1.262-10.976-7.413-19.88-19.32-19.88s-22.632,8.942-23.855,19.88c-1.1,9.671,5.441,17.884,15.574,19.573a5.257,5.257,0,0,1-.237,3.838C498.169,85.055,497.183,85.592,497.183,85.592Zm84.93,0c-13.642-2.264-22.435-13.356-20.937-26.366,1.7-14.776,16.087-26.788,32.135-26.788s27.719,12.012,26.023,26.788h-7.452c1.262-10.976-7.413-19.88-19.32-19.88s-22.632,8.942-23.855,19.88C567.6,68.9,574.149,77.11,584.282,78.8a5.257,5.257,0,0,1-.237,3.838C583.06,85.055,582.113,85.592,582.113,85.592Zm84.891,0c-13.6-2.264-22.435-13.356-20.937-26.366,1.7-14.776,16.087-26.788,32.135-26.788s27.719,12.012,26.023,26.788h-7.492c1.262-10.976-7.413-19.88-19.32-19.88s-22.632,8.942-23.855,19.88C652.455,68.9,659,77.11,669.133,78.8a5.258,5.258,0,0,1-.237,3.838C667.95,85.055,667,85.592,667,85.592Zm84.891,0c-13.6-2.264-22.435-13.356-20.937-26.366,1.7-14.776,16.087-26.788,32.135-26.788s27.719,12.012,26.023,26.788h-7.492c1.262-10.976-7.413-19.88-19.32-19.88s-22.632,8.942-23.854,19.88c-1.1,9.671,5.441,17.884,15.574,19.573a5.257,5.257,0,0,1-.237,3.838C752.841,85.055,751.895,85.592,751.895,85.592ZM874.007,59.226h-7.491a13.867,13.867,0,0,0,.118-1.8,16.634,16.634,0,0,0-.2-2.84c-.079-.5-.158-1-.276-1.458a2.992,2.992,0,0,0-.236-.844c-1.853-6.448-7.452-11.283-14.786-12.626a22.264,22.264,0,0,0-3.982-.345c-11.908,0-22.593,8.9-23.855,19.88-1.1,9.671,5.441,17.884,15.575,19.573a5.257,5.257,0,0,1-.237,3.838c-.907,2.379-1.853,2.917-1.853,2.917C823.143,83.251,814.35,72.16,815.809,59.15,817.5,44.374,831.9,32.4,847.944,32.4c15.653,0,27.127,11.437,26.1,25.675A5.537,5.537,0,0,1,874.007,59.226Z" transform="translate(-195.148 -12.057)" fill="#c2341c"/>
      <g transform="matrix(1, 0, 0, 1, 153.9, 12.83)" filter="url(#Path_2948)">
        <path id="Path_2948-3" data-name="Path 2948" d="M497.183,85.592c-13.6-2.264-22.435-13.356-20.937-26.366,1.7-14.776,16.087-26.788,32.135-26.788S536.1,44.451,534.4,59.226h-7.491c1.262-10.976-7.413-19.88-19.32-19.88s-22.632,8.942-23.855,19.88c-1.1,9.671,5.441,17.884,15.574,19.573a5.257,5.257,0,0,1-.237,3.838C498.169,85.055,497.183,85.592,497.183,85.592Zm84.93,0c-13.642-2.264-22.435-13.356-20.937-26.366,1.7-14.776,16.087-26.788,32.135-26.788s27.719,12.012,26.023,26.788h-7.452c1.262-10.976-7.413-19.88-19.32-19.88s-22.632,8.942-23.855,19.88C567.6,68.9,574.149,77.11,584.282,78.8a5.257,5.257,0,0,1-.237,3.838C583.06,85.055,582.113,85.592,582.113,85.592Zm84.891,0c-13.6-2.264-22.435-13.356-20.937-26.366,1.7-14.776,16.087-26.788,32.135-26.788s27.719,12.012,26.023,26.788h-7.492c1.262-10.976-7.413-19.88-19.32-19.88s-22.632,8.942-23.855,19.88C652.455,68.9,659,77.11,669.133,78.8a5.258,5.258,0,0,1-.237,3.838C667.95,85.055,667,85.592,667,85.592Zm84.891,0c-13.6-2.264-22.435-13.356-20.937-26.366,1.7-14.776,16.087-26.788,32.135-26.788s27.719,12.012,26.023,26.788h-7.492c1.262-10.976-7.413-19.88-19.32-19.88s-22.632,8.942-23.854,19.88c-1.1,9.671,5.441,17.884,15.574,19.573a5.257,5.257,0,0,1-.237,3.838C752.841,85.055,751.895,85.592,751.895,85.592ZM874.007,59.226h-7.491a13.867,13.867,0,0,0,.118-1.8,16.634,16.634,0,0,0-.2-2.84c-.079-.5-.158-1-.276-1.458a2.992,2.992,0,0,0-.236-.844c-1.853-6.448-7.452-11.283-14.786-12.626a22.264,22.264,0,0,0-3.982-.345c-11.908,0-22.593,8.9-23.855,19.88-1.1,9.671,5.441,17.884,15.575,19.573a5.257,5.257,0,0,1-.237,3.838c-.907,2.379-1.853,2.917-1.853,2.917C823.143,83.251,814.35,72.16,815.809,59.15,817.5,44.374,831.9,32.4,847.944,32.4c15.653,0,27.127,11.437,26.1,25.675A5.537,5.537,0,0,1,874.007,59.226Z" transform="translate(-349.05 -24.89)" fill="#fff"/>
      </g>
    </g>
    <g id="Group_1174" data-name="Group 1174" transform="translate(327.266 92.379)">
      <path id="Path_2949" data-name="Path 2949" d="M594.225,453.9a.6.6,0,0,1-.631-.652L620.13,220.752a.8.8,0,0,1,.789-.652.6.6,0,0,1,.631.652L595.014,453.247A.8.8,0,0,1,594.225,453.9Zm74.442,0a.6.6,0,0,1-.631-.652l26.536-232.494a.8.8,0,0,1,.789-.652.6.6,0,0,1,.631.652L669.456,453.247A.873.873,0,0,1,668.667,453.9Zm74.4,0a.6.6,0,0,1-.631-.652l26.536-232.494a.8.8,0,0,1,.789-.652.6.6,0,0,1,.631.652L743.858,453.247A.835.835,0,0,1,743.07,453.9Zm74.4,0a.6.6,0,0,1-.631-.652l26.536-232.494a.8.8,0,0,1,.789-.652.6.6,0,0,1,.631.652L818.261,453.247A.8.8,0,0,1,817.472,453.9Z" transform="translate(-593.591 -220.1)" fill="#c2341c"/>
    </g>
    <g id="Group_1175" data-name="Group 1175" transform="translate(268.004 139.354)">
      <path id="Path_2950" data-name="Path 2950" d="M812.232,343.8h-352.5a.6.6,0,0,1-.631-.652.8.8,0,0,1,.789-.652h352.5a.6.6,0,0,1,.631.652A.8.8,0,0,1,812.232,343.8Zm-7.886,69.234H451.85a.6.6,0,0,1-.631-.652.8.8,0,0,1,.789-.652H804.5a.6.6,0,0,1,.631.652A.829.829,0,0,1,804.346,413.039Zm-7.925,69.272h-352.5a.6.6,0,0,1-.631-.652.8.8,0,0,1,.789-.652h352.5a.6.6,0,0,1,.631.652A.8.8,0,0,1,796.421,482.311Z" transform="translate(-443.291 -342.5)" fill="#c2341c"/>
    </g>
    <path id="Path_2951" data-name="Path 2951" d="M483.715,597.091c-14.944,0-25.826-11.206-24.249-24.946S474.45,547.2,489.393,547.2s25.826,11.206,24.249,24.946C512.1,585.885,498.659,597.091,483.715,597.091Z" transform="translate(-184.993 -329.286)" fill="#eb0101"/>
    <g id="Group_1176" data-name="Group 1176" transform="translate(266.785 342.227)">
      <path id="Path_2952" data-name="Path 2952" d="M470.991,945.066c-.158-4.644-.394-10.823-.591-15.466.118,3.185.434,11.82.591,15.121Z" transform="translate(-458.492 -907.155)" fill="#ffc910"/>
      <path id="Path_2953" data-name="Path 2953" d="M578.123,912.6c.2,5.718.434,11.4.631,17.116.158,4.375-5.441,8.981-17.073,12.933-25.077,8.558-68.646,10.9-97.311,5.219-15.377-3.032-23.342-7.791-23.539-12.857L440.2,917.9c.2,5.066,8.162,9.786,23.539,12.857,28.665,5.68,72.234,3.339,97.311-5.219C572.682,921.58,578.32,916.975,578.123,912.6Z" transform="translate(-440.2 -896.68)" fill="#eb0101"/>
      <path id="Path_2954" data-name="Path 2954" d="M578.123,912.7c.2,5.718.434,11.4.631,17.116.158,4.375-5.441,8.98-17.073,12.934-25.077,8.558-68.646,10.9-97.311,5.219-15.377-3.032-23.342-7.791-23.539-12.857L440.2,918c.2,5.066,8.162,9.786,23.539,12.857,28.665,5.68,72.234,3.339,97.311-5.219C572.682,921.642,578.32,917.037,578.123,912.7Z" transform="translate(-440.2 -896.742)" fill="#231f20" opacity="0.06"/>
      <path id="Path_2955" data-name="Path 2955" d="M554.585,874.219c28.665,5.68,31.543,17.232,6.466,25.79s-68.646,10.9-97.311,5.219S432.2,888,457.274,879.439C482.39,870.881,525.959,868.54,554.585,874.219Zm-83.038,28.323c23.736,4.721,59.814,2.763,80.593-4.337s18.374-16.656-5.362-21.338-59.814-2.763-80.593,4.337-18.374,16.656,5.362,21.338Z" transform="translate(-440.201 -871.118)" fill="#eb0101"/>
      <path id="Path_2956" data-name="Path 2956" d="M554.585,874.319c28.665,5.68,31.543,17.232,6.466,25.79s-68.646,10.9-97.311,5.219-31.543-17.232-6.466-25.79C482.39,870.98,525.959,868.639,554.585,874.319Zm-83.038,28.323c23.736,4.72,59.814,2.763,80.593-4.337s18.374-16.656-5.362-21.338-59.814-2.763-80.593,4.337-18.374,16.656,5.362,21.338Z" transform="translate(-440.201 -871.179)" fill="#fff" opacity="0.29"/>
      <path id="Path_2957" data-name="Path 2957" d="M565.073,881.965c23.736,4.721,26.141,14.277,5.362,21.338-20.779,7.1-56.857,9.019-80.593,4.337-23.736-4.721-26.141-14.277-5.362-21.338C505.219,879.2,541.336,877.245,565.073,881.965Z" transform="translate(-458.456 -876.215)" fill="#eb0101"/>
      <path id="Path_2958" data-name="Path 2958" d="M484.381,888.379c20.779-7.1,56.857-9.019,80.593-4.337,11.829,2.341,18.335,5.872,19.36,9.71,1.183-4.644-5.4-9.1-19.36-11.859-23.736-4.682-59.814-2.763-80.593,4.337-10.449,3.569-15.022,7.752-14,11.629C471.252,894.634,475.865,891.3,484.381,888.379Z" transform="translate(-458.398 -876.181)" fill="#231f20" opacity="0.11"/>
      <path id="Path_2959" data-name="Path 2959" d="M590.5,898.151l-6.309,2.149c2.523.691,3.706,1.574,3.549,2.571-.118,1-1.617,2.034-4.377,3.07l-6.466-1.266c1.538-.614,2.247-1.19,2.05-1.765s-1.262-1.036-3.154-1.42a26.159,26.159,0,0,0-6.585-.422,22.981,22.981,0,0,0-6.23,1.151,6.015,6.015,0,0,0-1.5.691c-.355.23-.513.461-.513.729-.039.5,1.143,1.113,3.509,1.919,1.42.46,2.445.844,3.076,1.113,2.208,1,3.194,1.957,2.878,2.955q-.414,1.5-4.495,2.878A57.333,57.333,0,0,1,542,914.731l-7.57,2.571-6.033-1.19,7.255-2.495c-3.194-.883-4.731-1.88-4.574-3.07.118-1.19,1.932-2.379,5.4-3.569l6.23,1.228c-2.208.844-3.233,1.573-3.036,2.264.158.652,1.538,1.267,4.14,1.765a30.232,30.232,0,0,0,7.531.461,26.15,26.15,0,0,0,7.137-1.3,11.937,11.937,0,0,0,1.814-.768,2.64,2.64,0,0,0,.907-.691c.473-.729-.631-1.535-3.233-2.418q-.651-.23-.946-.345c-3.194-1.113-4.85-2.187-5.008-3.185s1.183-2,4.061-2.955a44.526,44.526,0,0,1,10.606-2.111,55.13,55.13,0,0,1,11.553.192l6.23-2.111Z" transform="translate(-493.624 -887.067)" fill="#231f20" opacity="0.05"/>
      <path id="Path_2960" data-name="Path 2960" d="M590.5,891.851,584.192,894c2.523.691,3.706,1.573,3.549,2.571-.118,1-1.617,2.034-4.377,3.07l-6.466-1.266c1.538-.614,2.247-1.19,2.05-1.765s-1.262-1.075-3.154-1.42a26.162,26.162,0,0,0-6.585-.422,22.977,22.977,0,0,0-6.23,1.151,6.006,6.006,0,0,0-1.5.691c-.355.23-.513.461-.513.729-.039.5,1.143,1.113,3.509,1.919,1.42.461,2.445.844,3.076,1.113,2.208,1,3.194,1.957,2.878,2.955q-.414,1.5-4.495,2.878A57.333,57.333,0,0,1,542,908.431L534.433,911l-6.033-1.19,7.255-2.495c-3.194-.883-4.731-1.881-4.574-3.07.118-1.19,1.932-2.379,5.4-3.569l6.23,1.228c-2.208.844-3.233,1.573-3.036,2.264.158.653,1.538,1.266,4.14,1.765a30.237,30.237,0,0,0,7.531.461,26.145,26.145,0,0,0,7.137-1.3,11.913,11.913,0,0,0,1.814-.768,2.639,2.639,0,0,0,.907-.691c.473-.729-.631-1.535-3.233-2.418q-.651-.23-.946-.345c-3.194-1.151-4.85-2.188-5.008-3.185s1.183-2,4.061-2.955a44.538,44.538,0,0,1,10.606-2.111,55.142,55.142,0,0,1,11.553.192l6.23-2.111Z" transform="translate(-493.624 -883.185)" fill="#fff" opacity="0.43"/>
    </g>
    <g id="Group_1177" data-name="Group 1177" transform="translate(294.386 322.462)">
      <path id="Path_2961" data-name="Path 2961" d="M540.891,893.866c-.158-4.644-.394-10.823-.591-15.466.118,3.185.434,11.82.591,15.121Z" transform="translate(-528.432 -855.84)" fill="#ffc910"/>
      <path id="Path_2962" data-name="Path 2962" d="M648.123,861.4c.2,5.718.434,11.4.631,17.117.158,4.375-5.441,8.98-17.073,12.933-25.077,8.558-68.646,10.9-97.311,5.219-15.377-3.032-23.342-7.791-23.539-12.857L510.2,866.7c.2,5.066,8.162,9.786,23.539,12.857,28.665,5.68,72.234,3.339,97.311-5.219C642.642,870.38,648.281,865.775,648.123,861.4Z" transform="translate(-510.2 -845.365)" fill="#eb0101"/>
      <path id="Path_2963" data-name="Path 2963" d="M648.123,861.4c.2,5.718.434,11.4.631,17.117.158,4.375-5.441,8.98-17.073,12.933-25.077,8.558-68.646,10.9-97.311,5.219-15.377-3.032-23.342-7.791-23.539-12.857L510.2,866.7c.2,5.066,8.162,9.786,23.539,12.857,28.665,5.68,72.234,3.339,97.311-5.219C642.642,870.38,648.281,865.775,648.123,861.4Z" transform="translate(-510.2 -845.365)" fill="#231f20" opacity="0.06"/>
      <path id="Path_2964" data-name="Path 2964" d="M624.585,822.919c28.665,5.68,31.543,17.232,6.466,25.79s-68.646,10.9-97.311,5.219-31.543-17.232-6.466-25.79S595.92,817.24,624.585,822.919Zm-83.038,28.361c23.736,4.721,59.814,2.763,80.593-4.337s18.374-16.656-5.362-21.338-59.814-2.763-80.593,4.337c-20.779,7.062-18.374,16.618,5.362,21.338Z" transform="translate(-510.201 -819.741)" fill="#eb0101"/>
      <path id="Path_2965" data-name="Path 2965" d="M624.585,822.719c28.665,5.68,31.543,17.232,6.466,25.79s-68.646,10.9-97.311,5.219-31.543-17.232-6.466-25.79S595.92,817.039,624.585,822.719Zm-83.038,28.323c23.736,4.72,59.814,2.763,80.593-4.337s18.374-16.656-5.362-21.338-59.814-2.763-80.593,4.337-18.374,16.656,5.362,21.338Z" transform="translate(-510.201 -819.617)" fill="#fff" opacity="0.26"/>
      <path id="Path_2966" data-name="Path 2966" d="M634.973,830.7c23.736,4.72,26.141,14.277,5.362,21.338-20.779,7.138-56.857,9.057-80.593,4.375-23.736-4.721-26.142-14.277-5.362-21.338C575.159,827.932,611.236,826.014,634.973,830.7Z" transform="translate(-528.396 -824.869)" fill="#eb0101"/>
      <path id="Path_2967" data-name="Path 2967" d="M554.381,837.179c20.779-7.1,56.857-9.019,80.593-4.337,11.829,2.341,18.335,5.872,19.36,9.71,1.183-4.644-5.4-9.1-19.36-11.859-23.736-4.682-59.814-2.763-80.593,4.337-10.449,3.569-15.022,7.752-14,11.629C541.212,843.434,545.825,840.1,554.381,837.179Z" transform="translate(-528.398 -824.866)" fill="#231f20" opacity="0.11"/>
    </g>
    <g id="Group_1178" data-name="Group 1178" transform="translate(494.094 328.603)">
      <path id="Path_2970" data-name="Path 2970" d="M1047.491,909.566c-.158-4.644-.394-10.823-.591-15.466.119,3.185.434,11.82.591,15.121A.519.519,0,0,0,1047.491,909.566Z" transform="translate(-1034.992 -871.656)" fill="#ffc910"/>
      <path id="Path_2971" data-name="Path 2971" d="M1154.623,877.1c.2,5.718.434,11.4.631,17.117.158,4.375-5.441,8.98-17.073,12.933-25.077,8.558-68.646,10.9-97.311,5.219-15.377-3.032-23.342-7.791-23.539-12.857L1016.7,882.4c.2,5.066,8.162,9.786,23.539,12.857,28.665,5.68,72.234,3.339,97.311-5.219C1149.182,886.08,1154.781,881.475,1154.623,877.1Z" transform="translate(-1016.7 -861.18)" fill="#eb0101"/>
      <path id="Path_2972" data-name="Path 2972" d="M1154.623,877.2c.2,5.718.434,11.4.631,17.117.158,4.375-5.441,8.98-17.073,12.933-25.077,8.558-68.646,10.9-97.311,5.219-15.377-3.032-23.342-7.791-23.539-12.857L1016.7,882.5c.2,5.066,8.162,9.786,23.539,12.857,28.665,5.68,72.234,3.339,97.311-5.219C1149.182,886.142,1154.781,881.537,1154.623,877.2Z" transform="translate(-1016.7 -861.241)" fill="#231f20" opacity="0.06"/>
      <path id="Path_2973" data-name="Path 2973" d="M1131.085,838.719c28.665,5.68,31.543,17.232,6.466,25.79s-68.646,10.9-97.311,5.219-31.543-17.232-6.466-25.79S1102.42,833.039,1131.085,838.719Zm-83.037,28.323c23.736,4.72,59.814,2.763,80.593-4.337s18.374-16.656-5.362-21.338-59.814-2.763-80.593,4.337c-20.779,7.062-18.374,16.656,5.362,21.338Z" transform="translate(-1016.701 -835.617)" fill="#eb0101"/>
      <path id="Path_2974" data-name="Path 2974" d="M1131.085,838.719c28.665,5.68,31.543,17.232,6.466,25.79s-68.646,10.9-97.311,5.219-31.543-17.232-6.466-25.79S1102.42,833.039,1131.085,838.719Zm-83.037,28.323c23.736,4.72,59.814,2.763,80.593-4.337s18.374-16.656-5.362-21.338-59.814-2.763-80.593,4.337c-20.779,7.062-18.374,16.656,5.362,21.338Z" transform="translate(-1016.701 -835.617)" fill="#fff" opacity="0.24"/>
      <path id="Path_2975" data-name="Path 2975" d="M1141.473,846.465c23.736,4.721,26.141,14.277,5.362,21.338-20.779,7.1-56.857,9.019-80.593,4.337-23.736-4.72-26.141-14.277-5.362-21.338C1081.659,843.7,1117.736,841.745,1141.473,846.465Z" transform="translate(-1034.896 -840.716)" fill="#eb0101"/>
      <path id="Path_2976" data-name="Path 2976" d="M1060.881,852.879c20.779-7.1,56.857-9.019,80.593-4.337,11.829,2.341,18.334,5.872,19.36,9.71,1.183-4.644-5.4-9.1-19.36-11.859-23.736-4.682-59.814-2.763-80.593,4.337-10.449,3.569-15.022,7.753-14,11.629C1047.712,859.134,1052.325,855.8,1060.881,852.879Z" transform="translate(-1034.898 -840.681)" fill="#231f20" opacity="0.11"/>
    </g>
    <g id="Group_1179" data-name="Group 1179" transform="translate(402.461 347.024)">
      <path id="Path_2979" data-name="Path 2979" d="M814.991,957.966c-.158-4.644-.394-10.823-.591-15.466.118,3.185.434,11.82.591,15.121Z" transform="translate(-802.532 -919.902)" fill="#ffc910"/>
      <path id="Path_2980" data-name="Path 2980" d="M922.223,925.6c.2,5.718.434,11.4.631,17.117.158,4.375-5.441,8.981-17.073,12.933-25.077,8.558-68.646,10.9-97.311,5.219-15.377-3.032-23.342-7.791-23.539-12.857L784.3,930.9c.2,5.066,8.162,9.786,23.539,12.857,28.665,5.68,72.234,3.339,97.311-5.219C916.782,934.542,922.381,929.975,922.223,925.6Z" transform="translate(-784.3 -909.488)" fill="#eb0101"/>
      <path id="Path_2981" data-name="Path 2981" d="M922.223,925.6c.2,5.718.434,11.4.631,17.117.158,4.375-5.441,8.981-17.073,12.933-25.077,8.558-68.646,10.9-97.311,5.219-15.377-3.032-23.342-7.791-23.539-12.857L784.3,930.9c.2,5.066,8.162,9.786,23.539,12.857,28.665,5.68,72.234,3.339,97.311-5.219C916.782,934.581,922.381,929.975,922.223,925.6Z" transform="translate(-784.3 -909.488)" fill="#231f20" opacity="0.06"/>
      <path id="Path_2982" data-name="Path 2982" d="M898.685,887.119c28.665,5.68,31.543,17.232,6.466,25.79s-68.646,10.9-97.311,5.219-31.543-17.232-6.466-25.79S870.02,881.439,898.685,887.119Zm-83.038,28.361c23.736,4.721,59.814,2.763,80.593-4.337s18.374-16.656-5.362-21.338-59.814-2.763-80.593,4.337c-20.779,7.062-18.374,16.618,5.362,21.338Z" transform="translate(-784.301 -883.864)" fill="#eb0101"/>
      <path id="Path_2983" data-name="Path 2983" d="M898.685,886.719c28.665,5.68,31.543,17.232,6.466,25.79s-68.646,10.9-97.311,5.219-31.543-17.232-6.466-25.79S870.02,881.04,898.685,886.719Zm-83.038,28.323c23.736,4.721,59.814,2.763,80.593-4.337s18.374-16.656-5.362-21.338-59.814-2.763-80.593,4.337c-20.779,7.061-18.374,16.656,5.362,21.338Z" transform="translate(-784.301 -883.618)" fill="#fff" opacity="0.29"/>
      <path id="Path_2984" data-name="Path 2984" d="M909.073,894.893c23.736,4.72,26.142,14.277,5.362,21.338-20.779,7.1-56.857,9.019-80.593,4.337-23.736-4.721-26.141-14.277-5.362-21.338C849.259,892.13,885.336,890.211,909.073,894.893Z" transform="translate(-802.496 -888.989)" fill="#eb0101"/>
      <path id="Path_2985" data-name="Path 2985" d="M828.481,901.379c20.779-7.1,56.857-9.019,80.593-4.337,11.829,2.341,18.335,5.872,19.36,9.71,1.183-4.644-5.4-9.1-19.36-11.859-23.736-4.682-59.814-2.763-80.593,4.337-10.449,3.569-15.023,7.752-14,11.629C815.312,907.634,819.925,904.3,828.481,901.379Z" transform="translate(-802.498 -888.989)" fill="#231f20" opacity="0.11"/>
    </g>
    <g id="Group_1180" data-name="Group 1180" transform="translate(391.5 301.968)">
      <path id="Path_2988" data-name="Path 2988" d="M787.291,840.266c-.158-4.644-.394-10.823-.591-15.466.118,3.185.434,11.82.591,15.121A.519.519,0,0,0,787.291,840.266Z" transform="translate(-774.792 -802.317)" fill="#ffc910"/>
      <path id="Path_2989" data-name="Path 2989" d="M894.423,807.8c.2,5.718.434,11.4.631,17.117.158,4.375-5.441,8.98-17.073,12.933-25.077,8.558-68.646,10.9-97.311,5.219-15.377-3.032-23.342-7.791-23.539-12.857L756.5,813.1c.2,5.066,8.162,9.786,23.539,12.857,28.665,5.68,72.234,3.339,97.311-5.219C888.982,816.78,894.581,812.175,894.423,807.8Z" transform="translate(-756.5 -791.841)" fill="#eb0101"/>
      <path id="Path_2990" data-name="Path 2990" d="M894.423,807.8c.2,5.718.434,11.4.631,17.117.158,4.375-5.441,8.98-17.073,12.933-25.077,8.558-68.646,10.9-97.311,5.219-15.377-3.032-23.342-7.791-23.539-12.857L756.5,813.1c.2,5.066,8.162,9.786,23.539,12.857,28.665,5.68,72.234,3.339,97.311-5.219C888.982,816.78,894.581,812.175,894.423,807.8Z" transform="translate(-756.5 -791.841)" fill="#231f20" opacity="0.06"/>
      <path id="Path_2991" data-name="Path 2991" d="M870.885,769.319c28.665,5.68,31.543,17.232,6.466,25.79s-68.646,10.9-97.311,5.219-31.543-17.232-6.466-25.79S842.22,763.639,870.885,769.319Zm-83.038,28.361c23.736,4.721,59.814,2.763,80.593-4.337s18.374-16.656-5.362-21.338-59.814-2.763-80.593,4.337c-20.779,7.062-18.374,16.618,5.362,21.338Z" transform="translate(-756.501 -766.218)" fill="#eb0101"/>
      <path id="Path_2992" data-name="Path 2992" d="M870.885,769.347c28.665,5.68,31.543,17.232,6.466,25.79s-68.646,10.9-97.311,5.219-31.543-17.232-6.466-25.79S842.22,763.7,870.885,769.347Zm-83.038,28.361c23.736,4.721,59.814,2.763,80.593-4.337s18.374-16.656-5.362-21.338-59.814-2.763-80.593,4.337c-20.779,7.062-18.374,16.618,5.362,21.338Z" transform="translate(-756.501 -766.245)" fill="#fff" opacity="0.29"/>
      <path id="Path_2993" data-name="Path 2993" d="M881.273,777.165c23.736,4.721,26.141,14.277,5.362,21.338-20.779,7.1-56.857,9.019-80.593,4.337-23.736-4.721-26.141-14.277-5.362-21.338C821.459,774.4,857.536,772.445,881.273,777.165Z" transform="translate(-774.696 -771.377)" fill="#eb0101"/>
      <path id="Path_2994" data-name="Path 2994" d="M800.681,783.578c20.779-7.1,56.857-9.019,80.593-4.337,11.829,2.341,18.335,5.872,19.36,9.71,1.183-4.644-5.4-9.1-19.36-11.859-23.736-4.682-59.814-2.763-80.593,4.337-10.449,3.569-15.023,7.752-14,11.629C787.512,789.834,792.125,786.5,800.681,783.578Z" transform="translate(-774.698 -771.343)" fill="#231f20" opacity="0.11"/>
    </g>
    <g id="Group_1183" data-name="Group 1183" transform="translate(214.519 179.203)">
      <path id="Path_2997" data-name="Path 2997" d="M334.029,806.585h0c-2.839,13.2-1.5,31.24-2.129,41.141.158.038,3.864.5,3.864.5s8.832-41.755,10.409-49.738a7.765,7.765,0,0,0,.2-1.535c.394-6.025-5.2-6.333-8.32-1.343a21.75,21.75,0,0,0-1.419,2.686c-.158.384-.355.806-.513,1.228h0a37.508,37.508,0,0,0-1.38,4.183l-.039.154-.355,1.266-.039.115C334.226,805.7,334.108,806.125,334.029,806.585Z" transform="translate(-322.335 -659.418)" fill="#fcd2b1"/>
      <path id="Path_2998" data-name="Path 2998" d="M354.281,693.393c-.118,1.075-.71,6.256-1.419,12.4-.631,5.143-1.3,10.938-1.814,15.5-.394,3.454-.67,6.179-.789,7.484a17.874,17.874,0,0,1-.315,2.226v.038c-1.341,6.025-5.6,6.371-8.2,4.951a6.175,6.175,0,0,1-.986-.652,3.339,3.339,0,0,1-1.1-1.765h0c-.158-1.228-.315-2.917-.473-4.912v-.115c-.315-3.915-.591-8.942-.828-13.816-.276-6.025-.473-11.782-.513-15.044a2.466,2.466,0,0,0-.039-.537c-.039-10.017,9.424-16.426,15.3-13.317.079.038.118.077.2.115a.344.344,0,0,0,.237.115c.67.422.907,1.919.907,3.646C354.478,690.9,354.36,692.242,354.281,693.393Zm5.993,49.738h0c-.276,13.816,4.1,31.432,5.244,41.448.158,0,3.588-.461,3.588-.461s.67-43.636.71-52c0-.576-.039-1.113-.079-1.573-.71-6.064-5.757-5.028-7.728.652a28.254,28.254,0,0,0-.828,3.032c-.079.422-.158.883-.237,1.343h0c-.237,1.42-.394,2.917-.513,4.529v.153c-.039.461-.079.883-.079,1.343v.115A8.35,8.35,0,0,0,360.274,743.131Z" transform="translate(-325.909 -593.431)" fill="#fcd2b1"/>
      <path id="Path_2999" data-name="Path 2999" d="M347.9,663.455a3.428,3.428,0,0,1-2.287-1.919h0c-.355-1.19-.828-2.84-1.3-4.8V656.7l-.039-.038c-.946-3.8-2.09-8.712-3.154-13.509-1.3-5.91-2.484-11.629-3.075-14.891-.039-.192-.552-2.533-.591-2.725-1.814-10.055,6.23-16.618,12.1-14.7.079.038.158.038.237.077,1.183.461,1.5,4.49,1.774,7.215s2.247,30.971,2.76,36.075q.118,1.209.118,2.3C354.284,662.841,350.5,664.222,347.9,663.455ZM330.587,603.2s-.079-.269-3.509,2.495c-.591-1.266-.946-3.838-3.036-5.91-3.075-2.994-5.678-5.718-10.8-14.315a4.715,4.715,0,0,1-.552-3.569c1.222-5.1,4.731-17,4.731-17l1.853.461,6.585,1.65s-4.416,9.748-5.875,14.7a2.17,2.17,0,0,0,.118,1.573C323.253,589.692,330.587,603.2,330.587,603.2Z" transform="translate(-310.613 -519.397)" fill="#fcd2b1"/>
      <path id="Path_3000" data-name="Path 3000" d="M334.641,629.313s-7.57,9.364-6.821,18.805c.315,3.915,2.721,7.484,3.154,11.437.079.576,1.7,38.071,1.774,41.218,0,0,7.649,2.264,11.829,1.919,5.165-.422,17.822-.384,19.123-.384,0-1,0-55.3-10.094-74.108A133.4,133.4,0,0,1,334.641,629.313Z" transform="translate(-319.832 -558.403)" fill="#2f2e41"/>
      <path id="Path_3001" data-name="Path 3001" d="M363.2,548.172a15.8,15.8,0,0,1-4.061,7.637,12.34,12.34,0,0,0-.749,4.49v.038c-.118,2.648.039,5.526.591,6.141-3.036,2.571-13.958,4.644-18.965,1.151.513-4.337-1.459-13.893-2.8-18.728-.2-.729-.394-1.382-.552-1.881-1.262-3.684,11.513-16.042,11.513-16.042l6.545-2.878s5.875,2.072,7.925,3.953c-1.419,2.379-2.721,4.375.315,11.59A9.23,9.23,0,0,1,363.2,548.172Z" transform="translate(-325.169 -496.72)"/>
      <path id="Path_3002" data-name="Path 3002" d="M373.9,467.75s7.294,21.108-10.409,19.65c-12.972-1.5-3.154-12.012-3.076-12.665.039-.691,6.269-8.635,6.269-8.635Zm40.612,38.608c.118,1.42-.71,3.8-4.022,4.222a8.809,8.809,0,0,0-.946.5c-2.129,1.267-7.137,4.567-12.144,7.676-.118.077-.2.115-.315.192-.355.192-.67.422-.986.614-4.929,2.993-9.581,5.6-11.277,5.718-3.154-1.036-9.66-11.091-13.288-23.679a6.6,6.6,0,0,1,3.312-7.714,14.005,14.005,0,0,1,3.036,3.07c2.6,4.3,8.359,18.46,8.911,19.88,2.681-1.19,10.528-5.8,18.335-9.057a5.385,5.385,0,0,0,3.036-2.456,25.056,25.056,0,0,1,3.233-4.951c.67-.652,1.341-.461.079,2.763l-.315.576s2.878.768,3.194,2A1.768,1.768,0,0,1,414.514,506.359Z" transform="translate(-337.407 -458.514)" fill="#ffe3ca"/>
      <path id="Path_3003" data-name="Path 3003" d="M338.7,447.933c.039.038,1.3-.537,1.419-.576a4.93,4.93,0,0,1,3.154.115c2.563,1.075,3.825,4.72,3.233,7.253-.67,2.8-3.588,3.876-6.269,4.106a3.6,3.6,0,0,0-3,2.264c-.749,1.842.591,3.569.276,5.411-.237,1.3-1.3,1.842-2.011,2.84a2.882,2.882,0,0,0,.158,3.454c1.459,2.034,2.6,5.066.828,7.369a3.6,3.6,0,0,0-.434,3.608c.552,1.382,1.932,2.149,2.681,3.454a7.667,7.667,0,0,1,.276,7.1,7.155,7.155,0,0,1-5.954,3.531c-1.656.077-3.549-.23-5.086.422-1.38.614-2.129,2-3.509,2.687-2.76,1.3-6.861.614-8.28-2.3-.828-1.727-2.957-1.42-4.534-1.957a5.851,5.851,0,0,1-3.864-4.106,7.105,7.105,0,0,1,.473-4.222,10.52,10.52,0,0,1,1.538-2.418c.631-.768,1.459-1.574,1.38-2.648-.118-1.612-1.38-2.84-1.932-4.3a7.359,7.359,0,0,1-.552-2.763c0-2.878,2.09-4.989,4.495-6.371.2-.115.355-.192.552-.307,3.154-1.919,4.416-2.993,4.219-8.213-.237-5.219.276-13.24,12.617-14.852C332.229,446.091,336.724,446.359,338.7,447.933Z" transform="translate(-307.642 -446.334)" fill="#2f2e41"/>
      <path id="Path_3004" data-name="Path 3004" d="M394.2,661.2" transform="translate(-360.071 -578.739)" fill="#f2f2f2"/>
      <g id="Group_1181" data-name="Group 1181" transform="translate(38.298 190.189)">
        <path id="Path_3005" data-name="Path 3005" d="M418.584,946.16c-3.115.537-6.624,0-7.965.23-1.1.192-4.3.307-5.2.345s-.907-4.3.355-4.721a3.652,3.652,0,0,0,.789.192,8.764,8.764,0,0,0,3.667-.307c2.366.959,2.445,1.343,5.126,1.88a18.957,18.957,0,0,1,3.43,1C419.964,945.316,420.359,945.853,418.584,946.16Z" transform="translate(-404.774 -941.9)" fill="#0b4870"/>
      </g>
      <g id="Group_1182" data-name="Group 1182" transform="translate(7.431 186.389)">
        <path id="Path_3006" data-name="Path 3006" d="M339.307,940.136c-3.115-.5-6.23-2.187-7.57-2.418-1.1-.192-4.179-1.113-5.007-1.382S327.36,932,328.7,932a5.7,5.7,0,0,0,.71.461,8.636,8.636,0,0,0,3.549.921c1.893,1.65,1.814,2.072,4.18,3.454a19.448,19.448,0,0,1,2.878,2.072C340.884,939.791,341.042,940.443,339.307,940.136Z" transform="translate(-326.487 -932)"/>
      </g>
    </g>
    <g id="Group_1184" data-name="Group 1184" transform="translate(667.745 185.854)">
      <path id="Path_3007" data-name="Path 3007" d="M1542.927,530.519s-1.3,4.106,0,5.757c-3.115,2.379-8.714,1.65-8.714,1.65s1.7-1.689,0-7.407S1542.927,530.519,1542.927,530.519Z" transform="translate(-1503.701 -503.295)" fill="#fcd2b1"/>
      <path id="Path_3008" data-name="Path 3008" d="M1599.249,957.5c3.115-.269,6.19-1.881,7.531-2,1.1-.115,4.14-.883,5.008-1.075.828-.23-.67-5.181-2.011-5.335a7.111,7.111,0,0,1-.67.461,7,7,0,0,1-3.549.691c-1.893,1.766-1.814,2.264-4.14,3.646a15.009,15.009,0,0,0-2.839,2.149C1597.672,956.891,1597.514,957.658,1599.249,957.5Z" transform="translate(-1542.397 -762.799)" fill="#0b4870"/>
      <path id="Path_3009" data-name="Path 3009" d="M1523.744,729.287a9.488,9.488,0,0,0,.907,2.456c-2.405,2.648-4.416,1.228-4.416,1.228v-.345l-.592-2.571Zm-28.9-130.332s-1.5,15.2-4.416,20.3c-2.444,4.3-21.37,10.669-22.632,12.012-2.05,2.188-3.982-.154-6.348,1.113a20.359,20.359,0,0,1-3.825,1.036c-1.1.23-.513-1.382,2.839-3.991,1.932-1.036,5.323-.959,5.441-1.075s13.84-8.9,14.431-10.669S1483.013,596,1483.013,596Z" transform="translate(-1457.114 -545.212)" fill="#fcd2b1"/>
      <path id="Path_3010" data-name="Path 3010" d="M1487.747,959.851c3.036.691,6.466.115,7.807.422,1.1.23,4.219.461,5.086.5s1.025-5.1-.158-5.68a5.231,5.231,0,0,1-.789.23,7.242,7.242,0,0,1-3.588-.422c-2.366,1.075-2.444,1.573-5.086,2.188a16.618,16.618,0,0,0-3.391,1.151C1486.446,958.776,1486.052,959.429,1487.747,959.851Z" transform="translate(-1474.978 -766.373)" fill="#0b4870"/>
      <path id="Path_3011" data-name="Path 3011" d="M1514.9,948.5a8.842,8.842,0,0,0,.079,2.648c-3.115,1.765-4.574-.192-4.574-.192l.118-.345.276-2.61Z" transform="translate(-1489.39 -762.121)" fill="#fcd2b1"/>
      <path id="Path_3012" data-name="Path 3012" d="M1541.59,702.773s6.466-12.78-2.721-22.873c0,0-8.6,3.147-15.338,3.147a32.721,32.721,0,0,1-7.965-.691,161.682,161.682,0,0,0-2.129,24.447Zm-20.345,43.713h0c0,12.857-4.574,29.321-6.19,38.608a2.306,2.306,0,0,1-.512-.038,30.765,30.765,0,0,1-5.441-.691l.039-1c1.183-15.006.907-39.606,1.025-47.4a6.03,6.03,0,0,1,.158-1.5c.986-5.642,6.94-4.529,9.148.844a20.09,20.09,0,0,1,.907,2.84c.079.422.2.806.276,1.266h0a34.491,34.491,0,0,1,.513,4.222v.154c.039.422.039.844.079,1.266v1.42Z" transform="translate(-1488.602 -596.912)" fill="#2f2e41"/>
      <path id="Path_3013" data-name="Path 3013" d="M1532.548,727.379a2.122,2.122,0,0,1-.158.46c-1.419,5.45-5.323,18.46-8.044,26.289v.077c-.631,1.8-1.183,3.339-1.656,4.452h0a2.894,2.894,0,0,1-1.577,1.343,8.449,8.449,0,0,1-1.183.384c-3.076.614-7.531-.768-7.531-6.678a13.315,13.315,0,0,1,.158-2.111c.709-4.759,3.509-31.086,3.864-33.619.394-2.533,1.1-6.217,2.484-6.6C1525.924,709.495,1534.953,717.938,1532.548,727.379Z" transform="translate(-1490.601 -616.145)" fill="#2f2e41"/>
      <path id="Path_3014" data-name="Path 3014" d="M1536.232,825.726l1.38-2.226v.038a33.875,33.875,0,0,0-1.143,8.673v.154c0,.422.04.844.079,1.266v.077a6.6,6.6,0,0,1,0,1.3v.038c-.276,1.113-1.814-4.413-2.169-5.718-.039-.154-.079-.269-.079-.269l1.38-2.379Z" transform="translate(-1503.866 -685.401)" fill="#5146af"/>
      <path id="Path_3015" data-name="Path 3015" d="M1538.811,729.227c-1.419,5.45-5.323,18.46-8.044,26.289v.077a33.864,33.864,0,0,0-1.143,8.673v.154c.039.422.039.844.079,1.266v1.42c0,12.857-4.574,29.282-6.19,38.57a2.31,2.31,0,0,1-.512-.038s1.853-15.274,3.943-25.79a40.88,40.88,0,0,0-.631-18.114c-.236-.844-.394-1.3-.394-1.3l2.011-4.529c2.287-5.91,3.233-19.957,3.233-19.957-3.943-10.17-3.785-22.643-3.785-22.643l3.9.768,6.506,8.673Zm12.1,27.747c-4.376-4.567-11-2.917-8.4,3.876,2.8,7.292,11.553,27.594,16.087,41.986l.315.921a29.357,29.357,0,0,0,5.8-1.458c-2.011-9.288-2.878-25.1-7.531-36.344A29.568,29.568,0,0,0,1550.916,756.974Z" transform="translate(-1497.022 -617.494)" fill="#2f2e41"/>
      <path id="Path_3016" data-name="Path 3016" d="M1534,704.85c-.237-10.592,12.854-2.763,19.084,1.113,2.642,1.65,3.43,4.644,3.627,7.407.2,2.8,1.853,31.432,2.208,36.651.828,11.782-9.266,4.759-10.054,1.458C1546.928,743.189,1534.114,710.645,1534,704.85Z" transform="translate(-1503.68 -609.005)" fill="#2f2e41"/>
      <path id="Path_3017" data-name="Path 3017" d="M1511.033,490.382s-2.247,20.609,13.721,16.234c.828.115,5.678-1.075,6.427-7.33.71-6.256-2.957-12.857-3.273-13.087-.316-.192-10.37-.5-10.764-.5C1516.711,485.738,1511.033,490.382,1511.033,490.382Z" transform="translate(-1489.708 -477.243)" fill="#ffe3ca"/>
      <path id="Path_3018" data-name="Path 3018" d="M1519.2,482.06a3.715,3.715,0,0,1-1.814-4.337c.592-3.262.2-3.454-2.247-2.072s-14.746,7.906-12.617-7.33c1.42.806,5.914.691,6.821-1.19s11.395-7.023,15.377.5c2.76.115,5.914,3.185,5.6,9.211s-2.563,13.816-4.889,14.238-3.549-1.382-3.47-4.26c.118-1.5,4.574-3.454,1.34-7.906A2.641,2.641,0,0,0,1519.2,482.06Z" transform="translate(-1484.468 -463.663)" fill="#2f2e41"/>
      <path id="Path_3019" data-name="Path 3019" d="M1512.3,591.993s4.061,3.07,7.018,3.3l-1.538-17.193-1.656,4.222Z" transform="translate(-1490.541 -534.181)"/>
      <path id="Path_3020" data-name="Path 3020" d="M1520.1,598.3s.2.077.512.192c2.326.844,11.592,6.14,24.091,0a6.187,6.187,0,0,0,2.366-2.993s-2.05-4.49-2.445-17.577c-.395-13.049-.04-14.507-2.287-20.993-1.971-5.642-8.4-12.626-8.4-12.626s-5.993,3.646-8.162,3.646c-2.72,6.448-5.559,14.814-4.534,20.878.67,4.03-.039,15.773-.591,23.142C1520.337,595.727,1520.1,598.3,1520.1,598.3Z" transform="translate(-1495.265 -513.353)"/>
      <path id="Path_3021" data-name="Path 3021" d="M1500.9,634.9" transform="translate(-1483.635 -569.182)" fill="none" stroke="#ffc996" stroke-width="0.584"/>
      <path id="Path_3022" data-name="Path 3022" d="M1500.984,615.18s-3.47,14.891-7.058,19.573c-3,3.953-22.593,7.906-24.012,9.134-2.326,1.919-3.943-.652-6.466.307-.867.307-.513.729-1.617.806s-2.642-1.689,1.025-3.876c2.05-.806,5.4-.307,5.559-.384.158-.115,18.729-8.827,19.557-10.516s4.376-16.925,4.376-16.925Z" transform="translate(-1459.195 -555.872)" fill="#ffe3ca"/>
      <path id="Path_3023" data-name="Path 3023" d="M1545.167,580.3a40.182,40.182,0,0,1,0,16.311,39.749,39.749,0,0,1-13.366-1.574l2.405-12.012" transform="translate(-1502.352 -535.537)"/>
      <g id="Component_77" data-name="Component 77" transform="translate(29.532 45.779) rotate(3)">
        <g id="Group_683" data-name="Group 683" transform="translate(1.517 2.684)">
          <path id="Path_2413" data-name="Path 2413" d="M0,.356V.16C0,.06.093,0,.2,0S.393.054.393.146V.179h-.1V.154C.292.111.258.083.2.083S.114.113.115.162V.352c0,.056.036.082.092.082S.293.408.293.366V.339h.1V.372C.394.465.312.515.206.515S0,.466,0,.356Z" transform="translate(-0.002 -0.003)" fill="#fff"/>
          <path id="Path_2414" data-name="Path 2414" d="M.169,0H.3L.468.5H.356L.318.38H.145L.11.5h-.1ZM.295.3.232.1h0L.168.3Z" transform="translate(0.424 0.007)" fill="#fff"/>
          <path id="Path_2415" data-name="Path 2415" d="M.148.08H0V0H.407v.08H.26L.262.5H.15l0-.416Z" transform="translate(0.878 0.01)" fill="#fff"/>
          <path id="Path_2416" data-name="Path 2416" d="M0,0H.16c.1,0,.16.056.16.14A.129.129,0,0,1,.195.278L.339.5H.287L.149.284h-.1V.5H0ZM.148.251C.233.252.275.216.274.143S.239.035.153.035H.046V.251Z" transform="translate(1.504 0.012)" fill="#c2341c"/>
          <path id="Path_2417" data-name="Path 2417" d="M0,.243V.133A.125.125,0,0,1,.14,0,.116.116,0,0,1,.269.125V.192H.046V.245c0,.063.035.092.1.092a.206.206,0,0,0,.1-.026L.265.337A.2.2,0,0,1,.145.37C.06.37,0,.332,0,.243ZM.228.163V.121A.083.083,0,0,0,.136.032.084.084,0,0,0,.046.122v.04H.228Z" transform="translate(1.914 0.148)" fill="#c2341c"/>
          <path id="Path_2418" data-name="Path 2418" d="M0,.428,0,0H.044l0,.424c0,.024.013.041.048.041l.035,0V.493A.153.153,0,0,1,.08.5.069.069,0,0,1,0,.428Z" transform="translate(2.283 0.014)" fill="#c2341c"/>
          <path id="Path_2419" data-name="Path 2419" d="M0,.244V.128A.122.122,0,0,1,.137,0,.121.121,0,0,1,.274.127V.243A.12.12,0,0,1,.139.37.121.121,0,0,1,0,.244Zm.229,0V.124A.085.085,0,0,0,.136.033.084.084,0,0,0,.045.127V.243A.084.084,0,0,0,.141.338C.209.338.231.3.231.243Z" transform="translate(2.476 0.149)" fill="#c2341c"/>
          <path id="Path_2420" data-name="Path 2420" d="M0,.269C0,.188.08.16.144.159H.225V.095C.224.05.191.031.142.031S.055.049.055.089V.111H.016V.088C.016.031.075,0,.148,0s.121.027.121.09v.18c0,.026,0,.072,0,.09H.233L.23.3h0A.126.126,0,0,1,.112.37.1.1,0,0,1,0,.269ZM.225.247V.187H.152C.1.187.049.2.049.264A.072.072,0,0,0,.125.339.1.1,0,0,0,.225.247Z" transform="translate(2.829 0.15)" fill="#c2341c"/>
          <path id="Path_2421" data-name="Path 2421" d="M0,.407V.247A.108.108,0,0,1,.12.138.11.11,0,0,1,.225.2h0V0H.269l0,.5H.232l0-.066h0A.124.124,0,0,1,.113.507.1.1,0,0,1,0,.407ZM.227.362V.275a.107.107,0,0,0-.1-.107.072.072,0,0,0-.08.08V.4c0,.044.023.073.078.073A.1.1,0,0,0,.227.362Z" transform="translate(3.193 0.015)" fill="#c2341c"/>
          <path id="Path_2422" data-name="Path 2422" d="M0,.243V.133A.125.125,0,0,1,.14,0,.116.116,0,0,1,.269.125V.192H.046V.245c0,.063.035.092.1.092a.206.206,0,0,0,.1-.026L.265.337A.2.2,0,0,1,.145.37C.06.37,0,.332,0,.243ZM.228.163V.121A.083.083,0,0,0,.136.032.084.084,0,0,0,.046.122v.04H.228Z" transform="translate(3.565 0.152)" fill="#c2341c"/>
          <path id="Path_2423" data-name="Path 2423" d="M0,.407V.247A.108.108,0,0,1,.12.138.11.11,0,0,1,.225.2h0V0H.269l0,.5H.232l0-.066h0A.124.124,0,0,1,.113.507.1.1,0,0,1,0,.407ZM.227.362V.275a.107.107,0,0,0-.1-.107.072.072,0,0,0-.08.08V.4c0,.044.023.073.078.073A.1.1,0,0,0,.227.362Z" transform="translate(3.915 0.017)" fill="#c2341c"/>
        </g>
        <g id="layer1" transform="translate(0.02 0.014)">
          <path id="path3003-4" d="M1.133.014a1.039,1.039,0,0,0-.762.42,1.45,1.45,0,0,0-.352,1A1.5,1.5,0,0,0,1.134,2.883V2.646A1.278,1.278,0,0,1,.253,1.4,1.316,1.316,0,0,1,.56.589.98.98,0,0,1,1.137.242Zm.253.315a.942.942,0,0,0-.335.057,1.056,1.056,0,0,0-.6.6A1.28,1.28,0,0,0,.585,2.128a.976.976,0,0,0,1.144.353,1.787,1.787,0,0,0,.208-.1l-.113-.2a1.514,1.514,0,0,1-.185.093A.842.842,0,0,1,.662,1.087.855.855,0,0,1,1.121.615a.765.765,0,0,1,.687.1A.915.915,0,0,1,2.151,1.72a.207.207,0,0,1-.174.138c0-.082,0-.2,0-.3a1.1,1.1,0,0,0-.038-.327A.563.563,0,0,0,1.382.812a.494.494,0,0,0-.466.261.674.674,0,0,0,.15.914.578.578,0,0,0,.431.1.609.609,0,0,0,.135-.041C1.669,2.026,1.72,2,1.7,2V1.748a1.2,1.2,0,0,1-.15.082.4.4,0,0,1-.091.029.37.37,0,0,1-.284-.079.418.418,0,0,1,.2-.745.357.357,0,0,1,.331.273.875.875,0,0,1,.031.257c0,.163,0,.392,0,.392l0,.134h.089s.053,0,.118,0a.594.594,0,0,0,.1-.015.274.274,0,0,0,.117-.059.516.516,0,0,0,.149-.2,1.039,1.039,0,0,0,.057-.465A1.114,1.114,0,0,0,1.929.51a1.023,1.023,0,0,0-.543-.18Z" transform="translate(-0.02 -0.014)" fill="#c2341c"/>
          <path id="path4227-4" d="M2.373.03a.272.272,0,0,0-.247.186c-.119.295-.15.362-.272.68-.082.213-.128.317-.233.585l-.19.476.4,0c.095-.241.1-.26.134-.346.079-.174.126-.316.212-.524.068-.165.1-.26.132-.329S2.34.65,2.378.649s.055.094.128.265c.043.1.121.294.149.362s.043.119.064.158a.7.7,0,0,1,.046.1c.005.018-.068.007-.16.008-.175,0-.426,0-.426,0l-.165.415c.481.01.835-.011,1.313.006C3.107,1.419,2.7.423,2.679.372S2.631.259,2.619.225a.268.268,0,0,0-.246-.2ZM.47.056A.551.551,0,0,0,.3.1C.169.164.057.3.017.789a2.6,2.6,0,0,0,.061.8c.058.185.2.356.316.359l.9,0,.154-.417s-.621.006-.917,0C.36,1.54.393,1.092.385.828.385.828.4.476.5.478c.328.008,1.325,0,1.325,0L2.011.068.47.056ZM2.725.068c0,.011.181.417.176.418.195,0,.4-.008.613,0L3.519,1.96l.363,0,0-1.478H4.51c0-.2,0-.3,0-.41-.611,0-1.14,0-1.784-.007Z" transform="translate(2.658 0.45)" fill="#fff"/>
        </g>
      </g>
    </g>
    <g id="Group_1185" data-name="Group 1185" transform="translate(620.643 273)">
      <path id="Path_3024" data-name="Path 3024" d="M1429.8,743.7l13.485,1,.788.307-13.524-1Z" transform="translate(-1393.468 -723.374)" fill="#ee5a28"/>
      <path id="Path_3025" data-name="Path 3025" d="M1431.818,743.1l13.524,1-.118.537-13.524-1Z" transform="translate(-1394.619 -723.004)" fill="#ffab01"/>
      <path id="Path_3026" data-name="Path 3026" d="M1432,743.1l13.524,1,4.613,1.842-13.524-1Z" transform="translate(-1394.801 -723.004)" fill="#ffca10"/>
      <path id="Path_3027" data-name="Path 3027" d="M1429.774,715.605c2.445.192,5.717.422,8.122.614-1.459-.077-2.8-.192-4.889-.192-2.05,0-3.824.077-4.889.154-.631.038-2.524.154-4.929.5-2.129.269-3.43.537-4.889.844A25.067,25.067,0,0,1,1429.774,715.605Z" transform="translate(-1386.502 -706.025)" fill="#ffc910"/>
      <path id="Path_3028" data-name="Path 3028" d="M1399.607,717.314c-17.152-6.831-35.8,6.409-41.6,29.551-5.836,23.142,3.391,47.435,20.543,54.267s35.8-6.409,41.6-29.551C1425.985,748.477,1416.759,724.145,1399.607,717.314Z" transform="translate(-1348.923 -706.007)" fill="#eb0101"/>
      <path id="Path_3029" data-name="Path 3029" d="M1360.075,748.707c5.836-23.142,24.446-36.382,41.6-29.551a28.631,28.631,0,0,1,7.255,4.26,29.193,29.193,0,0,0-9.305-6.1c-17.151-6.831-35.8,6.409-41.6,29.551-4.929,19.611.946,40.067,13.288,50.007C1360.39,786.433,1355.422,767.205,1360.075,748.707Z" transform="translate(-1348.938 -706.007)" fill="#231f20" opacity="0.26"/>
      <path id="Path_3030" data-name="Path 3030" d="M1447.4,715.7c4.495.345,8.99.653,13.524,1a26.214,26.214,0,0,1,7.452,1.727l-13.524-1A26.527,26.527,0,0,0,1447.4,715.7Z" transform="translate(-1404.129 -706.12)" fill="#ffab01"/>
      <path id="Path_3031" data-name="Path 3031" d="M1391.3,694.11c20.74,8.251,31.819,37.572,24.8,65.55-7.018,27.939-29.532,43.9-50.233,35.653-20.74-8.251-31.819-37.572-24.8-65.55C1348.081,701.824,1370.595,685.859,1391.3,694.11Zm-23.224,92.529c17.152,6.831,35.8-6.409,41.6-29.551,5.836-23.142-3.391-47.435-20.542-54.3-17.152-6.831-35.8,6.409-41.6,29.551-5.836,23.142,3.351,47.474,20.543,54.3Z" transform="translate(-1338.443 -691.476)" fill="#eb0101"/>
      <path id="Path_3032" data-name="Path 3032" d="M1390,692.91c20.739,8.251,31.819,37.572,24.8,65.55-7.019,27.939-29.533,43.9-50.233,35.653-20.74-8.251-31.819-37.572-24.8-65.55C1346.781,700.624,1369.256,684.659,1390,692.91ZM1366.732,785.4c17.151,6.831,35.8-6.409,41.6-29.551,5.836-23.142-3.391-47.435-20.542-54.3-17.151-6.831-35.8,6.409-41.6,29.551-5.835,23.18,3.391,47.474,20.542,54.3Z" transform="translate(-1337.655 -690.737)" fill="#fff" opacity="0.26"/>
      <path id="Path_3033" data-name="Path 3033" d="M1449,692.2c4.495.345,8.99.652,13.524,1a30.6,30.6,0,0,1,8.99,2.111l-13.524-1A28.356,28.356,0,0,0,1449,692.2Z" transform="translate(-1405.098 -691.638)" fill="#eb0101"/>
      <path id="Path_3034" data-name="Path 3034" d="M1443.524,801.912c-4.5-.345-8.99-.652-13.525-1,17.9,1.343,35.25-13.816,41.282-37.764,7.018-27.939-4.1-57.3-24.8-65.55l13.524,1c20.74,8.251,31.819,37.572,24.8,65.55C1478.774,788.1,1461.385,803.216,1443.524,801.912Z" transform="translate(-1393.589 -694.966)" fill="#eb0101"/>
      <path id="Path_3035" data-name="Path 3035" d="M1531.052,826.306a63.041,63.041,0,0,0,6.388-16,68.756,68.756,0,0,0-1.144-37.8l-13.09.384a68.474,68.474,0,0,1,.71,36.421,61.343,61.343,0,0,1-7.216,17.424Z" transform="translate(-1446.104 -741.121)" fill="#231f20" opacity="0.22"/>
    </g>
    <path id="Path_3038" data-name="Path 3038" d="M1471.749,686.172l-.946.921a6.658,6.658,0,0,1-5.559,1.919,22.314,22.314,0,0,1-3.588-.691l-.71-.23a1.336,1.336,0,0,1-.71-2.034,4.936,4.936,0,0,1,2.878-2.034C1465.874,683.447,1471.789,681.951,1471.749,686.172Z" transform="translate(-791.116 -413.148)" fill="#ffe3ca"/>
  </g>
</svg>
