<svg id="security" xmlns="http://www.w3.org/2000/svg" xmlns:xlink="http://www.w3.org/1999/xlink" width="280" height="209" viewBox="0 0 280 209">
  <defs>
    <clipPath id="clip-path">
      <rect id="Rectangle_18" data-name="Rectangle 18" width="280" height="209" fill="#fff" stroke="#707070" stroke-width="1"/>
    </clipPath>
    <linearGradient id="linear-gradient" x1="1.731" y1="-0.048" x2="0.571" y2="0.473" gradientUnits="objectBoundingBox">
      <stop offset="0"/>
      <stop offset="1" stop-opacity="0"/>
    </linearGradient>
    <linearGradient id="linear-gradient-2" x1="-2.985" y1="0.854" x2="1.342" y2="0.469" xlink:href="#linear-gradient"/>
    <linearGradient id="linear-gradient-3" x1="-2.497" y1="1.805" x2="1.348" y2="0.131" xlink:href="#linear-gradient"/>
    <linearGradient id="linear-gradient-4" x1="-1.542" y1="1.024" x2="1.108" y2="0.345" xlink:href="#linear-gradient"/>
    <linearGradient id="linear-gradient-5" x1="-1.551" y1="1.515" x2="0.908" y2="0.298" xlink:href="#linear-gradient"/>
    <linearGradient id="linear-gradient-6" x1="-1.548" y1="1.518" x2="0.911" y2="0.298" xlink:href="#linear-gradient"/>
  </defs>
  <g id="Mask_Group_19" data-name="Mask Group 19" clip-path="url(#clip-path)">
    <g id="online_protection_1_" data-name="online_protection (1)" transform="translate(5.295 0.001)">
      <path id="Path_1987" data-name="Path 1987" d="M134.1,10.132a75.767,75.767,0,0,1,21.22,6.762c9.337,4.695,17.044,11.9,25.82,17.514,14.956,9.559,32.865,14.967,49.866,18.708,6.79,1.506,13.666,2.9,19.777,6.3,9.337,5.2,16.025,14.637,20.676,24.641,10.185,21.96,12.044,48.6,2.979,71.135-8.861,21.906-29.1,40.41-52.107,42.762-29.029,3.127-58.049,9.1-87.128,12.873-20.193,3.136-40.47,6.236-60.884,6.512-8.488.1-17.2-.339-25.285-3.216-15.176-5.425-28.884-16.606-34.826-32.57a54.336,54.336,0,0,1,1.163-40.4c3.4-7.742,8.675-14.575,11.145-22.7,2.232-7.341,1.986-15.091,1.647-22.69a59.069,59.069,0,0,1,2.5-20.917c4.023-13.8,10.364-26.993,19.318-37.969C61.021,23.29,76.215,13.116,92.944,9.838a97.553,97.553,0,0,1,19.6-1.452A133.5,133.5,0,0,1,134.1,10.132Z" transform="translate(-10.874 -8.35)" fill="#f0f0f0"/>
      <path id="Path_1988" data-name="Path 1988" d="M175.034,308.784a6.368,6.368,0,0,0,.467,2.6,4.242,4.242,0,0,0,1.8,1.782,6.851,6.851,0,0,0,5.271.543,1.053,1.053,0,0,0,.611-.383,1.021,1.021,0,0,0,.1-.552,4.145,4.145,0,0,0-1.375-2.6,8.856,8.856,0,0,1-1.9-2.281c-.849-1.71-.2-6.236-3.276-5.541C174.168,302.914,174.966,306.851,175.034,308.784Z" transform="translate(-97.182 -156.144)" fill="#ffbaa8"/>
      <path id="Path_1989" data-name="Path 1989" d="M174.143,321.373a2.069,2.069,0,0,0,.1,1.782c.535.659,6.052,4.258,9.77,1.363s-5.042-3.278-5.042-3.278Z" transform="translate(-96.715 -165.677)" fill="#c2341c"/>
      <path id="Path_1990" data-name="Path 1990" d="M174.444,315.79a.768.768,0,0,1,.993.276,3.147,3.147,0,0,0,2.954,1.078c1.205-.3,1.7-1.782,2.292-1.782s3.82,2.869,4,4.1-1.46,2.138-3.276,2.254-5.942-1.194-6.7-2.2A4.21,4.21,0,0,1,174.444,315.79Z" transform="translate(-96.796 -162.722)" fill="#fff"/>
      <path id="Path_1991" data-name="Path 1991" d="M152.8,312.232a6.368,6.368,0,0,0,.467,2.6,4.214,4.214,0,0,0,1.808,1.782,6.827,6.827,0,0,0,5.262.543,1.057,1.057,0,0,0,.628-.419,1.022,1.022,0,0,0,.1-.552,4.145,4.145,0,0,0-1.375-2.6,8.856,8.856,0,0,1-1.9-2.281c-.806-1.71-.2-6.236-3.276-5.532C151.933,306.4,152.731,310.334,152.8,312.232Z" transform="translate(-85.48 -157.863)" fill="#ffbaa8"/>
      <path id="Path_1992" data-name="Path 1992" d="M151.907,324.921a2.069,2.069,0,0,0,.1,1.782c.535.659,6.052,4.258,9.77,1.363s-5.042-3.278-5.042-3.278Z" transform="translate(-85.012 -167.461)" fill="#c2341c"/>
      <path id="Path_1993" data-name="Path 1993" d="M152.2,319.364a.759.759,0,0,1,.993.267,3.157,3.157,0,0,0,2.954,1.1c1.205-.3,1.7-1.782,2.3-1.782s3.811,2.869,3.989,4.1-1.46,2.138-3.276,2.254-5.942-1.194-6.7-2.2A4.192,4.192,0,0,1,152.2,319.364Z" transform="translate(-85.088 -164.523)" fill="#fff"/>
      <path id="Path_1994" data-name="Path 1994" d="M148.293,222.7s-.577,33.113,1.757,44.16l5.942.766,4.108-45.336Z" transform="translate(-83.164 -115.925)" fill="#473f47"/>
      <path id="Path_1995" data-name="Path 1995" d="M175.205,215.844s2.793,17.817-.594,46.548l-5.941.775-4.108-45.345Z" transform="translate(-91.76 -112.682)" fill="#473f47"/>
      <path id="Path_1996" data-name="Path 1996" d="M162.483,170.068c0,.6.076,1.2.076,1.782,0,3.305-.73,6.708.212,9.951a3.78,3.78,0,0,1,.255,2.209,2.606,2.606,0,0,1-1.316,1.327c-2.776,1.595-5.942,2.085-9.116,2.548-2.351.347-5.7,1.078-7.868-.249a4.18,4.18,0,0,1-1.545-2.673,53.124,53.124,0,0,1-1.468-10.423c0-.463-.059-.891-.085-1.372-.178-3.171-.246-6.334-.187-9.5,0-2.3.221-4.784,1.647-6.521,1.9-2.307,5.577-3.84,8.369-4.374a8.977,8.977,0,0,1,2.759-.143,11.319,11.319,0,0,1,3.718,1.327c1.392.722,2.623,1.327,3.3,2.762a20.433,20.433,0,0,1,1.553,5.247,20.028,20.028,0,0,1,.085,5.14c-.085.837-.289,1.666-.365,2.5C162.492,169.765,162.492,169.917,162.483,170.068Z" transform="translate(-79.581 -80.875)"/>
      <path id="Path_1997" data-name="Path 1997" d="M178.557,155.753l8.31,4.65,17.587-6.557,3.056,7.893s-16.127,8.659-19.242,8.695-11.306-2.343-11.306-2.343Z" transform="translate(-98.286 -81.508)"/>
      <path id="Path_1998" data-name="Path 1998" d="M188.866,173.742a34.9,34.9,0,0,1-6.171-2.984c.721,1.595,1.7,6.548,1.859,6.646a14.783,14.783,0,0,0,5.687,1.648,10.976,10.976,0,0,0,5.772-1.14,27.98,27.98,0,0,1,2.725-1.47c.56-.223,1.146-.347,1.7-.543a16.214,16.214,0,0,0,4.1-2.379,1.7,1.7,0,0,0,.849-1.06,1.44,1.44,0,0,0-.925-1.345,6.094,6.094,0,0,0-2.546-.561,11.006,11.006,0,0,0-3.463.08c-.721.214-1.256.891-1.961,1.256C194.451,172.824,191.073,174.009,188.866,173.742Z" transform="translate(-101.303 -89.858)" fill="#020202" opacity="0.1"/>
      <path id="Path_1999" data-name="Path 1999" d="M148.857,193.476c-.917.276-3.022-.6-3.718-.731a10.381,10.381,0,0,1-1.214-.4c-2.088-.543-2.334-6.69-2.546-8.347-.543-4.374-1.375-8.909-1.426-13.292a15.464,15.464,0,0,1,.552-5.007,5.719,5.719,0,0,1,3.132-3.653,1.51,1.51,0,0,1,.925-.1c1.265.339,1.528,2.539,1.749,3.563.382,1.871,1.248,2.726,2.13,4.223s.942,3.367,1.782,4.909a3.541,3.541,0,0,0,.849,1.122,3.7,3.7,0,0,0,2.377.526h5.992a1.825,1.825,0,0,1,1.367.356,2.138,2.138,0,0,1,.356,1.693l-.365,4.65a1.1,1.1,0,0,1-.144.579,1.042,1.042,0,0,1-.645.33,15.5,15.5,0,0,0-4.728,1.523,27,27,0,0,1-4.6,2.673,4.408,4.408,0,0,0-1.256.891,3,3,0,0,0-.6,1.987c0,.454.552,1.853.39,2.183a.612.612,0,0,1-.356.321Z" transform="translate(-78.796 -85.566)" fill="#020202" opacity="0.1"/>
      <path id="Path_2000" data-name="Path 2000" d="M163.707,138.341a1.955,1.955,0,0,1-1.282.677,6.416,6.416,0,0,1-1.239,0h-.229a.169.169,0,0,0-.246.2,15.65,15.65,0,0,0,0,2.6h0v.472a.933.933,0,0,1,0,.49.787.787,0,0,1-.5.339,3.5,3.5,0,0,1-1.12.2,4.783,4.783,0,0,1-2.309-.8,24.894,24.894,0,0,0-.221-4.454,24,24,0,0,1-.543-5.7,3.775,3.775,0,0,1,.764-2.04,3.459,3.459,0,0,1,2.691-1.016,6.647,6.647,0,0,1,3.692,1.06,1.548,1.548,0,0,1,.543,1.149c.144.748.255,1.506.34,2.263s.136,1.728.153,2.6a3.032,3.032,0,0,1-.492,1.96Z" transform="translate(-87.239 -69.165)" fill="#ffbaa8"/>
      <path id="Path_2001" data-name="Path 2001" d="M155.6,126.642c-.849.241-1.944,0-2.8.392a2.937,2.937,0,0,0-1.341,3.5c-.348.134-.416-.535-.688-.8s-.849.089-.925.552a2.982,2.982,0,0,0,.382,1.318,4.11,4.11,0,0,1,.17,2.592c-.059.2-.2.445-.39.392s-.331-.4-.45-.552a5.561,5.561,0,0,0-.62-.659c-.424-.392-.9-.739-1.341-1.122s-.6-.748-1.112-.891a9.249,9.249,0,0,0-1.46-.187,2.157,2.157,0,0,1-1.635-1.58,2.29,2.29,0,0,1,.616-2.241,1.513,1.513,0,0,0,.416-.463,1.474,1.474,0,0,0,.051-.641,3.442,3.442,0,0,1,1.511-2.806,5.324,5.324,0,0,1,3.039-.891,1.769,1.769,0,0,0,.688-.089,2.123,2.123,0,0,0,.552-.428,3.88,3.88,0,0,1,3.323-.927,4.032,4.032,0,0,1,2.788,2.112,3.21,3.21,0,0,1,.382,2.031A1.563,1.563,0,0,1,155.6,126.642Z" transform="translate(-80.577 -65.012)" fill="#ff681c"/>
      <path id="Path_2002" data-name="Path 2002" d="M163.885,148h-.229a.169.169,0,0,0-.246.2,15.65,15.65,0,0,0,0,2.6h0a3.49,3.49,0,0,1-2.292-3.688,13.593,13.593,0,0,0,2.793.891Z" transform="translate(-89.938 -78.121)" fill="#e0a091"/>
      <path id="Path_2003" data-name="Path 2003" d="M308.424,136.751c-3.641,71.643-49.323,90.369-49.323,90.369-50.715-31.715-50.46-93.648-50.46-93.648,32.322-9.158,50.808-27.893,51.386-28.508h0C272.079,123.4,308.424,136.751,308.424,136.751Z" transform="translate(-114.959 -56.93)" fill="#c2341c"/>
      <path id="Path_2004" data-name="Path 2004" d="M308.424,136.214c-3.641,71.643-49.323,90.369-49.323,90.369-50.715-31.715-50.46-93.648-50.46-93.648,32.339-9.14,50.825-27.848,51.4-28.472h0C272.079,122.9,308.424,136.214,308.424,136.214Z" transform="translate(-114.959 -56.678)" fill="url(#linear-gradient)"/>
      <path id="Path_2005" data-name="Path 2005" d="M195.1,177.146a13.168,13.168,0,0,0,1.205-1.051,12.422,12.422,0,0,1,3.09-2.147,5.737,5.737,0,0,1,3.624-.481c.263.053.577.223.543.508s-.187.3-.348.392a11.216,11.216,0,0,1-2.249,1,1.246,1.246,0,0,0-.849.552,1.623,1.623,0,0,0,.772-.1,8.1,8.1,0,0,1,2.962-.223c.093,0,.2,0,.255.125a.272.272,0,0,1-.153.347c-.951.793-2.377.739-3.285,1.595-.161.143-.28.445-.1.561a.341.341,0,0,0,.229,0,6.747,6.747,0,0,0,1.163-.241,5.406,5.406,0,0,1,1.893-.053.308.308,0,0,1,.221.107c.093.151-.1.321-.255.4l-3.285,1.506a7.646,7.646,0,0,0,1.358,0,1.809,1.809,0,0,1,1.273.428.1.1,0,0,1,.051.08c0,.062,0,.1-.093.125a4.229,4.229,0,0,1-1.7.535,5.047,5.047,0,0,0-1.044.2,4.718,4.718,0,0,0-.6.285,6.318,6.318,0,0,1-2.02.713,3.1,3.1,0,0,1-2.071-.356,3.112,3.112,0,0,0-.535-.285c-.679-.2-1.434.543-2.063.2a1.522,1.522,0,0,1-.492-.6c-.34-.588-1.477-2.227-.56-2.771a13.247,13.247,0,0,1,1.579-.535,7.124,7.124,0,0,0,1.485-.811Z" transform="translate(-106.036 -91.321)" fill="#ffbaa8"/>
      <path id="Path_2006" data-name="Path 2006" d="M159.963,183.647l11.238-1.131,1.816,5.755s-16.424,7.011-19.615,5.06-.229-5.131-.229-5.131S153.547,183.531,159.963,183.647Z" transform="translate(-85.107 -95.924)"/>
      <path id="Path_2007" data-name="Path 2007" d="M309.117,147.587c-3.217,63.144-43.475,79.652-43.475,79.652-44.7-27.955-44.477-82.539-44.477-82.539,28.494-8.071,44.782-24.588,45.291-25.1h0C277.067,135.863,309.117,147.587,309.117,147.587Z" transform="translate(-121.55 -64.291)" fill="#c2341c"/>
      <path id="Path_2008" data-name="Path 2008" d="M266.437,119.587l-.849,107.643c-44.7-27.955-44.477-82.539-44.477-82.539,28.494-8.071,44.782-24.588,45.291-25.1Z" transform="translate(-121.522 -64.282)" fill="url(#linear-gradient-2)"/>
      <ellipse id="Ellipse_466" data-name="Ellipse 466" cx="7.885" cy="8.276" rx="7.885" ry="8.276" transform="translate(136.206 93.175)" fill="#473f47"/>
      <path id="Path_2009" data-name="Path 2009" d="M294.147,232.11h8.5l-2.411-13.256h-3.1Z" transform="translate(-154.8 -110.017)" fill="#473f47"/>
      <path id="Path_2010" data-name="Path 2010" d="M214.8,190.1h10.143v-7.724h8.038" transform="translate(-113.042 -91.674)" fill="none" stroke="#fff" stroke-width="1.72" opacity="0.18"/>
      <path id="Path_2011" data-name="Path 2011" d="M219,214.554H232.2v16.855h8.267" transform="translate(-115.249 -107.855)" fill="none" stroke="#fff" stroke-width="1.72" opacity="0.18"/>
      <path id="Path_2012" data-name="Path 2012" d="M359,177.29H342.28v-9.951h-14.93" transform="translate(-172.274 -84.115)" fill="none" stroke="#fff" stroke-width="1.72" opacity="0.18"/>
      <path id="Path_2013" data-name="Path 2013" d="M356.734,220.646H340.446v17.523H328.962" transform="translate(-173.123 -110.918)" fill="none" stroke="#fff" stroke-width="1.72" opacity="0.18"/>
      <path id="Path_2014" data-name="Path 2014" d="M253.186,275.868h13.665v-6.735h8.267" transform="translate(-133.242 -135.298)" fill="none" stroke="#fff" stroke-width="1.72" opacity="0.18"/>
      <path id="Path_2015" data-name="Path 2015" d="M239.006,150.477a.893.893,0,0,0,.959-.2c.373-.454.076-1.14-.229-1.648.289-.232.7.062.925.374s.484.686.849.641.569-.57.475-.962a5.889,5.889,0,0,0-.552-1.087c.161-.232.518,0,.662.223s.34.561.6.5a.507.507,0,0,0,.263-.588,5.178,5.178,0,0,1-.144-.7c.45-.151.968.339,1.384.107a.686.686,0,0,0,.257-.483.7.7,0,0,0-.172-.523,1.666,1.666,0,0,0-.985-.49,4.063,4.063,0,0,0-2.716.339,30.559,30.559,0,0,0-2.945,1.14,5.833,5.833,0,0,0-2.249,1.782.413.413,0,0,0,.11.526.584.584,0,0,0,.39,0,2.777,2.777,0,0,1,1.969.347,9.208,9.208,0,0,0,1,.641Z" transform="translate(-129.01 -77.328)" fill="#ffbaa8"/>
      <path id="Path_2016" data-name="Path 2016" d="M280.417,129.9c-9.235-20.668-51.708-36.329-102.551-36.329-57.582,0-104.4,20.08-104.4,44.766S120.31,183.1,177.866,183.1c39.248,0,73.505-9.327,91.347-23.082a44.188,44.188,0,0,0,7.028-6.664,25.269,25.269,0,0,0,5.661-11.136,19.891,19.891,0,0,0,.39-3.884A20.514,20.514,0,0,0,280.417,129.9Zm-5,23.376a43.552,43.552,0,0,1-6.026,5.737c-17.468,13.88-51.946,23.341-91.542,23.341-57.183,0-103.713-19.742-103.713-44.018s46.531-44.027,103.73-44.027c50.2,0,92.178,15.216,101.693,35.349a20.165,20.165,0,0,1,2.02,8.677,17.743,17.743,0,0,1-.272,3.145A24.624,24.624,0,0,1,275.417,153.275Z" transform="translate(-43.815 -51.2)" fill="#fff"/>
      <path id="Path_2017" data-name="Path 2017" d="M283.591,136.3a20.406,20.406,0,0,0-.306-2.147,22.608,22.608,0,0,0-1.086-3.7l-.153-.053c-.535-.178-1.086-.339-1.63-.508-9.235-20.668-51.708-36.329-102.551-36.329-57.582,0-104.4,20.08-104.4,44.766S120.31,183.1,177.866,183.1c39.248,0,73.505-9.327,91.347-23.082a2.086,2.086,0,0,0,.484,1.479,44.458,44.458,0,0,0,8.632-8.436,26.7,26.7,0,0,0,4.516-8.757,21.281,21.281,0,0,0,.849-5.96A20.345,20.345,0,0,0,283.591,136.3ZM177.866,182.353c-57.183,0-103.713-19.742-103.713-44.018s46.514-44.027,103.713-44.027c50.2,0,92.178,15.216,101.693,35.349a1.988,1.988,0,0,0-1.443.258,18.993,18.993,0,0,1,2.046,8.419,17.978,17.978,0,0,1-.119,2.031c-.5,4.294-2.546,8.5-6.111,12.472a39.192,39.192,0,0,1-4.312,4.143,2.249,2.249,0,0,1,0,1.167c-.076.285-.161.57-.238.891C251.923,172.892,217.445,182.353,177.866,182.353Z" transform="translate(-43.815 -51.2)" fill="#c2341c" opacity="0.18"/>
      <path id="Path_2018" data-name="Path 2018" d="M280.259,130.406a1.988,1.988,0,0,0-1.443.258c-3.9-7.938-13.334-15.314-27.484-21.318-19.446-8.249-45.291-12.793-72.75-12.793s-53.329,4.543-72.775,12.793c-19.055,8.08-29.538,18.628-29.538,29.737s10.483,21.648,29.521,29.728c19.446,8.258,45.291,12.8,72.775,12.8s53.321-4.543,72.767-12.8a75.176,75.176,0,0,0,18.987-11.073,2.25,2.25,0,0,1,0,1.167c-.076.285-.161.57-.238.891-17.468,13.88-51.946,23.341-91.542,23.341-57.183,0-103.713-19.742-103.713-44.018s46.556-44.062,103.756-44.062C228.763,95.057,270.744,110.273,280.259,130.406Z" transform="translate(-44.532 -51.948)" fill="#c2341c" opacity="0.18"/>
      <path id="Path_2019" data-name="Path 2019" d="M280.6,128.955l-.153-.053c-.535-.178-1.086-.339-1.63-.508-9.235-20.668-51.708-36.329-102.551-36.329-57.582,0-104.4,20.08-104.4,44.766s46.845,44.766,104.4,44.766c39.248,0,73.505-9.327,91.347-23.082a2.086,2.086,0,0,0,.484,1.479,83.208,83.208,0,0,1-17.493,9.862c-19.921,8.534-46.327,13.229-74.337,13.229s-54.433-4.695-74.337-13.229c-20.32-8.713-31.507-20.445-31.507-33.024s11.17-24.312,31.49-33.015c19.9-8.543,46.344-13.238,74.354-13.238S230.7,95.272,250.6,103.815C266.591,110.675,276.929,119.405,280.6,128.955Z" transform="translate(-42.212 -49.695)" fill="#c2341c" opacity="0.18"/>
      <ellipse id="Ellipse_467" data-name="Ellipse 467" cx="81.679" cy="14.129" rx="81.679" ry="14.129" transform="translate(47.763 147.206)" fill="#c2341c" opacity="0.35"/>
      <path id="Path_2020" data-name="Path 2020" d="M404.756,149.08" transform="translate(-218.174 -79.112)" fill="#fff"/>
      <path id="Path_2021" data-name="Path 2021" d="M213.076,85.879H193.07V59.955h17.247l2.759,3.7Z" transform="translate(-101.603 -30.12)" fill="#fff"/>
      <path id="Path_2022" data-name="Path 2022" d="M209.331,88.961H189.325V63.037h17.247l2.759,3.7Z" transform="translate(-99.632 -31.669)" fill="#fff"/>
      <path id="Path_2023" data-name="Path 2023" d="M208.972,89.319H188.966V63.395h17.247l2.759,3.7Z" transform="translate(-99.443 -31.85)" fill="url(#linear-gradient-3)"/>
      <path id="Path_2024" data-name="Path 2024" d="M205.263,93.628H185.257V67.7H202.5l2.759,3.7Z" transform="translate(-97.491 -34.012)" fill="#fff"/>
      <path id="Path_2025" data-name="Path 2025" d="M221.667,67.7v3.661h2.759Z" transform="translate(-116.654 -34.012)" fill="url(#linear-gradient-4)"/>
      <path id="Path_2026" data-name="Path 2026" d="M225.376,63.395v3.768h2.759Z" transform="translate(-118.606 -31.85)" fill="url(#linear-gradient-5)"/>
      <path id="Path_2027" data-name="Path 2027" d="M229.48,59.955v3.768h2.759Z" transform="translate(-120.765 -30.12)" fill="url(#linear-gradient-6)"/>
      <g id="Q83r0t" transform="translate(217.385 78.029)">
        <path id="Path_2028" data-name="Path 2028" d="M490.79,197.606a2.012,2.012,0,0,1-1.256-1.025c-.2-.365-.39-.748-.594-1.114a1.821,1.821,0,0,0-1.927-1.042,1.909,1.909,0,0,0-1.7,1.461c-.127.437-.229.891-.373,1.31a2.038,2.038,0,0,1-2.546,1.416l-2.334-.722a2.09,2.09,0,0,1-1.27-1.043,2.27,2.27,0,0,1-.172-1.683c.11-.445.255-.891.356-1.318a1.977,1.977,0,0,0-.687-2.111,1.725,1.725,0,0,0-2.08-.214c-.365.187-.713.41-1.069.606a2.025,2.025,0,0,1-1.625.192,2.138,2.138,0,0,1-1.269-1.083c-.407-.775-.849-1.541-1.214-2.316a2.24,2.24,0,0,1-.2-1.7,2.124,2.124,0,0,1,1.052-1.316c.34-.2.7-.383,1.027-.588a1.939,1.939,0,0,0,.985-1.942,1.92,1.92,0,0,0-1.316-1.782c-.407-.143-.849-.249-1.248-.392a2.093,2.093,0,0,1-1.309-1.1,2.271,2.271,0,0,1-.108-1.754c.212-.775.424-1.55.645-2.325a2.033,2.033,0,0,1,2.436-1.541c.441.089.849.241,1.3.365a1.889,1.889,0,0,0,2.148-.664,2.122,2.122,0,0,0,.126-2.347c-.187-.347-.373-.695-.543-1.042a2.214,2.214,0,0,1-.155-1.635,2.1,2.1,0,0,1,1-1.26c.789-.472,1.587-.891,2.4-1.354a2.063,2.063,0,0,1,2.767.891c.212.383.4.775.611,1.158a1.785,1.785,0,0,0,1.867.989,1.856,1.856,0,0,0,1.655-1.408c.127-.4.229-.82.348-1.22a2.195,2.195,0,0,1,1.049-1.4,2.016,2.016,0,0,1,1.692-.132l2.173.668a2.111,2.111,0,0,1,1.321,1.051,2.3,2.3,0,0,1,.181,1.729c-.1.392-.221.793-.331,1.185a2.009,2.009,0,0,0,.637,2.209,1.814,1.814,0,0,0,2.2.187c.331-.187.662-.392.993-.57a2.025,2.025,0,0,1,1.61-.179,2.138,2.138,0,0,1,1.258,1.07c.424.793.849,1.595,1.256,2.4a2.242,2.242,0,0,1,.174,1.668,2.125,2.125,0,0,1-1.023,1.29c-.365.214-.747.4-1.112.624a2.037,2.037,0,0,0,.212,3.563,13.019,13.019,0,0,0,1.324.437,1.921,1.921,0,0,1,1.245.972,2.093,2.093,0,0,1,.147,1.621q-.331,1.336-.738,2.673a2.043,2.043,0,0,1-.993,1.315,1.877,1.877,0,0,1-1.6.1c-.39-.116-.772-.249-1.171-.347a1.773,1.773,0,0,0-1.961.748,1.926,1.926,0,0,0-.178,2.147c.2.392.416.775.611,1.158a2.251,2.251,0,0,1,.174,1.672,2.135,2.135,0,0,1-1.023,1.295c-.755.445-1.519.891-2.283,1.31a1.944,1.944,0,0,1-1.579.2ZM479.323,180a7.116,7.116,0,0,0,4.541,8.766A6.678,6.678,0,0,0,492.216,184a7.116,7.116,0,0,0-4.541-8.766,6.424,6.424,0,0,0-5.12.561A6.981,6.981,0,0,0,479.323,180Z" transform="translate(-469.783 -165.292)" fill="#c2341c"/>
      </g>
      <g id="Q83r0t-2" data-name="Q83r0t" transform="translate(217.385 78.029)" opacity="0.27">
        <path id="Path_2029" data-name="Path 2029" d="M490.79,197.606a2.012,2.012,0,0,1-1.256-1.025c-.2-.365-.39-.748-.594-1.114a1.821,1.821,0,0,0-1.927-1.042,1.909,1.909,0,0,0-1.7,1.461c-.127.437-.229.891-.373,1.31a2.038,2.038,0,0,1-2.546,1.416l-2.334-.722a2.09,2.09,0,0,1-1.27-1.043,2.27,2.27,0,0,1-.172-1.683c.11-.445.255-.891.356-1.318a1.977,1.977,0,0,0-.687-2.111,1.725,1.725,0,0,0-2.08-.214c-.365.187-.713.41-1.069.606a2.025,2.025,0,0,1-1.625.192,2.138,2.138,0,0,1-1.269-1.083c-.407-.775-.849-1.541-1.214-2.316a2.24,2.24,0,0,1-.2-1.7,2.124,2.124,0,0,1,1.052-1.316c.34-.2.7-.383,1.027-.588a1.939,1.939,0,0,0,.985-1.942,1.92,1.92,0,0,0-1.316-1.782c-.407-.143-.849-.249-1.248-.392a2.093,2.093,0,0,1-1.309-1.1,2.271,2.271,0,0,1-.108-1.754c.212-.775.424-1.55.645-2.325a2.033,2.033,0,0,1,2.436-1.541c.441.089.849.241,1.3.365a1.889,1.889,0,0,0,2.148-.664,2.122,2.122,0,0,0,.126-2.347c-.187-.347-.373-.695-.543-1.042a2.214,2.214,0,0,1-.155-1.635,2.1,2.1,0,0,1,1-1.26c.789-.472,1.587-.891,2.4-1.354a2.063,2.063,0,0,1,2.767.891c.212.383.4.775.611,1.158a1.785,1.785,0,0,0,1.867.989,1.856,1.856,0,0,0,1.655-1.408c.127-.4.229-.82.348-1.22a2.195,2.195,0,0,1,1.049-1.4,2.016,2.016,0,0,1,1.692-.132l2.173.668a2.111,2.111,0,0,1,1.321,1.051,2.3,2.3,0,0,1,.181,1.729c-.1.392-.221.793-.331,1.185a2.009,2.009,0,0,0,.637,2.209,1.814,1.814,0,0,0,2.2.187c.331-.187.662-.392.993-.57a2.025,2.025,0,0,1,1.61-.179,2.138,2.138,0,0,1,1.258,1.07c.424.793.849,1.595,1.256,2.4a2.242,2.242,0,0,1,.174,1.668,2.125,2.125,0,0,1-1.023,1.29c-.365.214-.747.4-1.112.624a2.037,2.037,0,0,0,.212,3.563,13.019,13.019,0,0,0,1.324.437,1.921,1.921,0,0,1,1.245.972,2.093,2.093,0,0,1,.147,1.621q-.331,1.336-.738,2.673a2.043,2.043,0,0,1-.993,1.315,1.877,1.877,0,0,1-1.6.1c-.39-.116-.772-.249-1.171-.347a1.773,1.773,0,0,0-1.961.748,1.926,1.926,0,0,0-.178,2.147c.2.392.416.775.611,1.158a2.251,2.251,0,0,1,.174,1.672,2.135,2.135,0,0,1-1.023,1.295c-.755.445-1.519.891-2.283,1.31a1.944,1.944,0,0,1-1.579.2ZM479.323,180a7.116,7.116,0,0,0,4.541,8.766A6.678,6.678,0,0,0,492.216,184a7.116,7.116,0,0,0-4.541-8.766,6.424,6.424,0,0,0-5.12.561A6.981,6.981,0,0,0,479.323,180Z" transform="translate(-469.783 -165.292)" fill="#020202"/>
      </g>
      <g id="Q83r0t-3" data-name="Q83r0t" transform="translate(216.58 78.454)">
        <path id="Path_2030" data-name="Path 2030" d="M498.443,183.577c-.433-.143-.891-.249-1.316-.437a2.032,2.032,0,0,1-.2-3.563c.356-.214.738-.41,1.1-.624a2.125,2.125,0,0,0,1.022-1.29,2.241,2.241,0,0,0-.174-1.668c-.407-.8-.849-1.6-1.256-2.388a2.138,2.138,0,0,0-1.258-1.07,2.025,2.025,0,0,0-1.61.179l-.993.57a1.814,1.814,0,0,1-2.2-.178c-.093-.089-.178-.178-.263-.276a2.006,2.006,0,0,1-.374-1.942.647.647,0,0,1,.068-.2c.085-.33.178-.65.255-.98a2.2,2.2,0,0,0-1.341-2.717l-.153-.053c-.535-.178-1.086-.339-1.63-.508l-.552-.169-.323-.071a1.988,1.988,0,0,0-1.443.258,2.263,2.263,0,0,0-.942,1.31c-.127.41-.229.82-.348,1.229a1.87,1.87,0,0,1-1.7,1.4,1.793,1.793,0,0,1-1.867-.98c-.221-.383-.4-.775-.611-1.167a2.047,2.047,0,0,0-2.759-.891c-.849.419-1.621.891-2.411,1.345a2.1,2.1,0,0,0-1,1.26,2.215,2.215,0,0,0,.155,1.635c.17.356.365.695.543,1.042a2.066,2.066,0,0,1-.127,2.352,1.857,1.857,0,0,1-2.147.668,12.823,12.823,0,0,0-1.3-.374,2.033,2.033,0,0,0-2.436,1.541c-.212.775-.433,1.55-.645,2.334a2.262,2.262,0,0,0,.112,1.753,2.083,2.083,0,0,0,1.314,1.089c.407.151.849.241,1.239.392a2.1,2.1,0,0,1,.34,3.724c-.34.2-.7.392-1.036.588a2.124,2.124,0,0,0-1.052,1.316,2.24,2.24,0,0,0,.2,1.7c.4.775.806,1.55,1.214,2.316a2.154,2.154,0,0,0,1.271,1.076,2.041,2.041,0,0,0,1.623-.185c.356-.2.7-.419,1.069-.615a1.741,1.741,0,0,1,2.08.214,2.036,2.036,0,0,1,.671.953,2.249,2.249,0,0,1,0,1.167c-.076.285-.161.57-.238.891l-.127.454a2.433,2.433,0,0,0,.416,2.031,2.032,2.032,0,0,0,1.027.7l2.334.713a2.046,2.046,0,0,0,2.546-1.416c.144-.428.246-.891.373-1.31a1.926,1.926,0,0,1,1.7-1.461,1.829,1.829,0,0,1,1.918,1.042c.2.365.39.748.586,1.122a2.087,2.087,0,0,0,2.852.891c.764-.437,1.528-.891,2.283-1.31a2.125,2.125,0,0,0,1.023-1.29,2.242,2.242,0,0,0-.174-1.668c-.2-.392-.424-.766-.611-1.158a1.908,1.908,0,0,1,.17-2.147,1.79,1.79,0,0,1,1.961-.757c.4.1.781.241,1.171.356a1.869,1.869,0,0,0,1.571-.119,2.035,2.035,0,0,0,.976-1.3c.28-.891.526-1.782.747-2.673a2.1,2.1,0,0,0-.091-1.64A1.938,1.938,0,0,0,498.443,183.577Zm-7.894,1.194a6.833,6.833,0,0,1-6.638,5.078,4.857,4.857,0,0,1-.806-.08,6.658,6.658,0,0,1-.908-.2,4.8,4.8,0,0,1-.594-.223,7.157,7.157,0,0,1-3.851-8.853A6.652,6.652,0,0,1,486,176.041a6.42,6.42,0,0,1,1.7.82,7.669,7.669,0,0,1,1.859,1.853,7.383,7.383,0,0,1,.959,2.076A7.289,7.289,0,0,1,490.549,184.771Z" transform="translate(-468.083 -166.148)" fill="#c2341c"/>
      </g>
      <g id="Component_71" data-name="Component 71" transform="matrix(0.985, -0.174, 0.174, 0.985, 69.81, 81.684)">
        <g id="Group_683" data-name="Group 683" transform="translate(1.999 5.103)">
          <path id="Path_2413" data-name="Path 2413" d="M0,.677V.3A.274.274,0,0,1,.271,0,.248.248,0,0,1,.524.273V.336H.389V.29A.119.119,0,0,0,.271.154C.194.154.15.211.15.3V.669C.15.775.2.826.273.826A.117.117,0,0,0,.389.694V.642H.524V.706A.247.247,0,0,1,.272.98.266.266,0,0,1,0,.677Z" transform="translate(0 0)" fill="#fff"/>
          <path id="Path_2414" data-name="Path 2414" d="M.22,0H.4L.618.95H.467L.418.722H.186L.138.95H0ZM.387.577.3.185h0L.217.577Z" transform="translate(0.575 0.015)" fill="#fff"/>
          <path id="Path_2415" data-name="Path 2415" d="M.2.153H0V0H.546V.153h-.2v.8H.2v-.8Z" transform="translate(1.177 0.016)" fill="#fff"/>
          <path id="Path_2416" data-name="Path 2416" d="M0,0H.214c.14,0,.214.106.214.266C.429.407.373.514.259.531L.451.948H.382L.2.543H.062V.948H0ZM.2.48C.31.48.367.411.367.271.367.152.32.065.2.065H.062V.48Z" transform="translate(2.017 0.016)" fill="#c2341c"/>
          <path id="Path_2417" data-name="Path 2417" d="M0,.463V.253C0,.089.078,0,.186,0S.358.089.358.235V.363H.06v.1C.06.585.107.641.2.641A.219.219,0,0,0,.33.59l.021.05A.219.219,0,0,1,.191.7C.077.7,0,.632,0,.463ZM.3.307V.227C.3.145.274.058.18.058S.06.147.06.23V.307H.3Z" transform="translate(2.567 0.275)" fill="#c2341c"/>
          <path id="Path_2418" data-name="Path 2418" d="M0,.819V0H.059V.81c0,.047.017.078.064.078A.261.261,0,0,0,.169.883v.06A.15.15,0,0,1,.1.957C.039.956,0,.907,0,.819Z" transform="translate(3.06 0.016)" fill="#c2341c"/>
          <path id="Path_2419" data-name="Path 2419" d="M0,.464V.242C0,.088.075,0,.182,0S.365.084.365.239V.46C.365.623.291.7.183.7S0,.62,0,.464Zm.306,0V.234C.306.138.271.06.181.06S.059.142.059.241V.461C.059.573.1.642.185.642S.306.561.306.46Z" transform="translate(3.32 0.275)" fill="#c2341c"/>
          <path id="Path_2420" data-name="Path 2420" d="M0,.512A.19.19,0,0,1,.188.3H.3V.177C.3.092.253.056.187.056A.109.109,0,0,0,.07.168V.209H.018V.166A.161.161,0,0,1,.194,0,.153.153,0,0,1,.356.172V.516c0,.049,0,.137.005.173H.307L.3.577h0A.167.167,0,0,1,.144.7C.068.7,0,.64,0,.512ZM.3.468V.354H.2C.136.354.061.38.061.5c0,.1.049.144.1.144C.235.645.3.571.3.468Z" transform="translate(3.794 0.275)" fill="#c2341c"/>
          <path id="Path_2421" data-name="Path 2421" d="M0,.774V.468C0,.33.076.259.157.259A.15.15,0,0,1,.3.379h0V0h.06V.948H.305L.3.822h0C.264.928.2.964.145.964.049.964,0,.879,0,.774ZM.3.686V.52C.3.406.233.315.166.315S.058.354.058.468V.762c0,.084.03.14.1.14S.3.819.3.686Z" transform="translate(4.283 0.016)" fill="#c2341c"/>
          <path id="Path_2422" data-name="Path 2422" d="M0,.463V.253C0,.089.078,0,.186,0S.358.089.358.235V.363h-.3v.1c0,.12.047.175.139.175A.219.219,0,0,0,.33.59l.021.05A.219.219,0,0,1,.191.7C.077.7,0,.632,0,.463ZM.3.307V.227C.3.145.274.058.18.058S.059.147.059.23V.307H.3Z" transform="translate(4.779 0.275)" fill="#c2341c"/>
          <path id="Path_2423" data-name="Path 2423" d="M0,.774V.468C0,.33.076.259.157.259A.15.15,0,0,1,.3.379h0V0h.06V.948H.305L.3.822h0C.264.928.2.964.145.964.049.964,0,.879,0,.774ZM.3.686V.52C.3.406.233.315.166.315S.058.354.058.468V.762c0,.084.03.14.1.14S.3.819.3.686Z" transform="translate(5.251 0.016)" fill="#c2341c"/>
        </g>
        <g id="layer1" transform="translate(0 0)">
          <path id="path3003-4" d="M1.5,0C1.007,0,.631.53.477.808A3.568,3.568,0,0,0,0,2.717c.033,1.614.835,2.6,1.486,2.772V5.033C.723,4.783.311,3.6.313,2.653A3.19,3.19,0,0,1,.728,1.1,1.361,1.361,0,0,1,1.5.435Zm.338.6a.934.934,0,0,0-.449.11,1.861,1.861,0,0,0-.8,1.142A3.361,3.361,0,0,0,.754,4.046c.419.746,1.026.976,1.531.668a2.262,2.262,0,0,0,.28-.2l-.15-.382a1.926,1.926,0,0,1-.248.178c-.93.423-1.7-1-1.3-2.258a1.544,1.544,0,0,1,.618-.9.769.769,0,0,1,.92.181,2.179,2.179,0,0,1,.455,1.926c-.04.147-.127.253-.234.266,0-.156,0-.386,0-.573a2.961,2.961,0,0,0-.049-.626c-.107-.563-.453-.806-.741-.8-.348.013-.479.2-.626.5a1.671,1.671,0,0,0,.2,1.748.6.6,0,0,0,.577.186.659.659,0,0,0,.181-.08c.051-.034.119-.08.095-.082V3.313a1.573,1.573,0,0,1-.2.158.433.433,0,0,1-.123.056.4.4,0,0,1-.38-.15c-.382-.375-.229-1.4.278-1.427.219.037.367.177.442.52a2.348,2.348,0,0,1,.041.492c0,.313,0,.749,0,.749l0,.256h.12s.072,0,.159,0a.579.579,0,0,0,.141-.03.345.345,0,0,0,.157-.113,1.037,1.037,0,0,0,.2-.388,2.786,2.786,0,0,0,.079-.889,2.452,2.452,0,0,0-.6-1.6A1.114,1.114,0,0,0,1.837.6Z" transform="translate(0 0)" fill="#c2341c"/>
          <path id="path4227-4" d="M3.167,0C3.034,0,2.9.122,2.834.357c-.161.565-.2.693-.368,1.3-.111.408-.173.608-.315,1.119-.043.155-.256.911-.256.911l.531,0c.128-.462.14-.5.182-.662.107-.334.17-.605.287-1,.092-.315.14-.5.179-.63s.045-.212.1-.215c.036,0,.073.18.17.507.057.193.16.561.2.691s.057.227.084.3a1.686,1.686,0,0,1,.061.2c.007.035-.091.014-.215.016-.234,0-.572,0-.572,0l-.224.795c.645.017,1.119-.027,1.76,0C4.143,2.653,3.6.75,3.575.653S3.512.437,3.5.372C3.431.121,3.3,0,3.167,0ZM.616.06S.433.089.391.139C.212.269.061.524.006,1.465A7.045,7.045,0,0,0,.084,3c.077.354.261.68.421.685H1.718l.208-.8S1.094,2.9.7,2.9c-.236,0-.19-.859-.2-1.363,0,0,.02-.675.159-.67C1.1.882,2.433.863,2.433.863L2.681.076ZM3.638.071c0,.02.241.8.234.8.261,0,.534-.017.822,0V3.686l.486,0V.862l.849,0c0-.38,0-.574,0-.785-.818,0-1.528,0-2.391,0Z" transform="translate(3.581 0.897)" fill="#fff"/>
        </g>
      </g>
      <path id="Path_2833" data-name="Path 2833" d="M10.533,1.841a4.446,4.446,0,0,1,4.453,4.626L14.8,19.184A4.786,4.786,0,0,1,10.2,23.951a4.446,4.446,0,0,1-4.453-4.626l.19-12.716A4.786,4.786,0,0,1,10.533,1.841Z" transform="translate(53.723 78.377) rotate(-19.53)"/>
    </g>
  </g>
  <g id="Component_70" data-name="Component 70" transform="translate(96.56 36.803)">
    <g id="Group_683-2" data-name="Group 683" transform="translate(2.65 5.103)">
      <path id="Path_2413-2" data-name="Path 2413" d="M0,.677V.3A.319.319,0,0,1,.359,0C.547,0,.694.1.694.273V.336H.515V.29A.138.138,0,0,0,.359.154.142.142,0,0,0,.2.3V.669A.144.144,0,0,0,.361.826C.453.826.515.775.515.694V.642H.694V.706C.694.884.547.98.36.98S0,.888,0,.677Z" transform="translate(0 0)"/>
      <path id="Path_2414-2" data-name="Path 2414" d="M.291,0H.532L.819.95h-.2L.554.722H.247L.183.95H0ZM.513.577.4.185h0L.288.577Z" transform="translate(0.762 0.015)"/>
      <path id="Path_2415-2" data-name="Path 2415" d="M.263.153H0V0H.723V.153H.461v.8h-.2v-.8Z" transform="translate(1.56 0.016)"/>
      <path id="Path_2416-2" data-name="Path 2416" d="M0,0H.284A.253.253,0,0,1,.568.266.242.242,0,0,1,.344.531L.6.948H.507L.263.543H.082V.948H0ZM.262.48C.411.48.486.411.486.271A.189.189,0,0,0,.272.065H.082V.48Z" transform="translate(2.673 0.016)" fill="#c2341c"/>
      <path id="Path_2417-2" data-name="Path 2417" d="M0,.463V.253A.232.232,0,0,1,.247,0,.213.213,0,0,1,.475.235V.363h-.4v.1c0,.12.062.175.184.175A.348.348,0,0,0,.438.59l.028.05A.345.345,0,0,1,.253.7.223.223,0,0,1,0,.463ZM.4.307V.227A.152.152,0,0,0,.238.058.157.157,0,0,0,.079.23V.307H.4Z" transform="translate(3.402 0.275)" fill="#c2341c"/>
      <path id="Path_2418-2" data-name="Path 2418" d="M0,.819V0H.078V.81C.078.857.1.889.162.889A.454.454,0,0,0,.224.883v.06A.255.255,0,0,1,.139.957.126.126,0,0,1,0,.819Z" transform="translate(4.055 0.016)" fill="#c2341c"/>
      <path id="Path_2419-2" data-name="Path 2419" d="M0,.464V.242A.225.225,0,0,1,.241,0,.221.221,0,0,1,.483.239V.46A.223.223,0,0,1,.242.7.221.221,0,0,1,0,.464Zm.406,0V.234A.155.155,0,0,0,.24.06C.12.06.078.142.078.241V.461c0,.112.049.181.168.181S.406.561.406.46Z" transform="translate(4.4 0.275)" fill="#c2341c"/>
      <path id="Path_2420-2" data-name="Path 2420" d="M0,.512C0,.357.137.3.249.3H.393V.177C.393.092.335.056.248.056S.093.09.093.168V.209H.024V.166C.024.056.129,0,.257,0S.472.052.472.172V.516c0,.049.005.137.007.173H.407L.4.577h0A.222.222,0,0,1,.191.7.181.181,0,0,1,0,.512ZM.393.468V.354H.263C.18.354.08.38.08.5A.131.131,0,0,0,.215.645.176.176,0,0,0,.393.468Z" transform="translate(5.028 0.275)" fill="#c2341c"/>
      <path id="Path_2421-2" data-name="Path 2421" d="M0,.774V.468A.2.2,0,0,1,.208.259a.193.193,0,0,1,.186.12h0V0H.474V.948H.4L.4.822h0a.221.221,0,0,1-.2.142A.179.179,0,0,1,0,.774ZM.4.686V.52A.2.2,0,0,0,.22.315.133.133,0,0,0,.077.468V.762A.124.124,0,0,0,.216.9.2.2,0,0,0,.4.686Z" transform="translate(5.676 0.016)" fill="#c2341c"/>
      <path id="Path_2422-2" data-name="Path 2422" d="M0,.463V.253A.232.232,0,0,1,.246,0,.213.213,0,0,1,.475.235V.363h-.4v.1c0,.12.062.175.184.175A.348.348,0,0,0,.438.59l.028.05A.345.345,0,0,1,.253.7.223.223,0,0,1,0,.463ZM.4.307V.227A.152.152,0,0,0,.238.058.157.157,0,0,0,.079.23V.307H.4Z" transform="translate(6.334 0.275)" fill="#c2341c"/>
      <path id="Path_2423-2" data-name="Path 2423" d="M0,.774V.468A.2.2,0,0,1,.208.259a.193.193,0,0,1,.186.12h0V0H.474V.948H.4L.4.822h0a.221.221,0,0,1-.2.142A.179.179,0,0,1,0,.774ZM.4.686V.52A.2.2,0,0,0,.22.315.133.133,0,0,0,.078.468V.762A.124.124,0,0,0,.216.9.2.2,0,0,0,.4.686Z" transform="translate(6.959 0.016)" fill="#c2341c"/>
    </g>
    <g id="layer1-2" data-name="layer1" transform="translate(0 0)">
      <path id="path3003-4-2" data-name="path3003-4" d="M1.987,0A1.837,1.837,0,0,0,.632.808,2.921,2.921,0,0,0,0,2.717,2.8,2.8,0,0,0,1.969,5.488V5.033A2.423,2.423,0,0,1,.415,2.653,2.642,2.642,0,0,1,.965,1.1,1.743,1.743,0,0,1,1.992.435Zm.448.6a1.571,1.571,0,0,0-.6.11A1.973,1.973,0,0,0,.775,1.854,2.605,2.605,0,0,0,1,4.046a1.655,1.655,0,0,0,2.029.668,3.119,3.119,0,0,0,.37-.2l-.2-.382a2.646,2.646,0,0,1-.329.178c-1.233.423-2.259-1-1.729-2.258a1.605,1.605,0,0,1,.819-.9,1.273,1.273,0,0,1,1.219.181,1.814,1.814,0,0,1,.6,1.926.377.377,0,0,1-.31.266c0-.156,0-.386,0-.573A2.258,2.258,0,0,0,3.4,2.323a1,1,0,0,0-.981-.8.876.876,0,0,0-.829.5,1.352,1.352,0,0,0,.26,1.748.965.965,0,0,0,.764.186,1.033,1.033,0,0,0,.24-.08c.068-.034.158-.08.125-.082V3.313a2.113,2.113,0,0,1-.267.158.679.679,0,0,1-.162.056.621.621,0,0,1-.5-.15c-.506-.375-.3-1.4.369-1.427A.641.641,0,0,1,3,2.47a1.791,1.791,0,0,1,.054.492c0,.313,0,.749,0,.749l.006.256h.159s.095,0,.21,0a.987.987,0,0,0,.187-.03.479.479,0,0,0,.208-.113.992.992,0,0,0,.266-.388A2.135,2.135,0,0,0,4.2,2.547a2.161,2.161,0,0,0-.8-1.6A1.72,1.72,0,0,0,2.435.6Z" transform="translate(0 0)" fill="#c2341c"/>
      <path id="path4227-4-2" data-name="path4227-4" d="M4.2,0a.492.492,0,0,0-.44.357c-.213.565-.268.693-.488,1.3-.147.408-.229.608-.417,1.119-.057.155-.34.911-.34.911l.7,0c.17-.462.186-.5.241-.662.142-.334.226-.605.38-1,.122-.315.186-.5.237-.63s.06-.212.128-.215c.048,0,.1.18.225.507.076.193.212.561.261.691s.075.227.112.3a1.394,1.394,0,0,1,.081.2c.009.035-.121.014-.285.016-.31,0-.757,0-.757,0l-.3.795c.855.017,1.483-.027,2.332,0C5.49,2.653,4.773.75,4.738.653S4.654.437,4.632.372A.48.48,0,0,0,4.2,0ZM.817.06a.925.925,0,0,0-.3.079C.281.269.081.524.008,1.465A5.345,5.345,0,0,0,.112,3c.1.354.346.68.558.685H2.276l.276-.8S1.45,2.9.924,2.9C.611,2.9.672,2.042.66,1.538c0,0,.026-.675.211-.67C1.454.882,3.224.863,3.224.863l.33-.787Zm4,.011c0,.02.319.8.31.8.346,0,.708-.017,1.089,0V3.686l.645,0V.862l1.124,0c.006-.38,0-.574,0-.785-1.084,0-2.025,0-3.169,0Z" transform="translate(4.746 0.897)"/>
    </g>
  </g>
</svg>
