<svg id="layer1" xmlns="http://www.w3.org/2000/svg" width="888.433" height="338.426" viewBox="0 0 888.433 338.426">
  <path id="path3003-4" d="M-790.436-30.158c-45.539,0-80.3,32.67-94.537,49.83-26.2,30.756-44.092,64.2-44.092,117.685,3.021,99.536,77.2,160.191,137.364,170.911V280.209c-70.569-15.434-108.62-88.633-108.393-146.783.683-45.709,26.557-83.863,38.3-95.529C-848.3,23.319-823.659,1.122-790.1-3.33Zm31.22,37.095c-14.005.054-28.13,1.935-41.516,6.809-36.29,13.215-62.408,41.543-74.29,70.419-17,40.827-12.859,96.157,15.645,135.188,38.7,46,94.844,60.179,141.539,41.188A227.5,227.5,0,0,0-692,248.28l-13.884-23.533a192.738,192.738,0,0,1-22.926,10.978c-85.991,26.055-157.57-61.7-120.562-139.2,6.853-17.441,25.6-43.374,57.134-55.747,10.9-4.276,53.77-12.54,85.04,11.13,30.754,20.778,61.237,71.165,42.042,118.758-3.664,9.085-11.779,15.607-21.657,16.392.1-9.633-.292-23.812-.215-35.357.128-19.09-2.068-30.592-4.568-38.6-9.88-34.723-41.839-49.675-68.46-49.245-32.193.778-44.268,12.107-57.845,30.951-26.625,39.794-13.709,86.041,18.126,107.762a74.2,74.2,0,0,0,53.311,11.459,78.746,78.746,0,0,0,16.709-4.91c4.73-2.116,10.992-4.912,8.741-5.033V174.129a152.506,152.506,0,0,1-18.607,9.772,51.76,51.76,0,0,1-11.325,3.447c-15.327,1.073-22.771-1.088-35.153-9.269C-821.393,154.927-807.238,92-760.375,90.11c20.249,2.275,33.9,10.913,40.88,32.061,1.881,6.437,3.948,15.6,3.769,30.352-.234,19.279-.146,46.183-.146,46.183l.386,15.784H-704.4s6.617.225,14.657-.057a77.213,77.213,0,0,0,13.009-1.823,34.969,34.969,0,0,0,14.485-6.98,61.884,61.884,0,0,0,18.573-23.923c5.605-12.6,8.849-30.47,7.333-54.825-2.878-46.236-25.26-75.1-55.717-98.862C-713.57,14.2-738.216,7.1-759.216,6.936Z" transform="translate(929.065 30.158)" fill="#c2341c"/>
  <path id="path4227-4" d="M568.356,151.831c-12.241.013-24.542,7.519-30.718,22.011-14.841,34.827-18.723,42.749-34.012,80.345-10.239,25.178-15.946,37.488-29.1,69.02-3.995,9.573-23.7,56.193-23.7,56.193l49.04.225c11.853-28.5,12.95-30.655,16.811-40.811,9.886-20.6,15.748-37.312,26.524-61.846,8.534-19.431,12.98-30.749,16.539-38.858,3.953-9.006,4.2-13.072,8.915-13.259,3.324-.132,6.761,11.083,15.69,31.251,5.279,11.923,14.819,34.58,18.237,42.6,3.232,7.579,5.233,14.028,7.811,18.556A80.29,80.29,0,0,1,616,329.5c.612,2.18-8.43.861-19.85.958-21.656.184-52.827-.075-52.827-.075l-20.665,49c59.608,1.03,103.421-1.642,162.657.263C658.617,315.4,608.552,198.1,606.1,192.1s-5.838-13.332-7.369-17.316c-5.953-15.487-18.137-22.963-30.378-22.95Zm-235.725,3.7s-16.985,1.811-20.8,4.846c-16.6,8.026-30.532,23.757-35.625,81.81-1.063,35.519-1.459,67.15,7.234,94.75,7.072,21.8,24.164,41.911,38.92,42.22H434.43l19.256-49.244s-76.9.929-113.6.826c-21.838-.061-17.567-52.984-18.39-84.045,0,0,1.833-41.6,14.688-41.337,40.68.838,164.134-.319,164.134-.319l22.992-48.549-190.879-.958Zm279.262.695c.11,1.257,22.281,49.138,21.616,49.262,24.128.137,49.352-1.034,75.954,0L709.43,379.1l44.964.169.085-174.288,78.433-.131c.436-23.425-.193-35.42,0-48.38-75.628-.277-141.25-.191-221.019-.244Z" transform="translate(55.363 -96.524)" fill="#fff"/>
</svg>
