<svg xmlns="http://www.w3.org/2000/svg" width="621.38" height="496.598" viewBox="0 0 621.38 496.598">
  <g id="Group_1212" data-name="Group 1212" transform="translate(-6.525 -1.151)">
    <g id="Group_1108" data-name="Group 1108" transform="translate(-1.121 -126.358) rotate(3)">
      <path id="Path_2901" data-name="Path 2901" d="M32.936,247.669c9.564,54.843,29.811,102.25,61.81,125.23,66.5,47.755,216.468,23.127,328.4-5.174C479.7,353.473,531.036,314.1,568.887,255.947Z" transform="translate(5.895 194.971)" fill="#f0f0f0" opacity="0.15"/>
      <path id="Path_2902" data-name="Path 2902" d="M619.016,83.619H557.6c-2.932,0-5.308-3.188-5.308-7.121s2.377-7.121,5.308-7.121H568.22c-2.932,0-5.308-3.188-5.308-7.121s2.376-7.121,5.308-7.121h-7.581c-2.932,0-5.308-3.188-5.308-7.121s2.377-7.121,5.308-7.121h32.054a68.993,68.993,0,0,0-25-9.246c-87.4-15.063-118.606-5.1-129.613,5.174C424.5,49.457,409.346,58.755,393.154,63.234c-53.926,14.923-154.774,32.884-246.18-5.75-45.43-19.217-79.2,13.245-99.433,67.467H629.677c-.76-15.758-3.036-30.3-7.212-43.047A4.581,4.581,0,0,1,619.016,83.619Z" transform="translate(6.755 100.889)" fill="#f0f0f0" opacity="0.15"/>
      <path id="Path_2903" data-name="Path 2903" d="M28.087,167.1a485.628,485.628,0,0,0,2.38,95.68l539.19,26.453a367.3,367.3,0,0,0,37.464-76.647Zm213.256,68.258H230.727c2.932,0,5.308,3.188,5.308,7.122s-2.377,7.121-5.308,7.121H169.314c-2.932,0-5.308-3.188-5.308-7.121s2.377-7.122,5.308-7.122h10.617c-2.932,0-5.308-3.188-5.308-7.121s2.377-7.122,5.308-7.122H172.35c-2.932,0-5.308-3.188-5.308-7.121s2.377-7.122,5.308-7.122h61.413c2.932,0,5.308,3.188,5.308,7.122s-2.377,7.121-5.308,7.121h7.581c2.932,0,5.308,3.188,5.308,7.122s-2.377,7.121-5.308,7.121Z" transform="translate(5.532 161.088)" fill="#f0f0f0" opacity="0.15"/>
      <path id="Path_2904" data-name="Path 2904" d="M630.848,95.394,42.179,114.611C35.022,139.3,30.3,167.215,28.1,196.159H620.535a438.377,438.377,0,0,0,8.556-51.983A329.6,329.6,0,0,0,630.848,95.394ZM147.606,158.338H136.989c2.932,0,5.308,3.188,5.308,7.121s-2.377,7.121-5.308,7.121H75.577c-2.932,0-5.308-3.188-5.308-7.121s2.377-7.121,5.308-7.121H86.193c-2.932,0-5.308-3.188-5.308-7.122s2.377-7.121,5.308-7.121H78.612c-2.932,0-5.308-3.188-5.308-7.121s2.377-7.121,5.308-7.121h61.413c2.932,0,5.308,3.188,5.308,7.121s-2.377,7.121-5.308,7.121h7.581c2.932,0,5.308,3.188,5.308,7.121S150.538,158.338,147.606,158.338Z" transform="translate(5.61 130.932)" fill="#f0f0f0" opacity="0.15"/>
    </g>
    <g id="undraw_message_sent_1030" transform="translate(33.435 65.95)">
      <path id="Path_2872" data-name="Path 2872" d="M727.607,349.35l4.788-.882c.459-.086.915-.19,1.374-.279-15.61-10.321-22.425-30.784-16.412-49.277s23.251-30.081,41.511-27.906l-6.276,15.908,14.87-13.83a.641.641,0,0,1,.1.036c20.478,7.682,31.232,31.593,24.018,53.406-.248.754-.545,1.474-.829,2.2a46.926,46.926,0,0,0,11.509-8.211c6.649-6.786,10.291-16.15,14.362-27.688,8.065-22.862,15.83-46.056,23.285-69.3-16.985-9.79-24.773-31.277-18.37-50.685.4-1.209.862-2.373,1.353-3.516.123-.286.246-.57.374-.852.5-1.1,1.025-2.17,1.6-3.2.094-.169.2-.327.3-.494q.754-1.3,1.59-2.529c.208-.307.415-.613.629-.913.632-.88,1.286-1.737,1.976-2.554.23-.274.475-.529.712-.8q.8-.894,1.634-1.734c.295-.295.587-.592.889-.876.078-.073.15-.153.228-.225l.011.016a37.458,37.458,0,0,1,50.261-1.2l-8.167,20.7,14.7-13.665a43.834,43.834,0,0,1,1.453,49.314l.041.014c-.161.251-.343.481-.508.728q-.465.695-.952,1.365c-.418.573-.851,1.126-1.294,1.673-.334.412-.664.828-1.012,1.224-.509.58-1.042,1.129-1.579,1.675-.314.319-.613.653-.936.96q-1.267,1.206-2.623,2.289c-.317.253-.651.476-.975.718-.634.475-1.272.944-1.931,1.377-.408.269-.828.515-1.245.768-.6.366-1.212.721-1.833,1.053-.44.235-.883.458-1.331.676-.638.309-1.283.6-1.935.87-.438.183-.873.369-1.317.535-.732.275-1.475.513-2.222.742-.377.116-.748.248-1.129.351-1.121.3-2.255.564-3.4.762-.216.037-.435.052-.652.085-.951.147-1.906.266-2.87.339-.414.031-.831.036-1.246.053-.779.032-1.558.049-2.342.031-.457-.01-.914-.035-1.372-.063q-1.145-.069-2.291-.212c-.452-.056-.9-.111-1.355-.184-.819-.132-1.637-.305-2.455-.495-.054-.012-.108-.02-.161-.033q-4.72,14.71-9.614,29.356a37.8,37.8,0,0,1,29.494-10.588A38.645,38.645,0,0,1,897.5,261.978l-13.591,16.009,18.4-7.824a44.225,44.225,0,0,1,1.573,31.876,42.1,42.1,0,0,1-4.993,10.29c-9.3,14.016-25.7,20.561-41.358,16.511s-27.411-17.875-29.644-34.874c-.346.984-.68,1.98-1.026,2.963-3.592,10.178-8.061,22.845-17.036,32-6.084,6.207-13.569,10.145-20.75,13.475q-7.015,3.252-14.216,6.012a37.733,37.733,0,0,1-17.593,5.972,229.266,229.266,0,0,1-22.988,5.557l-4.828.886c-4.339.792-8.787,1.607-13.2,2.546.636.2,1.272.393,1.9.63,16.143,6.052,26.758,22.529,26.251,40.75l-30.265,9.895,27.386,4.632c-5.092,13.33-16.252,22.943-29.556,25.458A37.942,37.942,0,0,1,676,431.674q.417,1.488.837,2.972c.556,1.965,1.108,3.92,1.637,5.855,7.206,26.376,4.1,47.123-8.735,58.419l-6.967-8.983c12.5-11,8.619-33.652,5.2-46.181-.52-1.9-1.063-3.821-1.609-5.751-4.694-16.609-10.015-35.435-3.123-52.735C673.622,359.2,703.556,353.737,727.607,349.35Z" transform="translate(-347.689 -144.877)" fill="#e4e4e4"/>
      <path id="Path_2873" data-name="Path 2873" d="M572.5,570.9H360.45c-14.481,0-26.22-12.5-26.22-27.928V439.486a11.419,11.419,0,0,1,3.241-8.03L449.839,318a23.124,23.124,0,0,1,33.275,0L590.252,426.174a29.848,29.848,0,0,1,8.472,20.989v95.806c0,15.424-11.739,27.928-26.22,27.928Z" transform="translate(-201.457 -213.47)" fill="#c2341c"/>
      <path id="Path_2874" data-name="Path 2874" d="M240.954,387.992h262.29V500.84c0,9.314-7.088,16.864-15.832,16.864H256.786c-8.744,0-15.832-7.55-15.832-16.864V387.992Z" transform="translate(-108.181 -160.277)" opacity="0.1"/>
      <path id="Path_2875" data-name="Path 2875" d="M333.73,521.351" transform="translate(-201.232 -300.386)" fill="none" stroke="#3f3d56" stroke-width="1"/>
      <path id="Path_2900" data-name="Path 2900" d="M44.826,0H150.239a44.612,44.612,0,0,1,44.826,44.394V163.38a44.612,44.612,0,0,1-44.826,44.394H44.826A44.612,44.612,0,0,1,0,163.38V44.394A44.612,44.612,0,0,1,44.826,0Z" transform="translate(167.212 138.795)" fill="#fff"/>
      <path id="Path_2876" data-name="Path 2876" d="M498.519,395.942V510.13H303.454V395.942l97.532,50.212Z" transform="translate(-136.242 -163.561)" opacity="0.1"/>
      <path id="Path_2877" data-name="Path 2877" d="M465.977,591.693l-124.97-64.338a4.8,4.8,0,0,0-4.9.288,5.491,5.491,0,0,0-2.376,4.575v110.7c0,9.314,7.088,16.864,15.832,16.864H582.392c8.744,0,15.832-7.55,15.832-16.864v-108.8a6.7,6.7,0,0,0-2.9-5.583,5.862,5.862,0,0,0-5.981-.351Z" transform="translate(-212.545 -302.644)" fill="#c2341c"/>
      <rect id="Rectangle_1210" data-name="Rectangle 1210" width="54.552" height="8.217" transform="translate(184.019 157.87)" fill="#e4e4e4"/>
      <rect id="Rectangle_1211" data-name="Rectangle 1211" width="162.003" height="4.695" transform="translate(179.61 187.804)" fill="#e4e4e4"/>
      <rect id="Rectangle_1212" data-name="Rectangle 1212" width="162.003" height="4.695" transform="translate(179.61 203.651)" fill="#e4e4e4"/>
      <rect id="Rectangle_1213" data-name="Rectangle 1213" width="162.003" height="4.695" transform="translate(179.61 219.498)" fill="#e4e4e4"/>
      <line id="Line_61" data-name="Line 61" y1="0.035" x2="414.026" transform="translate(33.588 357.099)" fill="none" stroke="#3f3d56" stroke-width="1"/>
      <path id="Path_2878" data-name="Path 2878" d="M93.275,630.212c0,34.606,20.382,62.608,45.57,62.608" transform="translate(-93.275 -345.353)" fill="#e4e4e4"/>
      <path id="Path_2879" data-name="Path 2879" d="M175.975,692.326c0-34.995,22.745-63.312,50.853-63.312" transform="translate(-130.405 -344.858)" fill="#c2341c"/>
      <path id="Path_2880" data-name="Path 2880" d="M123.239,635.557c0,32.872,13,59.471,29.059,59.471" transform="translate(-106.728 -347.561)" fill="#c2341c"/>
      <path id="Path_2881" data-name="Path 2881" d="M175.975,679.949c0-44.715,26.29-80.9,58.778-80.9" transform="translate(-130.405 -332.481)" fill="#e4e4e4"/>
      <path id="Path_2882" data-name="Path 2882" d="M158.577,735.017s6.463-.212,8.41-1.689,9.941-3.241,10.424-.872,9.712,11.783,2.416,11.846-16.953-1.211-18.9-2.472S158.577,735.017,158.577,735.017Z" transform="translate(-122.594 -387.108)" fill="#a8a8a8"/>
      <path id="Path_2883" data-name="Path 2883" d="M179.958,746.089c-7.3.063-16.953-1.21-18.9-2.472-1.48-.96-2.07-4.407-2.268-6l-.216.009s.409,5.552,2.353,6.813,11.6,2.535,18.9,2.472c2.106-.018,2.834-.816,2.794-2C182.328,745.629,181.525,746.075,179.958,746.089Z" transform="translate(-122.594 -389.72)" opacity="0.2"/>
      <path id="Path_2884" data-name="Path 2884" d="M809.909,300.711c-.331,3.143-2.582,5.674-3.416,8.709-1.255,4.568.915,9.471,3.884,13.029a26.46,26.46,0,0,0,18.864,9.54,7.579,7.579,0,0,0,3.119-.362,6.678,6.678,0,0,0,2.373-1.727,16.64,16.64,0,0,0,3.914-9.04,51.242,51.242,0,0,0,.105-10.1,6.033,6.033,0,0,0-.35-2.038,5.169,5.169,0,0,0-1.231-1.612,28.833,28.833,0,0,0-5.284-4.089,4.481,4.481,0,0,1-2.9-3.965l-.584-3.169a6.494,6.494,0,0,0-.857-2.569c-1.031-1.482-3-1.683-4.734-1.756l-6.339-.265c-1.972-.082-4.571-.685-6.5-.272-1.8.385-1.2,2.15-.874,3.756A28.822,28.822,0,0,1,809.909,300.711Z" transform="translate(-413.326 -205.185)" fill="#ffb8b8"/>
      <path id="Path_2886" data-name="Path 2886" d="M859.3,537.691q-1.347,15.735-2.695,31.464c-.7,8.253-1.42,16.539-2.8,24.685-.476,2.807-1.034,5.6-1.7,8.369-1.842,7.687-4.514,15.2-5.375,23.081-.027.227-.05.459-.073.691a21.22,21.22,0,0,1-.921,5.122c-.431,1.2-1.093,2.3-1.56,3.489a23.574,23.574,0,0,0-1.166,7.581,29.442,29.442,0,0,0-10.565-3.846c-1.792-.285-3.788-.488-5.008-1.913-1.352-1.575-1.2-3.986-.975-6.1q1.068-9.857,2.132-19.7a54.431,54.431,0,0,1,1.347-8.369c.245-.913.54-1.812.839-2.711.413-1.237.83-2.474,1.143-3.745a47.8,47.8,0,0,0,.944-6.238c.73-6.61,1.61-13.205,2.381-19.81l.041-.348a215.594,215.594,0,0,0,1.783-30.155c-.036-1.493-.1-2.986-.186-4.484-.127-2.169-.313-3.319,1.375-4.677a31.058,31.058,0,0,1,6.45-3.527c1.148-.531,13.786-5.31,14.081-4.261a27.815,27.815,0,0,1,.925,6.871A81.373,81.373,0,0,1,859.3,537.691Z" transform="translate(-422.391 -300.709)" fill="#2f2e41"/>
      <path id="Path_2887" data-name="Path 2887" d="M857.45,627.1c-.476,2.807-1.034,5.6-1.7,8.369-1.842,7.687-4.513,15.2-5.375,23.081-.027.227-.05.459-.073.691-5.634-8.572-10.379-17.79-15.877-26.454.413-1.237.83-2.474,1.143-3.745a47.788,47.788,0,0,0,.944-6.238c.73-6.61,1.61-13.205,2.381-19.81l.041-.348a21.418,21.418,0,0,0,1.374,4.063c3.693,7.992,12.465,12.031,16.757,19.68Q857.266,626.743,857.45,627.1Z" transform="translate(-426.031 -333.966)" opacity="0.1"/>
      <path id="Path_2888" data-name="Path 2888" d="M793.225,497.206a158.022,158.022,0,0,0,2.111,19.092l1.984,13.061c1.085,7.149,2.216,14.443,5.392,20.846,2.376,4.79,5.8,8.877,8.9,13.174,7.613,10.564,13.332,22.53,20.55,33.4,2.1,3.161,5.1,6.578,8.678,5.919,2.35-.433,4.057-2.517,5.9-4.124,2.178-1.894,4.8-3.281,6.517-5.655s2.049-6.322-.272-8.012a11.832,11.832,0,0,0-2.657-1.158c-3.6-1.458-5.928-5.2-7.411-8.987s-2.38-7.856-4.355-11.376c-4.291-7.648-13.065-11.688-16.758-19.682-2.069-4.478-2.266-9.639-2.424-14.626l-.4-12.714a9.846,9.846,0,0,1,.452-4.108c1.413-3.384,5.678-3.7,9.132-4.129a29.892,29.892,0,0,0,11.192-3.761,11.956,11.956,0,0,0,5-4.728,16.1,16.1,0,0,0,1.219-6.406l1.2-23.042a15.33,15.33,0,0,0-.459-5.89c-1.647-4.666-7.179-6.191-11.855-5.969-8.7.414-16.733,4.4-24.937,7.093a60.3,60.3,0,0,1-6.181,1.717c-1.841.393-4.069.23-5.825.861-3.123,1.121-3.044,8.4-3.486,11.413A102.206,102.206,0,0,0,793.225,497.206Z" transform="translate(-407.522 -274.347)" fill="#2f2e41"/>
      <path id="Path_2889" data-name="Path 2889" d="M876.087,695.479a6.1,6.1,0,0,1,1.218,3.173,115.183,115.183,0,0,1,1.723,19.188,3.306,3.306,0,0,0,.324,1.739,2.079,2.079,0,0,0,.847.725c2.218,1.126,4.791-.443,6.639-2.167,3.425-3.2,6.324-7.486,6.518-12.332a30.452,30.452,0,0,1,.123-3.74,16.1,16.1,0,0,1,2.182-5.011,43.707,43.707,0,0,0,3.606-8.611c.337-1.129.561-2.55-.269-3.338a2.961,2.961,0,0,0-.987-.547L887.995,680.6c-.868-.343-3.028,5.567-3.371,6.213a4.65,4.65,0,0,1-3.355,2.843c-1.717.372-3.762-.162-5.364.751C873.194,691.946,874.552,693.831,876.087,695.479Z" transform="translate(-443.956 -366.159)" fill="#535070"/>
      <path id="Path_2890" data-name="Path 2890" d="M840.157,710.883a3.245,3.245,0,0,0-.762-1.03,3.309,3.309,0,0,0-1.538-.556c-1.907-.345-4.167-.572-5.484.938-1.234,1.416-1.022,3.721-2.053,5.31-.327.5-.769.917-1.052,1.449a5.771,5.771,0,0,0-.462,2.6c-.053,2.462-.107,4.929.053,7.386a10.813,10.813,0,0,0,1.669,5.83c1.94,2.589,5.439,2.961,8.545,3.129l2.516.136a4.625,4.625,0,0,0,2.062-.2,3.542,3.542,0,0,0,1.778-2.084c1.309-3.467-.764-7.2-2.042-10.682C841.918,719.107,842.182,714.665,840.157,710.883Z" transform="translate(-423.482 -377.915)" fill="#535070"/>
      <path id="Path_2891" data-name="Path 2891" d="M804.619,264.073a2.344,2.344,0,0,1,.141-1.033c.369-.694,1.331-.5,2.056-.31,2.919.784,5.994.074,9,.257s6.39,1.783,6.994,4.924a22.772,22.772,0,0,0,5.548-6.072,7.6,7.6,0,0,0,1.448-4.446c-.164-2.3-1.975-4.019-3.652-5.478l-5-4.347a7.5,7.5,0,0,0-2.239-1.516,10.489,10.489,0,0,0-3.633-.219c-3.64,0-7.52-1.762-10.757.01a11.91,11.91,0,0,0-3.351,3.246l-4.462,5.626A3.048,3.048,0,0,0,796,256a6.059,6.059,0,0,0,.32,2.054c.211,1.257-.3,2.6.093,3.805.649,2,2.933,2.287,4.329,3.436.521.428,1.336,1.879,1.956,1.861C803.816,267.129,804.59,265,804.619,264.073Z" transform="translate(-408.764 -186.256)" fill="#3f3d56"/>
      <ellipse id="Ellipse_556" data-name="Ellipse 556" cx="14.289" cy="15.22" rx="14.289" ry="15.22" transform="translate(389.137 63.962)" fill="#ffb8b8"/>
      <path id="Path_2892" data-name="Path 2892" d="M803.466,324.972a6.951,6.951,0,0,0-6.739-4.94,1.941,1.941,0,0,1-1.243-.167,1.812,1.812,0,0,1-.511-.68,27.557,27.557,0,0,1-2.083-5.246c-.228-.806-.54-1.755-1.3-1.965a1.719,1.719,0,0,0-1.663.771,15.517,15.517,0,0,1-1.189,1.591c-1.8,1.712-4.983.152-6.89,1.722-.312.257-.569.585-.9.818a4.052,4.052,0,0,1-1.049.479,97.007,97.007,0,0,0-10.814,4.512c1.269,8.139,2.569,16.42,5.543,24.038,1.416,3.625,3.019,7.176,4.153,10.912,2.511,8.278,2.623,17.135,2.651,25.834.019,5.954-.009,12.035-1.817,17.669a17.526,17.526,0,0,0-1.021,3.881,3.547,3.547,0,0,0,3.252,4.356c3.134.49,6.293-.4,9.378-1.16a244.194,244.194,0,0,1,25.123-4.372l14.106-1.951a7.793,7.793,0,0,0,2.918-.8c2.581-1.505,2.827-5.641,1.223-8.27-.768-1.26-1.853-2.294-2.5-3.63s-.7-3.2.411-4.13c2.261-1.882,1.587-5.375,1.695-8.43q.452-12.812-.122-25.634-.17-2.654-.079-5.316a49.843,49.843,0,0,1,1.556-8.871l4.287-17.977a8.765,8.765,0,0,0-5.295-3.623c-2.031-.543-4.146-.7-6.147-1.363-4.1-1.352-7.746-4.785-12.025-4.465a2.077,2.077,0,0,0-.932.242c-.965.582-.812,2.064-.874,3.244-.136,2.61-1.939,4.791-3.929,6.321s-4.263,2.645-6.092,4.389a2.958,2.958,0,0,0-1.081,2.215Z" transform="translate(-396.693 -212.481)"/>
      <path id="Path_2893" data-name="Path 2893" d="M722.542,361.623a16.514,16.514,0,0,1-3.006,1.647,9.638,9.638,0,0,0-2.879,1.488,4.763,4.763,0,0,0-1,1.318,6.19,6.19,0,0,0,.114,5.962,5.417,5.417,0,0,0,4.959,2.768,10.547,10.547,0,0,0,3.751-1.191l10.078-4.652c1.706-.787,3.548-1.71,4.355-3.494a.856.856,0,0,0,.1-.555.9.9,0,0,0-.414-.464,23.178,23.178,0,0,1-5.869-5.894c-.414-.6-.92-2.01-1.5-2.368C729.091,354.879,724.249,360.442,722.542,361.623Z" transform="translate(-372.387 -232.081)" fill="#ffb8b8"/>
      <path id="Path_2894" data-name="Path 2894" d="M904.656,359.084l3.716,4.521c.8.971,1.6,1.942,2.323,2.974a35.512,35.512,0,0,1,4.255,8.539,15.766,15.766,0,0,1,1.2,7.059,18.153,18.153,0,0,1-.929,3.59,46.353,46.353,0,0,1-2.525,6.477,37.2,37.2,0,0,1-2.841,4.535,104.228,104.228,0,0,1-9.419,11.476c-1.27,1.339-1.8,3.505-2.356,5.316-1.02,3.339-3.447,5.94-5.794,8.407a16.447,16.447,0,0,1-2.488,2.28,7.741,7.741,0,0,1-4.527,1.373,4.71,4.71,0,0,1-2.039-.45c-1.606-.812-2.422-2.791-2.589-4.676a10.521,10.521,0,0,1,.781-5c2.132-5.031,7.607-7.211,11.478-10.882a39.347,39.347,0,0,0,5.716-7.531,26.5,26.5,0,0,0,2.891-5.4c.864-2.456.528-5.365,1.283-7.862.319-1.055.887-2.008,1.23-3.055a3.772,3.772,0,0,0-.171-3.2,4.388,4.388,0,0,0-1.682-1.312c-2.472-1.337-5.241-3.057-5.714-5.967a6.708,6.708,0,0,1,1.107-4.557,18.527,18.527,0,0,1,3.118-3.48C901.756,361.248,903.574,360.1,904.656,359.084Z" transform="translate(-446.759 -233.359)" fill="#ffb8b8"/>
      <path id="Path_2895" data-name="Path 2895" d="M710.438,373.519a7.256,7.256,0,0,0-2.8-3.554,4.871,4.871,0,0,0-4.07-.018,15.156,15.156,0,0,0-3.572,2.3l-3.2,2.515a8.1,8.1,0,0,0-1.9,1.87,8.225,8.225,0,0,0-.99,2.894,22,22,0,0,0-.5,7.159c.508,3.847,2.686,7.206,5.082,10.134,1.5,1.83,3.347,3.676,5.625,3.755a2.537,2.537,0,0,0,2.486-1.332,3.511,3.511,0,0,0,.222-1.187c.246-4.291-1.195-8.482-2.875-12.391a8.334,8.334,0,0,1-.927-3.329.96.96,0,0,1,.137-.558.864.864,0,0,1,.547-.284c2.3-.485,6.262,1.419,7.875-1.3C712.615,378.426,711.181,375.118,710.438,373.519Z" transform="translate(-362.669 -237.665)" fill="#ffb8b8"/>
      <path id="Path_2896" data-name="Path 2896" d="M803.259,255.914a2.35,2.35,0,0,1,.141-1.033c.369-.694,1.331-.505,2.056-.31,2.919.784,5.994.074,9,.257s6.39,1.783,6.994,4.924A22.775,22.775,0,0,0,827,253.681a7.6,7.6,0,0,0,1.447-4.446c-.164-2.3-1.975-4.019-3.652-5.478l-5-4.347a7.493,7.493,0,0,0-2.239-1.516,10.49,10.49,0,0,0-3.633-.219c-3.64,0-7.52-1.762-10.757.011a11.913,11.913,0,0,0-3.351,3.246l-4.462,5.626a3.051,3.051,0,0,0-.713,1.288,6.059,6.059,0,0,0,.32,2.054c.211,1.257-.3,2.6.093,3.805.649,2,2.933,2.288,4.329,3.436.521.428,1.336,1.879,1.956,1.861C802.456,258.969,803.23,256.84,803.259,255.914Z" transform="translate(-408.154 -182.886)" fill="#3f3d56"/>
      <path id="Path_2897" data-name="Path 2897" d="M749,336.8a5.971,5.971,0,0,0-1.5,1.483c-.524.844-.63,1.909-1.08,2.8-.963,1.906-3.215,2.584-4.62,4.148a1.576,1.576,0,0,0-.444.811,1.885,1.885,0,0,0,.377,1.168l6.776,11.346c2.256.212,4.42-1.294,6.677-1.094a6.307,6.307,0,0,0,2.513.119,7.144,7.144,0,0,0,1.613-1.051c1.346-.907,3.14-1.013,4.269-2.209,1.084-1.148,1.223-2.945,1.209-4.573a19.532,19.532,0,0,0-.4-4.207c-1-4.355-4.125-7.7-6.085-11.555-.954-1.878-1.474-2.978-3.494-1.688S750.914,335.314,749,336.8Z" transform="translate(-384.247 -222.064)"/>
      <path id="Path_2898" data-name="Path 2898" d="M895.085,327.893a16.207,16.207,0,0,1,3.409,3.18c1.032,1.418,1.617,3.153,2.608,4.6a50.225,50.225,0,0,0,3.359,3.789,29.655,29.655,0,0,1,3.873,6.721,98.71,98.71,0,0,1-8.765,10.551,2.819,2.819,0,0,1-1.331.932,2.085,2.085,0,0,1-1.882-.817c-.488-.545-.834-1.218-1.3-1.784a6.548,6.548,0,0,0-4.143-2.134,26.706,26.706,0,0,0-4.694-.069,1.359,1.359,0,0,1-1.549-.848c-1.834-3.325-1.244-7.5-.6-11.294l1.485-8.707a20.546,20.546,0,0,1,1.236-4.839c.563-1.28,1.82-3.452,3.367-3.069S893.773,326.888,895.085,327.893Z" transform="translate(-448.037 -218.893)"/>
      <ellipse id="Ellipse_557" data-name="Ellipse 557" cx="22.592" cy="24.108" rx="22.592" ry="24.108" transform="translate(152.61 117.958)" fill="#fff"/>
      <path id="Path_2899" data-name="Path 2899" d="M389.231,338.851c-14.912,0-27,12.876-27,28.76s12.089,28.76,27,28.76,27-12.876,27-28.76C416.187,351.747,404.124,338.9,389.231,338.851Zm-5.543,44.094L369.85,368.205l3.881-4.134L383.7,374.69l21.042-22.413,3.881,4.134-24.936,26.534Z" transform="translate(-214.028 -225.001)" fill="#57b894"/>
      <g id="Component_49" data-name="Component 49" transform="translate(388.897 128.759) rotate(-7)">
        <g id="Group_683" data-name="Group 683" transform="translate(7.45 15.068)">
          <path id="Path_2413" data-name="Path 2413" d="M.061,2l0-1.1A.887.887,0,0,1,1.03.02a.814.814,0,0,1,.911.8v.187H1.457V.87a.387.387,0,0,0-.426-.4A.4.4,0,0,0,.6.912L.6,1.98a.409.409,0,0,0,.441.461.377.377,0,0,0,.416-.386V1.9h.485v.187a.8.8,0,0,1-.9.8A.87.87,0,0,1,.061,2Z" transform="translate(-0.058 -0.02)" fill="#fff"/>
          <path id="Path_2414" data-name="Path 2414" d="M.868.027h.654l.784,2.785H1.765l-.178-.667H.752l-.171.666h-.5Zm.6,1.693L1.174.57H1.162l-.3,1.149Z" transform="translate(1.988 0.018)" fill="#fff"/>
          <path id="Path_2415" data-name="Path 2415" d="M.728.483H.014V.033l1.962,0V.485h-.71l.005,2.331H.734L.729.483Z" transform="translate(4.217 0.019)" fill="#fff"/>
          <path id="Path_2416" data-name="Path 2416" d="M.078.014h.77A.715.715,0,0,1,1.621.8a.692.692,0,0,1-.607.775L1.708,2.8H1.46L.8,1.606H.3l0,1.189H.084ZM.792,1.423A.537.537,0,0,0,1.4.812.537.537,0,0,0,.815.207H.3l0,1.216Z" transform="translate(7.172 0.042)" fill="#c2341c"/>
          <path id="Path_2417" data-name="Path 2417" d="M.042,1.369V.753A.655.655,0,0,1,.708.013c.395,0,.621.262.622.691v.374l-1.075,0v.3a.448.448,0,0,0,.5.515.892.892,0,0,0,.473-.147l.076.148a.886.886,0,0,1-.574.186A.631.631,0,0,1,.042,1.369ZM1.13.915V.681c0-.242-.107-.5-.445-.5a.446.446,0,0,0-.431.5V.913H1.13Z" transform="translate(9.192 0.808)" fill="#c2341c"/>
          <path id="Path_2418" data-name="Path 2418" d="M.073,2.407.068,0h.21L.283,2.38a.2.2,0,0,0,.23.23,1.149,1.149,0,0,0,.169-.015V2.77a.643.643,0,0,1-.233.039A.357.357,0,0,1,.073,2.407Z" transform="translate(10.934 0.058)" fill="#c2341c"/>
          <path id="Path_2419" data-name="Path 2419" d="M.042,1.373V.722A.634.634,0,0,1,.693.013a.627.627,0,0,1,.659.7v.647A.627.627,0,0,1,.7,2.079.628.628,0,0,1,.042,1.373Zm1.1-.01,0-.663c0-.281-.129-.511-.452-.511S.25.429.251.718v.647c0,.328.133.53.456.531S1.144,1.659,1.143,1.363Z" transform="translate(11.899 0.813)" fill="#c2341c"/>
          <path id="Path_2420" data-name="Path 2420" d="M.046,1.514A.617.617,0,0,1,.721.9h.391V.533c0-.25-.159-.355-.4-.355C.509.178.295.278.3.5V.626H.108V.5C.107.177.392.014.741.014c.323,0,.583.153.583.5l0,1.01c0,.144.016.4.02.507h-.2l-.016-.328H1.128a.6.6,0,0,1-.563.369A.512.512,0,0,1,.046,1.514Zm1.067-.127V1.052H.759c-.226,0-.5.077-.5.432A.373.373,0,0,0,.629,1.9.494.494,0,0,0,1.113,1.387Z" transform="translate(13.601 0.814)" fill="#c2341c"/>
          <path id="Path_2421" data-name="Path 2421" d="M.069,2.292l0-.9A.56.56,0,0,1,.63.784a.526.526,0,0,1,.5.352h0l0-1.111H1.35l.006,2.78H1.168l-.008-.37H1.149a.6.6,0,0,1-.555.416A.509.509,0,0,1,.069,2.292Zm1.074-.255V1.55a.567.567,0,0,0-.479-.6c-.207,0-.387.112-.386.448l0,.862c0,.246.11.41.377.41S1.144,2.427,1.143,2.037Z" transform="translate(15.335 0.046)" fill="#c2341c"/>
          <path id="Path_2422" data-name="Path 2422" d="M.042,1.369V.753A.655.655,0,0,1,.708.013c.395,0,.621.262.622.691v.374l-1.075,0v.3a.448.448,0,0,0,.5.515.892.892,0,0,0,.473-.147l.076.148a.886.886,0,0,1-.574.186A.631.631,0,0,1,.042,1.369ZM1.13.915V.681c0-.242-.107-.5-.445-.5a.446.446,0,0,0-.431.5V.913H1.13Z" transform="translate(17.146 0.82)" fill="#c2341c"/>
          <path id="Path_2423" data-name="Path 2423" d="M.069,2.292l0-.9A.56.56,0,0,1,.629.784a.526.526,0,0,1,.5.352h0l0-1.111h.214l.006,2.78H1.168l-.008-.37H1.148a.6.6,0,0,1-.555.416A.509.509,0,0,1,.069,2.292Zm1.074-.255V1.55a.567.567,0,0,0-.479-.6c-.207,0-.387.112-.386.448l0,.862c0,.246.11.41.377.41C.908,2.668,1.144,2.427,1.143,2.037Z" transform="translate(18.816 0.052)" fill="#c2341c"/>
        </g>
        <g id="layer1" transform="translate(0.243 0.106)">
          <path id="path3003-4" d="M5.617.106C3.846.1,2.5,1.654,1.945,2.469A8.979,8.979,0,0,0,.243,8.06c.128,4.732,3.02,7.62,5.362,8.133l0-1.334c-2.747-.738-4.235-4.22-4.232-6.984a8.091,8.091,0,0,1,1.48-4.539A4.7,4.7,0,0,1,5.633,1.381ZM6.836,1.871a3.976,3.976,0,0,0-1.614.321A5.6,5.6,0,0,0,2.339,5.535a8.186,8.186,0,0,0,.623,6.427c1.511,2.189,3.7,2.867,5.51,1.967a8.251,8.251,0,0,0,1-.581l-.543-1.12a7,7,0,0,1-.891.52C4.7,13.982,1.907,9.806,3.339,6.124A4.583,4.583,0,0,1,5.555,3.478a3.245,3.245,0,0,1,3.309.534A5.583,5.583,0,0,1,10.512,9.66a1.044,1.044,0,0,1-.841.778c0-.458-.014-1.132-.012-1.681a7.14,7.14,0,0,0-.182-1.835A2.784,2.784,0,0,0,6.809,4.577,2.356,2.356,0,0,0,4.563,6.045a4.193,4.193,0,0,0,.717,5.124,2.478,2.478,0,0,0,2.075.548A2.651,2.651,0,0,0,8,11.484c.184-.1.427-.233.339-.239l0-1.424a5.608,5.608,0,0,1-.723.463,1.743,1.743,0,0,1-.44.163A1.606,1.606,0,0,1,5.809,10c-1.375-1.1-.832-4.093.991-4.18A1.8,1.8,0,0,1,8.393,7.351a5.657,5.657,0,0,1,.15,1.443c-.007.916,0,2.2,0,2.2l.017.75h.431s.257.011.57,0a2.49,2.49,0,0,0,.506-.086,1.264,1.264,0,0,0,.563-.331,2.9,2.9,0,0,0,.72-1.136,6.718,6.718,0,0,0,.279-2.606,6.541,6.541,0,0,0-2.178-4.7A4.468,4.468,0,0,0,6.836,1.871Z" transform="translate(-0.243 -0.106)" fill="#c2341c"/>
          <path id="path4227-4" d="M11.56.218a1.351,1.351,0,0,0-1.193,1.044C9.794,2.917,9.644,3.294,9.053,5.08c-.4,1.2-.616,1.781-1.125,3.279-.154.455-.916,2.67-.916,2.67l1.908.014c.458-1.354.5-1.456.65-1.939.382-.978.609-1.773,1.025-2.938.33-.923.5-1.461.639-1.846.153-.428.162-.621.345-.63.129-.006.264.527.614,1.487.207.567.58,1.645.714,2.026.127.36.205.667.306.883a4.29,4.29,0,0,1,.22.582c.024.1-.328.04-.772.044-.842.007-2.055-.007-2.055-.007l-.8,2.328c2.319.053,4.023-.072,6.327.023C15.089,8,13.128,2.42,13.033,2.135s-.229-.634-.289-.824C12.511.575,12.036.218,11.56.218ZM2.391.379a2.354,2.354,0,0,0-.809.229C.937.989.4,1.736.205,4.5A16.907,16.907,0,0,0,.5,9c.277,1.037.944,1.994,1.518,2.009l4.36.007.744-2.34s-2.991.039-4.419.032c-.849,0-.689-2.52-.724-4,0,0,.067-1.977.567-1.964,1.583.042,6.385,0,6.385,0L9.816.437,2.391.379ZM13.254.43c0,.06.872,2.337.846,2.343.939.008,1.92-.046,2.955,0l.017,8.253,1.749.011-.016-8.285h3.051c.014-1.114-.011-1.684-.005-2.3C18.91.437,16.357.437,13.254.43Z" transform="translate(12.69 2.441)" fill="#fff"/>
        </g>
      </g>
      <g id="Component_76" data-name="Component 76" transform="translate(245.586 235.241)">
        <g id="layer1-2" data-name="layer1" transform="translate(0.243 0.106)">
          <path id="path3003-4-2" data-name="path3003-4" d="M14.179.106C9.586.1,6.088,3.122,4.657,4.71A14.747,14.747,0,0,0,.243,15.6c.333,9.219,7.832,14.846,13.9,15.847l-.008-2.6C7.016,27.414,3.157,20.63,3.164,15.244A13.509,13.509,0,0,1,7,6.4a12.645,12.645,0,0,1,7.219-3.81Zm3.16,3.44a13.32,13.32,0,0,0-4.186.626,12.518,12.518,0,0,0-7.474,6.513A12.475,12.475,0,0,0,7.3,23.208,13.236,13.236,0,0,0,21.584,27.04a23.778,23.778,0,0,0,2.6-1.132l-1.407-2.181A20.116,20.116,0,0,1,20.47,24.74c-8.666,2.4-15.911-5.734-12.2-12.908a10.035,10.035,0,0,1,5.747-5.156c1.1-.395,5.42-1.155,8.581,1.041,3.108,1.928,6.2,6.6,4.274,11a2.555,2.555,0,0,1-2.18,1.516c.008-.892-.036-2.206-.032-3.275a10.628,10.628,0,0,0-.472-3.575c-1.006-3.217-4.234-4.606-6.919-4.569-3.247.068-4.462,1.116-5.826,2.86A6.774,6.774,0,0,0,13.3,21.66a8.048,8.048,0,0,0,5.381,1.068,8.451,8.451,0,0,0,1.684-.453c.477-.2,1.108-.454.88-.465l-.008-2.775a15.815,15.815,0,0,1-1.874.9,5.554,5.554,0,0,1-1.141.318,5.1,5.1,0,0,1-3.548-.863c-3.567-2.149-2.156-7.975,2.57-8.145a4.346,4.346,0,0,1,4.132,2.975,8.428,8.428,0,0,1,.389,2.812c-.018,1.786,0,4.278,0,4.278l.043,1.462h1.118s.667.022,1.479,0a8.428,8.428,0,0,0,1.312-.167,3.655,3.655,0,0,0,1.459-.645,5.813,5.813,0,0,0,1.867-2.213,10.06,10.06,0,0,0,.724-5.077c-.3-4.283-2.569-6.959-5.648-9.164a14.042,14.042,0,0,0-6.78-1.961Z" transform="translate(-0.243 -0.106)" fill="#c2341c"/>
        </g>
      </g>
    </g>
  </g>
</svg>
