<svg xmlns="http://www.w3.org/2000/svg" width="205.219" height="215.057" viewBox="0 0 205.219 215.057"><defs><style>.a{fill:#c2341c;}</style></defs><path class="a" d="M-832-30.158c-31.886,0-56.227,20.76-66.193,31.665-18.341,19.544-30.872,40.795-30.872,74.784,2.115,63.251,54.051,101.795,96.179,108.607V167.068c-49.411-9.808-76.054-56.323-75.895-93.275.478-29.046,18.595-53.291,26.82-60.7,9.446-9.263,26.7-23.369,50.195-26.2Zm21.86,23.572a93.644,93.644,0,0,0-29.068,4.327c-25.41,8.4-43.7,26.4-52.016,44.749-11.9,25.944-9,61.1,10.954,85.907,27.1,29.228,66.408,38.241,99.1,26.173a166.727,166.727,0,0,0,18.09-7.791l-9.721-14.954a141.127,141.127,0,0,1-16.052,6.976c-60.209,16.557-110.327-39.207-84.415-88.459,4.8-11.083,17.925-27.563,40-35.425,7.631-2.717,37.648-7.969,59.544,7.073,21.533,13.2,42.877,45.223,29.437,75.466a17.832,17.832,0,0,1-15.164,10.417c.072-6.122-.2-15.132-.15-22.468.089-12.131-1.448-19.44-3.2-24.526-6.918-22.065-29.295-31.566-47.934-31.293-22.541.494-31,7.693-40.5,19.668-18.643,25.288-9.6,54.676,12.692,68.478a56.287,56.287,0,0,0,37.327,7.282,59.423,59.423,0,0,0,11.7-3.12c3.312-1.345,7.7-3.122,6.12-3.2V99.658a111.042,111.042,0,0,1-13.028,6.21,39.059,39.059,0,0,1-7.93,2.191c-10.732.682-15.944-.691-24.614-5.89-24.712-14.712-14.8-54.7,18.012-55.9,14.178,1.446,23.737,6.935,28.623,20.374a57.085,57.085,0,0,1,2.639,19.287c-.164,12.251-.1,29.348-.1,29.348l.271,10.03h7.762s4.633.143,10.262-.036a59.248,59.248,0,0,0,9.108-1.159,25.644,25.644,0,0,0,10.142-4.436,40.27,40.27,0,0,0,13-15.2c3.925-8,6.2-19.363,5.134-34.839-2.015-29.381-17.687-47.723-39.012-62.823-15.06-8.783-32.317-13.291-47.021-13.4Z" transform="translate(929.065 30.158)"/></svg>