<svg id="undraw_contact_us_15o2" xmlns="http://www.w3.org/2000/svg" xmlns:xlink="http://www.w3.org/1999/xlink" width="715.542" height="369.488" viewBox="0 0 715.542 369.488">
  <defs>
    <linearGradient id="linear-gradient" x1="0.5" y1="1" x2="0.5" gradientUnits="objectBoundingBox">
      <stop offset="0" stop-color="gray" stop-opacity="0.251"/>
      <stop offset="0.54" stop-color="gray" stop-opacity="0.122"/>
      <stop offset="1" stop-color="gray" stop-opacity="0.102"/>
    </linearGradient>
    <linearGradient id="linear-gradient-2" x1="0.5" y1="1" x2="0.5" y2="-0.001" xlink:href="#linear-gradient"/>
  </defs>
  <g id="Group_1194" data-name="Group 1194" transform="translate(277.565 25.699)" opacity="0.1">
    <ellipse id="Ellipse_656" data-name="Ellipse 656" cx="7.43" cy="9.573" rx="7.43" ry="9.573" transform="translate(28.002 197.613)" fill="#3f3d56"/>
    <path id="Path_3076" data-name="Path 3076" d="M533.338,452.416a11.421,11.421,0,0,0,1.554-5.853c0-5.288-3.33-9.573-7.436-9.573s-7.456,4.3-7.456,9.586a11.422,11.422,0,0,0,1.554,5.853,11.791,11.791,0,0,0,0,11.7,11.791,11.791,0,0,0,0,11.7A11.384,11.384,0,0,0,520,481.681c0,5.281,3.33,9.573,7.43,9.573s7.436-4.292,7.436-9.573a11.386,11.386,0,0,0-1.554-5.853,11.791,11.791,0,0,0,0-11.7,11.791,11.791,0,0,0,0-11.7Z" transform="translate(-492.024 -286.188)" fill="#3f3d56"/>
    <ellipse id="Ellipse_657" data-name="Ellipse 657" cx="7.43" cy="9.573" rx="7.43" ry="9.573" transform="translate(28.002 139.115)" fill="#3f3d56"/>
    <ellipse id="Ellipse_658" data-name="Ellipse 658" cx="7.43" cy="9.573" rx="7.43" ry="9.573" transform="translate(28.002 127.416)" fill="#3f3d56"/>
    <path id="Path_3077" data-name="Path 3077" d="M484.769,259.188A34.087,34.087,0,0,1,482,255.178l19.521-3.155-21.114.154a34.581,34.581,0,0,1-.653-27.755l28.328,14.462-26.115-18.9a35.862,35.862,0,0,1,63.373,2.864,34.583,34.583,0,0,1-4.615,36.327,34.96,34.96,0,0,1,4.061,6.386l-25.351,12.991,27.022-8.924a34.589,34.589,0,0,1-5.739,32.895A34.628,34.628,0,0,1,536.9,349.91a36.018,36.018,0,0,1-48.305,0,34.628,34.628,0,0,1-3.823-47.387,34.591,34.591,0,0,1,0-43.316Z" transform="translate(-477.149 -202.271)" fill="#c2341c"/>
    <path id="Path_3078" data-name="Path 3078" d="M548.338,324.283a34.516,34.516,0,0,1-7.619,21.658,34.628,34.628,0,0,1-3.823,47.387,36.018,36.018,0,0,1-48.305,0,34.628,34.628,0,0,1-3.823-47.387C480,339.978,548.338,320.351,548.338,324.283Z" transform="translate(-477.149 -245.708)" opacity="0.1"/>
  </g>
  <g id="Group_1195" data-name="Group 1195" transform="translate(373.257 57.715)" opacity="0.1">
    <ellipse id="Ellipse_659" data-name="Ellipse 659" cx="5.556" cy="7.151" rx="5.556" ry="7.151" transform="translate(20.924 147.55)" fill="#3f3d56"/>
    <path id="Path_3079" data-name="Path 3079" d="M665.709,438.846a8.523,8.523,0,0,0,1.156-4.369c0-3.951-2.487-7.157-5.549-7.157s-5.556,3.212-5.556,7.157a8.459,8.459,0,0,0,1.162,4.369,8.807,8.807,0,0,0,0,8.744,8.806,8.806,0,0,0,0,8.744,8.459,8.459,0,0,0-1.162,4.369c0,3.951,2.487,7.157,5.556,7.157s5.549-3.212,5.549-7.157a8.523,8.523,0,0,0-1.156-4.369,8.87,8.87,0,0,0,0-8.744A8.87,8.87,0,0,0,665.709,438.846Z" transform="translate(-634.842 -314.747)" fill="#3f3d56"/>
    <ellipse id="Ellipse_660" data-name="Ellipse 660" cx="5.556" cy="7.151" rx="5.556" ry="7.151" transform="translate(20.924 103.835)" fill="#3f3d56"/>
    <ellipse id="Ellipse_661" data-name="Ellipse 661" cx="5.556" cy="7.151" rx="5.556" ry="7.151" transform="translate(20.924 95.091)" fill="#3f3d56"/>
    <path id="Path_3080" data-name="Path 3080" d="M629.413,294.511a25.035,25.035,0,0,1-2.07-2.994l14.592-2.358-15.78.116a25.856,25.856,0,0,1-.509-20.746l21.172,10.813-19.527-14.135a26.8,26.8,0,0,1,47.259,2.224,25.842,25.842,0,0,1-3.328,27.073,26.41,26.41,0,0,1,3.036,4.774l-18.933,9.682,20.193-6.669a25.855,25.855,0,0,1-4.289,24.581,25.876,25.876,0,0,1-2.839,35.422,26.915,26.915,0,0,1-36.106,0,25.876,25.876,0,0,1-2.839-35.422,25.848,25.848,0,0,1,0-32.368Z" transform="translate(-623.72 -252.103)" fill="#c2341c"/>
    <path id="Path_3081" data-name="Path 3081" d="M676.922,343.086a25.8,25.8,0,0,1-5.693,16.184,25.876,25.876,0,0,1-2.839,35.421,26.915,26.915,0,0,1-36.106,0,25.876,25.876,0,0,1-2.839-35.422C625.868,354.817,676.922,340.149,676.922,343.086Z" transform="translate(-623.727 -284.493)" opacity="0.1"/>
  </g>
  <g id="Group_1196" data-name="Group 1196" transform="translate(642.121)" opacity="0.1">
    <ellipse id="Ellipse_662" data-name="Ellipse 662" cx="7.43" cy="9.573" rx="7.43" ry="9.573" transform="translate(28.503 197.613)" fill="#3f3d56"/>
    <path id="Path_3082" data-name="Path 3082" d="M1080.744,412.416a11.423,11.423,0,0,1-1.554-5.853c0-5.288,3.33-9.573,7.436-9.573s7.43,4.285,7.43,9.573a11.42,11.42,0,0,1-1.554,5.853,11.791,11.791,0,0,1,0,11.7,11.791,11.791,0,0,1,0,11.7,11.383,11.383,0,0,1,1.554,5.853c0,5.281-3.329,9.573-7.43,9.573s-7.436-4.292-7.436-9.573a11.382,11.382,0,0,1,1.554-5.853,11.79,11.79,0,0,1,0-11.7A11.79,11.79,0,0,1,1080.744,412.416Z" transform="translate(-1050.693 -246.188)" fill="#3f3d56"/>
    <ellipse id="Ellipse_663" data-name="Ellipse 663" cx="7.43" cy="9.573" rx="7.43" ry="9.573" transform="translate(28.503 139.115)" fill="#3f3d56"/>
    <ellipse id="Ellipse_664" data-name="Ellipse 664" cx="7.43" cy="9.573" rx="7.43" ry="9.573" transform="translate(28.503 127.416)" fill="#3f3d56"/>
    <path id="Path_3083" data-name="Path 3083" d="M1099.286,219.188a34.08,34.08,0,0,0,2.768-4.009l-19.521-3.155,21.114.154a34.581,34.581,0,0,0,.653-27.755l-28.328,14.462,26.115-18.9a35.862,35.862,0,0,0-63.373,2.865,34.583,34.583,0,0,0,4.615,36.327,34.958,34.958,0,0,0-4.061,6.386l25.351,12.991-27.022-8.924a34.589,34.589,0,0,0,5.739,32.895,34.629,34.629,0,0,0,3.823,47.387,36.018,36.018,0,0,0,48.3,0,34.628,34.628,0,0,0,3.823-47.387,34.59,34.59,0,0,0,0-43.316Z" transform="translate(-1035.541 -162.271)" fill="#c2341c"/>
    <path id="Path_3084" data-name="Path 3084" d="M1035.81,284.283a34.517,34.517,0,0,0,7.619,21.658,34.628,34.628,0,0,0,3.823,47.387,36.018,36.018,0,0,0,48.305,0,34.629,34.629,0,0,0,3.823-47.387C1104.152,299.978,1035.81,280.351,1035.81,284.283Z" transform="translate(-1035.634 -205.708)" opacity="0.1"/>
  </g>
  <g id="Group_1197" data-name="Group 1197" transform="translate(579.587 53.86)" opacity="0.1">
    <ellipse id="Ellipse_665" data-name="Ellipse 665" cx="5.556" cy="7.151" rx="5.556" ry="7.151" transform="translate(21.188 147.55)" fill="#3f3d56"/>
    <path id="Path_3085" data-name="Path 3085" d="M973.385,432.846a8.52,8.52,0,0,1-1.156-4.369c0-3.951,2.487-7.157,5.549-7.157s5.556,3.212,5.556,7.157a8.458,8.458,0,0,1-1.162,4.369,8.806,8.806,0,0,1,0,8.744,8.806,8.806,0,0,1,0,8.744,8.458,8.458,0,0,1,1.162,4.369c0,3.951-2.488,7.157-5.556,7.157s-5.549-3.212-5.549-7.157a8.52,8.52,0,0,1,1.156-4.369,8.87,8.87,0,0,1,0-8.744,8.87,8.87,0,0,1,0-8.744Z" transform="translate(-951.029 -308.747)" fill="#3f3d56"/>
    <ellipse id="Ellipse_666" data-name="Ellipse 666" cx="5.556" cy="7.151" rx="5.556" ry="7.151" transform="translate(21.188 103.835)" fill="#3f3d56"/>
    <ellipse id="Ellipse_667" data-name="Ellipse 667" cx="5.556" cy="7.151" rx="5.556" ry="7.151" transform="translate(21.188 95.091)" fill="#3f3d56"/>
    <path id="Path_3086" data-name="Path 3086" d="M987.287,288.511a25.05,25.05,0,0,0,2.07-2.994l-14.592-2.358,15.78.116a25.856,25.856,0,0,0,.509-20.746l-21.172,10.813,19.527-14.135a26.8,26.8,0,0,0-47.259,2.224,25.842,25.842,0,0,0,3.328,27.073,26.408,26.408,0,0,0-3.036,4.774l18.933,9.682L941.221,296.3a25.855,25.855,0,0,0,4.289,24.581,25.876,25.876,0,0,0,2.839,35.422,26.914,26.914,0,0,0,36.106,0,25.876,25.876,0,0,0,2.839-35.422,25.848,25.848,0,0,0,0-32.368Z" transform="translate(-939.756 -246.103)" fill="#c2341c"/>
    <path id="Path_3087" data-name="Path 3087" d="M939.793,337.086a25.8,25.8,0,0,0,5.693,16.184,25.876,25.876,0,0,0,2.839,35.422,26.914,26.914,0,0,0,36.106,0,25.876,25.876,0,0,0,2.839-35.422C990.847,348.817,939.793,334.149,939.793,337.086Z" transform="translate(-939.764 -278.493)" opacity="0.1"/>
  </g>
  <g id="Group_1198" data-name="Group 1198" transform="translate(4.771 0.107)" opacity="0.1">
    <ellipse id="Ellipse_668" data-name="Ellipse 668" cx="7.43" cy="9.573" rx="7.43" ry="9.573" transform="translate(28.009 197.505)" fill="#3f3d56"/>
    <path id="Path_3088" data-name="Path 3088" d="M115.515,412.416a11.421,11.421,0,0,0,1.554-5.853c0-5.288-3.33-9.573-7.43-9.573s-7.43,4.285-7.43,9.573a11.421,11.421,0,0,0,1.547,5.853,11.829,11.829,0,0,0,0,11.7,11.829,11.829,0,0,0,0,11.7,11.377,11.377,0,0,0-1.547,5.853c0,5.281,3.323,9.573,7.43,9.573s7.449-4.279,7.449-9.56a11.384,11.384,0,0,0-1.554-5.853,11.791,11.791,0,0,0,0-11.7,11.791,11.791,0,0,0,0-11.7Z" transform="translate(-74.201 -246.296)" fill="#3f3d56"/>
    <ellipse id="Ellipse_669" data-name="Ellipse 669" cx="7.43" cy="9.573" rx="7.43" ry="9.573" transform="translate(28.009 139.007)" fill="#3f3d56"/>
    <ellipse id="Ellipse_670" data-name="Ellipse 670" cx="7.43" cy="9.573" rx="7.43" ry="9.573" transform="translate(28.009 127.308)" fill="#3f3d56"/>
    <path id="Path_3089" data-name="Path 3089" d="M66.942,219.247a34.881,34.881,0,0,1-2.768-4.009L83.7,212.084l-21.133.186a34.581,34.581,0,0,1-.653-27.755l28.334,14.462-26.115-18.9a35.857,35.857,0,0,1,63.308,2.911,34.576,34.576,0,0,1-4.55,36.28,34.96,34.96,0,0,1,4.061,6.386L101.6,238.612l27.029-8.924a34.627,34.627,0,0,1-5.745,32.895,34.628,34.628,0,0,1-3.823,47.387,36.018,36.018,0,0,1-48.305,0,34.628,34.628,0,0,1-3.823-47.387,34.591,34.591,0,0,1,0-43.316Z" transform="translate(-59.309 -162.439)" fill="#c2341c"/>
    <path id="Path_3090" data-name="Path 3090" d="M130.5,284.283a34.516,34.516,0,0,1-7.619,21.658,34.628,34.628,0,0,1-3.823,47.387,36.018,36.018,0,0,1-48.305,0,34.628,34.628,0,0,1-3.823-47.387C62.156,299.978,130.5,280.351,130.5,284.283Z" transform="translate(-59.309 -205.816)" opacity="0.1"/>
  </g>
  <g id="Group_1199" data-name="Group 1199" transform="translate(85.447 53.86)" opacity="0.1">
    <ellipse id="Ellipse_671" data-name="Ellipse 671" cx="5.556" cy="7.151" rx="5.556" ry="7.151" transform="translate(20.924 147.55)" fill="#3f3d56"/>
    <path id="Path_3091" data-name="Path 3091" d="M224.879,432.846a8.521,8.521,0,0,0,1.156-4.369c0-3.951-2.481-7.157-5.549-7.157s-5.556,3.212-5.556,7.157a8.521,8.521,0,0,0,1.162,4.369,8.807,8.807,0,0,0,0,8.744,8.807,8.807,0,0,0,0,8.744,8.522,8.522,0,0,0-1.162,4.369c0,3.951,2.487,7.157,5.556,7.157s5.549-3.212,5.549-7.157a8.522,8.522,0,0,0-1.156-4.369,8.87,8.87,0,0,0,0-8.744,8.87,8.87,0,0,0,0-8.744Z" transform="translate(-194.006 -308.747)" fill="#3f3d56"/>
    <ellipse id="Ellipse_672" data-name="Ellipse 672" cx="5.556" cy="7.151" rx="5.556" ry="7.151" transform="translate(20.924 103.835)" fill="#3f3d56"/>
    <ellipse id="Ellipse_673" data-name="Ellipse 673" cx="5.556" cy="7.151" rx="5.556" ry="7.151" transform="translate(20.924 95.091)" fill="#3f3d56"/>
    <path id="Path_3092" data-name="Path 3092" d="M188.573,288.511a25.815,25.815,0,0,1-2.07-2.994l14.592-2.358-15.78.116a25.856,25.856,0,0,1-.509-20.746l21.172,10.813-19.527-14.135a26.8,26.8,0,0,1,47.259,2.224,25.842,25.842,0,0,1-3.328,27.073,25.718,25.718,0,0,1,3.036,4.774l-18.933,9.682,20.193-6.669a25.855,25.855,0,0,1-4.289,24.581,25.876,25.876,0,0,1-2.839,35.422,26.915,26.915,0,0,1-36.106,0,25.876,25.876,0,0,1-2.839-35.422,25.848,25.848,0,0,1,0-32.368Z" transform="translate(-182.88 -246.103)" fill="#c2341c"/>
    <path id="Path_3093" data-name="Path 3093" d="M236.082,337.086a25.8,25.8,0,0,1-5.693,16.184,25.876,25.876,0,0,1-2.839,35.422,26.915,26.915,0,0,1-36.106,0,25.876,25.876,0,0,1-2.839-35.422C185.015,348.817,236.082,334.149,236.082,337.086Z" transform="translate(-182.887 -278.493)" opacity="0.1"/>
  </g>
  <ellipse id="Ellipse_674" data-name="Ellipse 674" cx="357.771" cy="5.692" rx="357.771" ry="5.692" transform="translate(0 311.363)" fill="#a6a5a5" opacity="0.25"/>
  <ellipse id="Ellipse_675" data-name="Ellipse 675" cx="357.771" cy="5.692" rx="357.771" ry="5.692" transform="translate(0 358.104)" fill="#a6a5a5" opacity="0.25"/>
  <ellipse id="Ellipse_676" data-name="Ellipse 676" cx="357.771" cy="5.692" rx="357.771" ry="5.692" transform="translate(0 213.816)" fill="#a6a5a5" opacity="0.25"/>
  <ellipse id="Ellipse_677" data-name="Ellipse 677" cx="357.771" cy="5.692" rx="357.771" ry="5.692" transform="translate(0 262.587)" fill="#a6a5a5" opacity="0.25"/>
  <path id="Path_3094" data-name="Path 3094" d="M841.757,264.291a12.126,12.126,0,0,0-6.92.745,10.369,10.369,0,0,1-8.318,0,11.844,11.844,0,0,0-9.793.186,6.112,6.112,0,0,1-2.814.694c-3.969,0-7.266-3.932-7.952-9.117a7.679,7.679,0,0,0,1.959-2.1c2.324-3.688,5.922-6.059,9.969-6.059s7.6,2.339,9.924,5.988a7.655,7.655,0,0,0,6.587,3.559h.1C837.7,258.155,840.431,260.648,841.757,264.291Z" transform="translate(-313.725 -193.149)" fill="#c2341c" opacity="0.1"/>
  <path id="Path_3095" data-name="Path 3095" d="M853.834,239.931l-6.411,4,3.917-6.964a6.4,6.4,0,0,0-3.878-1.356h-.1a7.528,7.528,0,0,1-1.306-.1l-2.207,1.356.934-1.67a7.685,7.685,0,0,1-3.806-2.84l-3.917,2.429,2.455-4.395a11.44,11.44,0,0,0-8.709-4.33c-4.048,0-7.645,2.364-9.976,6.052a7.48,7.48,0,0,1-6.587,3.5h-.215c-4.466,0-8.083,4.979-8.083,11.121s3.617,11.128,8.083,11.128a6.209,6.209,0,0,0,2.814-.694,11.831,11.831,0,0,1,9.793-.193,10.3,10.3,0,0,0,8.317,0,11.872,11.872,0,0,1,9.7.186,6.15,6.15,0,0,0,2.781.681c4.466,0,8.083-4.986,8.083-11.128a13.911,13.911,0,0,0-1.678-6.778Z" transform="translate(-313.718 -185.077)" fill="#c2341c" opacity="0.1"/>
  <path id="Path_3096" data-name="Path 3096" d="M429.944,261.494a8.508,8.508,0,0,0-4.851.52,7.235,7.235,0,0,1-5.817,0,8.267,8.267,0,0,0-6.849.135,4.379,4.379,0,0,1-1.959.482c-2.775,0-5.086-2.75-5.569-6.38a5.381,5.381,0,0,0,1.391-1.471,7.859,7.859,0,0,1,13.926-.051,5.368,5.368,0,0,0,4.616,2.493h.072C427.1,257.209,429.01,258.956,429.944,261.494Z" transform="translate(-174.503 -193.829)" fill="#c2341c" opacity="0.1"/>
  <path id="Path_3097" data-name="Path 3097" d="M438.392,244.454l-4.485,2.8,2.723-4.876a4.451,4.451,0,0,0-2.709-.951h-.078a4.969,4.969,0,0,1-.927-.071l-1.521.951.653-1.169a5.41,5.41,0,0,1-2.664-1.985l-2.722,1.7,1.724-3.071a8.015,8.015,0,0,0-6.1-3.039,8.369,8.369,0,0,0-6.979,4.24,5.245,5.245,0,0,1-4.616,2.448h-.15c-3.127,0-5.66,3.482-5.66,7.787S407.413,257,410.54,257a4.3,4.3,0,0,0,1.959-.488,8.281,8.281,0,0,1,6.842-.128,7.115,7.115,0,0,0,5.824.039,8.307,8.307,0,0,1,6.79.128,4.286,4.286,0,0,0,1.959.475c3.121,0,5.654-3.489,5.654-7.787A9.724,9.724,0,0,0,438.392,244.454Z" transform="translate(-174.496 -188.18)" fill="#c2341c" opacity="0.1"/>
  <path id="Path_3098" data-name="Path 3098" d="M321.59,339.9a8.495,8.495,0,0,1,4.844.52,7.248,7.248,0,0,0,5.824,0,8.294,8.294,0,0,1,6.849.128,4.278,4.278,0,0,0,1.959.488c2.775,0,5.086-2.756,5.562-6.386a5.27,5.27,0,0,1-1.384-1.471,7.867,7.867,0,0,0-13.932-.045,5.368,5.368,0,0,1-4.609,2.493h-.072C324.43,335.645,322.51,337.386,321.59,339.9Z" transform="translate(-145.584 -221.862)" fill="#c2341c" opacity="0.1"/>
  <path id="Path_3099" data-name="Path 3099" d="M308.015,322.9l4.492,2.8-2.729-4.87a4.477,4.477,0,0,1,2.716-.957h.072a5.656,5.656,0,0,0,.934-.064l1.521.944-.653-1.163a5.4,5.4,0,0,0,2.657-1.985l2.722,1.7-1.7-3.077a8.008,8.008,0,0,1,6.1-3.033,8.377,8.377,0,0,1,6.979,4.24,5.244,5.244,0,0,0,4.609,2.448h.157c3.121,0,5.654,3.489,5.654,7.787s-2.533,7.787-5.654,7.787a4.292,4.292,0,0,1-1.959-.482,8.267,8.267,0,0,0-6.849-.135,7.186,7.186,0,0,1-2.925.643,7.281,7.281,0,0,1-2.9-.6,8.294,8.294,0,0,0-6.783.128,4.286,4.286,0,0,1-1.959.475c-3.127,0-5.66-3.482-5.66-7.787A9.793,9.793,0,0,1,308.015,322.9Z" transform="translate(-140.47 -216.229)" fill="#c2341c" opacity="0.1"/>
  <path id="Path_3100" data-name="Path 3100" d="M712.415,614.821c1.7-3.11-.228-6.913-2.448-9.682s-4.936-5.654-4.877-9.181c.085-5.069,5.556-8.069,9.924-10.755a48.372,48.372,0,0,0,8.912-7.067,12.949,12.949,0,0,0,2.735-3.611,14.391,14.391,0,0,0,.823-6.425q-.281-10.852-1.09-21.69" transform="translate(-278.709 -299.609)" fill="none" stroke="#3f3d56" stroke-width="4"/>
  <path id="Path_3101" data-name="Path 3101" d="M741.908,541.652a7.894,7.894,0,0,0-4.015-6.483l-1.8,3.5.059-4.24a8.1,8.1,0,0,0-8.922,3.148,7.808,7.808,0,0,0,.329,9.321,8.117,8.117,0,0,0,9.122,2.531,7.908,7.908,0,0,0,5.229-7.779Z" transform="translate(-285.913 -295.21)" fill="#c2341c"/>
  <path id="Path_3102" data-name="Path 3102" d="M720.417,622.793a8.079,8.079,0,0,1-8.837,4.114,7.947,7.947,0,0,1-6.336-7.326,7.6,7.6,0,0,1,.522-3.212,8.091,8.091,0,0,1,15.016.084l-5.021,4.022,5.523-1.285A7.761,7.761,0,0,1,720.417,622.793Z" transform="translate(-278.759 -322.82)" fill="#c2341c"/>
  <path id="Path_3103" data-name="Path 3103" d="M717.935,596.47a8.006,8.006,0,0,1-8.312-6.639,7.907,7.907,0,0,1,5.766-8.877l-.046,3.257,1.821-3.547h0a7.912,7.912,0,1,1,.751,15.8Z" transform="translate(-280.247 -311.854)" fill="#c2341c"/>
  <path id="Path_3104" data-name="Path 3104" d="M747.806,576.584a8.045,8.045,0,0,1-7.86-4.921,7.824,7.824,0,0,1,2.144-8.922,8.139,8.139,0,0,1,9.268-.934l-1.417,3.855,2.892-2.814a7.823,7.823,0,0,1,2.125,8.523,8.024,8.024,0,0,1-7.178,5.207Z" transform="translate(-290.604 -304.745)" fill="#c2341c"/>
  <path id="Path_3105" data-name="Path 3105" d="M740.818,546.173c-1.854.2-3.656.765-5.523.88a6.033,6.033,0,0,1-5.079-1.747,25.257,25.257,0,0,1-1.489-2.57,5.683,5.683,0,0,0-2.024-1.876,7.806,7.806,0,0,0,.819,8.458,8.108,8.108,0,0,0,8.134,2.847,7.971,7.971,0,0,0,6.062-6.049C741.425,546.122,741.118,546.141,740.818,546.173Z" transform="translate(-285.906 -297.625)" opacity="0.1"/>
  <path id="Path_3106" data-name="Path 3106" d="M747.825,579.1a8.078,8.078,0,0,1-7.066-3.512,7.8,7.8,0,0,1-.579-7.77,5.9,5.9,0,0,1,1.613,1.593,26.718,26.718,0,0,0,1.593,2.615,6.62,6.62,0,0,0,5.334,1.831c1.939-.1,3.813-.643,5.745-.8.268,0,.535-.039.81-.045a8,8,0,0,1-7.449,6.091Z" transform="translate(-290.622 -307.264)" opacity="0.1"/>
  <path id="Path_3107" data-name="Path 3107" d="M717.937,599.074a8.08,8.08,0,0,1-7.017-3.446,7.8,7.8,0,0,1-.693-7.688,6.485,6.485,0,0,1,1.7,1.606,26.468,26.468,0,0,0,1.743,2.666,7.35,7.35,0,0,0,5.687,1.927c2.05-.083,3.917-.52,5.876-.642A8.029,8.029,0,0,1,717.937,599.074Z" transform="translate(-280.248 -314.457)" opacity="0.1"/>
  <path id="Path_3108" data-name="Path 3108" d="M720.417,625.595a8.079,8.079,0,0,1-8.837,4.114,7.947,7.947,0,0,1-6.336-7.326,7.6,7.6,0,0,1,.522-3.212,7.984,7.984,0,0,1,1.763,1.548,35.386,35.386,0,0,0,2.154,2.808c1.639,1.587,4.3,2.242,6.653,2.3A34.316,34.316,0,0,0,720.417,625.595Z" transform="translate(-278.759 -325.623)" opacity="0.1"/>
  <path id="Path_3109" data-name="Path 3109" d="M102.415,542.821c1.7-3.11-.229-6.913-2.448-9.682s-4.936-5.667-4.877-9.181c.085-5.069,5.556-8.07,9.924-10.755a48.375,48.375,0,0,0,8.912-7.067,12.953,12.953,0,0,0,2.736-3.611,14.387,14.387,0,0,0,.823-6.425q-.287-10.852-1.09-21.69" transform="translate(-66.957 -273.867)" fill="none" stroke="#3f3d56" stroke-width="4"/>
  <path id="Path_3110" data-name="Path 3110" d="M131.908,469.652a7.893,7.893,0,0,0-4.015-6.483l-1.8,3.5.059-4.24a8.1,8.1,0,0,0-8.922,3.148,7.808,7.808,0,0,0,.329,9.321,8.117,8.117,0,0,0,9.122,2.531,7.908,7.908,0,0,0,5.229-7.779Z" transform="translate(-74.162 -269.469)" fill="#c2341c"/>
  <path id="Path_3111" data-name="Path 3111" d="M110.417,550.793a8.079,8.079,0,0,1-8.837,4.114,7.947,7.947,0,0,1-6.336-7.326,7.6,7.6,0,0,1,.522-3.212,8.091,8.091,0,0,1,15.016.083l-5.021,4.022,5.523-1.285a7.762,7.762,0,0,1-.868,3.6Z" transform="translate(-67.008 -297.079)" fill="#c2341c"/>
  <path id="Path_3112" data-name="Path 3112" d="M107.935,524.47a8.006,8.006,0,0,1-8.312-6.639,7.907,7.907,0,0,1,5.766-8.877l-.046,3.257,1.821-3.546h0a7.912,7.912,0,1,1,.751,15.8Z" transform="translate(-68.496 -286.111)" fill="#c2341c"/>
  <path id="Path_3113" data-name="Path 3113" d="M137.806,504.584a8.045,8.045,0,0,1-7.86-4.921,7.824,7.824,0,0,1,2.144-8.922,8.139,8.139,0,0,1,9.268-.934l-1.417,3.855,2.892-2.814a7.824,7.824,0,0,1,2.125,8.523,8.024,8.024,0,0,1-7.178,5.207Z" transform="translate(-78.853 -279.004)" fill="#c2341c"/>
  <path id="Path_3114" data-name="Path 3114" d="M130.818,474.173c-1.854.2-3.656.765-5.523.88a6.033,6.033,0,0,1-5.079-1.748,25.262,25.262,0,0,1-1.489-2.57,5.683,5.683,0,0,0-2.024-1.876,7.806,7.806,0,0,0,.819,8.458,8.108,8.108,0,0,0,8.134,2.847,7.971,7.971,0,0,0,6.062-6.049C131.425,474.122,131.118,474.141,130.818,474.173Z" transform="translate(-74.155 -271.883)" opacity="0.1"/>
  <path id="Path_3115" data-name="Path 3115" d="M137.825,507.1a8.078,8.078,0,0,1-7.066-3.512,7.8,7.8,0,0,1-.579-7.77,5.9,5.9,0,0,1,1.613,1.593,26.717,26.717,0,0,0,1.593,2.615,6.62,6.62,0,0,0,5.334,1.831c1.939-.1,3.813-.643,5.745-.8.268,0,.535-.039.81-.045A8,8,0,0,1,137.825,507.1Z" transform="translate(-78.871 -281.522)" opacity="0.1"/>
  <path id="Path_3116" data-name="Path 3116" d="M107.937,527.074a8.08,8.08,0,0,1-7.017-3.446,7.8,7.8,0,0,1-.693-7.688,6.484,6.484,0,0,1,1.7,1.606,26.454,26.454,0,0,0,1.743,2.666,7.35,7.35,0,0,0,5.686,1.927c2.05-.083,3.917-.52,5.876-.642A8.029,8.029,0,0,1,107.937,527.074Z" transform="translate(-68.497 -288.716)" opacity="0.1"/>
  <path id="Path_3117" data-name="Path 3117" d="M110.417,553.595a8.079,8.079,0,0,1-8.837,4.114,7.947,7.947,0,0,1-6.336-7.326,7.6,7.6,0,0,1,.522-3.212,7.983,7.983,0,0,1,1.763,1.548c.764.912,1.267,1.927,2.154,2.808,1.639,1.587,4.3,2.242,6.653,2.3a34.292,34.292,0,0,0,4.08-.231Z" transform="translate(-67.008 -299.881)" opacity="0.1"/>
  <path id="Path_3118" data-name="Path 3118" d="M504.5,460.458c-1.7-3.1.228-6.907,2.455-9.676s4.929-5.654,4.87-9.181c-.078-5.076-5.549-8.07-9.924-10.755a48.178,48.178,0,0,1-8.905-7.067,12.727,12.727,0,0,1-2.742-3.6,14.587,14.587,0,0,1-.823-6.425q.294-10.851,1.09-21.69" transform="translate(-203.839 -244.426)" fill="none" stroke="#3f3d56" stroke-width="4"/>
  <path id="Path_3119" data-name="Path 3119" d="M478.385,387.292a7.887,7.887,0,0,1,4.009-6.483l1.8,3.5-.052-4.24a8.366,8.366,0,0,1,2.644-.315,7.91,7.91,0,1,1-8.4,7.536Z" transform="translate(-200.01 -240.024)" fill="#c2341c"/>
  <path id="Path_3120" data-name="Path 3120" d="M499.868,468.4a8.084,8.084,0,0,0,9.269,4.015,7.884,7.884,0,0,0-.935-15.451,8.053,8.053,0,0,0-8.72,5.069l5.021,4.022-5.523-1.285A7.763,7.763,0,0,0,499.868,468.4Z" transform="translate(-207.161 -267.598)" fill="#c2341c"/>
  <path id="Path_3121" data-name="Path 3121" d="M502.346,442.11a8.007,8.007,0,0,0,8.319-6.636,7.907,7.907,0,0,0-5.767-8.88l.039,3.257-1.821-3.546h0a7.989,7.989,0,0,0-8.422,7.511,7.7,7.7,0,0,0,.346,2.7,8.009,8.009,0,0,0,7.306,5.6Z" transform="translate(-205.671 -256.666)" fill="#c2341c"/>
  <path id="Path_3122" data-name="Path 3122" d="M472.455,422.2a8.045,8.045,0,0,0,7.856-4.925,7.824,7.824,0,0,0-2.148-8.919,8.139,8.139,0,0,0-9.266-.932l1.423,3.855-2.925-2.756a7.8,7.8,0,0,0-2.611,5.461,7.532,7.532,0,0,0,.2,2.178,8,8,0,0,0,7.469,6.039Z" transform="translate(-195.287 -249.551)" fill="#c2341c"/>
  <path id="Path_3123" data-name="Path 3123" d="M479.571,391.813c1.854.2,3.656.765,5.517.88a6.06,6.06,0,0,0,5.086-1.748,25.2,25.2,0,0,0,1.482-2.57,5.7,5.7,0,0,1,2.03-1.876,7.806,7.806,0,0,1-.817,8.463,8.108,8.108,0,0,1-8.14,2.845,7.971,7.971,0,0,1-6.059-6.059C478.964,391.755,479.264,391.781,479.571,391.813Z" transform="translate(-200.111 -242.438)" opacity="0.1"/>
  <path id="Path_3124" data-name="Path 3124" d="M472.579,424.722a8.085,8.085,0,0,0,7.061-3.515,7.808,7.808,0,0,0,.584-7.766,5.929,5.929,0,0,0-1.619,1.593,26.711,26.711,0,0,1-1.593,2.615,6.6,6.6,0,0,1-5.327,1.831c-1.939-.1-3.813-.643-5.745-.8-.268,0-.542-.039-.81-.045A8,8,0,0,0,472.579,424.722Z" transform="translate(-195.411 -252.07)" opacity="0.1"/>
  <path id="Path_3125" data-name="Path 3125" d="M502.539,444.714a8.073,8.073,0,0,0,7.022-3.443,7.8,7.8,0,0,0,.688-7.691,6.374,6.374,0,0,0-1.7,1.606,26.456,26.456,0,0,1-1.743,2.666,7.364,7.364,0,0,1-5.693,1.927c-2.057-.083-3.917-.52-5.876-.642A8.009,8.009,0,0,0,502.539,444.714Z" transform="translate(-205.863 -259.27)" opacity="0.1"/>
  <path id="Path_3126" data-name="Path 3126" d="M500.34,471.235a8.1,8.1,0,0,0,10.4,3.583A7.864,7.864,0,0,0,515,464.81a7.678,7.678,0,0,0-1.763,1.548c-.764.912-1.306,1.927-2.154,2.808-1.645,1.587-4.3,2.242-6.659,2.3a35.791,35.791,0,0,1-4.08-.231Z" transform="translate(-207.634 -270.435)" opacity="0.1"/>
  <ellipse id="Ellipse_678" data-name="Ellipse 678" cx="65.261" cy="64.222" rx="65.261" ry="64.222" transform="translate(443.799 89.034)" fill="#c2341c"/>
  <path id="Path_3127" data-name="Path 3127" d="M843.929,401.084a49.51,49.51,0,0,0-10.446-6.868c-3.127-1.478-4.276-1.452-6.489.122-1.841,1.285-3.036,2.525-5.151,2.069s-6.307-3.566-10.361-7.543-7.2-8.076-7.652-10.19.79-3.264,2.109-5.076c1.593-2.178,1.639-3.309.124-6.386-1.306-2.666-4.694-8.031-6.986-10.28s-2.788-1.754-4.041-1.285a23.5,23.5,0,0,0-3.7,1.927,11.064,11.064,0,0,0-4.44,4.619c-.894,1.876-1.906,5.358,3.3,14.475A80.877,80.877,0,0,0,804.62,395.6h0a82.091,82.091,0,0,0,19.305,14.224c9.258,5.14,12.8,4.118,14.709,3.245a10.892,10.892,0,0,0,4.688-4.369,22.573,22.573,0,0,0,1.959-3.643C845.711,403.827,846.221,403.326,843.929,401.084Z" transform="translate(-306.854 -231.265)" fill="#fff"/>
  <path id="Path_3128" data-name="Path 3128" d="M797,300.86c-36.065-.018-65.313,28.746-65.319,64.237s29.243,64.27,65.308,64.259c36.044,0,65.277-28.778,65.265-64.269C862.241,329.624,833.035,300.878,797,300.86Zm0,119.9c-31.25,0-56.584-24.93-56.584-55.684S765.749,309.392,797,309.392s56.584,24.93,56.584,55.684S828.25,420.759,797,420.759Z" transform="translate(-287.939 -211.82)" opacity="0.1"/>
  <ellipse id="Ellipse_679" data-name="Ellipse 679" cx="65.261" cy="64.222" rx="65.261" ry="64.222" transform="translate(293.868 186.582)" fill="#c2341c"/>
  <path id="Path_3129" data-name="Path 3129" d="M619.117,522.364l-19.54,19.563a.343.343,0,0,0,0,.5l13.71,14.347a2.3,2.3,0,0,1,.507,2.527,2.364,2.364,0,0,1-2.172,1.437,2.4,2.4,0,0,1-1.671-.681l-13.638-14.3a.377.377,0,0,0-.522,0l-3.323,3.3a14.722,14.722,0,0,1-10.446,4.324,15.044,15.044,0,0,1-10.629-4.446l-3.193-3.212a.376.376,0,0,0-.522,0l-13.606,14.263a2.384,2.384,0,0,1-3.336,0,2.287,2.287,0,0,1,0-3.283L564.394,542.4a.381.381,0,0,0,0-.5l-19.54-19.563a.363.363,0,0,0-.392-.077.353.353,0,0,0-.221.328v39.146a5.778,5.778,0,0,0,5.8,5.712h63.9a5.778,5.778,0,0,0,5.8-5.712V522.615a.353.353,0,0,0-.224-.343.363.363,0,0,0-.4.092Z" transform="translate(-222.873 -290.963)" fill="#fff"/>
  <path id="Path_3130" data-name="Path 3130" d="M583.185,545.313a9.966,9.966,0,0,0,7.129-2.891l28.458-28.507a5.736,5.736,0,0,0-3.591-1.285H551.241a5.7,5.7,0,0,0-3.591,1.285l28.465,28.507A9.926,9.926,0,0,0,583.185,545.313Z" transform="translate(-224.057 -287.532)" fill="#fff"/>
  <path id="Path_3131" data-name="Path 3131" d="M566.089,452.69c-36.065-.018-65.313,28.746-65.319,64.237s29.243,64.27,65.308,64.259c36.044,0,65.277-28.778,65.265-64.269C631.331,481.454,602.125,452.708,566.089,452.69Zm0,119.9c-31.25,0-56.584-24.93-56.584-55.684s25.333-55.684,56.584-55.684,56.584,24.93,56.584,55.684S597.34,572.589,566.089,572.589Z" transform="translate(-207.783 -266.103)" opacity="0.1"/>
  <ellipse id="Ellipse_680" data-name="Ellipse 680" cx="65.261" cy="64.222" rx="65.261" ry="64.222" transform="translate(138.988 138.621)" fill="#c2341c"/>
  <path id="Path_3132" data-name="Path 3132" d="M351.017,430.16,325,489.229l2.429,2.39,23.595-10.241,23.595,10.241,2.429-2.39Z" transform="translate(-146.768 -258.047)" fill="#fff"/>
  <path id="Path_3133" data-name="Path 3133" d="M330.119,378c-36.061-.018-65.307,28.739-65.319,64.226s29.215,64.263,65.276,64.269,65.3-28.771,65.3-64.259c0-35.456-29.2-64.213-65.243-64.237Zm0,119.9c-31.255,0-56.59-24.937-56.584-55.694s25.34-55.679,56.595-55.673,56.591,24.958,56.573,55.716c0,30.744-25.329,55.674-56.577,55.677Z" transform="translate(-125.87 -239.399)" opacity="0.1"/>
  <path id="Path_3134" data-name="Path 3134" d="M824.36,588.356q-.888-2.133-1.822-4.253a12.578,12.578,0,0,0-2.226-3.784,4.07,4.07,0,0,0-1.306-.964,5.652,5.652,0,0,0-1.7-.334,13.82,13.82,0,0,0-2.677-.071c-.346-.1-.738-.238-1.123-.392a9.208,9.208,0,0,0,6.947-8.513c0-.128,0-.263,0-.392a9.278,9.278,0,0,0-14.128-7.825,8.772,8.772,0,0,0-9.793,4.645,10.536,10.536,0,0,0-3.33,7.9c0,.135,0,.276,0,.4.17,4.992,3.447,8.995,7.586,9.4a4.354,4.354,0,0,0-1.2.79c-1.266,1.2-1.475,3.11-1.612,4.844l-.1,1.285-2.194.771a.4.4,0,0,0-.265.321.4.4,0,0,0,.167.379l2.1,1.471v.366a1.578,1.578,0,0,0,.039.418,2.95,2.95,0,0,0-.81,1.137,5.175,5.175,0,0,0-.189,2.081l.078,1.792a13.862,13.862,0,0,0,.555,3.99c.274.8,1.462,2.718,2.318,2.731a81.822,81.822,0,0,0-1,10.986c-.1.1.176.186.653.263.47,3.546,2,13.492,4.727,17.867a37.152,37.152,0,0,1,1.025,4.343s.777,9.451,1.8,12.259c.875,2.39,1.567,8.288,1.756,10a.99.99,0,0,0-.725.732c-.516,1.529-3.858,3.855-3.858,3.855a16.2,16.2,0,0,0-2.886,1.818c-1.051.932-1.012,1.773,3.656,1.246,9.01-1.022,10.55-3.855,10.55-3.855s-.144-.475-.359-1.092a11.76,11.76,0,0,0-1.182-2.743c-.131-.122-.261.084-.418.4a54.15,54.15,0,0,1-.614-12.406,19.83,19.83,0,0,0-1.032-7.408,13.806,13.806,0,0,1,0-4.851c.516-2.043-2.057-12.008-2.057-12.008l-1.475-7.337a2.093,2.093,0,0,1,.411.855l.039.148.039.212a.4.4,0,0,0,.1.2c1.005,4.112,3.76,15.5,3.76,17.173,0,2.043,2.572,7.151,2.572,7.151s1.025,8.429,2.827,11.745c1.371,2.525,1.4,6.226,1.338,7.858h0a7.192,7.192,0,0,1-.823,2.608,6.185,6.185,0,0,0-.973,1.664l-.059.122s-.77,1.536-.255,1.793a12.835,12.835,0,0,0,6.176.765s1.032-1.285,1.032-1.786a7.928,7.928,0,0,0-.117-.912c-.189-1.208-.542-3.11-.548-3.129.216-.822-.653-3.11-.653-3.11l-.261-7.151a32.521,32.521,0,0,0-1.8-14.308s-1.306-4.594-1.025-5.872-.516-14.815-.516-14.815l-.078-.193a14.4,14.4,0,0,1,.078-2.872,37.57,37.57,0,0,0-1.031-9.7,8.3,8.3,0,0,1-.366-2.114c.059-.533.235-2.094.477-4.035a74.872,74.872,0,0,0,7.586-.643.955.955,0,0,0,.653-.257.889.889,0,0,0,.15-.52C827.272,595.655,825.842,591.916,824.36,588.356Zm-5.177,8.1c.268-1.831.555-3.6.842-4.921l.039.116a35.337,35.337,0,0,1,1.24,4.048A14.132,14.132,0,0,1,819.183,596.458Z" transform="translate(-309.294 -304.632)" fill="url(#linear-gradient)"/>
  <path id="Path_3135" data-name="Path 3135" d="M802.37,648.4s1.541,13.64,4.877,18.94a36.271,36.271,0,0,1,1.025,4.292s.77,9.342,1.8,12.117,1.8,10.357,1.8,10.357,3.591,4.035,4.877.758a52.383,52.383,0,0,1-.77-13.132,19.483,19.483,0,0,0-1.025-7.324,13.482,13.482,0,0,1,0-4.793c.509-2.024-2.057-11.867-2.057-11.867l-2.05-9.849Z" transform="translate(-312.479 -335.895)" fill="#be6f72"/>
  <path id="Path_3136" data-name="Path 3136" d="M819.3,722.8s-1.541,2.776-10.518,3.784c-4.661.52-4.694-.308-3.643-1.234a16.284,16.284,0,0,1,2.873-1.8s3.336-2.268,3.845-3.784,2.311-.251,2.311-.251c2.566,3.784,3.082-1.015,3.591-.508a11.3,11.3,0,0,1,1.182,2.7C819.159,722.324,819.3,722.8,819.3,722.8Z" transform="translate(-313.246 -361.303)"/>
  <path id="Path_3137" data-name="Path 3137" d="M819.3,724.326s-1.541,2.776-10.518,3.784c-4.661.52-4.694-.308-3.643-1.234.731.456,2.207.642,5.177-.533,4.276-1.722,7.377-2.718,8.624-3.1C819.159,723.85,819.3,724.326,819.3,724.326Z" transform="translate(-313.246 -362.83)" opacity="0.1"/>
  <path id="Path_3138" data-name="Path 3138" d="M819.527,681.733a19.482,19.482,0,0,0-1.025-7.324,13.479,13.479,0,0,1,0-4.793c.509-2.024-2.057-11.867-2.057-11.867L814.4,647.9l-1.776.1,2.03,9.746s2.566,9.843,2.057,11.867a13.479,13.479,0,0,0,0,4.793,18.913,18.913,0,0,1,1.025,7.324,52.371,52.371,0,0,0,.77,13.132,2.212,2.212,0,0,1-.744,1.041,1.685,1.685,0,0,0,2.54-1.041A52.381,52.381,0,0,1,819.527,681.733Z" transform="translate(-316.036 -335.895)" opacity="0.1"/>
  <path id="Path_3139" data-name="Path 3139" d="M811.089,562.42a9.25,9.25,0,0,0-4.844,1.356,8.76,8.76,0,0,0-9.793,4.594,10.378,10.378,0,0,0-3.323,7.813c0,5.371,3.676,9.721,8.207,9.721,3.264,0,6.124-2.287,7.436-5.6a9.11,9.11,0,1,0,2.311-17.887Z" transform="translate(-309.27 -305.333)" fill="#3f3d56"/>
  <path id="Path_3140" data-name="Path 3140" d="M826.762,650.65l.77,2.017s.77,13.383.509,14.648,1.031,5.782,1.031,5.782a31.844,31.844,0,0,1,1.8,14.134l.255,7.067s1.025,2.776.516,3.283-4.381-.45-4.381-.45.516-5.3-1.306-8.584-2.82-11.616-2.82-11.616-2.566-5.05-2.566-7.067-4.107-18.433-4.107-18.433Z" transform="translate(-317.369 -336.877)" fill="#be6f72"/>
  <path id="Path_3141" data-name="Path 3141" d="M801.569,641.415s.261-9.091,1.306-11.867a18.623,18.623,0,0,0,1.143-4.028s15.532,2.763,16.818,1.754a21.591,21.591,0,0,0,.516,3.784,35.76,35.76,0,0,1,1.025,9.6c-.281,3.033,0,3.026,0,3.026s-10.524,1.516-10.779,0-1.025-1.51-1.025-1.51S801.06,641.89,801.569,641.415Z" transform="translate(-312.193 -327.893)" fill="#3f3d56"/>
  <g id="Group_1200" data-name="Group 1200" transform="translate(489.376 299.381)" opacity="0.1">
    <path id="Path_3142" data-name="Path 3142" d="M810.048,649.97s-6.49-.174-8.448-.52v.52c-.509.5,8.983.758,8.983.758a.659.659,0,0,1,.353.141C810.589,649.97,810.048,649.97,810.048,649.97Z" transform="translate(-801.58 -635.829)"/>
    <path id="Path_3143" data-name="Path 3143" d="M826.622,632.034a21.587,21.587,0,0,1-.516-3.784,1.114,1.114,0,0,1-.437.154,12.591,12.591,0,0,0,.437,2.872,39.49,39.49,0,0,1,1.025,9.6c-.281,3.033,0,3.026,0,3.026s-8.324,1.2-10.341.4a2.988,2.988,0,0,0,.078.36c.255,1.516,10.779,0,10.779,0s-.261,0,0-3.026A36.963,36.963,0,0,0,826.622,632.034Z" transform="translate(-806.86 -628.25)"/>
    <path id="Path_3144" data-name="Path 3144" d="M810.048,649.97s-6.49-.174-8.448-.52v.52c-.509.5,8.983.758,8.983.758a.659.659,0,0,1,.353.141C810.589,649.97,810.048,649.97,810.048,649.97Z" transform="translate(-801.58 -635.829)"/>
    <path id="Path_3145" data-name="Path 3145" d="M826.622,632.034a21.587,21.587,0,0,1-.516-3.784,1.114,1.114,0,0,1-.437.154,12.591,12.591,0,0,0,.437,2.872,39.49,39.49,0,0,1,1.025,9.6c-.281,3.033,0,3.026,0,3.026s-8.324,1.2-10.341.4a2.988,2.988,0,0,0,.078.36c.255,1.516,10.779,0,10.779,0s-.261,0,0-3.026A36.963,36.963,0,0,0,826.622,632.034Z" transform="translate(-806.86 -628.25)"/>
  </g>
  <path id="Path_3146" data-name="Path 3146" d="M815.963,585.735a3.357,3.357,0,0,0,.979,1.246,2.213,2.213,0,0,0,.921.392c-.574.328-1.2.572-1.776.9a31.51,31.51,0,0,0-2.611,1.927,5.364,5.364,0,0,1-3,1.144,3.564,3.564,0,0,0,.418-3.592,3.321,3.321,0,0,1-.457-1.246c0-.726.653-1.285,1.26-1.67.49-.328.992-.642,1.5-.957.4-.244,1-.758,1.5-.739s.561.456.653.906A7.049,7.049,0,0,0,815.963,585.735Z" transform="translate(-315.279 -312.741)" fill="#be6f72"/>
  <path id="Path_3147" data-name="Path 3147" d="M815.963,585.735a3.357,3.357,0,0,0,.979,1.246,2.213,2.213,0,0,0,.921.392c-.574.328-1.2.572-1.776.9a31.51,31.51,0,0,0-2.611,1.927,5.364,5.364,0,0,1-3,1.144,3.564,3.564,0,0,0,.418-3.592,3.321,3.321,0,0,1-.457-1.246c0-.726.653-1.285,1.26-1.67.49-.328.992-.642,1.5-.957.4-.244,1-.758,1.5-.739s.561.456.653.906A7.049,7.049,0,0,0,815.963,585.735Z" transform="translate(-315.279 -312.741)" opacity="0.1"/>
  <ellipse id="Ellipse_681" data-name="Ellipse 681" cx="5.902" cy="5.808" rx="5.902" ry="5.808" transform="translate(500.795 276.278)" fill="#be6f72"/>
  <path id="Path_3148" data-name="Path 3148" d="M836.967,726.3c0,.508-1.025,1.767-1.025,1.767a12.9,12.9,0,0,1-6.157-.758c-.516-.25.255-1.767.255-1.767l.059-.122a6.108,6.108,0,0,1,.973-1.645,7.105,7.105,0,0,0,.816-2.57c1.593-2.57,4.42,1.111,4.42,1.111s.359,1.927.548,3.1A8.667,8.667,0,0,1,836.967,726.3Z" transform="translate(-321.934 -361.776)"/>
  <path id="Path_3149" data-name="Path 3149" d="M836.967,729.139c0,.508-1.025,1.767-1.025,1.767a12.9,12.9,0,0,1-6.157-.758c-.516-.25.255-1.767.255-1.767l.059-.122a12.578,12.578,0,0,0,5.589,1.131l1.169-1.15C836.921,728.67,836.967,729.011,836.967,729.139Z" transform="translate(-321.934 -364.617)" opacity="0.1"/>
  <ellipse id="Ellipse_682" data-name="Ellipse 682" cx="5.771" cy="5.68" rx="5.771" ry="5.68" transform="translate(489.121 264.283)" fill="#be6f72"/>
  <path id="Path_3150" data-name="Path 3150" d="M801.906,599.295c-1.267,1.189-1.475,3.071-1.606,4.786l-.2,2.512a12.472,12.472,0,0,0-.046,2.037c0,.418.1.842.144,1.285s.052,1,.059,1.51v3.714a4.321,4.321,0,0,0,.418,2.229,1.552,1.552,0,0,0,1.959.694,2.194,2.194,0,0,0,.809-1.234,18.934,18.934,0,0,0,1.306-4.7c.052-.559.059-1.118.111-1.677s.15-1.144.235-1.709c.366-2.364.529-4.754.692-7.138.046-.707.692-3.489-.248-3.8-.457-.148-1.4.315-1.841.469a5.2,5.2,0,0,0-1.8,1.021Z" transform="translate(-311.668 -317.973)" fill="#be6f72"/>
  <path id="Path_3151" data-name="Path 3151" d="M801.906,599.295c-1.267,1.189-1.475,3.071-1.606,4.786l-.2,2.512a12.472,12.472,0,0,0-.046,2.037c0,.418.1.842.144,1.285s.052,1,.059,1.51v3.714a4.321,4.321,0,0,0,.418,2.229,1.552,1.552,0,0,0,1.959.694,2.194,2.194,0,0,0,.809-1.234,18.934,18.934,0,0,0,1.306-4.7c.052-.559.059-1.118.111-1.677s.15-1.144.235-1.709c.366-2.364.529-4.754.692-7.138.046-.707.692-3.489-.248-3.8-.457-.148-1.4.315-1.841.469a5.2,5.2,0,0,0-1.8,1.021Z" transform="translate(-311.668 -317.973)" opacity="0.1"/>
  <path id="Path_3152" data-name="Path 3152" d="M815.412,588.16s-4.361,3.283-6.927,4.041c0,0-1.521,1.709-1.782,2.12s-.783,4.947-1.306,5.962-1.8,3.283,0,5.551a9.478,9.478,0,0,1,.255,3.032c-.255.758-1.188,3.534-.339,3.662s3.421,1.889,5.726,1.388,10.909,1.927,10.909,1.927,1.423-13.01,2.455-15.31l-2.311-.758s-6.411-3.784-2.566-9.592C819.518,590.184,815.915,589.426,815.412,588.16Z" transform="translate(-313.207 -314.535)"/>
  <path id="Path_3153" data-name="Path 3153" d="M796.753,610.92l5.3,3.694a.4.4,0,0,0,.464,0l1.436-1.06a.394.394,0,0,0,0-.6l-4.08-3.566a.4.4,0,0,0-.4-.077l-2.618.925a.394.394,0,0,0-.264.313A.39.39,0,0,0,796.753,610.92Z" transform="translate(-310.472 -322.088)" fill="#3f3d56"/>
  <path id="Path_3154" data-name="Path 3154" d="M799.216,623.618a13.777,13.777,0,0,1-.555-3.938l-.078-1.78a5.061,5.061,0,0,1,.189-2.056,3.4,3.4,0,0,1,2.2-1.9,7.716,7.716,0,0,1,3-.212.78.78,0,0,1,.385.1.7.7,0,0,1,.209.347,2.293,2.293,0,0,1,.117,1.857,1.942,1.942,0,0,1-.6.61c-.712.5-1.541.835-2.213,1.381a.793.793,0,0,0-.3.373.854.854,0,0,0,0,.4,6.4,6.4,0,0,0,.339,1.034,1.021,1.021,0,0,0,.294.437c.124.1.287.141.418.238.281.225.868.52.836.874-.1,1.285-.881,2.724-1.188,4C801.677,627.877,799.595,624.7,799.216,623.618Z" transform="translate(-311.152 -323.658)" fill="#be6f72"/>
  <g id="Group_1201" data-name="Group 1201" transform="translate(496.166 285.619)" opacity="0.1">
    <path id="Path_3155" data-name="Path 3155" d="M812.124,628.216h-.144a4.463,4.463,0,0,0,1.678,0h.163a5.973,5.973,0,0,0-1.7,0Z" transform="translate(-811.98 -614.454)"/>
    <path id="Path_3156" data-name="Path 3156" d="M831.49,606.83c-.92,2.037-2.278,13.068-2.52,15.259.9.231,1.5.4,1.5.4s1.41-12.978,2.442-15.278Z" transform="translate(-817.878 -606.83)"/>
  </g>
  <path id="Path_3157" data-name="Path 3157" d="M822.688,597.756a1.926,1.926,0,0,0,.842,1.253,11.212,11.212,0,0,1,1.5,1.49,10.49,10.49,0,0,1,1.482,2.923,35.4,35.4,0,0,1,1.234,4c-3.264,1.49-6.973,1.42-10.446,2.4a8.367,8.367,0,0,0-3.917,2.281,5.261,5.261,0,0,0-1.443,4.182.539.539,0,0,0,.078.251.553.553,0,0,0,.457.18,3.958,3.958,0,0,0,2.4-.809,11.327,11.327,0,0,0,1.835-1.773,2.948,2.948,0,0,1,1.306-.951,21.7,21.7,0,0,1,5.876-.565,75.228,75.228,0,0,0,8.755-.681.712.712,0,0,0,.582-.2.687.687,0,0,0,.2-.573c.287-3.791-1.143-7.491-2.612-11.006q-.881-2.114-1.815-4.208a12.417,12.417,0,0,0-2.22-3.739,3.913,3.913,0,0,0-1.306-.951,5.6,5.6,0,0,0-1.75-.321,12.606,12.606,0,0,0-2.866-.051,5.927,5.927,0,0,0-.274,1.458,12.491,12.491,0,0,0,1.58,4.928C822.257,597.512,822.538,597.524,822.688,597.756Z" transform="translate(-315.789 -315.49)" fill="#be6f72"/>
  <path id="Path_3158" data-name="Path 3158" d="M812.062,606.67a4.65,4.65,0,0,0-.653,2.454,3,3,0,0,0,2.246,2.93" transform="translate(-315.616 -321.154)" fill="none" stroke="#000" stroke-width="1" opacity="0.1"/>
  <path id="Path_3159" data-name="Path 3159" d="M811.217,572.694a3.041,3.041,0,0,0-.947.148c-.855-1.285-2.866-2.172-5.223-2.172-3.121,0-5.647,1.587-5.647,3.54s2.526,3.534,5.647,3.534a8.053,8.053,0,0,0,3.388-.707,3.093,3.093,0,0,0,3.678,1.574,3.024,3.024,0,0,0,2.131-3.343,3.06,3.06,0,0,0-3.041-2.573Z" transform="translate(-311.447 -308.283)" fill="#3f3d56"/>
  <path id="Path_3160" data-name="Path 3160" d="M811.464,579.346a3.073,3.073,0,0,1-2.768-1.716,8.057,8.057,0,0,1-3.388.707c-3.114,0-5.641-1.581-5.641-3.534a2.09,2.09,0,0,1,0-.353,2.367,2.367,0,0,0-.287,1.111c0,1.927,2.527,3.534,5.647,3.534a8.055,8.055,0,0,0,3.388-.707,3.086,3.086,0,0,0,3.172,1.685,3.055,3.055,0,0,0,2.619-2.437,3.066,3.066,0,0,1-2.742,1.709Z" transform="translate(-311.44 -309.634)" opacity="0.1"/>
  <path id="Path_3161" data-name="Path 3161" d="M796.444,569.86a8.76,8.76,0,0,1,9.793-4.594,9.361,9.361,0,0,1,9.009-.38,9.084,9.084,0,0,1,5.041,7.358v-.758a9.062,9.062,0,0,0-4.744-7.919,9.36,9.36,0,0,0-9.339.209,8.76,8.76,0,0,0-9.793,4.594,10.379,10.379,0,0,0-3.323,7.813v.758A10.213,10.213,0,0,1,796.444,569.86Z" transform="translate(-309.256 -305.333)" opacity="0.1"/>
  <path id="Path_3162" data-name="Path 3162" d="M884.495,538.935c1.7-3.1-.229-6.913-2.455-9.682s-4.929-5.647-4.87-9.181c.078-5.069,5.549-8.063,9.923-10.755A48.113,48.113,0,0,0,896,502.249a12.825,12.825,0,0,0,2.742-3.6,14.588,14.588,0,0,0,.823-6.425q-.287-10.858-1.09-21.69" transform="translate(-338.443 -272.48)" fill="none" stroke="#3f3d56" stroke-width="4"/>
  <path id="Path_3163" data-name="Path 3163" d="M913.978,465.735a7.881,7.881,0,0,0-4.009-6.476l-1.8,3.5.052-4.24a7.89,7.89,0,1,0,5.758,7.215Z" transform="translate(-345.645 -268.07)" fill="#c2341c"/>
  <path id="Path_3164" data-name="Path 3164" d="M892.5,546.846a8.084,8.084,0,0,1-9.269,4.012,7.884,7.884,0,0,1,.934-15.45,8.053,8.053,0,0,1,8.72,5.065l-5.021,4.022,5.523-1.285A7.763,7.763,0,0,1,892.5,546.846Z" transform="translate(-338.493 -295.645)" fill="#c2341c"/>
  <path id="Path_3165" data-name="Path 3165" d="M890.011,520.554a8.007,8.007,0,0,1-8.319-6.636,7.907,7.907,0,0,1,5.767-8.88l-.039,3.257,1.821-3.54h0a7.994,7.994,0,0,1,8.4,7.536,7.829,7.829,0,0,1-2.084,5.7,8.085,8.085,0,0,1-5.568,2.573Z" transform="translate(-339.978 -284.713)" fill="#c2341c"/>
  <path id="Path_3166" data-name="Path 3166" d="M919.879,500.673a8.045,8.045,0,0,1-7.856-4.925,7.824,7.824,0,0,1,2.148-8.919,8.139,8.139,0,0,1,9.266-.932l-1.423,3.855,2.925-2.763a7.813,7.813,0,0,1,2.611,5.461,7.512,7.512,0,0,1-.2,2.178A8.006,8.006,0,0,1,919.879,500.673Z" transform="translate(-350.338 -277.606)" fill="#c2341c"/>
  <path id="Path_3167" data-name="Path 3167" d="M912.9,470.253c-1.854.206-3.663.771-5.523.887a6.044,6.044,0,0,1-5.086-1.754,24.47,24.47,0,0,1-1.482-2.57,5.741,5.741,0,0,0-2.024-1.876,7.806,7.806,0,0,0,.817,8.463,8.107,8.107,0,0,0,8.14,2.845,7.971,7.971,0,0,0,6.059-6.059C913.5,470.2,913.2,470.221,912.9,470.253Z" transform="translate(-345.64 -270.482)" opacity="0.1"/>
  <path id="Path_3168" data-name="Path 3168" d="M919.9,503.192a8.084,8.084,0,0,1-7.061-3.516,7.807,7.807,0,0,1-.584-7.766,5.9,5.9,0,0,1,1.619,1.587,25.254,25.254,0,0,0,1.593,2.615,6.6,6.6,0,0,0,5.327,1.837c1.939-.09,3.813-.642,5.745-.8.268,0,.542-.045.809-.051A8,8,0,0,1,919.9,503.192Z" transform="translate(-350.355 -280.125)" opacity="0.1"/>
  <path id="Path_3169" data-name="Path 3169" d="M890.011,523.147a8.074,8.074,0,0,1-7.031-3.446,7.8,7.8,0,0,1-.68-7.7,6.578,6.578,0,0,1,1.7,1.606c.653.867,1.012,1.87,1.743,2.666a7.512,7.512,0,0,0,5.693,1.966c2.056-.045,3.917-.527,5.876-.674A8.016,8.016,0,0,1,890.011,523.147Z" transform="translate(-339.978 -287.307)" opacity="0.1"/>
  <path id="Path_3170" data-name="Path 3170" d="M892.521,549.685a8.105,8.105,0,0,1-10.366,3.5,7.871,7.871,0,0,1-4.29-9.924,7.832,7.832,0,0,1,1.763,1.548c.77.919,1.273,1.927,2.154,2.814,1.645,1.587,4.3,2.236,6.659,2.3a35.787,35.787,0,0,0,4.08-.238Z" transform="translate(-338.518 -298.483)" opacity="0.1"/>
  <path id="Path_3171" data-name="Path 3171" d="M1043.495,690.935c1.7-3.1-.229-6.913-2.455-9.682s-4.929-5.647-4.87-9.181c.078-5.069,5.549-8.063,9.924-10.755a48.122,48.122,0,0,0,8.905-7.067,12.829,12.829,0,0,0,2.742-3.6,14.59,14.59,0,0,0,.823-6.425q-.281-10.858-1.09-21.69" transform="translate(-393.638 -326.824)" fill="none" stroke="#3f3d56" stroke-width="4"/>
  <path id="Path_3172" data-name="Path 3172" d="M1073,617.735a7.88,7.88,0,0,0-4.009-6.476l-1.8,3.5.052-4.24a7.885,7.885,0,1,0,5.791,7.215Z" transform="translate(-400.856 -322.415)" fill="#c2341c"/>
  <path id="Path_3173" data-name="Path 3173" d="M1051.5,698.846a8.084,8.084,0,0,1-9.269,4.012,7.884,7.884,0,0,1,.934-15.45,8.053,8.053,0,0,1,8.72,5.065l-5.02,4.022,5.523-1.285a7.762,7.762,0,0,1-.888,3.636Z" transform="translate(-393.688 -349.988)" fill="#c2341c"/>
  <path id="Path_3174" data-name="Path 3174" d="M1049.011,672.554a8.007,8.007,0,0,1-8.32-6.636,7.907,7.907,0,0,1,5.767-8.88l-.039,3.257,1.822-3.54h0a8,8,0,0,1,8.4,7.536,7.829,7.829,0,0,1-2.084,5.7,8.083,8.083,0,0,1-5.568,2.573Z" transform="translate(-395.172 -339.057)" fill="#c2341c"/>
  <path id="Path_3175" data-name="Path 3175" d="M1078.879,652.673a8.045,8.045,0,0,1-7.856-4.925,7.824,7.824,0,0,1,2.148-8.919,8.139,8.139,0,0,1,9.266-.932l-1.423,3.855,2.925-2.763a7.813,7.813,0,0,1,2.611,5.461,7.523,7.523,0,0,1-.2,2.178A8.006,8.006,0,0,1,1078.879,652.673Z" transform="translate(-405.532 -331.949)" fill="#c2341c"/>
  <path id="Path_3176" data-name="Path 3176" d="M1071.9,622.253c-1.854.206-3.663.771-5.523.887a6.045,6.045,0,0,1-5.086-1.754,24.491,24.491,0,0,1-1.482-2.57,5.741,5.741,0,0,0-2.024-1.876,7.806,7.806,0,0,0,.817,8.463,8.107,8.107,0,0,0,8.14,2.845,7.971,7.971,0,0,0,6.059-6.059C1072.5,622.2,1072.2,622.221,1071.9,622.253Z" transform="translate(-400.834 -324.825)" opacity="0.1"/>
  <path id="Path_3177" data-name="Path 3177" d="M1078.9,655.192a8.084,8.084,0,0,1-7.061-3.515,7.808,7.808,0,0,1-.584-7.766,5.9,5.9,0,0,1,1.619,1.587,25.262,25.262,0,0,0,1.593,2.615,6.6,6.6,0,0,0,5.327,1.837c1.939-.09,3.813-.642,5.745-.8.268,0,.542-.045.809-.051A8,8,0,0,1,1078.9,655.192Z" transform="translate(-405.55 -334.468)" opacity="0.1"/>
  <path id="Path_3178" data-name="Path 3178" d="M1049.012,675.147a8.073,8.073,0,0,1-7.031-3.446,7.8,7.8,0,0,1-.68-7.7,6.582,6.582,0,0,1,1.7,1.606c.653.867,1.012,1.87,1.743,2.666a7.512,7.512,0,0,0,5.693,1.966c2.057-.045,3.917-.527,5.876-.674A8.015,8.015,0,0,1,1049.012,675.147Z" transform="translate(-395.172 -341.65)" opacity="0.1"/>
  <path id="Path_3179" data-name="Path 3179" d="M1051.521,701.685a8.106,8.106,0,0,1-10.366,3.5,7.871,7.871,0,0,1-4.291-9.924,7.833,7.833,0,0,1,1.763,1.548c.771.919,1.306,1.927,2.155,2.814,1.645,1.587,4.3,2.236,6.659,2.3A35.776,35.776,0,0,0,1051.521,701.685Z" transform="translate(-393.712 -352.826)" opacity="0.1"/>
  <path id="Path_3180" data-name="Path 3180" d="M483.458,577.871a6.268,6.268,0,0,0-2.553-5.088,7.425,7.425,0,0,0-6.274-7.247,7.418,7.418,0,0,0-4.994-5.493h0a6.471,6.471,0,0,0-.927-.212h-1.1a7.312,7.312,0,0,0-7.1,6.181c-2.292-.52-4.387.154-4.772,1.581a1.9,1.9,0,0,0,.065,1.144,5.033,5.033,0,0,0,3.369,2.686l.222.064.333.083h.072a5.637,5.637,0,0,0,2.527,7.446l-.15.09a2.007,2.007,0,0,0-.5.681,10.1,10.1,0,0,0-.96,2.274c-.163.681-.189,1.388-.392,2.062-.379,1.24-1.345,2.287-1.456,3.579-.052.578.046,1.285-.372,1.658a2.031,2.031,0,0,1-.333.231,2.67,2.67,0,0,0-.725.752,2.5,2.5,0,0,1-.509.719c-.379.276-1,.251-1.182.681s.294.938.183,1.407-.516.559-.81.822a2.845,2.845,0,0,0-.7,1.285,4.334,4.334,0,0,1-3.526-.887,6.4,6.4,0,0,1,.366,1.285,5.753,5.753,0,0,0-1.9-.938,5.993,5.993,0,0,1-2.024-1.478l1.084-.148-4.785-7.189-1.417-.289,1.267,2.4a.767.767,0,0,0-.431.507,2.144,2.144,0,0,0-.046.816,14.4,14.4,0,0,0,.326,1.927l.366,1.683c.033.154.072.315.118.469a4.567,4.567,0,0,0-1.417.154,12.493,12.493,0,0,0-2.944-.687,1.658,1.658,0,0,0-.653,0,1.684,1.684,0,0,0-.62.495,19.763,19.763,0,0,0-2.187,3.032c-2.612,4.407-6.013,8.256-9.232,12.239-2.22.887-4.459,1.728-6.7,2.57l-4.818,1.812a7.405,7.405,0,0,1-2.99.642c-.457,0-1.025-.1-1.306.289a2.683,2.683,0,0,0-.294.643l-.5.051h0A5.589,5.589,0,0,0,409,612.558a.73.73,0,0,0-.542.411c-.117.212-.189.443-.326.642-.255.373-.705.552-1.025.867s-.522.8-.875,1.124a3.493,3.493,0,0,1-1.639.642,10.443,10.443,0,0,0-2.566.957,4.161,4.161,0,0,1-.947.43,3.613,3.613,0,0,1-1.116.039l-2.546-.186a2.047,2.047,0,0,0-.686.032,1.284,1.284,0,0,0-.81,1.285,2.017,2.017,0,0,0,.81,1.381,5.212,5.212,0,0,0,1.449.739,43.042,43.042,0,0,0,6.79,1.979v.508a11.74,11.74,0,0,0,5.223,1.221.821.821,0,0,0,.392-.071.846.846,0,0,0,.326-.5,20.378,20.378,0,0,0,1.018-4.921h0a2.644,2.644,0,0,0,.921-.231c.875-.238,1.75.353,2.657.45,1.116.122,2.148-.52,3.206-.912l.457-.148a4.981,4.981,0,0,1-1.058,1c-.437.308-.927.54-1.351.861a9.281,9.281,0,0,1-1.149.874,7.3,7.3,0,0,1-.881.334,5.851,5.851,0,0,0-1.26.642,2.534,2.534,0,0,0-.855.823,1.216,1.216,0,0,0-.072,1.156,1.24,1.24,0,0,0,.842.578,3.506,3.506,0,0,0,1.038,0c1.384-.1,2.762-.225,4.139-.347a11.211,11.211,0,0,0,1.73-.244c.3-.071.6-.167.9-.251a8.158,8.158,0,0,1,1.573-.231,1.327,1.327,0,0,1,.457.045c.32.1.548.424.875.488a1.325,1.325,0,0,0,.653-.083,14.8,14.8,0,0,1,3.062-.321,1.272,1.272,0,0,0,1.188-.52c.209-.411-.17-1.073-.34-1.619a4.882,4.882,0,0,1-.144-1.067,6.6,6.6,0,0,0-.757-2.531,6.568,6.568,0,0,1-.568-1.156,29.87,29.87,0,0,0,5.634-2.814,10.142,10.142,0,0,1,3.212-1.523,8.868,8.868,0,0,1,4.035.463,92.8,92.8,0,0,1,9.251,3.174c1.443.585,2.879,1.2,4.368,1.645a6.759,6.759,0,0,0,1.554,1.484,7.271,7.271,0,0,0,3.362.906,44.78,44.78,0,0,0,4.733.174,8.1,8.1,0,0,0,3.526-.643,3.625,3.625,0,0,0,.738-.482,2.952,2.952,0,0,0,2.324-.842,5.534,5.534,0,0,0,1.769-2.75c.385-1.465.091-3.212,1.005-4.382.242-.321.561-.578.8-.9a2.5,2.5,0,0,0,.418-1.484.3.3,0,0,1,.039-.058,5.37,5.37,0,0,0,.392-1.478,8.361,8.361,0,0,1,.424-1.169A35.694,35.694,0,0,0,476,602.58a19.953,19.953,0,0,0,.561-2.377c.1-.642.157-1.285.209-1.927a11.8,11.8,0,0,1,.594-2.975,23.868,23.868,0,0,0,1.371-7.119v-.141a4.8,4.8,0,0,0,4.3-4.857,5,5,0,0,0-.45-2.075,6.346,6.346,0,0,0,.875-3.238ZM460.1,605.8c.072.251.157.495.242.739-.385-.366-.757-.745-1.143-1.118.15.051.307.1.451.154a2.444,2.444,0,0,1,.431.225Zm-1.848-1.234c-2.259-1.927-4.87-3.424-7.182-5.294,1.26.61,2.487,1.323,3.7,2q2.161,1.214,4.381,2.332a3.551,3.551,0,0,1-.921.957Zm.96-4.857.111-.109v.765l-.607-.206a5.383,5.383,0,0,0,.477-.45Zm-19.867,5.2a18.394,18.394,0,0,0,2.4-3.373,22.831,22.831,0,0,0,3.584,3.938C443.339,605.227,441.341,605.015,439.344,604.913Z" transform="translate(-171.388 -304.407)" fill="url(#linear-gradient-2)"/>
  <path id="Path_3181" data-name="Path 3181" d="M415.35,438.25l1.423.283,4.851,7.061-2.135.283Z" transform="translate(-144.182 -156.454)" fill="#2f2e41"/>
  <path id="Path_3182" data-name="Path 3182" d="M414.49,645.421a27.214,27.214,0,0,0,1.423,3.643,35.681,35.681,0,0,0,4.733-1.33,14.7,14.7,0,0,0-.986-1.285,4.862,4.862,0,0,0-1.338-1.009,3.741,3.741,0,0,0-1.626,0C415.965,645.421,415.228,645.434,414.49,645.421Z" transform="translate(-177.832 -334.983)" fill="#fbbebe"/>
  <path id="Path_3183" data-name="Path 3183" d="M411.844,646.177a2.919,2.919,0,0,1-1.619-1.812,5.809,5.809,0,0,0-1.234-2.165.7.7,0,0,0-.548.4c-.118.206-.189.437-.32.642-.261.366-.718.546-1.045.855s-.522.79-.875,1.105a3.506,3.506,0,0,1-1.652.643,10.82,10.82,0,0,0-2.612.944,4.535,4.535,0,0,1-.96.424,3.855,3.855,0,0,1-1.123,0l-2.572-.18a2.04,2.04,0,0,0-.653,0,1.226,1.226,0,0,0-.816,1.285,1.922,1.922,0,0,0,.816,1.362,5.453,5.453,0,0,0,1.462.732,43.56,43.56,0,0,0,6.894,1.927v.5a12.094,12.094,0,0,0,5.256,1.2.9.9,0,0,0,.392-.064.847.847,0,0,0,.326-.5,19.763,19.763,0,0,0,1.077-5.5,4.314,4.314,0,0,0-.111-1.42c-.144-.456.339-.263-.1-.443" transform="translate(-171.348 -333.856)"/>
  <path id="Path_3184" data-name="Path 3184" d="M469.007,632.425c-7.625.45-15.16-1.747-22.8-1.979a11.307,11.307,0,0,0-2.833.173,14.423,14.423,0,0,0-2.807,1.073c-4.093,1.876-8.331,3.431-12.561,4.979l-4.864,1.78a7.466,7.466,0,0,1-3.01.643c-.464,0-1.032-.1-1.306.283-.79,1.156-.418,2.846.1,4.144.17.418.457.874.914.919a2.691,2.691,0,0,0,.927-.231c.881-.231,1.763.353,2.677.45a7.615,7.615,0,0,0,3.232-.9,28.462,28.462,0,0,1,5.536-.925,25.026,25.026,0,0,0,8.67-3.54,10.192,10.192,0,0,1,3.232-1.5,9.079,9.079,0,0,1,4.067.456,94.389,94.389,0,0,1,9.329,3.122,43.937,43.937,0,0,0,4.87,1.754,17.9,17.9,0,0,0,10.922-.643c1.221-.475,2.546-1.285,2.611-2.608.046-.739-.542-1.388-.927-2.024-.248-.4-.5-.81-.77-1.2C472.918,634.783,471.325,632.291,469.007,632.425Z" transform="translate(-179.18 -329.646)" fill="#2f2e41"/>
  <path id="Path_3185" data-name="Path 3185" d="M469.007,632.425c-7.625.45-15.16-1.747-22.8-1.979a11.307,11.307,0,0,0-2.833.173,14.423,14.423,0,0,0-2.807,1.073c-4.093,1.876-8.331,3.431-12.561,4.979l-4.864,1.78a7.466,7.466,0,0,1-3.01.643c-.464,0-1.032-.1-1.306.283-.79,1.156-.418,2.846.1,4.144.17.418.457.874.914.919a2.691,2.691,0,0,0,.927-.231c.881-.231,1.763.353,2.677.45a7.615,7.615,0,0,0,3.232-.9,28.462,28.462,0,0,1,5.536-.925,25.026,25.026,0,0,0,8.67-3.54,10.192,10.192,0,0,1,3.232-1.5,9.079,9.079,0,0,1,4.067.456,94.389,94.389,0,0,1,9.329,3.122,43.937,43.937,0,0,0,4.87,1.754,17.9,17.9,0,0,0,10.922-.643c1.221-.475,2.546-1.285,2.611-2.608.046-.739-.542-1.388-.927-2.024-.248-.4-.5-.81-.77-1.2C472.918,634.783,471.325,632.291,469.007,632.425Z" transform="translate(-179.18 -329.646)" opacity="0.1"/>
  <path id="Path_3186" data-name="Path 3186" d="M436.92,644.261q1.789.6,3.61,1.105c.653-1.1,1.959-1.863,2.239-3.122a.292.292,0,0,0,0-.167.311.311,0,0,0-.137-.122,6.924,6.924,0,0,0-2.833-.816c-.783-.045-1.143.758-1.5,1.324C438.167,642.713,437.24,644.383,436.92,644.261Z" transform="translate(-185.618 -333.476)" fill="#fbbebe"/>
  <path id="Path_3187" data-name="Path 3187" d="M433.21,643.788a2.615,2.615,0,0,1-1.756-1.137c-.163-.289-.346-.681-.685-.642s-.451.385-.522.687a19.034,19.034,0,0,1-.986,3.335,6.269,6.269,0,0,1-2.109,2.731c-.444.3-.934.527-1.371.848a9.412,9.412,0,0,1-1.156.861,6.95,6.95,0,0,1-.888.321,6.184,6.184,0,0,0-1.267.643,2.5,2.5,0,0,0-.868.816,1.159,1.159,0,0,0-.065,1.137,1.234,1.234,0,0,0,.842.565,3.615,3.615,0,0,0,1.051,0c1.391-.1,2.781-.219,4.172-.341a12.225,12.225,0,0,0,1.743-.238l.908-.244a7.331,7.331,0,0,1,1.586-.231,1.253,1.253,0,0,1,.464.045c.32.1.548.418.881.482a1.5,1.5,0,0,0,.653-.083,14.643,14.643,0,0,1,3.088-.315,1.312,1.312,0,0,0,1.2-.514c.261-.5-.17-1.06-.346-1.6a5.063,5.063,0,0,1-.144-1.047,6.312,6.312,0,0,0-.764-2.493c-.353-.642-.836-1.349-.588-2.03a1.906,1.906,0,0,0,.235-.7C436.422,643.538,433.85,643.93,433.21,643.788Z" transform="translate(-180.237 -333.786)"/>
  <path id="Path_3188" data-name="Path 3188" d="M475,611.128a5.909,5.909,0,0,1-3.042-2.968c-.124-.283-.228-.585-.353-.867a6.6,6.6,0,0,0-1.815-2.486.9.9,0,0,0-.653-.276.7.7,0,0,0-.49.52,1.954,1.954,0,0,0-.052.8,14.105,14.105,0,0,0,.326,1.876l.372,1.658a3.593,3.593,0,0,0,.229.739,2.581,2.581,0,0,0,.62.726c.339.308.685.6,1.032.9a3.545,3.545,0,0,0,.653.443,3.84,3.84,0,0,0,1.156.334,9.927,9.927,0,0,1,4.335,1.645s0-1.112,0-1.234a1.616,1.616,0,0,0-.326-.893A5.833,5.833,0,0,0,475,611.128Z" transform="translate(-196.608 -320.388)" fill="#fbbebe"/>
  <path id="Path_3189" data-name="Path 3189" d="M475,611.128a5.909,5.909,0,0,1-3.042-2.968c-.124-.283-.228-.585-.353-.867a6.6,6.6,0,0,0-1.815-2.486.9.9,0,0,0-.653-.276.7.7,0,0,0-.49.52,1.954,1.954,0,0,0-.052.8,14.105,14.105,0,0,0,.326,1.876l.372,1.658a3.593,3.593,0,0,0,.229.739,2.581,2.581,0,0,0,.62.726c.339.308.685.6,1.032.9a3.545,3.545,0,0,0,.653.443,3.84,3.84,0,0,0,1.156.334,9.927,9.927,0,0,1,4.335,1.645s0-1.112,0-1.234a1.616,1.616,0,0,0-.326-.893A5.833,5.833,0,0,0,475,611.128Z" transform="translate(-196.608 -320.388)" opacity="0.1"/>
  <ellipse id="Ellipse_683" data-name="Ellipse 683" cx="1.854" cy="1.837" rx="1.854" ry="1.837" transform="translate(292.066 274.383)" fill="#2f2e41"/>
  <path id="Path_3190" data-name="Path 3190" d="M493.619,590.45a2.033,2.033,0,0,0-1.462.206,2,2,0,0,0-.5.675,9.713,9.713,0,0,0-.966,2.236c-.163.642-.189,1.368-.4,2.03-.379,1.221-1.351,2.255-1.462,3.527-.052.572.046,1.24-.379,1.625a2.4,2.4,0,0,1-.333.238,2.487,2.487,0,0,0-.731.739,2.425,2.425,0,0,1-.516.7c-.379.276-1.005.251-1.188.642s.294.925.183,1.388-.522.553-.816.81a2.794,2.794,0,0,0-.705,1.285,4.408,4.408,0,0,1-3.552-.867,10.964,10.964,0,0,1,.555,4,1.613,1.613,0,0,1-.326,1.233,22.952,22.952,0,0,1,4.355.745,3.049,3.049,0,0,0,1.9,0,3.163,3.163,0,0,0,.875-.681,5.481,5.481,0,0,0,1.8-2.724,15.758,15.758,0,0,0,.033-1.844,10.248,10.248,0,0,1,.477-2.242,26.294,26.294,0,0,0,.829-4.613c.085-.964.934-1.735,1.377-2.57a12.448,12.448,0,0,0,1.756-5.14C494.441,591.253,494.233,590.514,493.619,590.45Z" transform="translate(-200.848 -315.335)"/>
  <path id="Path_3191" data-name="Path 3191" d="M493.619,590.45a2.033,2.033,0,0,0-1.462.206,2,2,0,0,0-.5.675,9.713,9.713,0,0,0-.966,2.236c-.163.642-.189,1.368-.4,2.03-.379,1.221-1.351,2.255-1.462,3.527-.052.572.046,1.24-.379,1.625a2.4,2.4,0,0,1-.333.238,2.487,2.487,0,0,0-.731.739,2.425,2.425,0,0,1-.516.7c-.379.276-1.005.251-1.188.642s.294.925.183,1.388-.522.553-.816.81a2.794,2.794,0,0,0-.705,1.285,4.408,4.408,0,0,1-3.552-.867,10.964,10.964,0,0,1,.555,4,1.613,1.613,0,0,1-.326,1.233,22.952,22.952,0,0,1,4.355.745,3.049,3.049,0,0,0,1.9,0,3.163,3.163,0,0,0,.875-.681,5.481,5.481,0,0,0,1.8-2.724,15.758,15.758,0,0,0,.033-1.844,10.248,10.248,0,0,1,.477-2.242,26.294,26.294,0,0,0,.829-4.613c.085-.964.934-1.735,1.377-2.57a12.448,12.448,0,0,0,1.756-5.14C494.441,591.253,494.233,590.514,493.619,590.45Z" transform="translate(-200.848 -315.335)" opacity="0.1"/>
  <path id="Path_3192" data-name="Path 3192" d="M477.534,627.4a17.147,17.147,0,0,1-4.035-3.315c-2.448-2.268-5.445-3.855-8.024-5.994a56.34,56.34,0,0,0-5.112-4.228,12.911,12.911,0,0,0-5.478-1.882,1.477,1.477,0,0,0-.653,0,1.5,1.5,0,0,0-.62.482,19.418,19.418,0,0,0-2.213,2.988c-3.264,5.461-7.906,10.048-11.752,15.124a.958.958,0,0,0-.189.36.882.882,0,0,0,.144.559l.783,1.5c.437.848,1.142,1.831,2.083,1.664a2.283,2.283,0,0,0,1.09-.687l3.512-3.309,3.682-3.463a27.91,27.91,0,0,0,5.758-6.695c1.1,1.876,3.049,3.1,4.381,4.819.509.642.927,1.369,1.384,2.063.725,1.1,1.554,2.146,2.376,3.212l4.224,5.3a8.017,8.017,0,0,0,1.959,1.927,7.569,7.569,0,0,0,3.388.893,45.521,45.521,0,0,0,4.772.167,8.345,8.345,0,0,0,3.558-.643,3.174,3.174,0,0,0,1.926-2.82,4.094,4.094,0,0,0-.607-1.754A14.435,14.435,0,0,0,477.534,627.4Z" transform="translate(-186.499 -323.039)" fill="#2f2e41"/>
  <ellipse id="Ellipse_684" data-name="Ellipse 684" cx="1.43" cy="1.413" rx="1.43" ry="1.413" transform="translate(293.634 276.079)" fill="#e8e8f0"/>
  <path id="Path_3193" data-name="Path 3193" d="M502.429,590.074a2.666,2.666,0,0,1,.157,2.03,8.183,8.183,0,0,1-.92,1.87,8.9,8.9,0,0,1-1.195,1.67,12.446,12.446,0,0,0,6.281-1.773,9.078,9.078,0,0,0,3.963-3.4,1.852,1.852,0,0,1-1.462-.27,5.192,5.192,0,0,1-1.116-1.022l-1.1-1.221a4.889,4.889,0,0,1-.653-.88,2.4,2.4,0,0,1-.294-1.42,8.371,8.371,0,0,1-1.462,1.2c-.79.508-1.658.874-2.455,1.375-.274.18-.9.463-.738.822S502.207,589.688,502.429,590.074Z" transform="translate(-207.679 -313.642)" fill="#fbbebe"/>
  <path id="Path_3194" data-name="Path 3194" d="M502.429,590.074a2.666,2.666,0,0,1,.157,2.03,8.183,8.183,0,0,1-.92,1.87,8.9,8.9,0,0,1-1.195,1.67,12.446,12.446,0,0,0,6.281-1.773,9.078,9.078,0,0,0,3.963-3.4,1.852,1.852,0,0,1-1.462-.27,5.192,5.192,0,0,1-1.116-1.022l-1.1-1.221a4.889,4.889,0,0,1-.653-.88,2.4,2.4,0,0,1-.294-1.42,8.371,8.371,0,0,1-1.462,1.2c-.79.508-1.658.874-2.455,1.375-.274.18-.9.463-.738.822S502.207,589.688,502.429,590.074Z" transform="translate(-207.679 -313.642)" opacity="0.1"/>
  <path id="Path_3195" data-name="Path 3195" d="M498.89,592.733a1.808,1.808,0,0,0,0,2.12c.065.077.3.559.4.565a.361.361,0,0,0,.248-.128,16.194,16.194,0,0,0,1.4-1.638,3.112,3.112,0,0,1,1.776-1.144,3.882,3.882,0,0,1,2.448.752,2.319,2.319,0,0,1,.842.643,2.215,2.215,0,0,1,.274.919,43.556,43.556,0,0,1,.248,5.84,22.652,22.652,0,0,1-.281,4.208c-.144.713-.352,1.414-.45,2.139a13.434,13.434,0,0,0-.091,1.927v2.686a6.957,6.957,0,0,0,.1,1.471c.131.585.411,1.131.6,1.7a10.978,10.978,0,0,1,.4,2.011l.372,2.776a3.46,3.46,0,0,1-.333,2.57c-.242.315-.561.572-.81.887-.921,1.182-.653,2.872-1.012,4.318a5.377,5.377,0,0,1-1.789,2.7,2.986,2.986,0,0,1-2.357.829,3.194,3.194,0,0,1-2.148-2.5,9.884,9.884,0,0,0-1.1-3.257,8.747,8.747,0,0,0-2.181-1.793,3.716,3.716,0,0,1-1.7-2.178c-.072-.4,0-.823-.072-1.234a2.917,2.917,0,0,0-1.822-2.358c-.588-.225-1.306-.308-1.645-.835a3.907,3.907,0,0,0,1.717-2.268,11.474,11.474,0,0,0,.418-2.866l.2-3.212a10.578,10.578,0,0,1,.777-4.17c.287-.578.653-1.124.947-1.7a18.242,18.242,0,0,0,1.012-2.486c.47-1.324.94-2.647,1.358-3.983a7.436,7.436,0,0,1,.744-1.857C497.721,593.588,498.23,592.862,498.89,592.733Z" transform="translate(-204.113 -316.089)" fill="#e8e8f0"/>
  <path id="Path_3196" data-name="Path 3196" d="M492.31,613.38h.868l.183-1.285a2.642,2.642,0,0,1,.183-.752,4.5,4.5,0,0,1,.5-.719c.849-1.189.79-2.763,1-4.208a21.185,21.185,0,0,1,1.906-5.5l1.684-3.694a5.049,5.049,0,0,0,.366-.944,5.568,5.568,0,0,0,.1-1.092c0-.572.183-2.653.2-3.212,0-.212-.477-.1-.575-.283-.209-.411-.5.7-.894.944a2.158,2.158,0,0,0-.777,1.118c-.366.925-.587,1.927-.927,2.846a5.8,5.8,0,0,1-1.573,2.518c-.346.3-.744.533-1.071.854-1.045,1.015-1.149,2.628-1.182,4.08C492.284,604.938,492.115,613.38,492.31,613.38Z" transform="translate(-204.814 -315.765)"/>
  <path id="Path_3197" data-name="Path 3197" d="M507.289,590.421a2.921,2.921,0,0,0-1.547,2.088,10.435,10.435,0,0,1-.783,2.57c-1.058,1.812-3.754,2.339-4.5,4.3a7.784,7.784,0,0,0-.3,2.024c-.131,1.407-.6,2.763-.744,4.163a18.254,18.254,0,0,0,.078,3.27l.947,11.063a14.546,14.546,0,0,1-.281,4.87,4.832,4.832,0,0,0,2.833-.463c.881-.4,1.691-.944,2.546-1.407a26.351,26.351,0,0,0,4.368-2.416,2.644,2.644,0,0,0,.588-.642,5.486,5.486,0,0,0,.392-1.452,7.762,7.762,0,0,1,.424-1.144,33.34,33.34,0,0,0,1.227-3.418,19.358,19.358,0,0,0,.561-2.339c.1-.642.163-1.285.216-1.927a11.149,11.149,0,0,1,.6-2.923,23.218,23.218,0,0,0,1.378-7.016,3.616,3.616,0,0,0-.072-1.028,5.466,5.466,0,0,0-.575-1.176c-.392-.726-.653-1.523-.992-2.261a11.2,11.2,0,0,0-3.858-3.99A2.97,2.97,0,0,0,507.289,590.421Z" transform="translate(-207.297 -315.313)"/>
  <path id="Path_3198" data-name="Path 3198" d="M475.855,616.494a6.8,6.8,0,0,1-1.8-1.343c-.235-.27-.431-.572-.653-.842a4.463,4.463,0,0,0-2.259-1.285,11.207,11.207,0,0,0-2.611-.251,4.81,4.81,0,0,0-1.743.206,1.759,1.759,0,0,0-1.156,1.221,2.013,2.013,0,0,0,.881,1.8,4.179,4.179,0,0,0,1.756.835,14.243,14.243,0,0,0,1.586.186c3.121.321,5.908,1.992,8.644,3.514q3.6,2.017,7.351,3.752a14.793,14.793,0,0,0,.124-2.217c0-.552-.046-1.4-.575-1.728a11.669,11.669,0,0,0-2.337-.687,37.127,37.127,0,0,1-4.707-1.876A23.544,23.544,0,0,1,475.855,616.494Z" transform="translate(-195.586 -323.332)" fill="#fbbebe"/>
  <ellipse id="Ellipse_685" data-name="Ellipse 685" cx="5.562" cy="5.506" rx="5.562" ry="5.506" transform="translate(288.358 264.79)" fill="#fbbebe"/>
  <path id="Path_3199" data-name="Path 3199" d="M506.638,599.792a8.73,8.73,0,0,0-1.077,1.985c-.653,1.388-1.763,2.57-2.3,4.041s-.548,3.36-1.665,4.562a1.6,1.6,0,0,0-.49.694,3.255,3.255,0,0,1-.052.5c-.163.437-.888.456-1.025.906-.039.129,0,.27-.065.4-.111.289-.5.334-.757.508-.542.36-.431,1.2-.816,1.715a1.482,1.482,0,0,1-1.391.482,4.946,4.946,0,0,1-1.443-.533,1.407,1.407,0,0,0-.522-.161,1.088,1.088,0,0,0-.6.206,3.622,3.622,0,0,0-1.5,3.116,10.044,10.044,0,0,0,.862,3.489,1.393,1.393,0,0,0,.281.52,1.263,1.263,0,0,0,1.384.1,6.583,6.583,0,0,1,1.351-.6c.862-.154,1.7.43,2.579.379a3.612,3.612,0,0,0,1.737-.752,9.561,9.561,0,0,0,2.337-1.927c.379-.495.653-1.054.992-1.581a20.31,20.31,0,0,1,1.4-1.844l3.212-3.855a8.885,8.885,0,0,0,.862-1.169,8.16,8.16,0,0,0,.653-1.767,13.347,13.347,0,0,0,.653-3.142,11.887,11.887,0,0,0-.235-2.634,9.191,9.191,0,0,0-.653-2.512C509.647,599.47,507.95,598.288,506.638,599.792Z" transform="translate(-205.059 -318.444)"/>
  <path id="Path_3200" data-name="Path 3200" d="M516.159,579.059a6.136,6.136,0,0,0-2.572-5.011,7.37,7.37,0,0,0-6.326-7.138,7.248,7.248,0,0,0-14.239.379c-2.311-.514-4.426.154-4.812,1.555s1.247,3.212,3.682,3.855a6.966,6.966,0,0,0,2.363.231,7.249,7.249,0,0,0,4.975,3.052,7.36,7.36,0,0,0,5.432,5.512,6.139,6.139,0,0,0,1.678,2.281v.533a4.708,4.708,0,0,0,9.414,0,4.879,4.879,0,0,0-.451-2.05A6.116,6.116,0,0,0,516.159,579.059Z" transform="translate(-203.403 -304.895)" fill="#2f2e41"/>
  <path id="Path_3201" data-name="Path 3201" d="M489.773,569.137c.385-1.4,2.5-2.069,4.812-1.555a7.315,7.315,0,0,1,7.182-6.091h.477a7.184,7.184,0,0,0-2.05-.3,7.316,7.316,0,0,0-7.182,6.091c-2.311-.514-4.426.154-4.812,1.555s1.247,3.212,3.682,3.855a7.29,7.29,0,0,0,1.4.238C490.949,572.241,489.388,570.57,489.773,569.137Z" transform="translate(-203.4 -304.894)" opacity="0.1"/>
  <path id="Path_3202" data-name="Path 3202" d="M511.2,591.24a4.756,4.756,0,0,1,0-.527,6,6,0,0,1-1.678-2.281,7.34,7.34,0,0,1-5.432-5.519,7.23,7.23,0,0,1-4.981-3.045,6.368,6.368,0,0,1-1.391-.039,7.275,7.275,0,0,0,4.8,2.808,7.36,7.36,0,0,0,5.432,5.513,6.141,6.141,0,0,0,1.678,2.281v.533a4.751,4.751,0,0,0,4.681,4.793A4.794,4.794,0,0,1,511.2,591.24Z" transform="translate(-206.725 -311.558)" opacity="0.1"/>
  <path id="Path_3203" data-name="Path 3203" d="M.888.034a1.04,1.04,0,0,1,.859,1.138C1.751,1.8,1.375,2.3.905,2.3A1.04,1.04,0,0,1,.046,1.159C.041.534.418.031.888.034Z" transform="translate(294.363 271.036) rotate(-37.22)" fill="#fbbebe"/>
</svg>
