<svg xmlns="http://www.w3.org/2000/svg" width="715.542" height="400.416" viewBox="0 0 715.542 400.416">
  <g id="undraw_teamwork_hpdk" transform="translate(0 0)">
    <path id="Path_3039" data-name="Path 3039" d="M866.257,680.714H152.612a1.035,1.035,0,0,1,0-2.063H866.255a1.035,1.035,0,0,1,0,2.063Z" transform="translate(-151.662 -280.387)" fill="#630c0c"/>
    <ellipse id="Ellipse_605" data-name="Ellipse 605" cx="5.161" cy="5.602" rx="5.161" ry="5.602" transform="translate(218.56 38.557)" fill="#faaeae"/>
    <ellipse id="Ellipse_606" data-name="Ellipse 606" cx="5.161" cy="5.602" rx="5.161" ry="5.602" transform="translate(197.993 38.557)" fill="#faaeae"/>
    <ellipse id="Ellipse_607" data-name="Ellipse 607" cx="5.161" cy="5.602" rx="5.161" ry="5.602" transform="translate(177.426 38.557)" fill="#faaeae"/>
    <ellipse id="Ellipse_608" data-name="Ellipse 608" cx="5.161" cy="5.602" rx="5.161" ry="5.602" transform="translate(156.859 38.557)" fill="#faaeae"/>
    <ellipse id="Ellipse_609" data-name="Ellipse 609" cx="5.161" cy="5.602" rx="5.161" ry="5.602" transform="translate(218.56 61.944)" fill="#faaeae"/>
    <ellipse id="Ellipse_610" data-name="Ellipse 610" cx="5.161" cy="5.602" rx="5.161" ry="5.602" transform="translate(197.993 61.944)" fill="#faaeae"/>
    <ellipse id="Ellipse_611" data-name="Ellipse 611" cx="5.161" cy="5.602" rx="5.161" ry="5.602" transform="translate(177.426 61.944)" fill="#faaeae"/>
    <ellipse id="Ellipse_612" data-name="Ellipse 612" cx="5.161" cy="5.602" rx="5.161" ry="5.602" transform="translate(156.859 61.944)" fill="#faaeae"/>
    <ellipse id="Ellipse_613" data-name="Ellipse 613" cx="5.161" cy="5.602" rx="5.161" ry="5.602" transform="translate(218.56 85.331)" fill="#faaeae"/>
    <ellipse id="Ellipse_614" data-name="Ellipse 614" cx="5.161" cy="5.602" rx="5.161" ry="5.602" transform="translate(197.993 85.331)" fill="#faaeae"/>
    <ellipse id="Ellipse_615" data-name="Ellipse 615" cx="5.161" cy="5.602" rx="5.161" ry="5.602" transform="translate(177.426 85.331)" fill="#faaeae"/>
    <ellipse id="Ellipse_616" data-name="Ellipse 616" cx="5.161" cy="5.602" rx="5.161" ry="5.602" transform="translate(156.859 85.331)" fill="#faaeae"/>
    <ellipse id="Ellipse_617" data-name="Ellipse 617" cx="5.161" cy="5.602" rx="5.161" ry="5.602" transform="translate(218.56 108.719)" fill="#faaeae"/>
    <ellipse id="Ellipse_618" data-name="Ellipse 618" cx="5.161" cy="5.602" rx="5.161" ry="5.602" transform="translate(197.993 108.719)" fill="#faaeae"/>
    <ellipse id="Ellipse_619" data-name="Ellipse 619" cx="5.161" cy="5.602" rx="5.161" ry="5.602" transform="translate(177.426 108.719)" fill="#faaeae"/>
    <ellipse id="Ellipse_620" data-name="Ellipse 620" cx="5.161" cy="5.602" rx="5.161" ry="5.602" transform="translate(156.859 108.719)" fill="#faaeae"/>
    <ellipse id="Ellipse_621" data-name="Ellipse 621" cx="5.161" cy="5.602" rx="5.161" ry="5.602" transform="translate(218.56 132.106)" fill="#faaeae"/>
    <ellipse id="Ellipse_622" data-name="Ellipse 622" cx="5.161" cy="5.602" rx="5.161" ry="5.602" transform="translate(197.993 132.106)" fill="#faaeae"/>
    <ellipse id="Ellipse_623" data-name="Ellipse 623" cx="5.161" cy="5.602" rx="5.161" ry="5.602" transform="translate(177.426 132.106)" fill="#faaeae"/>
    <ellipse id="Ellipse_624" data-name="Ellipse 624" cx="5.161" cy="5.602" rx="5.161" ry="5.602" transform="translate(156.859 132.106)" fill="#faaeae"/>
    <ellipse id="Ellipse_625" data-name="Ellipse 625" cx="5.161" cy="5.602" rx="5.161" ry="5.602" transform="translate(218.56 155.493)" fill="#f2f2f2"/>
    <ellipse id="Ellipse_626" data-name="Ellipse 626" cx="5.161" cy="5.602" rx="5.161" ry="5.602" transform="translate(197.993 155.493)" fill="#f2f2f2"/>
    <ellipse id="Ellipse_627" data-name="Ellipse 627" cx="5.161" cy="5.602" rx="5.161" ry="5.602" transform="translate(177.426 155.493)" fill="#faaeae"/>
    <ellipse id="Ellipse_628" data-name="Ellipse 628" cx="5.161" cy="5.602" rx="5.161" ry="5.602" transform="translate(156.859 155.493)" fill="#faaeae"/>
    <path id="Path_3040" data-name="Path 3040" d="M375.19,579.591v1.732c0,5.978,4.468,10.822,9.975,10.828h71.819c5.508,0,9.973-4.849,9.975-10.827v-1.732a11.32,11.32,0,0,0-2.314-6.93,10.678,10.678,0,0,0-1.684-1.732s-39.485-.97-39.485-2.166H385.165c-5.506.008-9.967,4.851-9.975,10.827Z" transform="translate(-196.816 -265.683)" fill="#faaeae"/>
    <rect id="Rectangle_1247" data-name="Rectangle 1247" width="10.374" height="72.76" transform="translate(219.65 326.038)" fill="#faaeae"/>
    <path id="Path_3041" data-name="Path 3041" d="M459.138,677.133c0,1.217-15.72.471-35.112.471s-35.112.746-35.112-.471,15.72-10.865,35.112-10.865S459.138,675.916,459.138,677.133Z" transform="translate(-199.588 -278.73)" fill="#faaeae"/>
    <path id="Path_3042" data-name="Path 3042" d="M448.468,564.861a9.94,9.94,0,0,0,1.467-7.711,9.209,9.209,0,0,0-4.5-6.171l-21.987-81.323-16.743,8.9L433.577,555.7a9.759,9.759,0,0,0,3.695,11.762,8.2,8.2,0,0,0,11.2-2.6Z" transform="translate(-203.181 -252.422)" fill="#a0616a"/>
    <path id="Path_3043" data-name="Path 3043" d="M427.293,480.163l-18.739,5.506a3.594,3.594,0,0,1-3.157-.571,4.238,4.238,0,0,1-1.664-2.968l-2.265-20.864c-1.524-6.182,1.858-12.535,7.553-14.189s11.548,2.017,13.072,8.2l7.72,19.191a4.5,4.5,0,0,1-.058,3.474,3.938,3.938,0,0,1-2.461,2.222Z" transform="translate(-202.05 -249.347)" fill="#6c63ff"/>
    <path id="Path_3044" data-name="Path 3044" d="M313.516,445.846H323.3l4.655-27.542h-14.44Z" transform="translate(-63.331 -55.972)" fill="#a0616a"/>
    <path id="Path_3045" data-name="Path 3045" d="M462.051,664.962h19.267c6.781,0,12.279,5.967,12.278,13.328v.433H462.052Z" transform="translate(-214.362 -278.555)" fill="#2f2e41"/>
    <path id="Path_3046" data-name="Path 3046" d="M462.676,636.423a3.345,3.345,0,0,1-.343-.018l-13.539-1.07a3.565,3.565,0,0,1-2.7-1.8,4.188,4.188,0,0,1-.336-3.423l18.12-44.188a3.265,3.265,0,0,0-.157-2.424,2.807,2.807,0,0,0-1.765-1.524c-8.52-2.418-30.381-8.855-49.305-16.387-8.108-3.227-13.214-7.89-15.177-13.861-2.588-7.871,1.241-15.049,1.4-15.35l.128-.236L416.81,537.9l19.3,1.782,42.3,24.624c7.351,4.315,10.414,14.036,7.037,22.334l-19.5,47.474a3.588,3.588,0,0,1-3.277,2.31Z" transform="translate(-201.136 -261.318)" fill="#2f2e41"/>
    <ellipse id="Ellipse_629" data-name="Ellipse 629" cx="19.6" cy="21.275" rx="19.6" ry="21.275" transform="translate(199.171 146.608)" fill="#ffb8b8"/>
    <path id="Path_3047" data-name="Path 3047" d="M306.516,444.846H316.3l4.655-27.542h-14.44Z" transform="translate(-61.917 -55.838)" fill="#a0616a"/>
    <path id="Path_3048" data-name="Path 3048" d="M455.051,663.962h19.267c6.781,0,12.279,5.967,12.278,13.328v.433H455.052Z" transform="translate(-212.948 -278.421)" fill="#2f2e41"/>
    <path id="Path_3049" data-name="Path 3049" d="M455.676,639.423a3.346,3.346,0,0,1-.343-.018l-13.539-1.07a3.565,3.565,0,0,1-2.7-1.8,4.188,4.188,0,0,1-.336-3.423l18.12-44.188a3.264,3.264,0,0,0-.157-2.424,2.808,2.808,0,0,0-1.765-1.524c-8.52-2.418-30.381-8.855-49.305-16.387-8.108-3.227-13.214-7.89-15.177-13.861-2.588-7.871,1.241-15.049,1.4-15.35l.128-.236L409.81,540.9l19.3,1.782,42.3,24.624c7.351,4.315,10.414,14.036,7.037,22.334l-19.5,47.474a3.588,3.588,0,0,1-3.277,2.31Z" transform="translate(-199.722 -261.719)" fill="#2f2e41"/>
    <path id="Path_3050" data-name="Path 3050" d="M425.206,449.964l-20.748-7.8s-13.025,10.862-6.768,37.808a72.052,72.052,0,0,1-2.713,41.855,44.868,44.868,0,0,1-2.09,4.791s23.142,30.317,44.688,7.8L429.2,490.675S442.363,461.657,425.206,449.964Z" transform="translate(-200.391 -248.744)"/>
    <path id="Path_3051" data-name="Path 3051" d="M420.928,429.363c-2.789-4.532-4.991-10.817-1.92-15.129,3.032-4.257,9.011-3.63,13.654-5.513,6.467-2.623,10.218-10.87,9.048-18.256a21.154,21.154,0,0,0-13.138-16.013c-6.507-2.505-13.844-1.69-20.216,1.194a32.359,32.359,0,0,0-17.394,19.122c-2.821,8.7-1.313,19.15,4.54,25.838,6.275,7.171,16.124,9.082,25.235,8.966" transform="translate(-199.724 -239.483)" fill="#2f2e41"/>
    <path id="Path_3052" data-name="Path 3052" d="M383.067,391.653c-3.515,3.106-8.878,1.726-12.651-1s-6.835-6.608-10.917-8.745c-7.2-3.768-15.9-1.263-22.9,2.91s-13.214,9.94-20.613,13.215-16.841,3.437-22.443-2.747a23.488,23.488,0,0,0,6.53,24.631,19.242,19.242,0,0,0,23.562,1.677c8.107-5.36,12.585-16.6,21.678-19.558,5.032-1.637,10.435-.319,15.52,1.11s10.388,2.971,15.52,1.756,9.933-6.222,9.28-11.88Z" transform="translate(-180.095 -240.433)" fill="#2f2e41"/>
    <path id="Path_3053" data-name="Path 3053" d="M485.575,617.568a157.354,157.354,0,0,1,0-44.154,3.531,3.531,0,0,1,3.381-3.123h31.818a3.3,3.3,0,0,1,2.677,1.409,3.991,3.991,0,0,1,.644,3.209,96.011,96.011,0,0,0,0,41.166,3.989,3.989,0,0,1-.644,3.209,3.3,3.3,0,0,1-2.677,1.409H488.956a3.531,3.531,0,0,1-3.381-3.123Z" transform="translate(-218.8 -265.887)" fill="#fd3f3f"/>
    <path id="Path_3054" data-name="Path 3054" d="M512.975,594.006h-16.7a2.505,2.505,0,0,1-2.394-2.6v-1.015a2.505,2.505,0,0,1,2.394-2.6h16.7a2.505,2.505,0,0,1,2.394,2.6v1.015a2.505,2.505,0,0,1-2.394,2.6Z" transform="translate(-220.793 -268.229)" fill="#fff"/>
    <path id="Path_3055" data-name="Path 3055" d="M512.975,606.351h-16.7a2.505,2.505,0,0,1-2.394-2.6v-1.016a2.505,2.505,0,0,1,2.394-2.6h16.7a2.505,2.505,0,0,1,2.394,2.6v1.016a2.505,2.505,0,0,1-2.394,2.6Z" transform="translate(-220.793 -269.881)" fill="#fff"/>
    <path id="Path_3056" data-name="Path 3056" d="M481.188,561.876a10.024,10.024,0,0,0-.355-7.864,8.693,8.693,0,0,0-5.782-4.754l-40.008-72.781L420.88,489.636l43.78,67.4a9.382,9.382,0,0,0,6.285,10.387,8.468,8.468,0,0,0,10.243-5.55Z" transform="translate(-206.046 -253.334)" fill="#ffb8b8"/>
    <path id="Path_3057" data-name="Path 3057" d="M440.809,485.684,423.932,496.1a3.576,3.576,0,0,1-3.189.3,4.01,4.01,0,0,1-2.295-2.422l-7-19.589c-2.9-5.573-1.086-12.641,4.048-15.787s11.646-1.179,14.544,4.394l11.892,16.489a4.446,4.446,0,0,1,.744,3.379,4.171,4.171,0,0,1-1.871,2.819Z" transform="translate(-203.862 -250.742)"/>
    <path id="Path_3058" data-name="Path 3058" d="M590.3,519.614H266.317a5.649,5.649,0,0,0,0,11.26h9.177V653.441a5.2,5.2,0,1,0,10.374,0V541.693L344.019,656.1a4.971,4.971,0,0,0,7.086,2.061,5.9,5.9,0,0,0,1.9-7.691L292.214,530.875h277.74v.073L509.2,650.468a5.9,5.9,0,0,0,1.9,7.691,4.971,4.971,0,0,0,7.085-2.061l51.767-101.845v99.188a5.2,5.2,0,1,0,10.374,0v-119.6l1.509-2.969H590.3a5.649,5.649,0,0,0,0-11.26Z" transform="translate(-173.775 -259.106)" fill="#630c0c"/>
    <rect id="Rectangle_1248" data-name="Rectangle 1248" width="68.628" height="6.063" rx="3.032" transform="translate(216.629 257.043)" fill="#ccc"/>
    <path id="Path_3059" data-name="Path 3059" d="M539.339,514.318H468.317a5.428,5.428,0,0,1-5.187-5.63V466.244a5.428,5.428,0,0,1,5.187-5.63h71.022a5.428,5.428,0,0,1,5.187,5.63v42.444A5.428,5.428,0,0,1,539.339,514.318Z" transform="translate(-214.58 -251.212)" fill="#ccc"/>
    <ellipse id="Ellipse_630" data-name="Ellipse 630" cx="4.788" cy="5.197" rx="4.788" ry="5.197" transform="translate(284.459 231.057)" fill="#fff"/>
    <path id="Path_3060" data-name="Path 3060" d="M626.55,377.4V225.38a6.282,6.282,0,0,1,6-6.515h110.7a6.282,6.282,0,0,1,6,6.515V377.4a6.282,6.282,0,0,1-6,6.515h-110.7A6.281,6.281,0,0,1,626.55,377.4Zm6-157.084a4.885,4.885,0,0,0-4.668,5.067V377.4a4.885,4.885,0,0,0,4.668,5.067h110.7a4.886,4.886,0,0,0,4.668-5.067V225.38a4.886,4.886,0,0,0-4.668-5.067Z" transform="translate(-247.592 -218.864)" fill="#e6e6e6"/>
    <path id="Path_3061" data-name="Path 3061" d="M711.215,294.137V262.923a3.141,3.141,0,0,1,3-3.258h24.368a3.141,3.141,0,0,1,3,3.258v31.214a3.141,3.141,0,0,1-3,3.258H714.216a3.141,3.141,0,0,1-3-3.257Z" transform="translate(-264.695 -224.324)" fill="#630c0c"/>
    <path id="Path_3062" data-name="Path 3062" d="M651.88,310.851V279.637a3.141,3.141,0,0,1,3-3.258h24.368a3.141,3.141,0,0,1,3,3.258v31.214a3.141,3.141,0,0,1-3,3.258H654.881A3.141,3.141,0,0,1,651.88,310.851Z" transform="translate(-252.709 -226.56)" fill="#ccc"/>
    <path id="Path_3063" data-name="Path 3063" d="M699.515,361.83V330.616a3.141,3.141,0,0,1,3-3.258h24.368a3.141,3.141,0,0,1,3,3.258V361.83a3.141,3.141,0,0,1-3,3.258H702.516a3.141,3.141,0,0,1-3-3.257Z" transform="translate(-262.331 -233.381)" fill="#fd3f3f"/>
    <ellipse id="Ellipse_631" data-name="Ellipse 631" cx="5.161" cy="5.602" rx="5.161" ry="5.602" transform="translate(617.867 4.637)" fill="#faaeae"/>
    <ellipse id="Ellipse_632" data-name="Ellipse 632" cx="5.161" cy="5.602" rx="5.161" ry="5.602" transform="translate(617.867 26.962)" fill="#faaeae"/>
    <ellipse id="Ellipse_633" data-name="Ellipse 633" cx="5.161" cy="5.602" rx="5.161" ry="5.602" transform="translate(617.867 49.286)" fill="#faaeae"/>
    <ellipse id="Ellipse_634" data-name="Ellipse 634" cx="5.161" cy="5.602" rx="5.161" ry="5.602" transform="translate(617.867 71.611)" fill="#faaeae"/>
    <ellipse id="Ellipse_635" data-name="Ellipse 635" cx="5.161" cy="5.602" rx="5.161" ry="5.602" transform="translate(596.321 4.637)" fill="#faaeae"/>
    <ellipse id="Ellipse_636" data-name="Ellipse 636" cx="5.161" cy="5.602" rx="5.161" ry="5.602" transform="translate(596.321 26.962)" fill="#faaeae"/>
    <ellipse id="Ellipse_637" data-name="Ellipse 637" cx="5.161" cy="5.602" rx="5.161" ry="5.602" transform="translate(596.321 49.286)" fill="#faaeae"/>
    <ellipse id="Ellipse_638" data-name="Ellipse 638" cx="5.161" cy="5.602" rx="5.161" ry="5.602" transform="translate(596.321 71.611)" fill="#faaeae"/>
    <ellipse id="Ellipse_639" data-name="Ellipse 639" cx="5.161" cy="5.602" rx="5.161" ry="5.602" transform="translate(574.775 4.637)" fill="#faaeae"/>
    <ellipse id="Ellipse_640" data-name="Ellipse 640" cx="5.161" cy="5.602" rx="5.161" ry="5.602" transform="translate(574.775 26.962)" fill="#faaeae"/>
    <ellipse id="Ellipse_641" data-name="Ellipse 641" cx="5.161" cy="5.602" rx="5.161" ry="5.602" transform="translate(574.775 49.286)" fill="#faaeae"/>
    <ellipse id="Ellipse_642" data-name="Ellipse 642" cx="5.161" cy="5.602" rx="5.161" ry="5.602" transform="translate(574.775 71.611)" fill="#faaeae"/>
    <ellipse id="Ellipse_643" data-name="Ellipse 643" cx="5.161" cy="5.602" rx="5.161" ry="5.602" transform="translate(553.229 4.637)" fill="#faaeae"/>
    <ellipse id="Ellipse_644" data-name="Ellipse 644" cx="5.161" cy="5.602" rx="5.161" ry="5.602" transform="translate(553.229 26.962)" fill="#faaeae"/>
    <ellipse id="Ellipse_645" data-name="Ellipse 645" cx="5.161" cy="5.602" rx="5.161" ry="5.602" transform="translate(553.229 49.286)" fill="#faaeae"/>
    <ellipse id="Ellipse_646" data-name="Ellipse 646" cx="5.161" cy="5.602" rx="5.161" ry="5.602" transform="translate(553.229 71.611)" fill="#f2f2f2"/>
    <ellipse id="Ellipse_647" data-name="Ellipse 647" cx="5.161" cy="5.602" rx="5.161" ry="5.602" transform="translate(531.683 4.637)" fill="#faaeae"/>
    <ellipse id="Ellipse_648" data-name="Ellipse 648" cx="5.161" cy="5.602" rx="5.161" ry="5.602" transform="translate(531.683 26.962)" fill="#faaeae"/>
    <ellipse id="Ellipse_649" data-name="Ellipse 649" cx="5.161" cy="5.602" rx="5.161" ry="5.602" transform="translate(531.683 49.286)" fill="#faaeae"/>
    <ellipse id="Ellipse_650" data-name="Ellipse 650" cx="5.161" cy="5.602" rx="5.161" ry="5.602" transform="translate(531.683 71.611)" fill="#f2f2f2"/>
    <ellipse id="Ellipse_651" data-name="Ellipse 651" cx="5.161" cy="5.602" rx="5.161" ry="5.602" transform="translate(510.138 4.637)" fill="#faaeae"/>
    <ellipse id="Ellipse_652" data-name="Ellipse 652" cx="5.161" cy="5.602" rx="5.161" ry="5.602" transform="translate(510.138 26.962)" fill="#faaeae"/>
    <ellipse id="Ellipse_653" data-name="Ellipse 653" cx="5.161" cy="5.602" rx="5.161" ry="5.602" transform="translate(510.138 49.286)" fill="#faaeae"/>
    <ellipse id="Ellipse_654" data-name="Ellipse 654" cx="5.161" cy="5.602" rx="5.161" ry="5.602" transform="translate(510.138 71.611)" fill="#faaeae"/>
    <path id="Path_3064" data-name="Path 3064" d="M823.323,449.463a10.265,10.265,0,0,1,.515-7.771,8.92,8.92,0,0,1,5.684-4.758,7.844,7.844,0,0,1,1.158-.2l19.393-36.9-4.9-9.132,12.19-10.208,9.326,14.06a10.324,10.324,0,0,1-.208,11.528l-26.625,37q.145.441.248.9a10.2,10.2,0,0,1-1.324,7.658,8.7,8.7,0,0,1-6.145,4.027,7.872,7.872,0,0,1-1.075.073,8.875,8.875,0,0,1-8.241-6.268Z" transform="translate(-287.234 -240.491)" fill="#ffb8b8"/>
    <path id="Path_3065" data-name="Path 3065" d="M620.725,444.56h-9.783L606.288,403.6h14.439Z" transform="translate(-122.473 -54.004)" fill="#ffb8b8"/>
    <path id="Path_3066" data-name="Path 3066" d="M600.356,447.384h18.868v12.895H588.476C588.476,453.157,593.795,447.384,600.356,447.384Z" transform="translate(-118.875 -59.863)" fill="#2f2e41"/>
    <path id="Path_3067" data-name="Path 3067" d="M721.725,444.56h-9.783L707.288,403.6h14.439Z" transform="translate(-142.876 -54.004)" fill="#ffb8b8"/>
    <path id="Path_3068" data-name="Path 3068" d="M701.356,447.384h18.868v12.895H689.476C689.476,453.157,694.795,447.384,701.356,447.384Z" transform="translate(-139.278 -59.863)" fill="#2f2e41"/>
    <path id="Path_3069" data-name="Path 3069" d="M862.467,379.694l-21.965,9.06-5.362-16.169a10.068,10.068,0,0,1,3.992-11.693h0a8.453,8.453,0,0,1,11.381,2.412Z" transform="translate(-289.621 -237.7)" fill="#6c63ff"/>
    <path id="Path_3070" data-name="Path 3070" d="M771.656,606.314l-18.421-4.561a4.318,4.318,0,0,1-3.042-4.867c7.392-50.854,14.5-80.635,32.83-118.454.256-.705,3.118-15.018,4.985-24.5a4.222,4.222,0,0,1,3.363-4.352l34.349-5.738a4.124,4.124,0,0,1,1.613-.264l.343.071,0,.367a.483.483,0,0,1-.482.459l-.457.076a5.336,5.336,0,0,1,1.416,1.045c15.05,19.648,22.876,84.055,32.816,155.209a4.083,4.083,0,0,1-1.04,3.159,3.809,3.809,0,0,1-2.823,1.386l-21.946.581a4.083,4.083,0,0,1-4.018-3.654l-14.782-92.726a3.318,3.318,0,0,0-2.652-2.883,3.117,3.117,0,0,0-3.329,1.882c-11.925,26.362-23.047,49.161-34,94.645a4.026,4.026,0,0,1-3.824,3.227,3.711,3.711,0,0,1-.895-.109Z" transform="translate(-272.559 -248.932)" fill="#2f2e41"/>
    <path id="Path_3071" data-name="Path 3071" d="M798.773,443.7a4.412,4.412,0,0,1-1.663-3.074c-2.813-28.506-.854-50.814,5.99-68.2a20.5,20.5,0,0,1,13.22-12.282l17.755-.973.092.048c8.227,4.374,12.838,14.086,11.347,23.9-5.711,16.339-10.492,33.351-6.846,47.074a4.772,4.772,0,0,1-.386,3.45,3.942,3.942,0,0,1-2.486,2l-33.818,8.732a3.712,3.712,0,0,1-3.205-.673Z" transform="translate(-281.795 -237.637)"/>
    <path id="Path_3072" data-name="Path 3072" d="M778.37,402.157,744.316,373a7.9,7.9,0,0,1-.827.265,8.241,8.241,0,0,1-7.036-1.465,9.906,9.906,0,0,1,2.061-16.78,8.164,8.164,0,0,1,7.156.6,9.471,9.471,0,0,1,4.356,6.192,9.884,9.884,0,0,1,.183,1.258l33.9,21.228,8.436-5.272,9.345,13.28-13.1,10.134a8.187,8.187,0,0,1-10.421-.276Z" transform="translate(-269.035 -237.007)" fill="#ffb8b8"/>
    <path id="Path_3073" data-name="Path 3073" d="M819.692,397.9l-19.43-14.342,9.131-14.038a8.5,8.5,0,0,1,11.115-3.153h0a9.977,9.977,0,0,1,4.7,11.505Z" transform="translate(-282.683 -238.475)"/>
    <ellipse id="Ellipse_655" data-name="Ellipse 655" cx="19.6" cy="21.275" rx="19.6" ry="21.275" transform="translate(526.755 71.781)" fill="#ffb8b8"/>
    <path id="Path_3074" data-name="Path 3074" d="M822.139,318.582c-5.038,3.742-11.652,7.589-16.8,3.6-3.378-2.617-4.443-7.463-3.073-11.715,2.464-7.647,9.232-11.014,15.7-13.595,8.414-3.355,17.576-6.024,26.263-3.621s16.363,11.532,14.8,21.112c-1.261,7.7-7.956,14.115-7.006,21.871.957,7.806,9.044,11.915,16.185,13.31s15.13,1.843,20.262,7.41c6.546,7.1,4.911,19.8-1.248,27.293s-15.455,10.9-24.462,13.207c-11.934,3.061-24.841,4.67-36.175-.41s-20.154-18.757-16.871-31.581c1.387-5.417,4.654-10,7.811-14.452s6.354-9.118,7.559-14.586c1-4.557.261-9.848-2.523-13.266a4.1,4.1,0,0,1-.474-4.492Z" transform="translate(-282.971 -228.695)" fill="#2f2e41"/>
  </g>
</svg>
