<svg id="users-solid" xmlns="http://www.w3.org/2000/svg" width="78.209" height="60.335" viewBox="0 0 78.209 60.335">
  <path id="users-solid-2" data-name="users-solid" d="M11.731,57.858c4.314,0,7.821-3.865,7.821-8.619s-3.507-8.619-7.821-8.619S3.91,44.485,3.91,49.239,7.418,57.858,11.731,57.858Zm54.746,0c4.314,0,7.821-3.865,7.821-8.619s-3.507-8.619-7.821-8.619-7.821,3.865-7.821,8.619S62.164,57.858,66.477,57.858Zm3.91,4.31H62.567a7.451,7.451,0,0,0-5.511,2.5,19.8,19.8,0,0,1,9.177,14.734H74.3a4.12,4.12,0,0,0,3.91-4.31v-4.31C78.209,66.033,74.7,62.168,70.388,62.168Zm-31.283,0c7.564,0,13.687-6.747,13.687-15.084S46.669,32,39.1,32,25.418,38.747,25.418,47.084,31.54,62.168,39.1,62.168Zm9.385,4.31H47.475a17.336,17.336,0,0,1-16.742,0H29.719c-7.772,0-14.078,6.949-14.078,15.515v3.879c0,3.569,2.627,6.464,5.866,6.464H56.7c3.238,0,5.866-2.9,5.866-6.464V81.992C62.567,73.427,56.261,66.477,48.489,66.477Zm-27.336-1.8a7.451,7.451,0,0,0-5.511-2.5H7.821C3.507,62.168,0,66.033,0,70.787V75.1a4.12,4.12,0,0,0,3.91,4.31h8.053a19.846,19.846,0,0,1,9.19-14.734Z" transform="translate(0 -32)" fill="#fff"/>
</svg>
