<svg xmlns="http://www.w3.org/2000/svg" width="372.303" height="493.971" viewBox="0 0 372.303 493.971">
  <g id="Group_1217" data-name="Group 1217" transform="translate(-1330.902 -1221.112)">
    <g id="Group_971" data-name="Group 971" transform="translate(1570.789 1221.112)">
      <path id="Path_2529" data-name="Path 2529" d="M912.7,518.1s4.178,130.069,11.311,146.715c5.942,13.865,9.409,59.077,10.4,73.795.2,2.951.3,4.676.3,4.676s19.023,0,20.212-4.756,4.756-57.07,0-73.715S961.7,525.1,961.7,525.1Z" transform="translate(-880.466 -276.31)" fill="#2f2e41"/>
      <path id="Path_2530" data-name="Path 2530" d="M939.469,737.338S927.58,740.9,925.2,745.661s-41.613,13.078-29.723,19.023,47.558-4.756,47.558-4.756,19.023-1.189,17.834-8.323-5.519-15.924-5.519-15.924Z" transform="translate(-880.467 -276.311)" fill="#2f2e41"/>
      <path id="Path_2531" data-name="Path 2531" d="M972.759,741.139s-11.889,3.567-14.267,8.323-41.613,13.078-29.723,19.022,47.558-4.756,47.558-4.756,19.023-1.189,17.834-8.323-5.519-15.924-5.519-15.924Z" transform="translate(-880.466 -276.311)" fill="#2f2e41"/>
      <path id="Path_2532" data-name="Path 2532" d="M922.824,524.749l16.645,28.535,27.78,99.21s-2.812,91.022.755,91.022,22.59,5.945,23.779,0c1-5.022,14.321-53.125,7.683-85.143a409.429,409.429,0,0,1-8.308-61.426l-2.942-55.553s11.889-21.4-1.189-24.968S922.824,524.749,922.824,524.749Z" transform="translate(-880.467 -276.31)" fill="#2f2e41"/>
      <ellipse id="Ellipse_498" data-name="Ellipse 498" cx="28.535" cy="28.535" rx="28.535" ry="28.535" transform="translate(29.278 8.271)" fill="#ffb8b8"/>
      <path id="Path_2533" data-name="Path 2533" d="M934.714,332.139s4.756,38.046,3.567,40.424,28.535-26.157,28.535-26.157-10.7-16.645-8.323-24.968Z" transform="translate(-880.467 -276.31)" fill="#ffb8b8"/>
      <g id="Group_966" data-name="Group 966" transform="translate(29.284 65.34)">
        <path id="Path_2534" data-name="Path 2534" d="M1001.3,370.185s-33.29-23.779-34.479-28.535l-24.968,21.4L937.609,358s-19.536,19.318-19.536,27.64-1.189,33.291,2.378,40.424-10.7,97.494-10.7,97.494,11.889,10.7,13.078,11.89,48.747-7.134,48.747-7.134,23.779-2.378,23.779-5.945-7.134-57.07-4.756-71.337S1001.3,370.185,1001.3,370.185Z" transform="translate(-909.751 -341.65)"/>
      </g>
      <path id="Path_2535" data-name="Path 2535" d="M926.092,298.861c3.9-1.388,8.2-2.1,12.18-.95,5.629,1.629,9.527,6.563,13.732,10.644s10.1,7.7,15.637,5.778a9.168,9.168,0,0,1,1.751-6.771,6.226,6.226,0,0,0,1.555-2.588c.236-1.528-1.049-2.846-1.434-4.344-.675-2.625,1.176-6.218-1.1-7.689-.6-.388-1.362-.477-1.948-.887-2.3-1.608.254-5.609-1.267-7.968a4.866,4.866,0,0,0-1.729-1.442c-11.033-6.437-24.525-6.455-37.3-6.293-1.778.023-4.253.906-3.752,2.612-2.414-1.733-5.575.7-7.52,2.946l-3.982,4.6a35.412,35.412,0,0,0-4.867,6.583c-1.216,2.326-1.485,5.9.936,6.917-1.8-.754-3.983,9.908,4.314,8.153C916.123,307.14,920.848,300.727,926.092,298.861Z" transform="translate(-880.467 -276.31)" fill="#2f2e41"/>
      <path id="Path_2539" data-name="Path 2539" d="M1008.428,403.476s5.945,77.282-2.378,79.66-38.046,20.212-85.6,15.456c0,0-46.368,24.968-39.235,1.189s39.235-17.834,39.235-17.834,57.069-11.889,59.447-20.212-7.134-42.8-3.567-43.991S1008.428,403.476,1008.428,403.476Z" transform="translate(-880.466 -276.31)" fill="#ffb8b8"/>
      <path id="Path_2540" data-name="Path 2540" d="M982.272,372.563l19.023-2.378s19.023,36.857,8.323,42.8-38.046,10.7-38.046,8.323S982.272,372.563,982.272,372.563Z" transform="translate(-880.467 -276.31)"/>
      <g id="Component_38_11" data-name="Component 38 – 11" transform="matrix(0.999, 0.035, -0.035, 0.999, 41.506, 126.379)">
        <g id="Group_683" data-name="Group 683" transform="translate(8.027 15.68)">
          <path id="Path_2413" data-name="Path 2413" d="M0,2.08V.932A.972.972,0,0,1,1.087,0C1.657,0,2.1.3,2.1.838v.2H1.561V.891A.419.419,0,0,0,1.087.474.434.434,0,0,0,.6.936v1.12a.44.44,0,0,0,.491.482.412.412,0,0,0,.466-.4V1.974H2.1v.2c0,.548-.445.842-1.011.842C.5,3.012,0,2.73,0,2.08Z" transform="translate(0 0)" fill="#fff"/>
          <path id="Path_2414" data-name="Path 2414" d="M.882,0h.73L2.48,2.918h-.6l-.2-.7H.747l-.193.7H0Zm.671,1.774L1.221.568H1.209L.873,1.774Z" transform="translate(2.31 0.045)" fill="#fff"/>
          <path id="Path_2415" data-name="Path 2415" d="M.8.47H0V0H2.19V.47H1.4V2.914H.8V.47Z" transform="translate(4.726 0.049)" fill="#fff"/>
          <path id="Path_2416" data-name="Path 2416" d="M0,0H.86a.77.77,0,0,1,.86.818.741.741,0,0,1-.68.813l.772,1.283H1.536L.8,1.667H.248V2.914H0ZM.793,1.476c.453,0,.68-.213.68-.642A.578.578,0,0,0,.823.2H.248V1.476Z" transform="translate(8.097 0.049)" fill="#c2341c"/>
          <path id="Path_2417" data-name="Path 2417" d="M0,1.422V.777A.709.709,0,0,1,.747,0a.649.649,0,0,1,.692.723v.393H.239V1.43c0,.368.189.539.558.539a1.044,1.044,0,0,0,.529-.155l.084.155a1.036,1.036,0,0,1-.642.2A.68.68,0,0,1,0,1.422ZM1.217.944V.7a.465.465,0,0,0-.5-.519A.48.48,0,0,0,.239.707V.944h.978Z" transform="translate(10.307 0.846)" fill="#c2341c"/>
          <path id="Path_2418" data-name="Path 2418" d="M0,2.518V0H.235V2.489c0,.143.067.241.256.241A1.365,1.365,0,0,0,.68,2.714V2.9a.762.762,0,0,1-.26.041A.383.383,0,0,1,0,2.518Z" transform="translate(12.286 0.049)" fill="#c2341c"/>
          <path id="Path_2419" data-name="Path 2419" d="M0,1.426V.744A.687.687,0,0,1,.73,0a.674.674,0,0,1,.734.736v.679a.68.68,0,0,1-.73.752A.676.676,0,0,1,0,1.426Zm1.229-.012V.719a.474.474,0,0,0-.5-.535C.365.184.235.437.235.74v.679c0,.344.147.556.508.556S1.229,1.725,1.229,1.414Z" transform="translate(13.33 0.846)" fill="#c2341c"/>
          <path id="Path_2420" data-name="Path 2420" d="M0,1.574A.678.678,0,0,1,.755.924h.436V.543c0-.262-.176-.372-.441-.372C.52.172.281.278.281.515V.642H.071V.511C.071.172.39,0,.78,0c.361,0,.65.159.65.527V1.586c0,.151.017.421.021.531H1.233l-.017-.343H1.208a.672.672,0,0,1-.629.388A.551.551,0,0,1,0,1.574Zm1.191-.135V1.087H.8c-.252,0-.554.082-.554.454a.4.4,0,0,0,.407.442A.536.536,0,0,0,1.191,1.439Z" transform="translate(15.234 0.846)" fill="#c2341c"/>
          <path id="Path_2421" data-name="Path 2421" d="M0,2.379v-.94A.608.608,0,0,1,.629.8a.584.584,0,0,1,.562.368h0V0h.239V2.914h-.21l-.008-.388H1.2a.669.669,0,0,1-.621.437A.547.547,0,0,1,0,2.379Zm1.2-.269V1.6A.6.6,0,0,0,.667.969c-.231,0-.432.118-.432.47v.9a.379.379,0,0,0,.42.429A.6.6,0,0,0,1.2,2.109Z" transform="translate(17.196 0.049)" fill="#c2341c"/>
          <path id="Path_2422" data-name="Path 2422" d="M0,1.422V.777A.709.709,0,0,1,.747,0a.649.649,0,0,1,.692.723v.393H.239V1.43c0,.368.189.539.558.539a1.044,1.044,0,0,0,.529-.155l.084.155a1.036,1.036,0,0,1-.642.2A.68.68,0,0,1,0,1.422ZM1.217.944V.7a.465.465,0,0,0-.5-.519A.48.48,0,0,0,.239.707V.944h.978Z" transform="translate(19.188 0.846)" fill="#c2341c"/>
          <path id="Path_2423" data-name="Path 2423" d="M0,2.379v-.94A.607.607,0,0,1,.629.8a.584.584,0,0,1,.562.368h0V0h.239V2.914h-.21l-.008-.388H1.2a.669.669,0,0,1-.621.437A.547.547,0,0,1,0,2.379Zm1.2-.269V1.6A.6.6,0,0,0,.667.969c-.231,0-.432.118-.432.47v.9a.379.379,0,0,0,.42.429A.6.6,0,0,0,1.2,2.109Z" transform="translate(21.083 0.049)" fill="#c2341c"/>
        </g>
        <g id="layer1" transform="translate(0 0)">
          <path id="path3003-4" d="M6.021,0C4.043,0,2.533,1.628,1.915,2.483A9.056,9.056,0,0,0,0,8.348c.131,4.96,3.353,7.983,5.966,8.517v-1.4C2.9,14.7,1.248,11.049,1.258,8.152a8.188,8.188,0,0,1,1.664-4.76A5.277,5.277,0,0,1,6.036,1.337ZM7.377,1.848a4.7,4.7,0,0,0-1.8.339A6.031,6.031,0,0,0,2.347,5.7a8.105,8.105,0,0,0,.68,6.737c1.681,2.292,4.119,3,6.148,2.052a9.411,9.411,0,0,0,1.122-.611l-.6-1.173a7.978,7.978,0,0,1-1,.547c-3.735,1.3-6.844-3.075-5.236-6.937A4.911,4.911,0,0,1,5.943,3.535a3.812,3.812,0,0,1,3.694.555,5.619,5.619,0,0,1,1.826,5.918,1.147,1.147,0,0,1-.941.817c0-.48-.013-1.187-.009-1.762a7.039,7.039,0,0,0-.2-1.923A3.047,3.047,0,0,0,7.341,4.685,2.651,2.651,0,0,0,4.828,6.227a4.2,4.2,0,0,0,.787,5.37,2.893,2.893,0,0,0,2.316.571,3.1,3.1,0,0,0,.726-.245c.205-.105.478-.245.38-.251V10.18a6.363,6.363,0,0,1-.808.487,2.037,2.037,0,0,1-.492.172,1.863,1.863,0,0,1-1.527-.462C4.677,9.223,5.291,6.087,7.327,5.993A1.951,1.951,0,0,1,9.1,7.591,5.577,5.577,0,0,1,9.266,9.1c-.01.961-.006,2.3-.006,2.3l.017.787h.481s.287.011.637,0a2.951,2.951,0,0,0,.565-.091,1.443,1.443,0,0,0,.629-.348,3.048,3.048,0,0,0,.807-1.192,6.647,6.647,0,0,0,.318-2.732A6.67,6.67,0,0,0,10.294,2.9,5.165,5.165,0,0,0,7.377,1.848Z" transform="translate(0 0)" fill="#c2341c"/>
          <path id="path4227-4" d="M12.713,0a1.494,1.494,0,0,0-1.334,1.1c-.645,1.735-.813,2.13-1.477,4C9.457,6.355,9.209,6.969,8.638,8.54c-.174.477-1.03,2.8-1.03,2.8l2.13.011c.515-1.42.562-1.528.73-2.034.429-1.026.684-1.859,1.152-3.082.371-.968.564-1.532.718-1.936.172-.449.182-.651.387-.661.144-.007.294.552.681,1.557.229.594.644,1.723.792,2.123.14.378.227.7.339.925a4.309,4.309,0,0,1,.244.61c.027.109-.366.043-.862.048-.941.009-2.294,0-2.294,0l-.9,2.442c2.589.051,4.492-.082,7.065.013-1.16-3.2-3.334-9.046-3.441-9.346s-.254-.664-.32-.863A1.458,1.458,0,0,0,12.713,0ZM2.475.184a2.771,2.771,0,0,0-.9.241C.85.826.245,1.61.024,4.5A16.651,16.651,0,0,0,.338,9.224c.307,1.086,1.05,2.088,1.69,2.1H6.9l.836-2.454s-3.34.046-4.934.041c-.948,0-.763-2.64-.8-4.188,0,0,.08-2.073.638-2.06,1.767.042,7.129-.016,7.129-.016l1-2.419L2.475.184ZM14.6.219c0,.063.968,2.449.939,2.455,1.048.007,2.144-.051,3.3,0v8.651l1.953.008,0-8.685L24.2,2.642c.019-1.167-.008-1.765,0-2.411C20.919.217,18.069.222,14.6.219Z" transform="translate(14.377 2.756)" fill="#fff"/>
        </g>
      </g>
    </g>
    <g id="Group_1013" data-name="Group 1013" transform="translate(1330.902 1247.861)">
      <path id="Path_2501" data-name="Path 2501" d="M613.6,332.374l12.368-1.761,4.365,45.793,11.145,63.237c3.182,1.876,4.968,6.06,4.391,10.287s-3.381,7.493-6.893,8.029-6.9-1.785-8.323-5.706a11.1,11.1,0,0,1,2.144-11.284L621.6,403.706Z" transform="translate(-513.009 -204.117)" fill="#ffb6b6"/>
      <path id="Path_2502" data-name="Path 2502" d="M363.128,514.52h10.19l4.848-47.577H363.127Z" transform="translate(-280.504 -59.796)" fill="#ffb6b6"/>
      <path id="Path_2503" data-name="Path 2503" d="M641.207,714.737h32.856v-.5c0-8.548-5.725-15.479-12.788-15.48H641.207Z" transform="translate(-561.181 -248.057)" fill="#2f2e41"/>
      <path id="Path_2504" data-name="Path 2504" d="M460.747,507l10,2.338,12.213-45.6L468.2,460.285Z" transform="translate(-456.322 -59.002)" fill="#ffb6b6"/>
      <path id="Path_2505" data-name="Path 2505" d="M751.6,706.213l32.26,7.541.079-.494c1.339-8.394-3.2-16.513-10.131-18.135h0l-19.7-4.606Z" transform="translate(-751.596 -247.074)" fill="#2f2e41"/>
      <path id="Path_2506" data-name="Path 2506" d="M691.932,239.634l-5.921,13.75-44.342-11.839,4.858-26.659c3.845-21.1,19.259-36.341,36.691-31.687s25.566,25.279,21.721,46.381l-7.146,26.95-7.23-1.93Z" transform="translate(-595.279 -182.359)" fill="#2f2e41"/>
      <path id="Path_2507" data-name="Path 2507" d="M743.886,419.295s4.365,26.419-1.455,65.168-7.275,55.481-7.275,55.481,4.365,6.164,1.455,9.687,0,10.568,0,10.568l-6.548,85.422-22.553-4.4,2.91-80.139s-2.91-7.045-1.455-8.807-1.455-12.329-1.455-12.329l-3.637-83.661L681.32,547.869s2.183,3.522,0,6.164-6.548,15.852-6.548,15.852l-14.55,61.645-23.28-5.284,13.1-70.452s-1.455-4.4.728-7.045a7.919,7.919,0,0,0,1.455-6.164s-2.183-2.642.727-6.165,4.365-17.613,4.365-17.613,2.182-94.229,9.458-99.513S743.886,419.295,743.886,419.295Z" transform="translate(-629.472 -214.421)" fill="#2f2e41"/>
      <path id="Path_2541" data-name="Path 2541" d="M20.37,0C9.12,0,0,11.04,0,24.658c0,10.06,1.1,16.267,8.628,20.26.368.2-5.581,11.328-6.307,16.571-.4,2.9,8.059,3.108,8.451,3.251L17,66.672,20.37,49.316c.922.2-1.238,0,0,0,11.25,0,20.37-11.04,20.37-24.658S31.62,0,20.37,0Z" transform="translate(60.072 15.94)" fill="#ffb6b6"/>
      <path id="Path_2508" data-name="Path 2508" d="M636.8,265.1,641.16,371.66s-2.91,2.642-1.455,8.806a30.3,30.3,0,0,1,0,12.329s-4.365,6.165-2.183,8.806,80.754.881,80.754.881,2.91-6.164-1.455-9.687-2.182-13.21-2.182-13.21,1.455-2.642-2.183-7.045-6.548-40.51-6.548-40.51L715.366,288s-9.52-13.007-34.128-17.88l-7.6,3.211-6.274-7.143S641.16,259.819,636.8,265.1Z" transform="translate(-603.135 -195.848)"/>
      <path id="Path_2509" data-name="Path 2509" d="M629.873,292.219l11.271-.606s6.548,15.852,7.275,29.942l4.007,52.564L626.594,378.8Z" transform="translate(-528.913 -199.462)"/>
      <path id="Path_2510" data-name="Path 2510" d="M686.172,223.331l7.567-11.785c.929-5.165-1.763-10.269-6.025-11.421l-28.586-7.632c-4.267-1.124-8.483,2.135-9.436,7.294l-.016.085,2.047,14.23.359-.078c17.74-3.829,22.794-2.482,33.8,9.005Z" transform="translate(-587.202 -187.605)" fill="#2f2e41"/>
      <path id="Path_2511" data-name="Path 2511" d="M740.462,425.271l1.364-69.342,1.455-49.316,17.46,2.642-9.377,117.871a11.375,11.375,0,0,1,.69,10.839c-1.624,3.444-4.819,5.341-8.063,4.789s-5.883-3.441-6.66-7.293a10.8,10.8,0,0,1,3.131-10.19Z" transform="translate(-717.624 -201.252)" fill="#ffb6b6"/>
      <path id="Path_2512" data-name="Path 2512" d="M763.877,267.1l-12.737-1.487s-2.182,0-4.365,8.806S732.594,376.3,732.594,376.3l26.549,2.917Z" transform="translate(-717.48 -196.358)"/>
      <g id="Component_38_14" data-name="Component 38 – 14" transform="matrix(0.995, 0.105, -0.105, 0.995, 61.827, 102.185)">
        <g id="Group_683-2" data-name="Group 683" transform="translate(6.712 12.783)">
          <path id="Path_2413-2" data-name="Path 2413" d="M0,1.7V.76A.806.806,0,0,1,.909,0c.477,0,.849.243.849.683v.16H1.305V.726c0-.206-.154-.34-.4-.34a.359.359,0,0,0-.4.377v.913a.364.364,0,0,0,.41.393c.232,0,.39-.127.39-.33v-.13h.453v.16c0,.447-.372.686-.845.686C.417,2.455,0,2.225,0,1.7Z" transform="translate(0 0)" fill="#fff"/>
          <path id="Path_2414-2" data-name="Path 2414" d="M.737,0h.611l.726,2.379H1.568L1.4,1.809H.624l-.161.57H0ZM1.3,1.446,1.021.463H1.011L.73,1.446Z" transform="translate(1.931 0.036)" fill="#fff"/>
          <path id="Path_2415-2" data-name="Path 2415" d="M.667.383H0V0H1.831V.383H1.168V2.376h-.5V.383Z" transform="translate(3.951 0.04)" fill="#fff"/>
          <path id="Path_2416-2" data-name="Path 2416" d="M0,0H.719a.637.637,0,0,1,.719.666.609.609,0,0,1-.568.663l.645,1.046H1.284L.667,1.359H.207V2.376H0ZM.663,1.2c.379,0,.568-.173.568-.523A.477.477,0,0,0,.688.163H.207V1.2Z" transform="translate(6.77 0.04)" fill="#c2341c"/>
          <path id="Path_2417-2" data-name="Path 2417" d="M0,1.159V.633A.585.585,0,0,1,.624,0,.535.535,0,0,1,1.2.59V.91H.2v.256c0,.3.158.44.467.44a.889.889,0,0,0,.442-.126l.07.126a.882.882,0,0,1-.537.16A.562.562,0,0,1,0,1.159ZM1.017.77v-.2A.384.384,0,0,0,.6.146a.4.4,0,0,0-.4.43V.769h.818Z" transform="translate(8.618 0.689)" fill="#c2341c"/>
          <path id="Path_2418-2" data-name="Path 2418" d="M0,2.052V0H.2V2.029c0,.117.056.2.214.2a1.163,1.163,0,0,0,.158-.013v.15A.652.652,0,0,1,.351,2.4.317.317,0,0,1,0,2.052Z" transform="translate(10.273 0.04)" fill="#c2341c"/>
          <path id="Path_2419-2" data-name="Path 2419" d="M0,1.163V.606A.568.568,0,0,1,.611,0a.557.557,0,0,1,.614.6v.553a.561.561,0,0,1-.61.613A.558.558,0,0,1,0,1.163Zm1.028-.01V.586A.391.391,0,0,0,.607.15C.305.15.2.356.2.6v.553c0,.28.123.453.424.453S1.028,1.406,1.028,1.152Z" transform="translate(11.146 0.69)" fill="#c2341c"/>
          <path id="Path_2420-2" data-name="Path 2420" d="M0,1.283C0,.893.347.756.631.753H1V.443C1,.23.849.14.628.14.435.14.235.227.235.42v.1H.06V.417C.06.14.326,0,.652,0c.3,0,.544.13.544.43v.863c0,.123.014.343.018.433H1.031l-.014-.28H1.01a.564.564,0,0,1-.526.317A.455.455,0,0,1,0,1.283Zm1-.11V.886H.667C.456.886.2.953.2,1.256a.33.33,0,0,0,.34.36A.443.443,0,0,0,1,1.173Z" transform="translate(12.738 0.689)" fill="#c2341c"/>
          <path id="Path_2421-2" data-name="Path 2421" d="M0,1.939V1.173A.5.5,0,0,1,.526.65.489.489,0,0,1,1,.95H1V0h.2V2.376H1.025l-.007-.316H1.007a.56.56,0,0,1-.519.356A.451.451,0,0,1,0,1.939Zm1-.22V1.3A.5.5,0,0,0,.557.79.336.336,0,0,0,.2,1.173v.736a.313.313,0,0,0,.351.35A.492.492,0,0,0,1,1.72Z" transform="translate(14.379 0.04)" fill="#c2341c"/>
          <path id="Path_2422-2" data-name="Path 2422" d="M0,1.159V.633A.585.585,0,0,1,.624,0,.535.535,0,0,1,1.2.59V.91H.2v.256c0,.3.158.44.467.44a.889.889,0,0,0,.442-.126l.07.126a.882.882,0,0,1-.537.16A.562.562,0,0,1,0,1.159ZM1.017.77v-.2A.383.383,0,0,0,.6.146a.4.4,0,0,0-.4.43V.769h.818Z" transform="translate(16.044 0.689)" fill="#c2341c"/>
          <path id="Path_2423-2" data-name="Path 2423" d="M0,1.939V1.173A.5.5,0,0,1,.526.65.489.489,0,0,1,1,.95H1V0h.2V2.376H1.024l-.007-.316H1.007a.56.56,0,0,1-.519.356A.451.451,0,0,1,0,1.939Zm1-.22V1.3A.5.5,0,0,0,.557.79.335.335,0,0,0,.2,1.173v.736a.313.313,0,0,0,.351.35A.492.492,0,0,0,1,1.72Z" transform="translate(17.629 0.04)" fill="#c2341c"/>
        </g>
        <g id="layer1-2" data-name="layer1" transform="translate(0 0)">
          <path id="path3003-4-2" data-name="path3003-4" d="M5.035,0A4.66,4.66,0,0,0,1.6,2.024,7.264,7.264,0,0,0,0,6.8c.11,4.043,2.8,6.507,4.989,6.943v-1.14c-2.563-.627-3.945-3.6-3.937-5.963A6.575,6.575,0,0,1,2.443,2.765a4.418,4.418,0,0,1,2.6-1.675ZM6.168,1.507a4.019,4.019,0,0,0-1.508.277,4.965,4.965,0,0,0-2.7,2.861,6.462,6.462,0,0,0,.568,5.492C3.936,12,5.975,12.58,7.671,11.809a7.928,7.928,0,0,0,.938-.5l-.5-.956a6.725,6.725,0,0,1-.833.446C4.15,11.859,1.55,8.295,2.894,5.146A4.036,4.036,0,0,1,4.969,2.881a3.256,3.256,0,0,1,3.088.452A4.514,4.514,0,0,1,9.584,8.158a.953.953,0,0,1-.787.666c0-.391-.011-.967-.008-1.436A5.6,5.6,0,0,0,8.624,5.82a2.535,2.535,0,0,0-2.486-2,2.221,2.221,0,0,0-2.1,1.257A3.361,3.361,0,0,0,4.7,9.454a2.466,2.466,0,0,0,1.936.465,2.638,2.638,0,0,0,.607-.2c.172-.086.4-.2.317-.2V8.3a5.366,5.366,0,0,1-.676.4,1.733,1.733,0,0,1-.411.14,1.584,1.584,0,0,1-1.277-.377c-1.282-.941-.768-3.5.934-3.574a1.618,1.618,0,0,1,1.485,1.3,4.439,4.439,0,0,1,.137,1.233C7.739,8.2,7.743,9.3,7.743,9.3l.014.641h.4s.24.009.532,0a2.527,2.527,0,0,0,.472-.074,1.217,1.217,0,0,0,.526-.284,2.486,2.486,0,0,0,.674-.972,5.292,5.292,0,0,0,.266-2.227A5.392,5.392,0,0,0,8.607,2.363a4.389,4.389,0,0,0-2.439-.856Z" transform="translate(0 0)" fill="#c2341c"/>
          <path id="path4227-4-2" data-name="path4227-4" d="M10.63,0A1.244,1.244,0,0,0,9.515.894c-.539,1.415-.68,1.737-1.235,3.264-.372,1.023-.579,1.523-1.057,2.8-.145.389-.861,2.283-.861,2.283l1.781.009c.43-1.158.47-1.245.611-1.658.359-.837.572-1.516.963-2.512.31-.789.471-1.249.6-1.579.144-.366.153-.531.324-.539.121-.005.246.45.57,1.269.192.484.538,1.4.662,1.73.117.308.19.57.284.754a3.468,3.468,0,0,1,.2.5c.022.089-.306.035-.721.039-.786.007-1.919,0-1.919,0l-.75,1.991c2.165.042,3.756-.067,5.907.011C13.908,6.645,12.09,1.88,12,1.636s-.212-.542-.268-.7A1.212,1.212,0,0,0,10.63,0ZM2.069.15a2.364,2.364,0,0,0-.755.2C.711.673.205,1.312.02,3.671A13.243,13.243,0,0,0,.283,7.52c.257.886.878,1.7,1.413,1.715h4.07l.7-2s-2.793.038-4.126.034c-.793,0-.638-2.152-.668-3.414,0,0,.067-1.69.533-1.679,1.477.034,5.961-.013,5.961-.013L9,.189ZM12.211.179c0,.051.809,2,.785,2,.876.006,1.792-.042,2.758,0V9.232l1.633.007,0-7.08,2.848-.005c.016-.952-.007-1.439,0-1.965-2.747-.011-5.13-.008-8.027-.01Z" transform="translate(12.022 2.247)" fill="#fff"/>
        </g>
      </g>
    </g>
  </g>
</svg>
